<svg xmlns="http://www.w3.org/2000/svg" xml:space="preserve" style="background:0 0" viewBox="0 0 1328 800"><path fill="#fca74f" d="M680.143 197.269c2.814.415 5.629.83 8.723 1.963-.011 2.343-.46 3.956-.568 5.592-.581 8.854-1.407 17.715-1.337 26.568.015 1.874 3.29 5.037 5.279 5.215 2.028.182 5.446-2.105 6.305-4.136 4.18-9.886 7.706-20.05 11.464-30.114 3.71 1.717 6.232.496 8.908-2.55 18.047-20.543 37.542-39.579 59.564-55.899 3.206-2.375 6.407-4.786 9.8-6.87 6.603-4.058 9.875-3.183 11.857 4.181 3.968 14.74 7.795 29.557 10.73 44.528 5.006 25.531 6.458 51.425 6.538 77.425.009 2.776 1.85 5.874 3.601 8.267 17.177 23.492 27.895 49.387 29.444 79.1-17.472 6.43-34.527 12.391-51.583 18.352l.293 2.031c1.26.263 2.567.885 3.77.725 4.757-.635 9.479-1.527 14.217-2.302 10.94-1.788 21.88-3.564 32.821-5.345-1.697 8.182-3.394 16.364-5.636 24.563-2.309-.385-4.053-.963-5.84-1.162-13.147-1.465-26.293-2.95-39.462-4.192-2.763-.26-6.094-.385-7.255 4.716l49.407 8.51c-3.219 6.066-6.437 12.132-10.285 18.273-13.074-6.192-25.52-12.46-37.965-18.73l-2.193 2.613c1.887.983 3.87 1.819 5.646 2.972 10.027 6.507 20.971 11.995 26.626 23.468-10.647 13.55-24.452 23.01-39.663 30.66-2.5 1.257-4.929 2.658-8.012 4.154-6.637 2.2-12.652 4.237-18.667 6.275 1.907.793 3.62.802 5.04.163 6.047-2.719 12.017-5.166 18.16-.3 8.311 9.15 17.328 17.762 24.79 27.56 16.678 21.893 24.492 46.969 23.132 74.523-.534 10.817-2.834 21.508-9.761 30.365-2.293 2.931-5.555 5.104-8.779 7.236-.405-1.934-.405-3.481-.405-6.042-1.465 1.818-2.266 2.807-3.063 3.8-3.347 4.176-9.299 7.039-12.55 5.433-4.504-2.223-4.182-6.732-4.162-10.895.006-1.484.374-2.967.375-4.45 0-.84-.41-1.68-1.028-3.984-3.617 7.404-2.313 13.712-1.555 20.255-7.012 2.52-13.355 1.232-18.758-3.203-5.128-4.208-6.079-10.003-4.176-16.325.537-1.782.684-3.68 1.01-5.526l-1.586-.199c-5.456 6.547-5.319 13.93-2.011 22.562-2.66-1.79-4.4-2.957-6.138-4.13-8.466-5.715-10.46-14.78-3.901-22.703 3.45-4.168 8.39-7.575 13.33-9.9 4.369-2.059 5.615-4.594 5.163-8.845-1.167-10.983-3.451-21.695-8.537-31.574-2.626-5.1-5.87-9.883-8.834-14.81l-1.475.867c.636 1.477 1.36 2.924 1.894 4.437 3.534 9.992 7.42 19.885 10.354 30.053 1.294 4.486 1.659 9.823.44 14.218-.662 2.393-5.517 3.635-8.495 5.371-15.741 9.178-16.032 28.453-.418 37.665 8.87 5.233 18.363 8.562 29.017 7.747-3.01 7.71-7.3 14.734-6.726 23.577-.104 4.776-.275 9.209.06 13.603.386 5.062 1.22 10.09 1.86 15.133.735 9.143 1.47 18.286 1.675 27.917-10.883.144-21.29-.808-31.74 2.557 10.1.957 19.712 1.605 29.249 2.831 14.706 1.891 22.508 12.847 19.835 27.28-1.39 7.508-6.9 11.214-18.092 12.171 3.81-17.078 2.278-25.711-4.867-26.64 3.252 8.62 6.255 17.791-1 25.247-5.104 5.245-12.713 4.08-19.477 3.258 1.17-5.517 2.86-10.444 3.119-15.445.367-7.1-2.138-11.076-6.317-12.227.79 2.574 1.747 5.041 2.3 7.595 3.11 14.39-4.045 21.51-18.137 18.132-.323-.077-.636-.202-.961-.267-10.263-2.051-15.44-8.656-17.523-18.624-4.65-22.244-9.617-44.423-14.172-66.88 3.057-1.512 5.832-2.77 8.608-4.028-17.223 1.904-34.095 5.646-51.84 3.492a91883 91883 0 0 0-41.037-8.493l-.326 1.19c4.4 1.886 8.721 3.989 13.224 5.581 3.173 1.123 3.854 2.551 3.104 5.91-4.695 21.048-9.165 42.147-13.597 63.252-2.131 10.148-7.663 16.863-18.239 18.454-4.576.688-9.248 1.105-13.87 1.055-8.023-.086-12.774-5.281-13.03-13.29-.18-5.688 2.24-9.946 6.7-13.65-2.853.514-5.782 1.212-6.98 3.042-5.058 7.732-4.44 15.961-.21 24.71-6.912.048-13.237-.223-17.718-4.99-7.072-7.525-4.49-16.172-1.95-24.733-7.183 7.798-7.797 16.682-3.314 26.453-11.379-1.954-16.939-9.824-15.036-20.198 2.089-11.385 11.592-20.02 23.22-20.524 8.12-.351 16.267-.067 24.402-.067l.1-1.703-27.052-2.106c.27-24.438.539-48.876.947-74.127-.53-12.756-1.579-24.694-1.76-36.645-.183-11.964.28-23.952.863-35.91.571-11.705 1.65-23.385 2.506-35.076l-1.492-.137c-.653 2.885-1.194 5.803-1.989 8.649-.969 3.47-2.406 6.497-6.868 6.429-24.024-.364-47.735-3.1-70.93-9.523-12.136-3.362-24.18-7.06-36.607-10.763-3.456-1.058-6.572-1.957-10.02-2.96-1.662-.464-2.995-.822-4.595-1.411-3.137-1.714-6.007-3.196-8.932-4.992-.021-.945.013-1.577.375-2.344 9.049-6.214 9.459-9.91 2.66-23.067 10.43-7.65 7.212-17.109 2.142-27.118 3.075 0 5.222-.268 7.268.07 2.372.394 5.567.596 6.807 2.153 3.644 4.575 6.496 9.78 9.749 14.88-9.656 10.6-11.208 24.285-2.651 26.485-1.562-16.976-1.562-16.976 5.164-23.69l8.666 3.401.97-1.488c-8.43-7.188-15.993-14.985-19.12-26.365.02-3.5.045-6.546.227-9.885 1.088-2.583 2.018-4.874 3.233-7.319 1.182-1.078 2.079-2.003 3.32-3.045 7.234-2.517 9.821-1.69 13.654 4.491 1.916 3.09 3.541 6.358 5.318 9.877.657 1.699 1.294 3.067 1.998 4.78 1.364 2.51 2.66 4.676 4.031 7.17 3.259 2.745 6.443 5.162 9.875 7.852 3.572 1.686 6.898 3.1 10.22 4.544-.004.029.047.001.135.14.088.14.343.333.343.333s.32-.01.684.157c2.852.879 5.341 1.591 8.107 2.547 1.742.48 3.209.718 4.983 1.181 3.447.716 6.584 1.205 10.036 1.914 3.44.556 6.567.892 10.106 1.355 2.138.163 3.864.199 5.962.297 1.123.042 1.875.022 3.092.052 6.15-.074 11.835-.2 17.915-.256 7.367-1.969 14.224-1.559 20.943 1.895l.43-2.241c-6.272-1.576-12.546-3.153-18.85-4.896-.03-.168.095-.485.095-.485-5.836-3.126-11.728-6.154-17.498-9.398-14.52-8.166-27.043-18.705-37.14-32.377 10.655-6.653 21.129-12.787 31.603-18.92l-.681-1.658c-4.262 1.4-8.642 2.52-12.76 4.26-7.584 3.203-15.015 6.77-22.51 10.186-3.345-5.752-6.689-11.505-9.666-17.667a1522 1522 0 0 1 44.648-9.289c2.69-.519 4.451-1.115 3.125-5.608l-50.939 6.509c-1.677-7.08-3.353-14.159-4.561-21.679 13.905 1.459 27.334 3.415 40.787 5.195 1.987.263 4.084-.306 6.13-.49l-.059-1.731-47.487-17.317c-.43-17.533 4.191-34.039 11.647-49.568 5.153-10.733 12.164-20.567 18.17-30.904 1.187-2.042 2.183-4.529 2.245-6.837.84-31.142 3.531-62.088 9.95-92.608 2.151-10.228 4.917-20.343 7.807-30.393 1.813-6.305 5.661-7.876 10.897-4.018 11.237 8.28 22.638 16.496 32.889 25.917 13.203 12.135 25.441 25.333 37.868 38.29 2.566 2.677 4.74 3.161 8.159 1.722 3.148 9.719 5.612 19.196 8.759 28.44.71 2.088 3.903 4.79 5.767 4.655 2.31-.167 5.073-2.594 6.439-4.792 1.287-2.07 1.402-5.117 1.357-7.723-.14-8.122-.6-16.238-.936-24.357 3.682-.56 7.363-1.121 11.49-1.214 1.506 13.174 2.474 25.89 3.68 38.582.402 4.228 2.242 7.81 7.107 8.307 4.977.508 7.36-2.814 8.287-6.927 3.021-13.393 5.738-26.856 8.571-40.292M664.37 381.11c8.886-1.878 15.382-6.56 18.771-15.308 2.57-6.63.896-11.503-5.958-12.395-8.67-1.13-17.524-.983-26.301-1.084-2.05-.024-4.176 1.019-6.16 1.831-4.268 1.748-5.475 4.841-4.082 9.278 3.06 9.75 10.482 14.547 19.4 18.365-3.11 9.536-10.322 13.99-19.689 15.207-8.998 1.17-15.04-2.816-17.366-11.843-4.496.657-3.752 3.384-2.83 5.947 2.856 7.944 11.84 12.107 21.997 10.567 8.352-1.267 14.549-5.95 19.687-12.217 1.5 1.426 2.708 2.543 3.883 3.693 7.236 7.082 15.76 10.357 25.919 8.734 7.141-1.142 12.804-6.336 13.227-12.368.088-1.253-.808-2.574-1.25-3.864-.916.884-2.262 1.602-2.676 2.68-1.982 5.156-5.639 8.007-11.002 9.017-10.414 1.962-21.454-4.73-25.57-16.24m77.36-3.113c13.306 2.695 25.66 1.208 36.842-7.35 15.442-11.817 20.068-34.495 10.07-51.094-10.83-17.982-33.926-26.177-51.353-18.223-16.21 7.4-26.142 22.902-25.082 40.178.907 14.772 9.85 30.77 29.523 36.49m-153.214-1.827c16.196-6.492 27.152-24.638 24.714-42.527-2.882-21.156-24.245-38.52-44.64-35.2-24.61 4.007-40.922 26.156-35.93 48.787 5.426 24.591 30.103 37.687 55.856 28.94m187.816-143.038 18.541 13.756c.857-26.766-1.2-52.348-5.538-79.092-16.714 14.876-29.955 30.983-42.84 47.633a8951 8951 0 0 0 29.837 17.703m-230.79 4.879 37.097-22.468c-19.225-24.583-35.209-42.212-42.36-44.409-3.663 24.96-7.173 49.801-6.137 76.065 4.188-3.355 7.529-6.03 11.4-9.188m64.356 42.78c-2.22-8.045-9.513-8.743-15.794-10.913-3.599-1.243-6.301-.235-7.46 3.44-1.07 3.396-.054 6.14 3.416 7.723 3.757 1.713 7.5 3.463 11.193 5.307 5.352 2.672 7.548 1.495 8.645-5.556m114.036-5.524c-7.557 2.337-8.62 8.258-6.931 12.077.447 1.011 2.063 2.538 2.545 2.344 6.555-2.639 13.18-5.222 19.336-8.632 1.289-.713 1.246-4.807.791-7.143-.152-.78-3.575-1.482-5.381-1.255-3.252.41-6.412 1.547-10.36 2.609M579.257 468.546l-1.587-.264c.398.199.796.398 1.587.264"/><path fill="#8cbcdd" d="M804.192 718.949c19.629 1.41 38.901 4.661 57.55 11.134.158.055.354.068.466.171 2.484 2.286 4.96 4.582 7.437 6.876-2.507 2.209-4.686 5.651-7.574 6.415-13.456 3.561-26.965 7.668-40.72 9.2-29.201 3.254-58.563 5.08-87.868 7.372-6.959.544-13.952.748-20.934.883-18.31.354-36.634 1.098-54.934.74-25.94-.506-51.936-.974-77.774-3.098-26.434-2.174-52.736-6.108-79.026-9.77-6.32-.881-12.473-3.46-18.476-5.83-2.14-.846-5.273-3.694-5.017-5.091.443-2.429 2.739-5.505 5.02-6.427 6.737-2.724 13.745-4.983 20.838-6.577 9.215-2.07 18.612-3.325 28.443-4.529.72 14.555 7.966 21.397 20.536 23.05 15.258 2.005 30.831 2.465 46.244 2.194 14.812-.26 23.443-8.455 26.946-22.918.704-2.907 1.303-5.839 2.375-8.808 3.895-.298 7.364-.756 10.834-.761 24.1-.038 48.199.018 72.407.431.635 3.164 1.1 5.953 1.696 8.715 3.07 14.246 9.061 20.256 23.434 22.77 14.683 2.57 29.381 2.305 44.202.422 15.903-2.02 24.457-7.702 23.895-26.564"/><path fill="#0b69c5" d="M1096.96 293.029s.155.33.147.921c.294 2.744.596 4.896.58 7.208-1.593 3.257-2.193 6.958-4.297 9.316-3.717 4.166-2.352 7.44-.171 11.511 3.842 7.176 1.095 12.482-6.44 13.27.015-.042.101-.055.03-.32-.364-.467-.655-.671-.904-.881.043-.006.035.08-.061-.171-.39-.443-.684-.634-.933-.835.044-.01.048.08-.109-.195a3.55 3.55 0 0 0-1.456-.744c-.147.014-.35-.202-.489-.409-.44-.333-.742-.46-.982-.6.062-.014.06.113-.13-.235-2.395-.854-4.598-1.797-6.802-1.802-36.267-.091-72.535.008-108.801-.15-4.772-.02-6.97 1.299-6.045 6.203-.022-.039.068-.044-.19.048-.453.39-.649.689-.827.954.019-.033.063.028-.253.186-2.354 2.352-4.392 4.546-6.248 6.544-1.702-2.307-2.64-3.579-3.58-5.287-.003-2.476-.004-4.515-.002-6.955.001-1.472 0-2.542-.003-4.081-.039-10.87-.078-21.27-.118-31.67 0 0 .035.1.279-.04.417-.73.59-1.322.764-1.913 0 0 .072.057.278-.046.374-.413.543-.724.71-1.035 0 0-.006.108.352.119 8.02-3.07 15.984-3.974 24.44-3.258.787 4.257 1.408 8.637 2.482 12.903.406 1.611 1.858 2.959 2.933 4.65.292.497.545.695.975 1.022.318.464.575.642 1.035 1.024 1.753.127 3.358-.032 5.249-.244.729-.382 1.173-.71 1.964-1.232.785-4.196 1.835-8.25 1.506-12.188-.399-4.764 1.928-6.488 5.787-6.467 15.196.081 30.39.515 45.587.614 1.915.013 3.838-1.186 5.758-1.823 0 0 .02.06.362.02 4.33-1.506 5.83.13 5.692 4.104-.115 3.286-.285 6.61.092 9.856.198 1.712 1.515 3.294 2.596 5.163a56 56 0 0 0 6.665 1.883c.753-.68 1.197-1.305 1.632-1.94-.01-.01.019-.005.359-.21.768-5.157 1.142-10.113 1.649-15.056.222-2.166.714-4.304 1.084-6.454l5.023 2.62s-.093.044.163.32c4.786.421 9.314.567 13.843.713 0 0 .444.01.886.31 1.335.432 2.229.564 3.122.697 0 0 .417.029.665.43 1.55 1.479 2.85 2.555 4.152 3.632"/><path fill="#fca750" d="M841.153 508.841c-1.277-24.742 4.675-47.253 21.25-66.167 10.08-11.503 22.252-19.584 38.317-19.48 11.193.074 19.563 5.178 24.143 15.44 4.464 10 1.143 19.023-6.228 25.867-14.04 13.036-21.166 29.104-24.111 48.089-5.97 1.055-11.38 1.864-16.819 2.35-12.694 1.136-24.636-2.451-36.552-6.099"/><path fill="#054a90" d="M381.184 135.927c6.363 5.868 12.727 11.737 19.165 18.024.304.61.532.802.761.993 0 0-.088.02-.084.377a991 991 0 0 0 8.624 20.818c.968 2.267 2.95 4.454 2.99 6.704.219 12.023.65 24.109-.312 36.066-.924 11.467-3.462 22.803-5.29 34.196 0 0-.036.473-.37 1.007-.78 4.943-.604 9.535-1.843 13.708-1.271 4.283-3.925 8.155-6.219 11.875-.372-1.981-.518-3.63-.622-5.282-1.193-18.964 2.846-37.308 6.715-55.655 2.996-14.205 3.82-28.277-1.658-42.117-4.98-12.582-11.76-23.775-23.974-30.756-.039.007.03.041-.066-.196-.386-.406-.676-.576-.983-.718-.017.028.038-.007-.057-.245-.376-.417-.658-.597-1.12-1.064-16.664-10.436-34.546-14.283-53.62-11.227-12.016 1.925-22.712 6.979-31.902 15.344-12.79 11.645-20.393 25.974-24.315 42.648-6.869 29.202-16.07 57.408-36.704 80.687-2.282 2.35-4.312 4.53-6.681 6.798-10.434 7.596-20.777 14.802-30.49 22.777-3.552 2.916-6.22 7.368-8.216 11.624-4.113 8.769-2.698 11.188 6.473 13.377.804.192 1.636.265 2.445.442 13.077 2.853 26.153 5.715 39.04 8.885-4.807 1.744-8.158 6.045-14.268 4.223-8.487-2.531-17.44-3.487-26.168-5.244-1.153-.232-2.566-.957-3.153-1.896-2.101-3.363-4.162-6.279-8.654-6.933-3.92-.571-5.65-3.656-4.485-7.414 1.307-4.22 3.177-8.28 5.002-12.319 1.456-3.22 3.213-6.303 4.837-9.447 0 0 .018.013.232-.102.49-.316.676-.58.774-.908.184-.279.367-.558 1.168-.91 1.667-1.11 2.718-2.15 3.77-3.189 0 0 .038.092.33.055.647-.504 1-.97 1.355-1.435 0 0 .104.11.367.136.826-.6 1.39-1.226 1.953-1.851 8.354-6.826 17.032-13.296 24.993-20.552 15.625-14.24 23.893-32.921 30.057-52.63 3.37-10.772 5.865-21.82 9.3-32.568 10.85-33.963 33.144-54.903 69.933-60.03 1.747-3.132 2.737-6.102 3.726-9.073 0 0 .058.058.262-.076.353-.454.502-.774.652-1.095 0 0 .026.127.276.052.767-.706 1.283-1.338 1.8-1.97 0 0 .022.087.415.107a892 892 0 0 0 12.175-1.085s.213-.177.484.231c1.404.859 2.638 1.843 3.65 1.653 2.462-.464 7.53-.643 8.56.175 0 0 .443.038.87.398 3.614 1.45 6.8 2.54 9.987 3.631 0 0-.057.052-.024.368 1.04 1.081 2.047 1.847 3.054 2.612 0 0-.09.055-.074.441.334 4.153.457 7.952 1.056 11.674.267 1.656 1.49 3.158 2.28 4.73 0 0-.208-.007-.094.23.714.464 1.315.692 1.915.92m-16.806-7.873 6.12 1.393c.601-6.358-.644-8.146-6.298-9.563-1.284-.322-2.552-.73-3.85-.963a1457 1457 0 0 0-17.083-2.975c-3.257-.545-4.761 1.646-4.89 4.217-.045.887 2.43 2.385 3.966 2.783 7.037 1.822 14.149 3.354 22.035 5.108"/><path fill="#0b65bc" d="m949 337.998 3.579 4.85c1.856-1.998 3.894-4.192 6.22-6.128-.033 2.89-.621 5.52-.631 8.152-.078 20.143-.07 40.286-.033 60.429.019 10.01 4.692 14.716 14.66 14.723 33.46.021 66.921-.072 100.382.052 4.75.018 8.842-.998 12.706-4.24.582-.692.848-1.273 1.118-1.845.004.008-.014.009.36-.058 1.13-2.481 2.518-4.89 2.539-7.31q.264-31.138.008-62.276c-.02-2.44-1.394-4.87-2.375-7.431-.412-.625-.59-1.123-.769-1.62 7.55-.83 10.297-6.135 6.455-13.31-2.181-4.073-3.546-7.346.171-11.512 2.104-2.358 2.704-6.059 4.588-9.017.414 7.07.068 14.003.053 20.936-.062 29.48-.048 58.96.02 88.441.004 2.102.659 4.202 1.011 6.302-.01.416-.021.832-.336 1.83-.4 1.892-.495 3.201-.59 4.511 0 0 .026.31-.306.547-.467.54-.6.844-.735 1.147 0 0-.023-.102-.236.01-.347.457-.48.8-.613 1.144 0 0-.05-.12-.272-.076-.451.33-.68.617-.91.903 0 0-.01-.097-.216.001-.4.391-.595.684-.79.977 0 0-.009-.084-.22.022-.393.412-.572.718-.752 1.024 0 0-.013-.097-.404-.11-9.928.305-19.463.834-29.001.895-21.485.137-42.972.014-64.458.053-14.486.026-28.971.146-43.457.225 0 0 .125-.013.002-.277-.729-.453-1.334-.643-1.939-.833 0 0 .09-.033-.011-.253-.432-.381-.763-.542-1.093-.703 0 0 .16-.02.054-.249-.67-.456-1.235-.685-1.8-.913 0 0 .024-.007-.021-.387-1.016-7.368-2.786-14.352-2.807-21.342-.065-22.427.517-44.856.849-67.284"/><path fill="#fca650" d="M888.059 603.185c-3.027 11.164-9.428 20.493-16.443 29.379-3.48 4.41-7.77 8.18-12.34 12.139-2.365-8.748-4.43-17.328-10.447-24.138-4.165-4.713-8.863-8.95-13.225-13.495-1.076-1.122-1.769-2.613-2.638-3.934 3.097-7.231 6.195-14.463 9.878-21.802 7.82 4.104 14.857 8.72 22.35 12.41 7.38 3.635 15.224 6.333 22.865 9.441m-43.261-41.972c-.534-9.453-1.067-18.905-1.214-28.73 16.704 6.032 33.452 8.593 50.858 5.28.19 10.43.38 20.858.038 31.714-6.673.251-12.977.902-18.916-.281-10.374-2.067-20.523-5.261-30.766-7.983"/><path fill="#b04914" d="M627.3 713.985c-.648 2.92-1.247 5.852-1.951 8.759-3.503 14.463-12.134 22.658-26.946 22.918-15.413.271-30.986-.189-46.244-2.194-12.57-1.653-19.817-8.495-20.104-23.074.693-3.111 1.229-5.892 2.28-8.463 4.204-10.29 12.222-15.73 23.301-17.718 9.37.553 18.387 1.255 27.404 1.957l-.1 1.703c-8.135 0-16.282-.284-24.401.067-11.629.504-21.132 9.139-23.22 20.524-1.904 10.374 3.656 18.244 15.035 20.198-4.483-9.77-3.869-18.655 3.315-26.453-2.541 8.56-5.123 17.208 1.95 24.733 4.48 4.767 10.805 5.038 17.718 4.99-4.23-8.749-4.85-16.978.21-24.71 1.197-1.83 4.126-2.528 6.979-3.042-4.46 3.704-6.88 7.962-6.7 13.65.256 8.009 5.007 13.204 13.03 13.29 4.622.05 9.294-.367 13.87-1.055 10.576-1.591 16.108-8.306 18.239-18.454 4.432-21.105 8.902-42.204 13.597-63.252.75-3.359.07-4.787-3.104-5.91-4.503-1.592-8.825-3.695-13.224-5.58l.326-1.19c13.542 2.8 27.084 5.6 40.925 8.844-2.632 1.06-5.563 1.675-8.867 2.359-1.129.01-1.884-.049-2.793-.288-.42-.383-.719-.472-.976-.465.076-.015.066.14-.085-.193-2.343-.596-4.534-.86-7.07-.934-1.652 5.488-3.162 10.746-4.22 16.093-2.829 14.276-5.464 28.59-8.175 42.89"/><path fill="#05478b" d="M398.85 280.026c2.05-4.051 4.704-7.923 5.975-12.206 1.239-4.173 1.063-8.765 1.769-13.483.384 1.664.728 3.65.596 5.606-1.408 20.916 2.619 40.533 12.803 59.028 5.743 10.43 11.414 21.114 15.194 32.33 2.195 6.513 1.513 14.452.436 21.49-1.236 8.077-7.64 11.32-15.63 9.655-10.397-2.165-20.803-4.293-31.599-6.824-.392-.8-.392-1.21-.01-1.623 1.214-.878 2.489-1.635 2.766-2.66.362-1.342-.064-2.897.19-4.373.791.059 1.24.13 1.77.336.081.133.49.247.49.247s.346-.283.643-.278c.49.058.681.111 1.011.3.364.294.614.377 1.3.37 7.693 1.599 14.966 3.254 22.259 4.816 6.914 1.48 8.398.674 8.995-6.198.367-4.23.753-9.063-.867-12.747-5.194-11.817-11.317-23.225-17.169-35.129-1.646-3.785-3.205-7.232-4.8-11.055-2.063-9.451-4.092-18.526-6.121-27.602"/><path fill="#ae4813" d="M804.048 718.596c.706 19.215-7.848 24.896-23.75 26.917-14.822 1.883-29.52 2.147-44.203-.421-14.373-2.515-20.364-8.525-23.434-22.771-.595-2.762-1.061-5.551-1.662-9.144-1.255-7.164-2.281-13.545-3.647-19.852-2.695-12.446-5.578-24.85-8.183-37.534 1.26-.452 2.319-.642 3.378-.832 4.837 22.205 9.804 44.384 14.454 66.628 2.084 9.968 7.26 16.573 17.523 18.624.325.065.638.19.961.267 14.092 3.378 21.248-3.741 18.136-18.132-.552-2.554-1.509-5.02-2.3-7.595 4.18 1.15 6.685 5.127 6.318 12.227-.259 5-1.95 9.928-3.119 15.445 6.764.821 14.373 1.987 19.477-3.258 7.255-7.456 4.252-16.626 1-25.247 7.145.929 8.678 9.562 4.867 26.64 11.192-.957 16.702-4.663 18.092-12.17 2.673-14.434-5.129-25.39-19.835-27.28-9.537-1.227-19.149-1.875-29.25-2.832 10.452-3.365 20.858-2.413 31.688-2.089 9.283 2.287 16.766 6.42 20.803 15.093 1.039 2.232 1.705 4.637 2.686 7.316"/><path fill="#b74912" d="M844.69 561.653c10.351 2.282 20.5 5.476 30.874 7.543 5.939 1.183 12.243.532 18.84.713.163 11.268-1.499 22.268-6.086 33.016-7.9-2.848-15.743-5.546-23.125-9.181-7.492-3.69-14.528-8.306-22.089-12.648.277-6.422.878-12.713 1.587-19.443m-12.041 41.571c1.185 1.233 1.878 2.724 2.954 3.846 4.362 4.545 9.06 8.782 13.225 13.495 6.017 6.81 8.082 15.39 10.14 24.24-7.904 5.537-16.147 10.873-24.799 15.842-2.158-16.16-7.961-30.316-17.58-42.934 5.249-4.801 10.497-9.602 16.06-14.49"/><path fill="#fba34d" d="M816.23 617.746c9.979 12.585 15.782 26.742 17.569 42.947-10.406 5.248-21.392 7.55-33.33 6.97 2.718-14.42 3.354-28.212-2.476-41.945 1.01-.599 1.903-.913 2.796-1.228 5.027-2.237 10.055-4.474 15.442-6.744"/><path fill="#b74912" d="M894.544 537.335c-17.508 3.741-34.256 1.18-50.919-5.28-1.09-7.468-1.835-14.882-2.526-22.755 11.97 3.189 23.912 6.776 36.606 5.64 5.439-.486 10.849-1.295 16.686-1.964.36 7.973.307 15.952.153 24.36"/><path fill="#1f94e0" d="M996.076 218.849c.437 7.125-3.75 12.873-10.436 14.08-2.113.381-4.305.448-6.46.449-25.63.01-51.261-.001-76.891-.047-9.794-.017-14.984-4.8-15.014-14.592-.085-27.294.064-54.588.254-81.882.015-2.233 1.036-4.459 1.966-6.829.377-.141.57.023.493.431-.38 2.694-.943 4.98-.949 7.266-.061 26.825-.043 53.65-.037 80.475.002 10.914 9.345 16.596 19.31 11.793-3.068-1.03-6.159-2.07-8.785-3.097 27.584.051 54.703.132 81.822.102 5.812-.007 8.76-3.001 8.78-9.114.057-16.968-.102-33.937.12-50.656a249 249 0 0 1 1.71 16.891c.14 2.12.014 4.13 3.03 4.34.007 11.08.007 21.691.007 32.302l.71.001z"/><path fill="#ab4818" d="M442.999 507.119c12.086 3.546 24.13 7.243 36.267 10.605 23.194 6.424 46.905 9.159 70.929 9.523 4.462.068 5.9-2.96 6.868-6.43.795-2.845 1.336-5.763 1.989-8.648q.746.067 1.492.137c-.856 11.69-1.935 23.37-2.506 35.076-.583 11.958-1.046 23.946-.864 35.91.182 11.95 1.23 23.889 1.845 36.302-1.713-8.233-4.52-16.897-4.797-25.642-.602-18.93.091-37.899.252-56.852.012-1.448.002-2.895.002-4.457-10.82-.852-21.419-1.507-31.978-2.558-22.466-2.236-44.211-7.35-65.253-15.764-6.337-2.534-13.615-2.609-20.283-4.457-5.408-1.499-10.547-3.967-15.944-6.367-.138-.363.024-.555.4-.53 2.55-.032 4.721-.089 6.893-.146 1.332.358 2.665.716 4.199 1.477 1.287 4.71 7.058 6.066 10.489 2.82"/><path fill="#b84c14" d="M679.67 197.143c-2.36 13.562-5.077 27.025-8.098 40.418-.927 4.113-3.31 7.435-8.287 6.927-4.865-.497-6.705-4.079-7.107-8.307-1.206-12.692-2.174-25.408-3.26-38.563 8.743-.499 17.511-.55 26.753-.475"/><path fill="#b1490d" d="M783.66 615.15c-10.571 1.154-20.065-2.175-28.934-7.408-15.614-9.212-15.323-28.487.418-37.665 2.978-1.736 7.833-2.978 8.496-5.37 1.218-4.396.853-9.733-.441-14.22-2.934-10.167-6.82-20.06-10.354-30.052-.535-1.513-1.258-2.96-1.894-4.437l1.475-.867c2.964 4.927 6.208 9.71 8.834 14.81 5.086 9.879 7.37 20.591 8.537 31.574.452 4.25-.794 6.786-5.164 8.844-4.939 2.326-9.878 5.733-13.33 9.901-6.557 7.922-4.564 16.988 3.902 22.703 1.738 1.173 3.478 2.34 6.138 4.13-3.308-8.632-3.445-16.015 2.011-22.562l1.585.199c-.325 1.845-.472 3.744-1.009 5.526-1.903 6.322-.952 12.117 4.176 16.325 5.403 4.435 11.746 5.722 18.758 3.203-.758-6.543-2.062-12.85 1.555-20.255.618 2.305 1.028 3.144 1.028 3.983 0 1.484-.369 2.967-.375 4.45-.02 4.164-.342 8.673 4.161 10.896 3.252 1.606 9.204-1.257 12.551-5.433.797-.993 1.598-1.982 3.063-3.8 0 2.561 0 4.108.048 6.06-2.101 1.984-4.251 3.563-7.1 5.222-2.73.819-4.763 1.557-6.795 2.296-.469.159-.937.318-2.072.23-3.533.408-6.4 1.062-9.268 1.717"/><path fill="#064487" d="M330.094 378.086c-.102 6.292-3.514 10.55-8.855 13.102-10.158 4.853-37.712 3.285-48.929-8.333-5.797-6.003-8.386-12.56-6.664-20.786.714-3.415 1.165-6.886 1.588-10.738-.148-.407-.165-.4.194-.3 1.522 3.701 4.16 4.552 7.56 4.379-.248 1.37-.52 2.323-.722 3.291-1.973 9.505.123 16.44 7.107 19.773 12.002 5.728 24.443 9.24 37.814 3.782 2.264 2.117 3.832 1.356 5.58-.427 1.493-1.523 3.415-2.625 5.192-3.87z"/><path fill="#1694ed" d="M240.699 86.283c-6.108-5.899-11.947-11.567-17.81-17.21-2.822-2.717-3.61-5.71-.656-8.665 2.878-2.882 5.456-1.696 8.114.897a4254 4254 0 0 0 39.821 38.367c2.863 2.721 2.505 5.045.212 7.683-2.445 2.813-4.953 2.245-7.325.025-7.398-6.918-14.736-13.9-22.356-21.097"/><path fill="#1a95e8" d="M454.552 93.538c-6.292 5.738-12.328 11.228-18.343 16.742-2.753 2.523-5.62 3.851-8.6.497-3.036-3.42-1.092-6.02 1.612-8.498 13.38-12.267 26.765-24.527 40.053-36.893 2.585-2.406 4.904-3.403 7.7-.59 2.75 2.768 2.76 5.637-.06 8.258-7.316 6.802-14.726 13.504-22.362 20.484"/><path fill="#b74912" d="M797.875 626.003c5.948 13.448 5.312 27.24 2.14 41.565-5.706.405-11.4.408-17.357.005 3.987-13.491 2.449-27.06 3.52-40.497 4.193-.39 7.945-.731 11.697-1.073"/><path fill="#1a95e8" d="M482.612 115.779c4.959-1.607 9.56-3.02 14.097-4.62 3.539-1.247 6.013-.105 7.075 3.286 1.015 3.243.068 5.843-3.63 6.946-16.204 4.835-32.388 9.733-48.58 14.608-3.172.955-5.624.298-6.662-3.157-1.098-3.652.754-5.81 3.997-6.818 11.085-3.446 22.21-6.765 33.703-10.245"/><path fill="#b54b13" d="M709.626 202.219c-3.375 10.203-6.901 20.366-11.081 30.252-.859 2.031-4.277 4.318-6.305 4.136-1.988-.178-5.264-3.341-5.279-5.215-.07-8.853.756-17.714 1.337-26.568.107-1.636.557-3.25.818-5.29 6.689.57 13.408 1.558 20.51 2.685"/><path fill="#1a95e8" d="M248.15 120.634c3.867 1.97 3.63 4.843 2.308 7.818-1.422 3.195-3.979 2.776-6.777 1.981-13.743-3.905-27.55-7.595-41.245-11.658-2.053-.609-4.662-2.468-5.24-4.306-1.452-4.626 2.372-8.016 7.069-6.668 14.53 4.17 29.03 8.444 43.885 12.833"/><path fill="#b54b13" d="M640.664 198.729c.68 8.203 1.14 16.319 1.28 24.44.045 2.607-.07 5.653-1.357 7.724-1.366 2.198-4.13 4.625-6.439 4.792-1.864.135-5.056-2.567-5.767-4.655-3.147-9.244-5.611-18.721-8.424-28.475 5.703-1.467 11.508-2.575 17.948-3.659.635.023 1.001-.161 1.001-.161.471-.03.942-.06 1.758-.006"/><path fill="#1a95e8" d="M427.78 48.991c-5.522 14.635-10.932 28.913-16.284 43.212-1.215 3.247-2.908 6.033-6.847 4.646-4.05-1.426-4.014-4.552-2.635-8.179 5.368-14.115 10.583-28.288 15.849-42.441 1.092-2.936 2.354-5.854 6.277-4.857 3.759.955 4.986 3.563 3.64 7.62M278.898 66.22c-2.388-6.781-4.624-13.204-6.918-19.607-1.232-3.435-.288-5.86 3.17-7.143 3.89-1.445 5.358.924 6.5 4.074a7356 7356 0 0 0 15.403 42.06c1.236 3.346.636 5.936-2.789 7.352-3.52 1.457-5.632-.069-6.855-3.48-2.742-7.648-5.582-15.261-8.51-23.256"/><path fill="#1362ae" d="M1048.508 286.949c-1.453.63-3.376 1.828-5.291 1.815-15.197-.099-30.391-.533-45.587-.614-3.859-.02-6.186 1.703-5.787 6.467.329 3.938-.72 7.992-1.596 12.098-.436.105-.617-.072-.49-.501.19-8.027.2-15.625.347-23.22.06-3.07-.892-5.474-4.195-5.496-3.323-.022-4.926 2.036-4.86 5.515.143 7.603.11 15.21.102 22.86-.048.044-.137.139-.137.139-.975-1.468-2.427-2.816-2.833-4.427-1.074-4.266-1.695-8.646-2.482-12.903-8.456-.716-16.42.189-24.482 3.223 2.07-4.084 6.141-4.783 10.322-4.993 3.625-.182 7.266-.038 11.214-.038.876-5.547-1.137-12.019 4.542-15.613 2.37-1.5 5.564-2.289 8.405-2.348 8.337-.174 10.214 2.651 12.65 18.044 16.497 0 33.094 0 50.158-.008"/><path fill="#064487" d="M185.678 296.127c-1.32 3.004-3.077 6.087-4.533 9.307-1.825 4.039-3.695 8.1-5.002 12.319-1.164 3.758.565 6.843 4.485 7.414 4.492.654 6.553 3.57 8.654 6.933.587.939 2 1.664 3.153 1.896 8.728 1.757 17.68 2.713 26.168 5.244 6.11 1.822 9.46-2.479 14.642-4.176 1.309-.138 2.053-.013 3.004.334.799.315 1.391.407 2.37.487 2.385.379 4.382.77 6.385 1.53 1.06 2.135 1.694 4.657 3.248 5.518 3.79 2.098 8.015 3.408 12.049 5.073 2.272.937 4.513 1.948 6.768 2.926 0 0 .017-.008.027-.018-21.933-4.443-43.883-8.838-65.812-13.334-6.006-1.232-11.994-2.605-17.91-4.208-7.37-1.998-10.485-7.121-9.065-14.63 1.606-8.495 5.198-16.056 11.37-22.615m51.889 47.516.082-3.18-3.021.693c.762.759 1.523 1.518 2.939 2.487"/><path fill="#b54b13" d="M850.193 363.656c-11.164 2.125-22.106 3.9-33.045 5.69-4.738.774-9.46 1.666-14.217 2.3-1.203.161-2.51-.461-3.77-.724l-.293-2.03c17.056-5.962 34.11-11.923 51.537-17.926.252 4.087.132 8.216-.212 12.69m-370.529-12.401c16.155 5.506 31.984 11.279 47.813 17.05l.06 1.731c-2.047.185-4.144.754-6.131.491-13.453-1.78-26.882-3.736-40.75-5.62-.726-4.45-1.022-8.918-.992-13.652m361.825 44.974c-16.676-2.613-33.045-5.433-49.713-8.304 1.161-5.101 4.492-4.976 7.255-4.716 13.169 1.242 26.315 2.727 39.463 4.192 1.786.2 3.53.777 5.614 1.443-.558 2.569-1.436 4.873-2.62 7.385"/><path fill="#ab4818" d="M468.824 439.069c-.637-1.368-1.274-2.736-1.866-4.82-.492-3.626-.859-6.58-1.623-9.428-.531-1.983-1.608-3.82-2.398-5.763l.13-.124c4.004 7.754 7.897 15.57 12.07 23.232 1.556 2.856 3.77 5.354 5.721 8.392.159.331.28.286.402.24 22.014 9.88 45.212 12.519 69.038 11.248 1.973-.105 3.929-.546 6.296-.952.404-.121.278.196.21.649-.985 1.93-1.903 3.41-2.82 4.887-5.684.126-11.369.252-17.574.008-1.484-.18-2.446.012-3.409.204-1.726-.036-3.452-.072-5.67-.548-4.477-4.148-7.545-4.404-10.34-1.262-3.138-.49-6.275-.978-9.758-2.047-1.817-2.27-3.2-4.842-5.224-1.071-2.489-.713-4.978-1.425-7.935-2.403-.633-.385-.814-.473-1.01-.53 0 0-.05.028-.112-.344-3.509-1.738-6.955-3.106-10.402-4.474-3.185-2.417-6.37-4.834-9.468-7.927 1.28-4.609.35-7.12-4.258-7.167"/><path fill="#1362ae" d="M1074.034 286.487c-1.58-.433-3.254-1.307-4.928-2.18-.37 2.15-.862 4.288-1.084 6.454-.507 4.943-.881 9.9-1.598 14.586a458 458 0 0 1-.416-23.206c.024-3.368-2.095-4.724-4.7-4.348-1.547.224-3.975 2.339-4.018 3.668-.264 8.121.042 16.261.158 24.395-.812-1.64-2.129-3.223-2.327-4.935-.377-3.246-.207-6.57-.092-9.856.138-3.974-1.361-5.61-5.72-4.118-.174-2.936-.17-5.924.258-8.85.908-6.22 4.92-9.216 11.973-9.222 6.899-.005 11.115 3.186 11.943 9.271.355 2.606.316 5.266.55 8.341"/><path fill="#b1490d" d="M485.147 387.377c17.042-2.54 34.05-4.713 50.972-6.875 1.326 4.493-.435 5.089-3.125 5.608-14.781 2.853-29.525 5.9-44.677 8.923-1.332-2.401-2.268-4.846-3.17-7.656"/><path fill="#0f87e0" d="M910.052 122.18c-.013-.829-.088-1.663-.028-2.486.285-3.869 1.872-7.14 6.084-7.137 4.25.004 5.782 3.256 5.929 7.186.03.824.151 1.643.293 3.117 12.892 0 25.77 0 39.145.254.511.458.526.662.086.874-12.673.007-24.892.007-36.802.007l-1.155 9.209c1.069.709 2.092 1.388 2.669 2.07-8.398-.023-16.347-.047-24.055-.392 2.473-.632 4.704-.942 7.77-1.37 0-3.079 0-6.295.014-9.814.026-.709.038-1.113.05-1.518"/><path fill="#0e79d2" d="M962.016 123.98c-.015-.204-.03-.408-.082-.918-.036-.306.016-.773.388-1.269.407-2.1.442-3.705.477-5.31 2.92-5.385 6.377-5.363 10.103.833.05 2.74.089 4.71.117 7.139-.004 3.83.004 7.203 0 11.003-.057 8.246-.37 8.563-8.014 8.522-.01.011.019.013-.074-.225a3.4 3.4 0 0 0-.936-.768c-.002.02.037.016-.073-.23-.384-.475-.657-.704-.917-1.39-.32-6.1-.655-11.743-.989-17.386"/><path fill="#ec8437" d="M785.738 627.125c-.631 13.388.907 26.957-3.525 40.358-.953.343-1.726.371-2.887.36-1.029-5.084-1.863-10.112-2.25-15.174-.334-4.394-.163-8.827.177-13.83 1.677-4.613 2.96-8.637 4.3-12.84z"/><path fill="#1362ae" d="M956.023 430.54c14.229-.38 28.714-.5 43.2-.526 21.486-.039 42.973.084 64.458-.053 9.538-.061 19.073-.59 29.043-.871-2.802.99-6.035 2.76-9.277 2.777-40.29.207-80.58.178-120.87.128-2.1-.003-4.199-.751-6.554-1.454"/><path fill="#b54b13" d="M823.32 424.896c-5.963-11.338-16.907-16.826-26.934-23.333-1.776-1.153-3.759-1.99-5.646-2.972l2.193-2.612c12.446 6.268 24.891 12.537 37.67 18.892-2.102 3.354-4.54 6.622-7.284 10.025"/><path fill="#064487" d="M362.185 110.537c-1-.433-6.069-.254-8.53.21-1.013.19-2.247-.794-3.534-1.579 1.3-.335 2.753-.335 4.39-.335 2.02-9.609 4.014-18.996 5.934-28.399.145-.71-.226-1.528-.506-2.76-.149-.465.08-.691.39-.518 1.033 1.578 1.754 2.982 2.599 4.626 3.64-1.27 7.326-2.557 11.05-3.805l.114.117c-6.106 1.617-6.45 6.817-7.447 11.734-1.377 6.799-2.982 13.552-4.46 20.71"/><path fill="#1362ae" d="M1099.42 416.882c-.71-1.846-1.365-3.946-1.37-6.048-.067-29.48-.08-58.961-.019-88.441.015-6.933.361-13.866.264-21.097-.592-2.45-.894-4.602-1.199-7.163.966 2.566 2.77 5.54 2.778 8.519.117 37.99-.023 75.983-.455 114.23m-150.42-79.322c-.331 22.866-.913 45.295-.848 67.722.02 6.99 1.791 13.974 2.798 21.352-1.266-3.599-3.675-7.582-3.702-11.58-.244-37.626-.1-75.255.005-112.883.007-2.298.629-4.593 1.294-7.103.37 10.187.409 20.588.192 31.672-.086 1.878.085 3.072.255 4.267z"/><path fill="#b1490d" d="M498.078 413.39c7.429-3.74 14.86-7.307 22.444-10.51 4.118-1.74 8.498-2.86 12.76-4.26l.681 1.658a14803 14803 0 0 0-31.703 18.6c-1.558-1.588-2.837-3.376-4.182-5.488"/><path fill="#05478b" d="M407.371 252.9c1.495-11.188 4.033-22.524 4.957-33.99.963-11.958.53-24.044.312-36.067-.04-2.25-2.022-4.437-2.99-6.704-2.904-6.807-5.75-13.64-8.598-20.855 13.874 17.135 16.49 37.342 13.513 58.617-1.818 12.997-4.543 25.868-7.194 39"/><path fill="#ab4818" d="M447.577 420.383c-.897.925-1.794 1.85-3.18 2.618-4.65.387-7.215 6.133-5.25 10.507l2.063-2.585c-.024 3.046-.049 6.091-.504 9.602-3.191.789-6.053 1.747-8.692 1.32-9.315-1.504-18.537-3.98-27.989-.802l-.085-.107c7.057-5.06 14.654-2.56 22.133-1.559 3.277.439 6.536 1.005 10.647 1.645 0-3.037-.119-5.622.023-8.192.367-6.63 2.862-12.337 8.165-16.448 4.58-3.551 9.584-4.497 14.922-.703.144.35.066.432-.338.385-3.138-.375-5.967-1.277-8.577-.847-2.128.351-6.093.997-3.338 5.166"/><path fill="#064487" d="m388.002 374-.001 1.542c-17.705-3.32-35.41-6.948-53.55-10.549-.435.027-.51-.037-.433-.37.873-.53 1.694-.962 2.461-.881 3.182.334 6.348.823 9.83 1.391 1.775.702 3.24 1.268 5.12 1.842 8.467 1.347 16.519 2.685 24.74 4.266.726.412 1.282.58 2.186.903 3.448.722 6.548 1.29 9.647 1.856"/><path fill="#b84c14" d="M786.178 627.076c-1.7-.29-2.961-.629-4.625-1.076-1.34 4.202-2.623 8.226-4.143 12.478-.968-8.255 3.324-15.278 6.333-22.989 2.784-.994 5.652-1.648 8.813-2.116-5.758 1.176-8.966 5.471-8.739 12.275 5.377-.423 10.754-.84 16.551-1.207-.472.364-1.365.678-2.375 1.277-3.87.627-7.622.968-11.815 1.358"/><path fill="#0e79d2" d="M996.165 218.488c-.212.999-.335 1.637-.458 2.274h-.71c0-10.612 0-21.223-.002-32.77.004-18.942.01-36.946.286-54.644.387 2.28.596 4.254.602 6.228.08 25.198.132 50.395.192 75.592.06.987.119 1.973.09 3.32"/><path fill="#1f94e0" d="M996.248 214.788c-.233-24.817-.284-50.014-.365-75.212-.006-1.974-.215-3.948-.728-6.524-.678-1.4-.955-2.196-1.133-3.077l.302-.25c.747 2.287 2.133 4.573 2.142 6.864.107 25.939.003 51.878-.218 78.199"/><path fill="#ab4818" d="M419.158 495.39c-.034.631-.068 1.263-.31 2.383.594 2.048 1.394 3.608 2.194 5.169l-.242.289c-.401.019-.843.05-1.024-.152-4.098-4.579-9.609-6.255-15.54-7.817-.215-.296-.184-.343.238-.32 3.574.328 6.724.633 9.875.938l-.061-.937c-1.414-.85-2.827-1.7-3.83-2.632 2.32-.237 4.231-.392 6.489-.374.969 1.266 1.59 2.36 2.211 3.453m-21.306-6.04c-4.834-5.415-4.06-11.326-1.637-17.444.528-1.334.656-2.825.91-4.606-.059-.362-.013-.405.321-.307 1.753 1.777 3.172 3.455 4.409 5.364-1 1.04-1.819 1.848-3.057 2.666-1.212 1.147-2.74 2.34-2.66 3.416.265 3.659 1.097 7.277 1.714 10.911"/><path fill="#a14411" d="M779.848 465.65c-6.12-4.533-12.09-2.086-18.138.633-1.42.639-3.133.63-5.04-.163 6.015-2.038 12.03-4.075 18.4-6.006a45 45 0 0 1 4.778 5.536"/><path fill="#af4b15" d="M397.911 489.611c-.676-3.895-1.508-7.513-1.774-11.172-.078-1.076 1.449-2.269 2.613-2.971-.32 5.355.245 9.991 3.371 14.408-.062.604-.077.846-.106 1.103-.012.015-.039.044-.4.035a716 716 0 0 0-2.528-.036c-.372-.369-.744-.737-1.176-1.367"/><path fill="#1f94e0" d="M909.642 122.409c.398.176.386.58-.1 1.292-7.58-.11-14.513.023-19.476 6.35l-.29-.246c2.327-4.497 5.962-6.728 11.094-6.646 2.784.045 5.575-.334 8.772-.75m63.388 1.587c-.039-1.97-.079-3.94-.105-6.326-.187 4.588 2.425 5.694 7.028 5.527 3.28-.12 6.614 1.227 10.039 2.303.114.383-.043.566-.425.497a4034 4034 0 0 0-16.536-2.001"/><path fill="#064487" d="M379.162 134.443c-.589-1.24-1.812-2.741-2.079-4.397-.599-3.722-.722-7.52-1.024-11.716.848 3.276 1.753 6.967 2.481 10.692.325 1.66.292 3.39.622 5.42"/><path fill="#ab4818" d="M395.752 465.218c-3.436-5.775-2.932-11.463.748-17.21.375-.121.553.03.488.41-3.075 5.623-2.108 11.076-1.002 16.604-.08.064-.234.196-.234.196"/><path fill="#064487" d="M334.053 365.052c-1.073 4.264-2.184 8.496-3.627 12.88-.332.154-.422.069-.44-.372.654-3.151 1.325-5.86 2.002-8.917.654-1.46 1.304-2.573 1.953-3.687zm15.206-256.485c-3.666.665-7.593 1.033-11.957 1.37 3.608-.577 7.652-1.122 11.957-1.37m9.384-32.224c-3.48-3.652-3.38-7.699-.98-12.151.34-.19.405-.128.377.27.308 4.103.645 7.81.888 11.608zm14.24 38.317c-2.999-.8-6.185-1.89-9.608-3.227a91 91 0 0 1 9.608 3.226m-39.24-1.536c-.692 2.778-1.682 5.748-2.999 8.832.683-2.804 1.693-5.72 3-8.832m27.357-52.121c3.404-2.559 7.018-2.568 10.952-.518.18.37.021.555-.38.537-3.769.004-7.138.026-10.523.032z"/><path fill="#1362ae" d="M1087.887 287.598c-4.28.216-8.81.07-13.605-.402 4.275-.204 8.816-.082 13.605.402"/><path fill="#064487" d="M377.06 65.946c.217 2.595.434 5.189.326 7.947-.325.164-.435.078-.417-.363.004-2.793-.01-5.146.006-7.52.03-.02.084-.064.084-.064"/><path fill="#b84c14" d="M795.334 613.264c1.698-.8 3.731-1.538 6.12-2.293-1.691.774-3.739 1.565-6.12 2.293"/><path fill="#1362ae" d="M1096.973 292.69c-1.314-.738-2.615-1.814-3.968-3.222 1.292.74 2.636 1.812 3.968 3.223"/><path fill="#1f94e0" d="M990.185 125.792a33.4 33.4 0 0 1 4.044 3.615c.095.317-.106.484-.478.408-1.515-1.3-2.659-2.525-3.802-3.749z"/><path fill="#064487" d="M191.618 290.964c-.744.953-1.795 1.992-3.212 3.04.723-.979 1.814-1.966 3.212-3.04"/><path fill="#ab4818" d="M397.934 445.941c.788-.957 1.576-1.915 2.714-2.909.35-.035.442.06.377.385-1.018 1.11-1.971 1.896-2.966 2.642zm62.079-29.953c.99.75 1.94 1.543 2.973 2.64.081.306-.005.389-.371.36-1.15-.977-1.935-1.927-2.719-2.877z"/><path fill="#064487" d="M357.972 63.972c.776-.98 1.584-1.93 2.71-2.925.32-.045.352-.011.318.337-1 1.126-1.966 1.903-2.932 2.68zm18.046 53.651c-.924-.457-1.93-1.223-2.957-2.34.946.443 1.91 1.237 2.957 2.34"/><path fill="#1362ae" d="M1098.405 423.29c-.174-1.123-.078-2.432.3-4.013.178 1.094.073 2.46-.3 4.012"/><path fill="#ab4818" d="M399.159 491.275c.65-.288 1.373-.278 2.466.066.38.769.391 1.204.264 1.79-.137.152-.387.475-.387.475-.757-.677-1.515-1.355-2.343-2.33"/><path fill="#1362ae" d="M1092.032 288.711c-.782.123-1.676-.01-2.793-.401.745-.125 1.713.01 2.793.401"/><path fill="#0f87e0" d="M962.546 116.802c.218 1.286.183 2.89-.093 4.796-.215-1.292-.188-2.885.093-4.796"/><path fill="#064487" d="M376.081 76.071c-.468.624-.937 1.247-1.697 1.947-.292.076-.368-.002-.35-.352.646-.809 1.275-1.268 1.939-1.693zm-180.44 211.808c-.273.53-.837 1.155-1.74 1.748.258-.571.854-1.112 1.74-1.748m141.003-177.923c-.23.517-.747 1.149-1.578 1.844.222-.534.757-1.132 1.578-1.844"/><path fill="#ab4818" d="M396.787 447.81c.153-.588.393-1.1.89-1.74.257-.129.34-.05.329.271-.326.78-.64 1.238-.953 1.696 0 0-.178-.15-.266-.227m4.166-4.862c.363-.41.77-.773 1.543-1.111.365.025.533.195.363.429-.703.43-1.236.628-1.769.826 0 0-.092-.095-.137-.144"/><path fill="#1362ae" d="M949.623 293.018c.123.475-.05 1.067-.52 1.788-.123-.472.05-1.072.52-1.788m1.43 134.3c.49-.079 1.055.15 1.71.686-.486.078-1.061-.15-1.71-.686"/><path fill="#ab4818" d="M397.043 466.96a7 7 0 0 1-1.234-1.459c-.057-.283.097-.415.401-.303.504.64.703 1.169.902 1.697z"/><path fill="#1362ae" d="M953.973 429.407c.461-.088 1.066.102 1.77.613-.477.102-1.051-.116-1.77-.613"/><path fill="#064487" d="M377.112 74.103c-.126.607-.304 1.166-.757 1.847-.274.121-.347.056-.344-.266.315-.786.628-1.25.94-1.713 0 0 .11.086.161.132M193.339 289.602c-.082.361-.436.827-1.126 1.306.06-.392.457-.797 1.126-1.306M376.025 63.975c.341.458.682.915 1.029 1.672.005.299-.05.344-.314.191-.443-.7-.62-1.248-.777-1.812.022-.016.062-.051.062-.051m5.013 71.678c-.454.045-1.055-.183-1.73-.744.479-.064 1.032.203 1.73.744m-8.826-74.891c.606.14 1.133.37 1.735.91.077.306.012.385-.28.35-.76-.35-1.226-.666-1.693-.983z"/><path fill="#ab4818" d="M402.748 494.252c-.342.02-.648-.075-1.083-.464-.163-.182.087-.505.437-.543.617.157.814.407.867.786zm1.257.738a2.7 2.7 0 0 1-1.129-.507c-.128-.23.02-.378.302-.338.547.23.744.475.874.774z"/><path fill="#fca74f" d="M638.846 198.606c.06.129-.306.313-.5.263-.11-.372.101-.486.5-.263"/><path fill="#064487" d="M334.595 111.863c.11.217-.04.537-.431.978-.104-.211.034-.543.431-.978M186.742 295.052c.148.253-.039.517-.536.825-.051-.178.12-.464.536-.825M359.675 77.321c-.439-.007-.69-.215-.95-.744-.082-.234.109-.415.416-.392.574.226.764.484.877.798z"/><path fill="#1362ae" d="M950.648 291.91c.092.222-.077.533-.497.947-.089-.217.074-.537.497-.946"/><path fill="#064487" d="M375.111 62.882c.284.19.569.379.884.83.03.263-.01.298-.247.203-.5-.3-.683-.56-.747-.917z"/><path fill="#064487" d="M374.06 61.942c.323.126.612.288.976.695.075.245.002.323-.252.253-.523-.264-.714-.519-.825-.833 0 0 .065-.079.1-.115"/><path fill="#1362ae" d="M1097.339 425.061c-.11-.193.024-.496.371-.938.1.184-.015.506-.371.938m-.838 1.147c-.122-.227.011-.57.41-1.023.125.229-.015.568-.41 1.023m-1.17.87c-.037-.212.192-.499.706-.814.043.228-.198.484-.706.814m-1.011.971c-.067-.212.128-.505.576-.89.064.207-.126.507-.577.89m-141.494.388q.345-.156.992.487-.345.155-.992-.487m140.527.66c-.086-.227.093-.533.527-.94.083.22-.09.54-.527.94"/><path fill="#ab4818" d="M402.775 441.778c.157-.32.4-.556.904-.817.261-.025.32.045.221.286-.308.489-.565.67-.87.785z"/><path fill="#05478b" d="M401.06 154.681c-.179.072-.407-.12-.55-.457.225-.032.362.081.55.457"/><path fill="#fcf9ed" d="M741.329 377.905c-19.272-5.625-28.215-21.624-29.122-36.396-1.06-17.276 8.873-32.778 25.082-40.178 17.427-7.954 40.523.241 51.353 18.223 9.998 16.6 5.372 39.277-10.07 51.095-11.181 8.557-23.536 10.044-37.243 7.256m-2.663-59.937c-9.399 2.82-13.95 9.672-15.346 18.899-1.895 12.523 6.861 24.555 18.227 25.33 10.063.687 18.584-6.242 20.363-16.557 2.235-12.964-4.01-24.966-14.64-27.616-2.473-.617-5.21-.173-8.604-.056m-150.504 58.366c-25.399 8.585-50.076-4.51-55.502-29.102-4.992-22.631 11.32-44.78 35.93-48.786 20.395-3.32 41.758 14.043 44.64 35.2 2.438 17.888-8.518 36.034-25.068 42.688m12.98-29.943c.29-3.298.993-6.622.79-9.889-.605-9.682-8.267-18.049-17.276-19.324-8.18-1.159-16.642 4.771-19.916 14.232-3.182 9.2-1.944 18.037 4.55 25.225 9.893 10.948 25.834 6.007 31.853-10.244"/><path fill="#e86728" d="M776.012 232.97a17332 17332 0 0 1-29.517-17.539c12.885-16.65 26.126-32.757 42.84-47.633 4.338 26.744 6.395 52.326 5.538 79.092-6.497-4.82-12.519-9.288-18.86-13.92m-230.736 5.284a2924 2924 0 0 1-11.135 8.947c-1.036-26.264 2.474-51.105 6.137-76.065 7.151 2.197 23.135 19.826 42.36 44.409-12.36 7.486-24.728 14.977-37.362 22.709"/><path fill="#ef7472" d="M660.139 381.079c-9.017-3.099-16.439-7.896-19.5-17.646-1.392-4.437-.185-7.53 4.083-9.278 1.984-.812 4.11-1.855 6.16-1.831 8.777.101 17.63-.045 26.301 1.084 6.854.892 8.528 5.765 5.958 12.395-3.389 8.747-9.885 13.43-19.512 15.27a101 101 0 0 0-3.49.006"/><path fill="#af4b15" d="M402.859 442.266c.476-.348.733-.53 1.068-.982 9.55-3.42 18.772-.943 28.087.562 2.639.426 5.501-.532 8.697-.866 3.557 10.915 11.12 18.712 19.55 25.9l-.97 1.488-8.666-3.402c-6.726 6.715-6.726 6.715-5.164 23.69-8.557-2.2-7.005-15.883 2.651-26.483-3.253-5.1-6.105-10.306-9.75-14.88-1.24-1.558-4.434-1.76-6.806-2.153-2.046-.34-4.193-.07-7.268-.07 5.07 10.008 8.287 19.467-2.142 27.117 6.799 13.157 6.389 16.853-2.66 23.067-.95-.957-1.57-2.05-2.286-3.562 6.534-4.849 7.32-8.156 3.329-14.818-3.482-5.812-8.51-7.103-18.492-4.747-1.419-1.679-2.838-3.357-4.59-5.134-.534-.626-.733-1.154-1.157-1.858-1.41-5.64-2.377-11.094.698-16.717.379-.839.692-1.296 1.059-2.037 1.007-1.068 1.96-1.854 2.978-2.964.598-.523 1.13-.72 1.834-1.151m20.726 10.99c-.66-1.147-1.24-2.35-1.994-3.433-3.491-5.01-10.98-7.58-16.226-5.62-4.733 1.767-7.989 7.833-7.497 13.969.393 4.902 3.055 7.414 7.98 7.745 3.454.232 6.976.306 10.322 1.08 4.942 1.143 7.264.262 8.146-4.727.47-2.65-.268-5.514-.731-9.014"/><path fill="#58300f" d="M660.09 381.438c.965-.374 1.881-.388 3.13-.298 5.266 11.482 16.306 18.173 26.72 16.211 5.363-1.01 9.02-3.861 11.002-9.018.414-1.077 1.76-1.795 2.676-2.68.442 1.29 1.338 2.612 1.25 3.865-.423 6.032-6.086 11.226-13.227 12.368-10.16 1.623-18.683-1.652-25.92-8.734-1.174-1.15-2.381-2.267-3.882-3.693-5.138 6.268-11.335 10.95-19.687 12.217-10.158 1.54-19.14-2.623-21.997-10.567-.922-2.563-1.666-5.29 2.83-5.947 2.326 9.027 8.368 13.013 17.366 11.843 9.367-1.217 16.579-5.671 19.738-15.567"/><path fill="#a14411" d="M609.909 281.185c-1.108 6.66-3.304 7.837-8.656 5.165-3.694-1.844-7.436-3.594-11.193-5.307-3.47-1.583-4.486-4.327-3.415-7.723 1.158-3.675 3.86-4.683 7.459-3.44 6.281 2.17 13.574 2.868 15.805 11.305m114.399-6.03c3.574-.947 6.734-2.085 9.986-2.494 1.806-.227 5.23.476 5.381 1.255.455 2.336.498 6.43-.79 7.143-6.158 3.41-12.782 5.993-19.337 8.632-.482.194-2.098-1.333-2.545-2.344-1.689-3.82-.626-9.74 7.305-12.192m-21.479 379.551c-1.341.443-2.4.633-4.074 1.052-16.288 3.012-32.001 3.451-47.764 1.056 2.93-.616 5.862-1.232 8.905-2.2 17.446 1.711 34.318-2.03 51.54-3.935-2.775 1.258-5.55 2.516-8.607 4.027"/><path fill="#af4b15" d="M459.492 416.064c1.188.997 1.973 1.947 3.08 2.966 1.155 1.971 2.232 3.808 2.763 5.79.764 2.849 1.131 5.803 1.603 9.098-1.822-2.803-3.447-6.072-5.363-9.16-3.833-6.181-6.42-7.009-13.654-4.492-3.099-4.052.866-4.698 2.994-5.049 2.61-.43 5.44.472 8.577.847M554.38 466.7c.521-1.548 1.439-3.026 2.455-4.79 6.372 1.291 12.646 2.868 18.919 4.444l-.431 2.24c-6.719-3.453-13.576-3.863-20.943-1.894m-113.012-36.07a84 84 0 0 1-2.22 2.878c-1.966-4.374.6-10.12 4.964-10.354-.726 2.602-1.656 4.893-2.744 7.476m1.29 76.33c-3.09 3.404-8.86 2.048-9.818-2.557 3.246.601 6.362 1.5 9.818 2.558m74.647-41.709c2.481-3.362 5.549-3.106 9.614.915-3.047-.023-6.173-.359-9.614-.915m-95.886 37.715c-1.177-1.586-1.977-3.146-2.515-4.88 3.132 1.307 6.002 2.79 9.14 4.503-1.905.288-4.076.345-6.625.377m47.472-63.553c4.541-.298 5.47 2.213 4.117 6.493-1.456-1.817-2.753-3.982-4.117-6.493m13.906 15.022a89 89 0 0 1 10.159 4.173c-3.26-1.072-6.587-2.487-10.16-4.173m19.49 7.721c1.746-4.014 3.13-1.442 4.639.602-1.43.116-2.897-.121-4.64-.602m31.088 4.747c.59-.254 1.553-.445 2.571-.318-.696.34-1.448.36-2.571.318m45.687 1.808c-.594-.032-.992-.231-1.39-.43.529.088 1.058.176 1.39.43m-85.908-9.592c.108-.082.289.006.56.224.104.099-.217.109-.217.109s-.255-.194-.343-.333"/><path fill="#f4fcfc" d="M650.618 656.882c16.136 2.327 31.849 1.888 47.935-.862 3.22 12.454 6.104 24.86 8.8 37.305 1.365 6.307 2.391 12.688 3.537 19.464-24.133.404-48.233.348-72.332.386-3.47.005-6.939.463-10.834.76 2.286-14.25 4.921-28.564 7.75-42.84 1.058-5.347 2.568-10.605 4.59-15.961 2.761.34 4.806.737 6.851 1.134 0 0 .01-.154.04.11.362.308.693.353 1.024.397.755.058 1.51.116 2.639.107"/><path fill="#c0e8fc" d="M1085.568 415.949c-3.549 3.129-7.641 4.145-12.391 4.127-33.46-.124-66.921-.03-100.382-.052-9.968-.007-14.641-4.713-14.66-14.723-.037-20.143-.045-40.286.033-60.429.01-2.632.598-5.263.947-8.31.028-.416-.016-.477.228-.532.437-.357.63-.658.822-.958 0 0-.09.005.244-.123 3.525-5.031 8.603-4.279 13.301-4.28 24.61-.004 49.218.07 73.827.178 11.466.05 22.932.24 34.397.366 0 0 .003-.127.039.133.365.36.694.46 1.023.561 0 0 .203.216.522.465a12 12 0 0 0 1.441.757s-.004-.091.035.18c.34.455.643.64.946.825 0 0 .008-.086.039.188.32.476.611.677.901.878 0 0-.086.013-.1.054.162.54.34 1.037.842 2.1.553 18.517.967 36.47.926 54.423-.017 7.409-1.011 14.815-1.56 22.223 0 0 .017 0-.231.178-.562.71-.875 1.24-1.189 1.77m-108.442-60.28c.001 3.494.073 6.99-.017 10.48-.097 3.79 1.829 5.477 5.43 5.521 4.99.061 9.981.068 14.971.1 3.188.02 4.436-1.756 4.433-4.737-.004-5.324.283-10.67-.155-15.956-.117-1.415-2.306-3.613-3.743-3.784-4.265-.51-8.63-.183-12.955-.19-7.82-.015-7.82-.017-7.964 8.566m58.502-6.4c-1.05-.7-2.082-1.972-3.153-2.006-5.977-.191-11.979-.308-17.933.109-1.228.086-3.166 2.482-3.27 3.923-.385 5.29-.095 10.627-.14 15.946-.026 2.95 1.577 4.328 4.27 4.377 5.314.096 10.632.037 15.947-.04 3.203-.047 4.771-1.557 4.644-4.988-.204-5.479-.108-10.969-.365-17.32m27.706 32.518c-4.48-.034-8.966.043-13.44-.137-3.535-.143-5.192 1.072-5.012 4.862.236 4.968.223 9.96.035 14.931-.135 3.557 1.493 4.695 4.768 4.641 5.31-.086 10.624-.092 15.931.058 3.186.09 4.576-1.245 4.528-4.387-.071-4.646-.284-9.309.013-13.935.287-4.473-1.202-6.648-6.823-6.033m6.546-23.258c0-.998.006-1.995.001-2.993-.039-8.405-.064-8.432-8.265-8.45-1.996-.003-3.992-.018-5.986.024-10.583.227-10.677-2.297-10.617 10.837.061 13.27.012 13.311 13.079 13.337 13.11.026 11.737 1 11.788-12.755m-40.659 47.45c3.234.011 6.666.294 6.676-4.475.012-5.321-.041-10.642-.002-15.963.02-2.718-1.198-3.903-3.938-3.858-5.486.09-10.977.147-16.46.01-3.256-.082-4.488 1.33-4.433 4.463.09 4.986.098 9.978-.026 14.964-.084 3.4 1.455 4.88 4.77 4.85 4.157-.039 8.314.006 13.413.01m-47.283-.024c5.154-.006 10.309-.019 15.463-.014 3.073.003 4.583-1.464 4.556-4.585-.046-5.154-.071-10.31.003-15.463.042-2.92-1.176-4.248-4.162-4.193-5.485.1-10.975.12-16.46.01-2.974-.059-4.276 1.227-4.255 4.133.039 5.32-.255 10.666.21 15.946.13 1.478 2.433 2.765 4.645 4.166"/><path fill="#b3e3fd" d="M1057.717 306.084c-.385-8.362-.69-16.502-.427-24.623.043-1.33 2.471-3.444 4.017-3.668 2.606-.376 4.725.98 4.7 4.348-.054 7.647.075 15.295.077 23.411-.051.47-.08.464-.307.628-.718.723-1.21 1.283-1.704 1.843-2.029-.57-4.058-1.14-6.356-1.939"/><path fill="#0b65bc" d="M1081.744 330.865c-11.275.221-22.74.032-34.207-.018-24.609-.108-49.218-.182-73.827-.178-4.698.001-9.776-.751-13.278 4.32-1.26-4.777.938-6.096 5.71-6.075 36.266.157 72.534.058 108.8.149 2.205.005 4.408.948 6.802 1.802"/><path fill="#1362ae" d="M988.088 308.09c-1.606.159-3.211.318-4.931.165-.114-.312-.054-.373.352-.32 1.761.047 3.117.043 4.499.069.026.03.08.086.08.086"/><path fill="#0b65bc" d="M948.997 330.606a12.5 12.5 0 0 1-.259-3.398c.258.856.26 1.926.259 3.398"/><path fill="#1362ae" d="M1064.382 307.967c.184-.504.677-1.064 1.406-1.777-.209.472-.653 1.097-1.406 1.777m-74.482-1.058c-.354.418-.798.746-1.527 1.128-.285.053-.34-.004-.225-.266.57-.551 1.026-.84 1.482-1.128z"/><path fill="#0b65bc" d="M1082.857 331.7c-.19.107-.519.006-.946-.34.204-.12.506.007.946.34"/><path fill="#1362ae" d="M981.973 307.05c-.314-.12-.567-.318-.86-.816-.099-.222-.01-.317.261-.25.527.304.67.597.674.974-.027.03-.075.092-.075.092"/><path fill="#1362ae" d="M983.01 307.97c-.346-.071-.603-.249-.921-.713-.116-.207-.068-.27.19-.211.558.236.747.495.824.836 0 0-.06.06-.094.088"/><path fill="#0b65bc" d="M959.907 335.164q.099.314-.582.898-.099-.313.582-.898m126.901-.228q-.326.096-.872-.608.328-.095.872.608m-.964-1.053c-.207.066-.51-.119-.895-.564.211-.07.505.121.895.564m-1.042-1.03c-.217.107-.592-.063-1.137-.496.212-.102.596.06 1.137.496"/><path fill="#20a6fd" d="M230.552 270.947c20.383-23.112 29.583-51.318 36.452-80.52 3.922-16.674 11.524-31.003 24.315-42.648 9.19-8.365 19.886-13.419 31.903-15.344 19.073-3.056 36.955.79 53.72 11.46.56.704.837.886 1.114 1.07 0 0-.055.034.063.242a5 5 0 0 0 .979.72s-.07-.035-.036.334c4.717 9.868 7.857 19.896 6.754 30.487-1.158 11.13-3.174 22.199-5.363 33.186-3.717 18.665-7.01 37.272-6.649 56.484.23 12.21 2.077 23.967 4.794 35.628-6.74-1.29-13.068-2.533-19.381-3.844-27.543-5.72-55.093-11.409-82.619-17.214-15.37-3.241-30.699-6.687-46.046-10.041m5.491 64.229c-.745-.125-1.489-.25-2.608-.422-13.451-2.907-26.527-5.769-39.604-8.622-.809-.177-1.64-.25-2.445-.442-9.171-2.189-10.586-4.608-6.473-13.377 1.996-4.256 4.664-8.708 8.216-11.624 9.713-7.975 20.056-15.181 30.554-22.39 2.307 1.094 4.141 2.22 6.124 2.628 23.322 4.8 46.68 9.421 70 14.234 21.052 4.344 42.092 8.758 63.088 13.364 8.437 1.851 16.744 4.297 25.11 6.858 1.899 4.161 3.442 8.174 5.768 11.665 5.833 8.758 7.642 18.19 5.48 28.364-.512 2.413-1.36 5.421-3.117 6.749-2.75 2.078-2.001 3.233-.385 4.996-.225.057-.635.278-.635.278-.192-.053-.383-.106-1.096-.24-.521-.082-.99-.026-.99-.026a38 38 0 0 1-2.022-.379c-13.12-2.678-25.565-5.194-38.376-7.82-2.373-.421-4.381-.735-6.538-1.225-.396-.398-.681-.474-1.393-.512-1.702-.241-3.018-.374-4.655-.72a5224 5224 0 0 0-54.985-11.511c-13.34-2.718-26.708-5.309-40.063-7.956a210 210 0 0 1-6.598-1.373 27 27 0 0 0-2.357-.497"/><path fill="#1694ed" d="M379.016 302.062c-3.135-11.677-4.982-23.434-5.212-35.644-.361-19.212 2.932-37.82 6.65-56.484 2.188-10.987 4.204-22.057 5.362-33.186 1.103-10.59-2.037-20.619-6.715-30.493 12.18 6.61 18.96 17.804 23.94 30.386 5.477 13.84 4.654 27.912 1.658 42.117-3.87 18.347-7.908 36.69-6.715 55.655.104 1.652.25 3.3.622 5.282 2.274 9.407 4.303 18.482 5.936 27.934-8.773-1.605-17.15-3.586-25.526-5.567"/><path fill="#0f87e0" d="M378.598 302.046c8.795 1.997 17.171 3.978 25.978 5.958a56.8 56.8 0 0 1 4.803 10.665c-7.329-1.009-14.352-2.34-21.375-3.673-8.365-2.174-16.672-4.62-25.109-6.47-20.996-4.607-42.036-9.02-63.089-13.365-23.319-4.813-46.677-9.434-70-14.234-1.982-.408-3.816-1.534-5.784-2.714 1.966-2.568 3.996-4.75 6.278-7.099 15.6 3.187 30.927 6.633 46.298 9.874 27.526 5.805 55.076 11.494 82.619 17.214a1254 1254 0 0 0 19.381 3.844"/><path fill="#1694ed" d="M363.977 127.994c-7.485-1.695-14.597-3.227-21.634-5.05-1.536-.397-4.01-1.895-3.966-2.782.129-2.57 1.633-4.762 4.89-4.217 5.7.954 11.394 1.953 17.082 2.975 1.3.234 2.567.641 3.85.963 5.655 1.417 6.9 3.205 6.3 9.563-2.073-.471-4.097-.932-6.522-1.452m13.984 16.732q-.272.082-.838-.543.272-.082.838.543m1.04.964q-.284.099-.866-.51.286-.1.866.51"/><path fill="#0352a0" d="M1087.362 413.933c.175-7.34 1.17-14.747 1.186-22.156.041-17.952-.373-35.906-.692-54.296.658 1.997 2.032 4.426 2.052 6.866q.255 31.138-.008 62.276c-.02 2.42-1.41 4.829-2.538 7.31m-1.479 1.904c-.001-.42.312-.95.87-1.668-.022.394-.288.975-.87 1.668"/><path fill="#a14411" d="M646.764 655.936c-1.894-.065-3.939-.462-6.354-.992 1.82.132 4.011.396 6.354.992m1.061.658c-.177.137-.508.092-.945-.202.226-.27.525-.18.945.202"/><path fill="#1694ed" d="M388.004 315.383c7.023.945 14.046 2.277 21.462 3.624 6.158 11.58 12.281 22.988 17.475 34.805 1.62 3.684 1.234 8.518.867 12.747-.597 6.872-2.08 7.678-8.995 6.198-7.293-1.562-14.566-3.217-22.317-5.027-.469-.196-.519-.63-.519-.63-1.842-1.706-2.592-2.861.16-4.94 1.756-1.327 2.604-4.335 3.117-6.748 2.16-10.173.352-19.606-5.481-28.364-2.326-3.491-3.87-7.504-5.769-11.665"/><path fill="#054a90" d="M352.997 359.08c12.446 2.516 24.89 5.032 37.67 7.723.42 1.639.845 3.194.483 4.536-.277 1.025-1.552 1.782-2.765 2.66-3.482-.566-6.582-1.133-10.064-2.145-1.029-.582-1.675-.72-2.321-.856-8.052-1.338-16.104-2.676-24.57-4.4.247-2.763.907-5.14 1.567-7.519m42.754 8.078c.226-.056.276.377.334.588-.217.203-.467.12-.83-.174-.14-.136.27-.357.496-.414m-2.641.145c-.08-.133.389-.19.612-.112.224.076-.122.36-.122.36s-.409-.115-.49-.248"/><path fill="#b3e3fd" d="M989.953 166.978c.074 16.969.233 33.938.176 50.906-.02 6.113-2.968 9.107-8.78 9.114-27.119.03-54.238-.05-81.833-.078-.476.014-.427.01-.606-.233a6.8 6.8 0 0 0-1.886-.744c-.005.04.061-.005-.068-.266-.738-.73-1.347-1.201-1.956-1.674 0-.003-.004-.005-.072-.254-.332-.453-.596-.657-.88-.827-.019.035.056.062.036-.25-.372-.79-.724-1.27-1.084-1.985-.007-.235-.076-.7.036-1.157.227-17.469.344-34.48.642-51.772 1.683-4.664 5.27-4.953 9.112-4.945 25.997.058 51.994.013 77.99.198 2.673.02 5.336 1.334 8.126 2.328.408.567.694.854.949 1.271-.032.131.098.368.098.368M918.54 211.06c6.308.012 12.626-.203 18.919.11 4.819.24 4.4-2.797 4.34-5.83s.932-6.605-4.307-6.418c-6.299.225-12.613.056-18.92.053-10.404-.004-10.41-.005-9.503 10.371.04.454.353.883.706 1.718 2.537 0 5.158 0 8.765-.004m36.82-21.12c4.208.373 8.428.65 12.622 1.146 4.734.56 6.155-1.274 6.256-6.094.107-5.145-1.484-6.98-6.427-6.207-.97.151-1.985-.008-2.98.01-11.152.205-10.18-2.386-9.471 11.145"/><path fill="#1593ec" d="M990.248 167.228c-.295-.25-.425-.487-.457-.938-.358-.71-.682-.971-1.007-1.232-2.668-.713-5.331-2.028-8.004-2.047-25.996-.185-51.993-.14-77.99-.198-3.842-.008-7.429.28-9.503 5.153-.805 1.43-1.234 2.372-1.237 3.315-.048 15.16-.06 30.319-.007 45.478.004 1.077.574 2.152.88 3.228 0 0 .07.465.099 1.015.38 1.027.73 1.504 1.082 1.982 0 0-.075-.027.02.181.355.417.613.625.872.833 0 0 .004.002.046.33.71.756 1.376 1.183 2.043 1.61 0 0-.066.045.095.276.744.393 1.326.555 1.909.717 0 0-.05.003-.038-.021 3.102 1.014 6.193 2.052 9.262 3.083-9.966 4.803-19.309-.879-19.311-11.793-.006-26.825-.024-53.65.037-80.475.006-2.287.568-4.572.95-7.266 5.04-6.735 11.973-6.867 19.54-6.454.459 3.212.459 6.428.459 9.508-3.066.427-5.297.737-7.89 1.392-.361.345-.516.156-.83.222-.63.341-.943.615-1.263.881-.005-.008.01.007-.316.048-.766.695-1.206 1.35-1.664 1.973-.018-.031.04.013-.313.053-.381 1.313-.41 2.585-.504 3.871-.064.015-.059-.116-.082.207.32.817.664 1.31.963 1.809-.045.004-.04-.086.052.155.36.446.628.65.878.865-.019.011.002-.027.116.203.396.417.677.604 1.358.87 8.131.264 15.863.557 23.595.553 1.68 0 3.358-1.061 5.232-1.766.426-.361.574-.635.647-.913.01.042-.075.05.221-.18.087-2.065-.122-3.9-.285-5.72.045.014 0 .098-.002-.263-1.03-1.115-2.059-1.868-3.096-2.58-.009.041-.085.078-.085.078l-3.116-2.067 1.155-9.209c11.91 0 24.129 0 36.802-.007.79 5.636 1.123 11.279 1.537 17.641.364.938.649 1.156.934 1.374 0 0-.04.003.059.221.376.402.655.585.933.769 0 0-.03-.002.012.38 3.986 4.402 9.169 2.828 13.78 3.034 3.865.172 6.432-3.447 5.705-6.67-.512-2.273-4.054-4.118-6.577-5.574-1.248-.72-3.251-.13-4.913-.134a2973 2973 0 0 1-.012-10.574c5.397.185 10.781.829 16.548 1.542 1.525 1.293 2.67 2.517 4.084 3.901.549.958.826 1.755 1.231 2.847.122 18.3.117 36.305.106 54.777-3.015.728-2.89-1.283-3.03-3.403a249 249 0 0 0-1.71-16.89"/><path fill="#0352a0" d="M318.995 381.988c-13.179 5.726-25.62 2.214-37.622-3.514-6.984-3.333-9.08-10.268-7.107-19.773.201-.968.474-1.922.88-3.602 3.408-4.064 7.224-5.338 11.784-3.96 7.035 2.126 13.95 4.987 21.141 6.16 7.303 1.192 11.782 5.427 15.932 11.11-1.672 4.797-3.34 9.188-5.008 13.579"/><path fill="#054a90" d="M324.008 368.002c-4.155-5.276-8.634-9.511-15.937-10.703-7.19-1.173-14.106-4.034-21.14-6.16-4.561-1.378-8.377-.104-11.777 3.551-3.565.893-6.204.042-7.726-3.659-2.614-1.077-4.855-2.088-7.127-3.025-4.034-1.665-8.259-2.975-12.049-5.073-1.554-.86-2.188-3.383-3.248-5.518 13.35 2.278 26.716 4.869 40.057 7.587 18.231 3.714 36.443 7.525 54.63 11.716-.489 1.693-.944 2.964-1.4 4.234 1.164.21 2.492.888 3.463.548 3.587-1.256 4.49.32 4.245 3.498-3.172-.433-6.338-.922-9.52-1.256-.767-.08-1.588.351-2.46.88-.727 1.448-1.377 2.561-2.425 3.975-2.795.002-5.19-.296-7.586-.595"/><path fill="#05478b" d="M324.003 368.409c2.4-.108 4.796.19 7.586.534-.278 2.756-.95 5.466-1.648 8.574-1.759 1.687-3.68 2.79-5.173 4.312-1.749 1.783-3.317 2.544-5.58.427 1.475-4.66 3.143-9.05 4.815-13.847"/><path fill="#c0e8fc" d="M983.509 307.934c-.483-.393-.672-.652-1.204-.917-.26-.436-.404-.73-.883-1.077-.263-7.717-.23-15.324-.373-22.927-.066-3.479 1.537-5.537 4.86-5.515 3.303.022 4.255 2.426 4.195 5.495-.148 7.596-.157 15.194-.348 23.22-.582.719-1.038 1.007-1.634 1.528-1.496.237-2.852.241-4.613.193"/><path fill="#054a90" d="M237.24 343.538c-1.088-.864-1.85-1.623-2.611-2.382l3.021-.692c-.027 1.06-.055 2.12-.41 3.074m-.991-8.14c.377-.123.96-.024 1.764.288-.373.12-.965.027-1.764-.288"/><path fill="#af4b15" d="M481.168 450.864c-.03-.02-.151.025-.12-.027.152-.097.028.092.12.027"/><path fill="#e4f8fe" d="M929.125 144.981c-1.68.573-3.358 1.634-5.037 1.634-7.732.004-15.464-.289-23.692-.798-.79-.5-1.082-.677-1.375-.855 0 0-.021.038-.069-.233-.332-.463-.618-.655-.903-.846 0 0-.005.09.02-.225-.29-.817-.605-1.32-.92-1.821 0 0-.005.131.147-.203.357-1.42.563-2.506.768-3.592 0 0-.057-.044.212-.156.759-.698 1.249-1.285 1.738-1.87 0 0-.014-.016.308-.07a5.6 5.6 0 0 0 1.26-.885s.155.189.275.165c8.069.001 16.018.025 24.416.047.447-.002.523-.039.682.193a81 81 0 0 0 2.948 2.668s.045-.084.016.33a376 376 0 0 0-.027 5.523s.084-.01-.162.037c-.365.35-.485.653-.605.957"/><path fill="#3babfa" d="M973.018 135.458c1.675-.425 3.678-1.015 4.926-.295 2.523 1.456 6.065 3.3 6.577 5.573.727 3.224-1.84 6.843-5.704 6.671-4.612-.206-9.795 1.368-13.77-3.044 7.602-.342 7.915-.66 7.971-8.905m-9.096 7.299c-.175.028-.46-.19-.838-.671.181-.033.454.196.838.671m1.009.998q-.277.08-.838-.55.278-.082.838.55"/><path fill="#0352a0" d="M373.666 62.023c.404.348.595.603 1.081.905.318.426.5.687.98 1.003.392.659.57 1.207.983 1.927.25 2.526.263 4.879.259 7.672-.33.904-.643 1.368-.993 2.12-.667.748-1.296 1.207-1.98 1.977-3.742 1.598-7.428 2.884-11.068 4.155-.845-1.644-1.566-3.048-2.599-4.626-.424-.487-.614-.745-1.093-1.063-.55-3.822-.888-7.528-1.196-11.632.994-1.174 1.96-1.951 2.976-3.06 3.419-.354 6.788-.376 10.558-.38.867.335 1.333.652 2.092 1.002"/><path fill="#05478b" d="M346.31 365.133c-.066-3.312-.97-4.889-4.556-3.633-.971.34-2.299-.337-3.462-.548.455-1.27.91-2.541 1.72-4.018 1.671-.075 2.987.058 4.84.462.793.453 1.078.538 1.39.526 2.009.313 4.017.627 6.39 1.049-.295 2.486-.955 4.864-1.616 7.62-1.467-.19-2.932-.756-4.707-1.458m29.861 6.108c.476-.106 1.122.03 1.802.457-.521.122-1.077-.045-1.803-.457"/><path fill="#fca650" d="M401.855 472.357c10.163-2.586 15.192-1.295 18.674 4.517 3.99 6.662 3.205 9.97-3.676 14.645-2.164.4-4.074.555-6.773.69-2.885-.752-4.981-1.483-7.28-2.347a9 9 0 0 0-.633-.349c-3.172-4.054-3.737-8.69-2.996-14.053.865-1.255 1.684-2.064 2.684-3.103"/><path fill="#af4b15" d="M403.002 489.995c2.097.73 4.193 1.462 6.667 2.295 1.792.953 3.205 1.803 4.619 2.653l.06.937c-3.15-.305-6.3-.61-9.874-.938-.552-.322-.75-.566-1.223-.87-.335-.42-.532-.67-1.012-.978-.223-.549-.233-.984-.253-1.745-.01-.326.017-.355.244-.47.492-.314.674-.57.772-.884"/><path fill="#ab4818" d="M402.8 489.862c.104.447-.078.703-.557 1.001-.2-.14-.184-.383-.122-.987.046-.363.477-.146.68-.014"/><path fill="#472913" d="M739.056 317.887c3.005-.036 5.741-.48 8.214.137 10.63 2.65 16.875 14.652 14.64 27.616-1.78 10.315-10.3 17.244-20.363 16.558-11.366-.776-20.122-12.808-18.227-25.331 1.397-9.227 5.947-16.078 15.736-18.98M601.06 346.793c-5.936 15.85-21.877 20.79-31.77 9.842-6.494-7.188-7.732-16.025-4.55-25.225 3.274-9.46 11.737-15.39 19.916-14.232 9.009 1.275 16.671 9.642 17.276 19.324.203 3.267-.5 6.591-.872 10.29"/><path fill="#fba34d" d="M423.72 453.623c.328 3.133 1.065 5.997.596 8.647-.882 4.989-3.204 5.87-8.146 4.727-3.346-.774-6.868-.848-10.322-1.08-4.925-.33-7.587-2.843-7.98-7.745-.492-6.136 2.764-12.202 7.497-13.97 5.245-1.96 12.735.61 16.226 5.621.754 1.082 1.334 2.286 2.13 3.8"/><path fill="#1e9df3" d="M977.129 355.2c.14-8.115.14-8.113 7.961-8.099 4.326.008 8.69-.318 12.955.19 1.437.172 3.626 2.37 3.743 3.785.438 5.286.15 10.632.155 15.956.003 2.981-1.245 4.756-4.433 4.737-4.99-.032-9.98-.039-14.97-.1-3.602-.044-5.528-1.732-5.43-5.52.09-3.492.017-6.987.019-10.95m58.612-5.497c.144 5.918.048 11.408.252 16.887.127 3.43-1.44 4.94-4.644 4.987-5.315.078-10.633.137-15.946.041-2.694-.049-4.297-1.427-4.272-4.377.046-5.319-.244-10.656.14-15.946.105-1.441 2.043-3.837 3.27-3.923 5.955-.417 11.957-.3 17.934-.109 1.071.034 2.103 1.306 3.266 2.44"/><path fill="#f03426" d="M1063.812 381.793c5.143-.621 6.632 1.554 6.345 6.027-.297 4.626-.084 9.289-.013 13.935.048 3.142-1.342 4.477-4.528 4.387-5.307-.15-10.622-.144-15.93-.058-3.276.054-4.904-1.084-4.769-4.64.188-4.972.201-9.964-.035-14.932-.18-3.79 1.477-5.005 5.012-4.862 4.474.18 8.96.103 13.918.143"/><path fill="#1e9df3" d="M1069.877 359.01c-.048 13.275 1.326 12.3-11.785 12.274-13.067-.026-13.018-.066-13.08-13.337-.06-13.134.035-10.61 10.618-10.837 1.994-.042 3.99-.027 5.986-.023 8.2.017 8.226.044 8.265 8.449.005.998 0 1.995-.004 3.474m-41.127 46.972c-4.628-.006-8.785-.05-12.942-.012-3.315.03-4.854-1.45-4.77-4.85.124-4.986.115-9.978.026-14.964-.055-3.132 1.177-4.545 4.432-4.464 5.484.138 10.975.082 16.46-.009 2.74-.045 3.96 1.14 3.94 3.858-.04 5.32.013 10.642.001 15.963-.01 4.77-3.442 4.486-7.147 4.478m-47.265-.039c-1.76-1.388-4.062-2.675-4.192-4.153-.465-5.28-.171-10.625-.21-15.946-.021-2.906 1.281-4.192 4.255-4.132 5.485.11 10.975.088 16.46-.011 2.986-.055 4.204 1.272 4.162 4.193-.074 5.154-.049 10.31-.003 15.463.027 3.12-1.483 4.588-4.556 4.585-5.154-.005-10.309.008-15.916 0"/><path fill="#054a90" d="M346.094 357.745c-.164.189-.449.104-.855-.24.174-.234.46-.158.855.24"/><path fill="#0b69c5" d="M918.047 211.062c-3.114.002-5.735.002-8.272.002-.353-.835-.666-1.264-.706-1.718-.907-10.376-.901-10.375 9.503-10.37 6.307.002 12.621.171 18.92-.054 5.239-.187 4.246 3.384 4.307 6.418.06 3.033.479 6.07-4.34 5.83-6.293-.313-12.611-.098-19.412-.108"/><path fill="#0b65bc" d="M955.177 189.514c-.526-13.105-1.498-10.514 9.655-10.72.994-.017 2.009.142 2.979-.01 4.943-.773 6.534 1.063 6.427 6.208-.1 4.82-1.522 6.654-6.256 6.094-4.194-.495-8.414-.773-12.805-1.572"/><path fill="#0e79d2" d="M893.036 219.53c-.42-.619-.99-1.694-.993-2.77-.053-15.16-.04-30.32.007-45.48.003-.942.432-1.884 1.054-3.035.276 16.804.16 33.816-.068 51.285"/><path fill="#1f94e0" d="M896.956 225.677c-.538-.166-1.205-.593-1.914-1.346.567.145 1.176.615 1.914 1.346"/><path fill="#0e79d2" d="M894.084 222.672q-.497-.248-1.055-1.435.496.248 1.055 1.435"/><path fill="#1f94e0" d="M898.91 226.687c-.404.082-.986-.08-1.725-.513.412-.09.98.09 1.725.513m-3.982-2.938q-.284.06-.784-.618c.188-.04.452.165.784.618m93.978-58.41c.203-.02.527.24.916.82-.222.034-.508-.253-.916-.82"/><path fill="#0f87e0" d="M897.712 138.082c.147 1.046-.059 2.131-.352 3.537-.058-.952-.029-2.224.352-3.537m32.476 5.674c-.297-1.472-.297-3.174-.315-5.305.193 1.406.402 3.24.315 5.305m-.287-5.983c-.928-.452-1.858-1.264-2.937-2.349.878.48 1.907 1.234 2.937 2.349m-30.212-1.717c-.164.545-.654 1.132-1.395 1.861.19-.512.63-1.166 1.395-1.861m-2.563 6.104c.338.179.653.681.988 1.494-.324-.183-.668-.677-.988-1.494m1.014 1.964c.194-.05.48.142.831.594-.202.056-.47-.148-.83-.594m3.126-8.997q.004.316-.94.827-.003-.317.94-.827m28.053 9.722c-.075-.172.045-.475.401-.867.173.232.025.506-.401.867m-30.185.343c.179-.052.472.125.861.547-.184.057-.465-.13-.86-.547"/></svg>