<svg xmlns="http://www.w3.org/2000/svg" xml:space="preserve" style="background:0 0" viewBox="0 0 1328 800"><path fill="#f8a24b" d="M819.191 340.21c-3.538 5.938-7.077 11.876-11.325 17.896-10.124-5.165-19.51-10.466-28.983-15.606-1.651-.897-3.671-1.116-5.521-1.647l-.715 1.374c.987 1.224 1.89 2.53 2.977 3.658 4.385 4.553 9.03 8.874 13.183 13.628 3.072 3.516 5.53 7.569 8.261 11.382-7.535 9.505-17.94 15.157-28.318 20.728-5.406 2.902-11.234 5.017-16.86 7.515-1.934.858-3.83 1.799-6.733 3.168 5.698 4.086 10.735 7.464 15.516 11.172 12.556 9.738 24.229 20.406 32.656 34.067 10.265 16.64 11.386 34.078 3.76 52.074-5.392 12.725-13.01 24.024-22.623 33.877-3.999 4.098-6.69 8.602-8.522 14.487-3.608.897-5.29 2.216-6.178 5.563-1.774 6.687-10.491 13.067-17.16 13.44-4.804.267-5.986-1.301-4.347-5.628.363-.956.379-2.044.554-3.07l-1.26-.898c-1.767 1.715-3.557 3.406-5.292 5.153-.849.854-1.418 2.217-2.418 2.652-3.771 1.64-12.688-1.281-14.408-4.509-1.954-3.666.032-10.277 4.063-13.37 1.515-1.161 3.108-2.22 4.666-3.324l-.453-1.362c-1.59.19-3.462-.092-4.724.655-4.9 2.904-7.696 7.413-8.485 13.416-6.208-4.779-8.08-10.753-7.69-17.833.633-11.446 8.077-16.638 18.21-19.883-1.873-1.091-3.492-1.772-5.152-1.888-4.349-.302-4.373-2.645-3.079-5.836 1.935-4.77 6.11-5.08 10.054-4.278 10.045 2.041 15.608-3.18 19.768-11.203.612-1.179 1.409-2.261 2.026-3.438 3.143-5.987 4.534-12.08 1.414-18.593-3.924-8.194-10.207-14.252-17.477-19.363-1.05-.738-2.904-.33-4.703-.2.004 5.122.01 10.04.709 14.856 1.653 11.394 3.634 22.74 5.012 34.116-4.29-.057-8.12-.347-11.924-.13-4.191.24-7.097 2.716-8.598 6.559-1.332 3.411-2.142 6.935 1.053 9.945-8.919 5.187-13.628 15.955-11.345 25.937 2.913 12.732 13.91 22.963 27.011 24.492 6.681.78 13.464.69 20.256 1.409.687 8.547 1.289 16.68 1.973 24.806.19 2.25.626 4.48.948 6.72 1.494 21.612 2.904 43.231 4.537 64.833.423 5.597 1.542 11.14 2.432 17.513.671 6.954 2.424 13.237-2.166 19.002-.427.703-.624 1.236-.819 1.746.002-.022.04-.043-.21.052-.42.394-.59.691-.758.967.002-.022.046-.02-.323-.053-4.772 1.836-9.052 4.12-13.608 5.473-6.55 1.944-9.774-.186-11.12-6.817-.445-2.197-.493-4.607-.105-6.81.607-3.449 1.739-6.805 2.648-10.2-9.87 6.718-6.4 15.996-4.843 25.22-6.192 1.446-13.11 3.424-18.329-.404-9.05-6.64-6.257-16.68-4.761-26.13-4.127 3.146-5.64 7.34-5.415 12.043.215 4.519 1.003 9.01 1.54 13.516-13.248 1.427-20.562-5.99-18.664-19.164 2.17-15.064 16.688-25.593 31.857-23.364 6.424.943 12.932 1.317 20.667 2.073-8.655-8.4-30.555-7.942-45.445-.6a4030 4030 0 0 1-8.207-37.12c-.5-14.681-5.659-37.552-10.388-42.254 1.014 6.067 1.808 10.82 2.133 15.61-11.192-.986-21.916-2.008-32.8-3.365-8.05-2.104-15.938-3.875-23.944-5.81a2.6 2.6 0 0 0-.87-.351c.342.157.684.314 1.18.78 4.03 2.134 7.909 3.958 11.797 6.192 2.215 12.387 4.419 24.365 6.707 36.763a2670 2670 0 0 1-2.692 39.22c-.72 7.094-2.388 13.405-7.313 18.716-4.485 2.765-8.345 6.727-12.89 7.806-10.432 2.475-21.16 3.89-31.843 5.061-6.757.74-12.59-1.71-15.24-8.702-2.692-7.103-3.28-13.98 3.162-19.699.47-.417.595-1.224 1.016-2.146-6.614 1.503-10.056 4.857-9.782 11.031.243 5.497 1.935 10.93 2.94 16.436-.05.046-.14.144-.552.182-8.575-.51-14.749-5.25-16.563-12.367-3.273-12.842 6.072-26.63 19.552-27.637 7.309-.546 14.75.712 22.133 1.125 1.4.079 2.807.012 4.21.012l.436-1.558c-2.446-1.16-4.803-3.013-7.357-3.344-6.224-.806-12.54-.908-18.818-1.294-1.482-15.536-2.949-31.073-4.45-46.608-1.834-19.002-4.454-37.967-5.345-57.013-.968-20.72-.563-41.516-.304-62.273.11-8.775 1.379-17.536 2.546-26.63 1.636-5.677 2.846-11.028 4.056-16.379l-1.822-.328-2.009 13.95c-2.566-.507-5.133-1.463-7.697-1.453-30.023.12-59.226-4.458-87.532-14.636-3.065-1.102-6.507-1.126-9.755-1.754-3.543-.686-7.062-1.493-10.888-2.768-.505-.736-.72-.946-.942-1.15 0 0 .06-.014-.126-.312a390 390 0 0 1-2.694-5.308c-12.445 3.371-20.224 1.58-25.43-5.754-4.358-6.14-4.667-10.316-1.14-15.399 12.073 3.56 12.073 3.56 13.896 1.593-3.109-1.743-6.453-3.239-9.37-5.332-5.87-4.214-5.558-12.929.396-17.272 5.006-3.652 16.533-3.137 21.568 1.644 3.092 2.936 5.223 2.345 7.88.235-1.49-5.875-1.982-11.252 3.078-15.475 7.261-2.478 13.331 1.014 17.484 5.75 6.862 7.826 15.32 10.673 24.996 12.468 22.706 4.214 45.3 4.42 67.917-.3 1.076-.225 2.103-.684 4.424-1.458-4.444-2.031-7.783-3.645-11.19-5.1-17.77-7.585-34.19-17.193-47.388-31.613-1.562-1.706-2.87-3.643-4.166-6.126 8.368-6.49 16.606-12.328 24.844-18.166-2.202-.805-4.1-.77-5.8-.172-8.541 3.007-17.03 6.162-25.538 9.264-2.644-4.652-5.288-9.304-7.524-14.483 11.621-2.582 22.858-4.523 34.03-6.782 2.573-.52 4.925-2.131 7.379-3.24-2.503-.85-5.027-2.49-7.503-2.419-12.728.367-25.443 1.172-38.163 1.824-1.548-6.776-3.096-13.553-4.158-20.76 10.413 1.391 20.33 3.262 30.27 4.995 2.564.447 5.203.463 7.807.677l.43-1.937c-12.002-8.21-25.774-12.777-39.186-18.084-.15-18.059 5.34-34.786 12.723-50.894a144.3 144.3 0 0 1 13.176-22.887c3.502-4.966 4.765-10.027 4.876-15.748.611-31.518 3.61-62.782 10.32-93.62 1.838-8.443 4.01-16.826 6.38-25.136 1.699-5.957 4.602-7.32 9.428-3.662 11.788 8.934 23.76 17.785 34.499 27.9 13.176 12.412 25.135 26.114 37.754 39.128 1.038 1.071 3.104 1.147 5.226 2.076 2.549 9.41 4.55 18.432 6.587 27.445 1.256 5.556 5.782 7.1 9.734 3.04 1.619-1.664 3.11-4.244 3.2-6.467.384-9.382.218-18.787.253-28.183 3.035-.353 6.07-.706 9.615-.596.736 2.93.987 5.397 1.185 7.869.756 9.407 1.383 18.826 2.295 28.217.38 3.914 2.243 7.101 6.707 7.382 4.538.286 7.028-2.323 8.138-6.508.212-.8.559-1.567.75-2.372 2.753-11.599 5.49-23.201 8.232-34.803 2.812.328 5.624.656 8.83 1.54.1 2.013-.328 3.459-.466 4.932-.692 7.378-1.629 14.756-1.797 22.15-.07 3.075.577 6.831 5.132 7.342 4.694.527 5.858-2.906 7.13-6.186 2.458-6.333 4.675-12.765 7.343-19.006.83-1.941 2.793-3.398 4.237-5.076 1.809-.892 4.166-1.327 5.344-2.743 20.528-24.693 43.44-46.848 69.366-65.84a24 24 0 0 1 2.512-1.624c5.516-3.06 7.982-2.438 9.713 3.544 2.86 9.886 5.498 19.868 7.566 29.945 6.275 30.582 8.46 61.576 8.911 92.745.046 3.201 1.377 6.833 3.226 9.489 15.225 21.867 25.215 45.626 26.777 72.956-15.434 6.249-30.507 11.813-45.398 17.829-2.996 1.21-5.3 4.133-7.922 6.266l.912 1.762c3.826-.592 7.666-1.108 11.476-1.789 13.66-2.44 27.309-4.934 40.962-7.408-2.1 9.089-4.2 18.177-6.619 27.174-1.345-.775-2.299-1.875-3.414-2.074-8.157-1.454-16.327-2.868-24.533-4.013-6.238-.87-12.526-1.515-18.812-1.82-1.465-.072-3.017 1.637-4.529 2.527 1.166 1.089 2.157 2.698 3.533 3.16 2.968.995 6.166 1.275 9.21 2.072 11.497 3.011 22.97 6.112 34.452 9.18m-168.046-12.577c4.636-3.39 9.537-6.482 13.83-10.262 3.893-3.426 5.512-8.792 3.469-13.18-1.222-2.626-6.064-4.807-9.388-4.971a152.5 152.5 0 0 0-25.607.89c-6.597.791-8.018 4.69-5.499 10.894 3.38 8.322 9.594 13.35 17.93 16.781-2.101 8.587-7.968 13.401-16.239 15.03-9.788 1.927-15.716-3.147-19.447-12.412-1.102 2.082-1.77 3.982-1.307 5.546 2.618 8.855 11.739 13.578 21.493 11.605 7.57-1.53 13.126-5.97 17.652-12.475 4.703 6.751 10.475 10.747 17.751 12.384 10.516 2.366 21.27-3.646 22.18-12.445.13-1.254-.72-2.61-1.118-3.92-.969.884-2.32 1.584-2.844 2.68-3.166 6.61-7.672 9.454-15.019 9.185-8.141-.298-15.02-5.847-17.837-15.33m44.801-26.163c3.78 5.185 6.767 11.28 11.485 15.387 15.095 13.142 42.944 11.062 56.503-6.053 10.427-13.163 12.228-31.396 3.285-46.198-8.837-14.629-26.398-22.517-42.351-19.026-24.415 5.343-37.696 30.42-28.922 55.89m-94.928-2.107c.426-1.606.896-3.202 1.273-4.82 4.424-18.967-6.513-39.813-24.504-46.73-19.482-7.49-40.19.026-50.108 18.188-11.004 20.15-2.681 46.678 18.472 55.785 20.675 8.9 44.756 2.082 54.867-22.423M756.51 173.98l22.146 15.844c-.678-26.601-1.003-52.741-5.81-79.123-1.481.872-2.005 1.035-2.317 1.386a27038 27038 0 0 0-39.341 44.25c-2.063 2.327-1.091 3.495 1.467 4.79 7.846 3.967 15.533 8.252 23.855 12.853m-216.992-57.064-6.002-5.843c-3.934 26.564-6.98 51.624-6.452 78.378 15.053-13.304 31.153-22.868 50.616-30.072a28729 28729 0 0 0-38.162-42.463m168.803 111.95c2.466-.96 5.73-1.272 7.182-3.058 1.581-1.944 2.11-5.329 1.809-7.937-.125-1.08-3.74-2.721-5.515-2.451-3.868.589-7.726 1.91-11.301 3.556-3.3 1.519-4.788 6.834-3.195 10.039 1.915 3.853 4.843 1.374 7.394.913.97-.174 1.893-.603 3.626-1.061m-119.26-12.629c-1.3-.279-2.594-.601-3.904-.828-3.354-.579-6.418-.51-7.555 3.603-1.1 3.978.61 6.458 4.265 7.74 3.45 1.211 6.955 2.272 10.454 3.34 4.663 1.424 7.366-1.08 6.38-5.925-.982-4.817-4.68-6.55-9.64-7.93m-30.377 236.944c-.074.055-.148.11 0 0"/><path fill="#f79e80" d="M984.06 491.955c.44.017.878.033 1.842.305 2.047-.588 3.57-1.431 5.092-2.275 0 0 .006.015.369.01 1.782-.654 3.202-1.301 4.622-1.948 0 0 .344-.164.967-.126a268 268 0 0 1 13.505 4.24c5.71 1.688 11.143 3.184 16.821 4.87-.959 2.616-2.249 5.006-3.315 7.491-.323.755-.03 1.775-.018 2.673.991-.119 1.983-.238 3.184-.072 4.496 1.17 5.602-2.546 8.114-4.605 3.114-2.554 7.505-4.64 11.437-4.812 4.185-.183 3.187 4.42 3.285 7.62-.229.488-.457.67-1.157.738-2.718.757-5.514.982-7.235 2.46-1.98 1.699-3.142 4.445-4.275 6.912-.137.3 2.116 1.696 3.386 2.925 1.186.79 2.246 1.237 3.35 2.018 9.433 9.51 17.658 19.575 23.04 31.446 3.028-.688 5.427-1.232 8.039-1.532 1.797-.468 3.56-.936 4.94-1.933 12.63-9.128 20.64-21.328 23.934-36.578.728-3.365 1.32-6.76 2.399-10.063 4.014.692 7.615 1.238 11.187 1.93 7.47 1.45 14.906 3.07 22.389 4.44 4.914.9 6.916-2.317 7.829-6.374.39-1.738.094-3.631.11-5.454 11.408 5.187 21.826 11.853 30.86 21.239-3.98 4.584-8.053 8.486-11.959 12.548-1.943 2.02-4.002 4.114-5.275 6.556-3.407 6.533 2.351 13.74 11.285 14.42 8.462.645 15.481-3.12 22.06-7.684 1.14-.79.88-3.6 1.266-5.476 2.23-5.5 3.973-11.27 6.823-16.427 3.116-5.636 7.532-10.202 15.001-9.593 8.06.657 12.562 7.664 9.036 14.945-1.692 3.494-4.6 6.399-7.186 9.883-.504.41-.78.506-1.055.603l.208.377 1.025-.676c3.394-.725 6.758-1.821 10.187-2.091 5.932-.467 9.752 1.845 11.337 6.17 1.6 4.366.303 10.982-3.889 13.492-4.271 2.558-9.238 4.424-14.135 5.337-4.777.89-9.85.194-14.732.194 10.37 39.972 4.645 75.988-28.87 104.614-1.812-2.92-3.033-5.75-4.253-8.58l-1.511.53c.29 1.506.543 3.02.874 4.518 2.214 10.026 4.572 20.023 6.624 30.082 1.442 7.064-1.017 11.75-7.22 15.246-8.984 5.065-18.732 5.074-28.59 4.522-9.573-.536-11.135-2.382-14.149-11.491-3.307-9.996-7.655-19.647-11.984-29.472-14.007.966-27.579 1.957-41.058 2.59.7-2.18 1.307-4.001 1.915-5.823-1.299.513-2.09 1.314-2.56 2.272-6.357 12.981-12.805 25.921-18.92 39.016-2.16 4.623-4.557 8.83-9.97 9.463-10.632 1.245-21.306 1.38-31.663-1.89-5.984-1.889-8.17-5.913-6.595-12.007 1.076-4.162 2.82-8.149 4.243-12.222 2.67-7.645 5.323-15.295 8.18-23.215-1.087-.923-2.347-2.087-3.657-2.146-10.61-.48-21.364.177-31.803-1.357-10-1.47-20.48-2.06-29.652-7.01-2.519-1.359-4.116-4.426-5.85-6.893 1.378-.921 2.646-1.491 3.542-2.42 19.373-20.106 12.535-53.646-13.098-64.99-8.576-3.795-17.454-5.087-26.706-4.555 2.713-18.668 9.763-35.637 20.54-51.603 1.011-.444 1.577-.607 2.319-.414 1.94 3.014 4.06 2.412 5.354.283 2.798-4.6 5.176-9.456 7.854-14.463.715-.728 1.302-1.2 2.248-1.674 1.111-.694 1.863-1.385 2.776-2.36a46.5 46.5 0 0 1 5.325-3.664c4.218-5.266 8.08-10.476 12.188-15.42 4.73 6.781 5.951 7.066 9.43 2.41m8.525 93.118c4.205 2.947 8.17 2.259 11.703-1.08 3.664-3.463 5.172-10.59 2.324-14.684-1.777-2.553-5.183-5.22-8.025-5.418-2.588-.18-6.139 2.333-7.958 4.675-3.485 4.485-2.506 11.1 1.956 16.507m-60.838-10.374c7.15-1.594 12.365-12.362 8.422-18.32-1.031-1.558-4.723-2.749-6.541-2.144-6.605 2.195-8.108 15.674-1.881 20.464"/><path fill="#44a295" d="M110.994 613.108h12.94c.1-1.989.247-3.576.247-5.164.009-27.494-.01-54.988 0-82.482.002-7.872.95-8.731 8.98-8.793 5.83-.045 11.66-.335 17.488-.27 5.826.065 7.312 1.663 7.32 7.575.042 28.16.039 56.321.05 84.482v4.24h16.049v-5.038l-.066-130.971c-.004-8.368 1.245-9.621 9.438-9.594 6.832.023 13.664.036 20.496.006 10.682-.048 11.147.425 11.141 11.342-.02 41.658-.029 83.316-.042 124.973v9.29h20.84v-5.271c.005-51.822.005-103.644.02-155.467.002-8.778.91-9.655 9.764-9.677 7.498-.02 14.997-.04 22.495-.023 7.285.017 8.822 1.498 8.827 8.768.035 50.323.041 100.645.056 150.968v10.728h21.017c.11-1.611.293-3.047.293-4.483.005-28.494-.017-56.988-.017-85.481 0-7.622 1.15-8.783 8.54-8.787 8.498-.005 16.996-.013 25.494.012 6.766.02 8.238 1.62 8.186 8.795-.087 11.828-.228 23.656-.257 35.485-.044 17.991-.011 35.982-.011 54.37H364.8v-5.435c-.015-25.994-.04-51.989-.038-77.983 0-8.81.305-9.08 8.899-9.097 4.832-.01 9.664-.079 14.496-.092 6.75-.02 7.877 1.083 7.88 7.73.017 26.66.022 53.32.032 79.982v4.875h11.875v-5.383c-.011-30.993-.027-61.987-.03-92.98 0-7.032 1.147-8.192 8.016-8.202 4.5-.006 8.998.003 13.497.01 6.95.011 8.313 1.4 8.31 8.567-.004 16.663-.034 33.326-.04 49.989q-.01 21.745.023 43.49c.002 1.457.164 2.914.284 4.915 5.528 0 10.828-.253 16.088.102 2.868.193 5.667 1.419 8.795 2.478.297.3.297.369.297.369s.382.239.554.714c.636 1.008 1.1 1.54 1.564 2.073 0 0-.29.183-.195.426.486.659.878 1.074 1.27 1.49 0 0-.017.058-.107.509.196 2.371.347 4.323.792 6.205 1.412 5.973-2.342 10.096-5.068 14.599 0 0 .005.008-.415.058-2.868.368-5.316.965-7.765.966-114.677.045-229.354.037-344.032.047-2.325 0-4.651.135-6.977.208 0 0-.036-.069-.1-.366-1.75-1.684-3.438-3.07-5.127-4.455 0 0 .02-.065 0-.498-3.28-9.907-2.476-18.277 6.495-24.43.73-.14 1.461-.278 2.799-.169 1.778.083 2.95-.08 4.121-.245"/><path fill="#45a296" d="M140.787 327.092c-6.768-29.889-13.58-59.35-20.083-88.88-1.984-9.009 2.182-12.435 10.852-9.229 26.965 9.971 53.903 20.019 80.782 30.22 9.605 3.644 10.886 9.87 4.032 17.617-3.852 4.355-7.749 8.67-12.093 13.527 2.359 2.68 5.458 6.273 8.635 9.796 17.17 19.045 34.31 38.117 51.63 57.025 1.443 1.574 4.1 2.69 6.265 2.823 6.14.377 12.329.353 18.478.06 4.562-.219 7.777 1.33 10.829 4.76 14.498 16.294 29.24 32.372 43.862 48.556 1.099 1.216 1.95 2.657 3.19 4.371 3.358-3.448 5.807-6.144 8.447-8.639 6.214-5.872 13.192-4.041 14.746 4.221 4.363 23.205 8.475 46.46 12.463 69.732 1.224 7.142-4.393 11.494-11.183 8.928-22.243-8.407-44.47-16.856-66.658-25.404-8.46-3.26-9.147-7.737-2.465-13.818 2.831-2.576 5.522-5.308 8.255-7.99.348-.342.57-.811.969-1.393-10.734-11.803-21.422-23.671-32.308-35.356-1.149-1.233-3.443-1.884-5.236-1.946-6.489-.225-13.033.358-19.468-.271-3.12-.305-6.841-1.886-8.93-4.146-24.864-26.893-49.47-54.025-74.159-81.08-.316-.346-.833-.509-1.742-1.042-3.43 3.658-6.905 7.394-10.419 11.093-1.257 1.323-2.487 2.722-3.942 3.8-6.486 4.806-12.326 2.015-14.75-7.335"/><path fill="#85b8de" d="M754 704.074c4.36-5.595 2.608-11.878 2.094-18.436 19.358 2.853 38.69 5.897 57.912 9.527 4.775.902 9.402 3.322 13.714 5.73 4.677 2.612 5.034 6.734.37 9.303-6.031 3.32-12.617 6.372-19.318 7.595-19.738 3.602-39.586 6.787-59.508 9.151-42.748 5.074-85.745 4.977-128.667 3.81-26.208-.711-52.438-2.947-78.499-5.905-16.74-1.9-33.211-6.258-49.75-9.762-3.021-.64-5.89-2.291-8.652-3.801-5.072-2.775-5.353-7.597-.253-10.312 4.953-2.636 10.252-4.998 15.683-6.288 12.254-2.91 24.684-5.084 37.508-7.087-1.309 16.403 7.779 25.147 21.934 27.685 12.865 2.307 25.82 3.048 38.772 1.31 7.757-1.04 15.64-2.659 21.259-8.775 1.807-1.968 2.304-5.139 3.4-7.76 4.612-5.197 6.28-11.508 7.459-18.615 16.697-.284 32.828-.17 48.892.302-.654 1.735-1.275 3.098-1.821 4.49-6.672 17.015 1.433 30.13 19.615 31.768.994.09 1.989.198 2.976.348 13.65 2.083 27.217 2.013 40.49-2.195 5.07-1.608 9.926-3.888 12.42-9.169 0 0-.044-.001.214-.056.42-.365.585-.675.748-.985 0 0-.038.021.197-.125.427-.68.619-1.214.81-1.748"/><path fill="#ef9535" d="M1091.401 367.649c3.739 2.428 7.2 4.63 11.472 7.348 2.877-8.553 5.605-16.17 7.832-23.93.265-.924-1.953-3.06-3.436-3.906-10.863-6.195-17.884-14.922-18.32-27.824-.616-18.283 12.78-32.98 31.156-34.322 3.806-.278 7.723-.444 11.46.15 3.324.527 4.387-.922 5.445-3.493 4.18-10.159 4.23-10.144 15.13-7.388 1.258.318 2.493.727 4.418 1.294l-3.947 13.76c7.068 5.92 14.08 11.171 20.32 17.22 4.969 4.815 4.5 5.71-1.13 9.947a643 643 0 0 1-8.425 6.25c-.938.683-1.966 1.243-2.803 1.767l-17.137-12.57c-3.023 8.335-5.651 15.133-7.822 22.075-.315 1.006 1.32 2.961 2.47 4.026 4.726 4.373 10.52 7.897 14.275 12.956 13.379 18.02 4.327 43.168-17.518 48.834-5.946 1.543-12.445 1.336-18.679 1.236-3.345-.053-5.022.455-6.12 3.881-3.54 11.055-3.635 10.788-14.83 8.24-4.374-.995-5.048-2.794-3.53-6.575 1.293-3.22 2.23-6.584 3.106-9.227-6.765-4.338-13.165-8.395-19.502-12.55-1.092-.716-1.961-1.8-2.855-2.786-7.74-8.544-7.603-9.753 1.345-16.485 3.148-2.37 6.12-4.974 9.226-7.516 2.94 3.389 5.531 6.375 8.4 9.588m32.682 11.156c4.746-1.022 8.533-3.13 8.912-8.586.343-4.932-2.614-9.283-7.612-11.202l-6.491 19.643c1.82.095 3.106.163 5.191.145m-9.843-63.616c-.483 6.797 1.119 9.95 6.567 12.49l6.403-19.16c-7.002-1.028-9.551.252-12.97 6.67"/><path fill="#ef9534" d="M1086.963 104.881c.324-3.476 1.974-4.1 4.859-3.644 11.653 1.837 11.66 1.765 9.275 13.478-.262 1.287-.433 2.593-.487 2.923 7.316 5.276 14.11 10.172 20.9 15.076 3.88 2.802 3.88 5.697.33 8.848-3.592 3.19-7.069 6.512-10.397 9.592l-17.472-10.496c-2.224 8.167-4.262 14.956-5.75 21.863-.227 1.05 1.835 3.12 3.28 3.92 8.491 4.689 16.101 10.351 19.795 19.638 7.64 19.211-3.262 38.64-23.93 42.83-4.036.819-8.254 1.007-12.387 1-2.994-.004-4.41.755-5.076 3.91-2.675 12.663-2.787 12.648-15.298 9.985-.953-.203-1.86-.624-3.275-1.11.574-2.629 1.098-5.171 1.692-7.698.568-2.411 1.21-4.805 1.923-7.617-3.272-1.2-6.395-2.221-9.419-3.48-7.685-3.199-14.323-7.748-18.827-14.982-1.498-2.405-1.652-4.11.814-6.401 4.005-3.722 7.364-8.138 11.375-12.693 6.684 7.164 12.706 12.767 21.513 15.057l6.522-24.846c-3.133-1.684-5.932-3.104-8.65-4.664-11.268-6.468-17.264-15.99-16.124-29.202 1.118-12.945 8.008-22.179 19.872-27.08 4.933-2.037 10.62-3.055 15.963-3.056 4.805 0 7.071-1.28 7.642-5.929.2-1.634.824-3.215 1.337-5.222m2.064 94.388c.157-5.732-2.759-9.418-8.177-12.376l-4.403 20.813c6.421-.494 11.116-1.552 12.58-8.437m-20.065-57.79c-4.656 6.132-2.69 13.099 4.572 15.754l4.676-20.359c-3.822 1.817-6.248 2.97-9.248 4.604"/><path fill="#ef9535" d="M206.087 176.333c1.32.333 2.685.651 3.434 1.508 4.715 5.392 10.394 9.188 17.988 11.534l6.466-24.682c-2.626-1.361-4.987-2.531-7.298-3.793-12.962-7.072-19.235-18.29-17.34-30.95 2.188-14.61 12.23-25.163 26.778-27.93 3.087-.588 6.321-1.16 9.4-.854 4.495.447 6.303-1.342 6.925-5.557.453-3.071 1.564-6.046 2.497-9.486 3.16.587 6.075 1.097 8.977 1.675 6.915 1.378 6.913 1.39 5.073 8.412-2.133 8.135-1.858 7.685 5.23 12.018 5.753 3.517 10.787 8.229 16.048 12.524 2.308 1.884 2.042 3.967-.179 5.859-.252.215-.463.48-.708.705-3.43 3.151-6.502 8.089-10.413 8.882-3.118.633-7.225-3.854-10.963-5.942-2.263-1.264-4.66-2.288-7.296-3.565-1.947 7.075-3.9 13.423-5.304 19.89-.284 1.307 1.145 3.512 2.408 4.525 3.095 2.483 6.763 4.257 9.829 6.77 11.32 9.28 15.463 22.31 11.297 34.701-3.994 11.877-16.769 20.907-30.407 21.493-10.338.445-10.33.447-12.961 10.662-.406 1.575-.937 3.118-1.561 5.175l-15.668-3.078 3.468-14.985c-5.187-2.39-10.602-4.198-15.228-7.216-4.368-2.849-8.084-6.798-11.748-10.59-2.536-2.624-2.686-5.34.746-7.99 3.673-2.838 6.867-6.294 10.51-9.715m38.976 7.162-1.674 8.057c7.065.41 11.162-1.872 12.347-6.533 1.245-4.892-2.084-10.422-8-12.848-.85 3.532-1.689 7.02-2.673 11.324m-5.222-59.3c-4.269 1.812-6.648 4.8-5.99 9.661.562 4.144 2.678 7.044 6.665 9.05l4.569-19.766c-2.017.378-3.27.612-5.244 1.056"/><path fill="#86b8dd" d="M1186.202 691.987c13.271.703 25.902 4.05 37.876 9.689 1.993.939 4.648 3.526 4.52 5.155-.167 2.104-2.444 5.102-4.479 5.817-9.84 3.46-19.726 7.24-29.924 9.145-26.81 5.01-53.95 7.728-81.227 8.252-29.956.575-59.961 1.632-89.875.55-33.823-1.224-67.7-3.603-100.783-11.717-6.065-1.487-12.042-3.823-17.632-6.622-5.386-2.696-5.367-7.511.234-9.958 7.715-3.368 15.87-5.821 23.985-8.143 4.585-1.312 9.47-1.575 14.677-1.857-1.421 14.586 1.172 18.284 15.65 20.726 6.344 1.07 12.83 1.512 19.269 1.748 7.533.276 13.203-3.258 16.17-10.187 2.271-5.303 3.827-10.912 6.138-16.423 4.06-.007 7.682.024 11.26.411-1.712 4.696-3.605 8.963-5 13.388-3.201 10.144-.166 15.782 9.975 19.134 9.848 3.255 19.994 3.194 30.134 2.404 8.501-.662 14.028-5.326 16.753-13.478 1.526-4.567 3.786-8.905 5.115-13.518 1.364-4.739 3.702-7.22 8.965-5.617 1.232 6.697 4.138 11.674 11.142 11.847 7.085.174 14.237-.201 21.274-1.046 3.92-.47 7.684-2.364 9.137-7.118 1.32-2.245 2.413-4.28 3.502-5.932 1.636 6.103 3.23 11.839 4.93 17.543 1.399 4.693 4.53 7.642 9.326 8.745 11.728 2.698 23.443 2.838 34.932-.98 9.769-3.247 13.397-8.57 13.754-18.976.035-.995.133-1.988.202-2.982"/><path fill="#f7a24b" d="M808.442 466.06c-9.053-23.405-12.58-46.803 1.886-69.408 6.987-10.919 16.865-18.416 30.245-19.978 7.554-.882 13.698 2.106 18.268 8.072 4.804 6.268 5.5 13.119 1.814 20.15-2.313 4.413-5.298 8.487-7.452 12.968-6.417 13.345-4.427 26.9-.81 40.885-14.876 2.742-29.414 5.027-43.951 7.311"/><path fill="#ed9436" d="M386.85 135.056c14.677 8.112 18.641 23.358 9.155 34.905-4.663 5.676-11.067 8.385-18.335 8.975-2.123.172-4.272.026-6.279.026-1.14 3.826-1.188 8.264-3.39 10.065-1.878 1.535-6.235.038-10.16-.149l1.343-11.63c-8.45-1.99-16.18-5.25-21.166-13.862l9.732-10.29 15.168 9.417c1.294-6.57 2.48-11.645 3.129-16.788.112-.892-1.888-2.382-3.19-3.064-6.604-3.458-12.88-7.104-14.856-15.129-3.506-14.237 5.591-27.722 20.873-29.236 6.387-.632 9.241-2.876 9.679-8.896.226-3.11 2.02-3.844 4.798-3.258 2.248.475 4.522.827 7.292 1.324L389.1 98.304c5.529 3.832 10.577 7.231 15.508 10.792 2.413 1.741 2.314 3.514.003 5.656-2.427 2.25-4.37 5.022-6.344 7.352l-13.378-6.944c-1.12 5.844-2.406 10.788-2.784 15.8-.09 1.195 2.855 2.618 4.744 4.096m-10.381 16.295-2.074 11.565c4.24.488 7.23-.676 8.442-4.285 1.173-3.493-.149-6.562-3.23-8.568-.591-.385-1.903.34-3.138 1.288m-7.463-24.61c.57-.133 1.587-.165 1.644-.415.889-3.926 1.655-7.881 2.449-11.83l-1.473-1.086c-2.066 1.706-5.392 3.127-5.86 5.194-.51 2.262 1.619 5.121 3.24 8.138"/><path fill="#f8bf4c" d="M975.597 299.344c-8.194-6.401-17.827-6.906-27.158-8.43-1.65-.269-3.26-.782-4.89-1.183l-.03-1.343c1.48-.428 2.94-.964 4.447-1.264 3.588-.713 7.205-1.279 10.799-1.967 17.41-3.333 23.003-8.902 26.426-26.506.823-4.238 1.254-8.55 1.986-12.807.395-2.298 1.044-4.552 1.579-6.825l1.594.018c.496 2.445 1.055 4.88 1.473 7.337.866 5.077 1.333 10.244 2.537 15.236 3.926 16.268 11.362 22.48 28.519 24.451 3.663.421 7.293 1.124 10.939 1.698l.13 1.645c-1.031.523-2.017 1.347-3.103 1.514-3.448.529-6.95.7-10.402 1.21-16.431 2.427-23.451 9.223-26.62 25.774-1 5.226-1.795 10.49-2.748 15.725-.246 1.353-.732 2.662-1.108 3.99l-1.439.072c-.492-1.738-1.07-3.457-1.462-5.217-1.8-8.091-3.199-16.294-5.485-24.243-.912-3.17-3.743-5.789-5.984-8.885"/><path fill="#ed9738" d="M970.894 354.753c-.66 1.39-1.308 2.373-1.759 3.44-1.36 3.218-3.322 4.278-6.637 2.424-1.173-.656-2.764-.565-4.58-.89-.307 2.623-.502 4.74-.81 6.84-.579 3.942.569 6.237 4.76 7.765 8.018 2.922 12.272 10.283 11.336 17.929-1.041 8.504-7.143 15.176-15.596 16.538-2.522.406-3.81.952-4.007 3.788-.508 7.322-.639 7.313-9.22 5.869 2.245-7.502-2.185-9.556-8.518-11.802-5.267-1.868-6.613-4.731-.309-12.25 3.174.942 6.434 1.91 10.536 3.126.397-4.769.983-8.854.917-12.928-.018-1.14-1.751-2.731-3.053-3.291-7.767-3.342-12.08-9.19-11.405-17.525.66-8.155 5.518-13.93 13.484-16.196 4.821-1.371 2.812-4.94 3.225-7.654.36-2.364-.031-4.592 3.469-4.823 3.56-.234 5.612.685 4.958 4.57-.872 5.18.933 7.637 6.346 8.73 2.617.53 4.662 3.893 6.863 6.34m-14.143 31.242c-.81 3.361-1.62 6.723-2.58 10.698 7.583-1.893 8.112-4.723 2.58-10.698m-7.885-19.102v-6.596l-1.595-.432c-.762 1.563-1.978 3.07-2.183 4.703-.325 2.583 1.164 3.604 3.778 2.325"/><path fill="#e7795d" d="M948.97 680.453c1.288-4.904 2.576-9.808 4.3-15.238 2.16-.441 4.033-.765 5.58-.198 5.393 1.978 10.697 4.207 15.99 6.446 7.414 3.134 14.788 6.362 22.202 9.967-2.473 7.734-4.443 15.301-7.741 22.237-1.212 2.548-5.41 4.695-8.514 5.135-9.458 1.343-18.877.135-27.96-2.96-4.016-1.367-6.416-4.01-5.833-8.632.703-5.58 1.321-11.17 1.976-16.757"/><path fill="#f8bf4c" d="M1168.302 150.517c.936 4.84 1.688 9.269 2.66 13.649 1.753 7.889 6.972 12.177 14.684 13.785 4.556.95 9.133 1.832 13.63 3.015 1.36.357 2.484 1.618 3.716 2.465-1.347.783-2.607 1.92-4.06 2.28-3.705.917-7.5 1.467-11.252 2.2-11.537 2.252-15.269 5.871-17.61 17.333-.864 4.232-1.39 8.532-2.174 12.782-.309 1.678-.897 3.304-1.359 4.954l-1.323.078c-.412-1.067-1.01-2.102-1.205-3.208-.75-4.257-1.36-8.54-2.043-12.809-1.871-11.68-6.316-16.468-17.913-19.148-3.56-.822-7.187-1.354-10.745-2.185-1.781-.416-3.476-1.204-5.21-1.824l-.06-1.601c2.388-.763 4.747-1.637 7.17-2.264 3.86-.999 7.763-1.84 11.65-2.735 11.443-2.637 14.609-11.498 16.137-21.538.5-3.286.668-6.624 1.209-9.901.231-1.404 1.026-2.715 1.565-4.069l1.467.21c.327 2.7.654 5.4 1.066 8.531"/><path fill="#f7a14a" d="M858.662 481.873c2.477 12.474 2.874 24.989.075 37.85-1.796.074-2.926-.16-4.06-.373q-19.65-3.696-39.302-7.388c-.441-7.995-.883-15.99-.91-24.416 15.008-2.178 29.602-3.925 44.197-5.673"/><path fill="#9e3f24" d="M915.632 578.944c9.647-.616 18.525.676 27.101 4.471 25.633 11.344 32.471 44.884 13.098 64.99-.896.929-2.164 1.499-3.919 2.44-3.078 1.58-5.497 2.956-7.916 4.332-2.2.003-4.491-.4-6.585.073-22.55 5.093-44.3-8.166-49.769-30.468-4.201-17.132 2.31-34.186 16.368-41.878 3.424-1.874 7.468-2.615 11.622-3.96m-2.76 68.902c7.474 2.601 14.998 3.824 22.977 2.304 24.055-4.58 33.993-30.348 19.087-49.845-7.508-9.822-17.681-14.86-29.746-16.177-15.075-1.646-28.496 6.137-31.938 18.947-4.734 17.619.963 36.536 19.62 44.77"/><path fill="#b64a21" d="M815.257 512.37c13.219 2.054 26.32 4.516 39.42 6.98 1.134.213 2.264.447 3.797.683-2.628 9.634-5.656 19.255-9.348 29.042-6.797-2.393-12.94-4.925-19.058-7.516-6.702-2.837-13.38-5.728-20.069-8.596 1.714-6.728 3.427-13.456 5.258-20.592"/><path fill="#f7a14a" d="M809.685 533.101c7.003 2.73 13.681 5.62 20.383 8.458a1080 1080 0 0 0 18.79 7.745c-4.93 11.282-12.018 21.135-22.428 28.61-4.265-5.39-7.519-11.007-11.852-15.607-4.68-4.969-10.367-8.988-15.615-13.421 3.47-5.216 6.938-10.432 10.722-15.785"/><path fill="#ad491d" d="M724.19 453.935c1.482.122 3.337-.287 4.386.45 7.27 5.112 13.553 11.17 17.477 19.364 3.12 6.514 1.729 12.606-1.414 18.593-.617 1.177-1.414 2.259-2.026 3.438-4.16 8.024-9.723 13.244-19.768 11.203-3.945-.801-8.12-.493-10.054 4.278-1.294 3.191-1.27 5.534 3.08 5.836 1.659.116 3.278.797 5.152 1.888-10.134 3.245-17.578 8.437-18.21 19.883-.391 7.08 1.481 13.054 7.69 17.833.788-6.003 3.585-10.512 8.484-13.416 1.262-.747 3.133-.465 4.724-.655l.453 1.362c-1.558 1.105-3.151 2.163-4.666 3.324-4.031 3.093-6.017 9.704-4.063 13.37 1.72 3.228 10.637 6.149 14.408 4.509 1-.435 1.57-1.798 2.418-2.652 1.735-1.747 3.525-3.438 5.293-5.153l1.26.897c-.176 1.027-.192 2.115-.555 3.071-1.639 4.327-.457 5.895 4.347 5.627 6.669-.372 15.386-6.752 17.16-13.439.888-3.347 2.57-4.666 5.879-5.354-.837 6.805-4.437 12.445-9.882 17.72-2.305 1.544-4.058 2.74-6.165 3.982a84 84 0 0 0-3.606 1.06c-6.737-.304-13.52-.213-20.2-.993-13.102-1.53-24.1-11.76-27.012-24.492-2.283-9.982 2.426-20.75 11.345-25.937-3.195-3.01-2.385-6.534-1.053-9.945 1.501-3.843 4.407-6.318 8.598-6.558 3.803-.218 7.635.072 12.288.121 5.975-1.965 8.677-5.981 10.438-11.234 6.548-8.95 5.705-17.108-5.292-26.477 0 1.321 0 2.464-.278 3.402-3.732-5.106-7.184-10.006-10.636-14.906"/><path fill="#9c3f23" d="m1026.92 506.837-2.975.358c-.011-.898-.305-1.918.018-2.673 1.066-2.485 2.356-4.875 3.381-7.825 4.438-5.247 9.054-9.97 13.948-14.853a497 497 0 0 0 4.974-3.415c10.17-6.595 20.573-12.696 32.568-15.442 14.165-3.243 19.337-.363 23.977 13.388.582 1.724 1.067 3.48 1.885 5.935.613 6.919.939 13.124 1.264 19.33-.654 3.381-1.245 6.777-1.973 10.142-3.294 15.25-11.304 27.45-23.934 36.578-1.38.997-3.143 1.465-4.926 1.598-.455-1.648-.714-2.717-.646-3.886 2.81-2.032 5.566-3.698 7.733-5.935 17.541-18.107 21.042-39.704 14.864-63.3-2.265-8.654-6.762-10.494-16.152-8.317-23.246 5.388-40.678 18.958-54.007 38.317"/><path fill="#b64a21" d="M858.683 481.547c-14.616 2.074-29.21 3.821-44.216 5.583-2.31-6.769-4.21-13.551-6.067-20.702 14.58-2.652 29.117-4.937 44.022-7.293 2.13 6.333 3.892 12.739 5.637 19.711-.02.808.08.997.278 1.134.122.414.245.828.346 1.567"/><path fill="#b34a22" d="M665.689 142.947c-2.381 11.83-5.119 23.433-7.872 35.032-.191.805-.538 1.571-.75 2.372-1.11 4.185-3.6 6.794-8.138 6.508-4.464-.28-6.327-3.468-6.707-7.382-.912-9.391-1.539-18.81-2.295-28.217-.198-2.472-.449-4.939-.744-7.816 8.669-.514 17.407-.62 26.506-.497"/><path fill="#be6726" d="M999.066 117.832c.953 2.9 2.366 5.737 2.786 8.713 3.57 25.347-8.827 50.526-31.224 63.814-23.28 13.811-51.532 12.859-72.197-3.131-6.072-4.7-10.92-10.98-16.05-16.889 2.117.213 4.338.305 5.724 1.428 4.79 3.88 9.288 8.12 14.103 12.498 13.126 7.074 26.414 12.059 41.48 9.745 22.324-3.43 38.906-14.687 49.354-34.946 5.608-10.875 5.106-22.448 5.221-34.338.461-2.482.632-4.688.803-6.894"/><path fill="#ea866b" d="M944.066 655.496c2.35-1.695 4.768-3.071 7.562-4.468 2.395 2.264 3.992 5.331 6.51 6.69 9.172 4.95 19.654 5.54 29.653 7.01 10.439 1.534 21.194.876 31.803 1.357 1.31.059 2.57 1.223 3.303 2.27-1.921 2.142-3.678 3.708-4.585 5.668-1.963 4.245-3.49 8.692-5.403 12.742-4.037-1.417-7.866-2.521-12.038-3.674-1.513-.725-2.683-1.402-3.853-2.078-7.39-3.188-14.764-6.416-22.177-9.55-5.294-2.239-10.598-4.468-15.99-6.446-1.548-.567-3.422-.243-5.483-.175-3.302-2.907-6.267-5.967-9.302-9.346"/><path fill="#a94720" d="M621.686 700.173c-.783 2.507-1.28 5.678-3.087 7.646-5.619 6.116-13.502 7.735-21.259 8.776-12.952 1.737-25.907.996-38.772-1.31-14.155-2.54-23.243-11.283-21.518-27.656 4.184-12.08 12.127-19.555 24.71-22.371 6.608.207 12.924.309 19.148 1.115 2.554.331 4.91 2.183 7.357 3.344l-.436 1.558c-1.403 0-2.81.067-4.21-.012-7.383-.413-14.824-1.67-22.133-1.125-13.48 1.008-22.825 14.795-19.552 27.637 1.814 7.116 7.988 11.858 16.634 12.512.601.132.72.157.84.183l-.31-.555c-1.054-5.461-2.746-10.894-2.99-16.39-.273-6.175 3.17-9.529 9.783-11.032-.42.922-.545 1.73-1.016 2.146-6.442 5.718-5.854 12.596-3.162 19.7 2.65 6.992 8.483 9.442 15.24 8.701 10.682-1.171 21.41-2.586 31.843-5.061 4.545-1.079 8.405-5.04 12.89-7.806"/><path fill="#a04227" d="M938.71 526.488c-.566.162-1.132.325-1.999.426-16.924-19.092-19.916-41.207-14.744-65.035 1.865-8.588 5.878-10.994 14.512-8.974 12.202 2.855 22.223 9.802 30.843 18.458 6.054 6.078 10.967 13.294 16.564 20.297-3.304 4.951-4.524 4.666-9.356-2.402-1.782-2.57-3.078-4.704-4.675-6.582-9.202-10.824-20.196-19.19-33.725-23.885-6.553-2.274-7.846-1.511-9.365 5.11-2.49 10.848-2.204 21.715-.129 32.601 1.951 10.24 7.219 18.635 14.442 25.783z"/><path fill="#ee8b3d" d="M774.03 564.35c4.07-2.042 8.141-4.085 12.754-5.957 7.71 5.215 12.833 11.634 14.42 20.507.84 4.705 1.836 9.382 2.761 14.072-8.062 2.645-16.124 5.29-24.718 7.593.901-7.208 2.781-14.088.398-21.087-1.732-5.09-3.734-10.089-5.615-15.128"/><path fill="#b64a21" d="M804.331 592.972c-1.291-4.69-2.286-9.367-3.127-14.072-1.587-8.873-6.71-15.292-14.086-20.596 3.589-3.254 7.386-6.248 11.514-9.33 5.579 4.345 11.267 8.364 15.946 13.333 4.333 4.6 7.587 10.217 11.525 15.708-6.996 5.201-14.2 10.08-21.772 14.957"/><path fill="#ca7225" d="M999.065 117.615c-.17 2.423-.34 4.629-1.071 6.872-.965-1.052-1.428-2.123-1.766-3.231-4.218-13.828-12.347-24.825-23.855-33.493-2.406-1.812-3.112-1.211-3.728 1.281-21.978-12.68-43.749-13.673-64.54 1.047-16.88 11.95-24.39 29.25-24.44 49.625a78 78 0 0 1-2.717-8.17c-.125-14.835 5.247-27.032 15.202-37.144 16.693-16.955 36.886-22.516 60.113-17.907 2.132.423 4.492-.302 7.124-.453 2.635.643 4.892 1.245 7.15 1.848 0 0 .271-.092.364.436.23 7.063.334 7.126 6.184 4.852.588-.229 1.3-.141 1.954-.2 0 0-.035.027.09.24.43.379.735.543 1.04.708 0 0-.113.016-.003.223.437.375.765.542 1.092.71 0 0-.151.022-.054.231.445.36.791.51 1.138.661 0 0-.173.03-.084.268.663.473 1.237.706 1.811.94 0 0-.06.036.06.24.412.388.704.571.996.755 0 0-.088.009.02.214a5.5 5.5 0 0 0 1 .778s-.101.01.003.213c.4.399.696.594.991.79 0 0-.098.01.007.212.4.399.694.595.988.792 0 0-.095.008.005.208.38.404.66.609.94.813 0 0-.07.013.038.211.368.402.63.606.891.81 0 0-.008.005-.002.37 4.321 8.115 8.636 15.863 12.952 23.61 0 0 .106.422.107.64"/><path fill="#b94927" d="M1195.967 537.568c-.215 2.173.045 4.982-1.094 5.772-6.58 4.564-13.6 8.329-22.06 7.684-8.935-.68-14.693-7.887-11.286-14.42 1.273-2.442 3.332-4.536 5.275-6.556 3.906-4.062 7.978-7.964 12.106-12.274 5.712 6.272 11.3 12.885 17.059 19.794"/><path fill="#d1612b" d="M773.644 564.362c2.267 5.027 4.269 10.026 6.001 15.116 2.383 6.999.503 13.88-.804 21.039-8.864 1-17.854 1.708-27.171 2.148-.142-.466.082-.602.749-.674 1.39-.403 3.113-.64 3.25-1.237 2.515-11.024 4.962-22.084 2.348-33.475 5.08-.969 10.161-1.937 15.627-2.917"/><path fill="#64b0a5" d="M103.055 643.567c2.077-.369 4.403-.504 6.728-.504 114.678-.01 229.355-.002 344.032-.047 2.449 0 4.897-.598 7.76-.969-3.143.91-6.7 2.706-10.262 2.714-71.1.158-142.202.101-213.303.107-42.294.003-84.589.056-126.883.012-2.608-.002-5.216-.663-8.072-1.313"/><path fill="#b24626" d="M1106.386 501.72c-.751-6.286-1.077-12.491-1.414-19.155.472-.424.955-.39 1.884.137 7.153 2.056 13.86 3.622 20.567 5.187 0 0 .346-.076.708.3 1.039.483 1.716.588 2.393.694 0 0 .305-.087.594.279.88.5 1.47.635 2.061.77 4.698 1.997 9.395 3.995 14.407 6.161.3 1.99.596 3.884.205 5.622-.913 4.057-2.915 7.274-7.83 6.374-7.482-1.37-14.919-2.99-22.388-4.44-3.572-.692-7.173-1.238-11.187-1.93"/><path fill="#9a4027" d="M1186.043 691.612c.09 1.37-.008 2.362-.043 3.357-.357 10.406-3.985 15.729-13.754 18.976-11.489 3.818-23.204 3.678-34.932.98-4.795-1.103-7.927-4.052-9.326-8.745a378 378 0 0 1-4.894-17.938c-.334-1.434-.708-2.091-1.084-3.093.001-1.262.005-2.178.002-3.492-.637-4.126-1.268-7.856-1.898-11.586 3.894 9.801 8.242 19.452 11.55 29.448 3.013 9.109 4.575 10.955 14.148 11.491 9.858.552 19.606.543 28.59-4.522 6.203-3.497 8.662-8.182 7.22-15.246-2.052-10.06-4.41-20.056-6.624-30.082-.33-1.497-.585-3.012-.874-4.518l1.511-.53c1.22 2.83 2.44 5.66 3.936 8.71 2.288 8.952 4.3 17.683 6.472 26.79"/><path fill="#ad4d25" d="M446.026 386.361c-5.08 4.519-4.588 9.896-3.099 15.771-2.656 2.11-4.787 2.701-7.879-.235-5.035-4.781-16.562-5.296-21.568-1.644-5.954 4.343-6.266 13.058-.396 17.272 2.917 2.093 6.261 3.59 9.37 5.332-1.823 1.967-1.823 1.967-13.897-1.593-3.526 5.083-3.217 9.258 1.142 15.399 5.205 7.333 12.984 9.125 25.429 5.754.82 1.638 1.664 3.323 2.669 5.326-4.12.606-8.408 1.207-12.681 1.122-11.492-.228-20.791-8.024-22.665-18.705-.228-1.3-.682-2.849-.218-3.935 2.798-6.551 2.207-13.654 3.606-20.36 2.145-10.281 11.365-14.933 22.42-12.443 2.742.617 5.4 1.609 7.805 2.34 2.133-3.256 4.102-6.557 6.437-9.575.462-.597 2.327-.109 3.525.174"/><path fill="#e29637" d="M959.01 76.001c-2.255.192-4.615.917-6.747.494-23.227-4.609-43.42.952-60.113 17.907-9.955 10.112-15.327 22.31-15.47 37.419-.786 3.107-1.293 5.488-1.8 7.869l-1.394-.31-1.295-14.316c1.585-16.565 10.08-29.477 22.447-39.701 16.778-13.873 36.108-18.446 58.039-12.603 1.67.775 2.785.983 3.9 1.191 0 0 .13-.154.412.163.899.481 1.515.646 2.132.811 0 0-.073-.086-.076.187-.014.478-.025.684-.035.89"/><path fill="#af4920" d="M628.68 143.912c.412 9.471.578 18.876.194 28.258-.09 2.223-1.581 4.803-3.2 6.467-3.952 4.06-8.478 2.516-9.734-3.04-2.037-9.013-4.038-18.035-6.212-27.438 6.063-1.696 12.284-3.009 18.952-4.247m201.333 159.853c-13.763 2.713-27.412 5.208-41.072 7.647-3.81.68-7.65 1.197-11.476 1.789l-.912-1.762c2.622-2.133 4.926-5.056 7.922-6.266 14.89-6.016 29.964-11.58 45.365-17.393.465.097.537.282.475 1.187-.05 2.197.033 3.674.117 5.151-.014 1.346-.028 2.693-.229 4.827-.142 1.877-.096 2.967-.05 4.056-.01.175-.02.35-.14.764"/><path fill="#b34a22" d="M696.163 148.619c-1.149 1.931-3.112 3.388-3.942 5.329-2.668 6.24-4.885 12.673-7.342 19.006-1.273 3.28-2.437 6.713-7.131 6.186-4.555-.51-5.202-4.267-5.132-7.343.168-7.393 1.105-14.771 1.797-22.15.138-1.472.567-2.918.868-4.771 6.867.9 13.727 2.195 20.882 3.743"/><path fill="#9a4027" d="M997.042 681.43c1.146.26 2.316.936 3.758 2.012.036 1.852-.2 3.305-.436 4.758-1.874 5.473-3.43 11.082-5.7 16.385-2.968 6.93-8.638 10.463-16.171 10.187-6.44-.236-12.925-.678-19.27-1.748-14.477-2.442-17.07-6.14-15.21-20.704a146 146 0 0 1 4.664-11.617c-.362 5.336-.98 10.927-1.683 16.507-.583 4.622 1.817 7.265 5.833 8.633 9.083 3.094 18.502 4.302 27.96 2.96 3.104-.441 7.302-2.588 8.514-5.136 3.298-6.936 5.268-14.503 7.74-22.237"/><path fill="#d5812b" d="M872.064 125.459c.559 4.377.99 9.149 1.422 13.92l1.393.31c.508-2.38 1.015-4.76 1.791-7.417 1.089 2.209 1.909 4.692 3.168 7.78 3.504 8.395 6.334 16.29 9.737 23.93 1.585 3.557 4.278 6.621 6.46 10.285.87 1.622 1.799 2.835 2.612 4.122 1.163 1.839 2.241 3.732 3.355 5.602-4.609-4.103-9.107-8.344-13.897-12.224-1.386-1.123-3.607-1.215-5.792-1.766-.347.014-.311.01-.347-.305-.704-1.128-1.371-1.941-2.039-2.755-8.225-12.614-10.159-26.452-7.863-41.482m1.036 18.06.419.707c.13-.243.413-.545.348-.714-.077-.202-.452-.29-.767.007"/><path fill="#af4920" d="M819.489 340.03c-11.78-2.888-23.253-5.989-34.75-9-3.044-.797-6.242-1.077-9.21-2.072-1.376-.462-2.367-2.071-3.533-3.16 1.512-.89 3.064-2.599 4.529-2.528 6.286.306 12.574.951 18.812 1.821 8.206 1.145 16.376 2.559 24.533 4.013 1.115.2 2.069 1.299 3.182 2.332a69 69 0 0 1-3.563 8.594m-339.685-13.54c12.724-1.038 25.44-1.843 38.167-2.21 2.476-.07 5 1.568 7.503 2.419-2.454 1.109-4.806 2.72-7.379 3.24-11.172 2.26-22.409 4.2-34.024 6.42-1.691-3.05-2.981-6.266-4.267-9.868m317.571 44.299c-3.038-3.708-5.496-7.761-8.568-11.277-4.152-4.754-8.798-9.075-13.183-13.628-1.087-1.128-1.99-2.434-2.977-3.658l.715-1.374c1.85.531 3.87.75 5.521 1.647 9.473 5.14 18.859 10.441 28.632 15.682-3.04 4.164-6.436 8.333-10.14 12.607"/><path fill="#a94720" d="M474.794 291.298c13.59 5.004 27.361 9.571 39.362 17.78l-.43 1.938c-2.603-.214-5.242-.23-7.805-.677-9.94-1.733-19.858-3.604-30.202-5.407-.646-4.433-.875-8.882-.925-13.634"/><path fill="#eda54a" d="M398.675 289.117c-3.13.902-5.838.716-6.036-2.574-.065-1.086 2.734-3.189 4.4-3.397 12.377-1.543 24.798-2.735 37.207-4.009 1.155-.119 2.482-.398 3.458.024 1.345.582 2.432 1.76 3.63 2.684-1.174 1.08-2.245 2.948-3.537 3.116-9.071 1.176-18.188 2.006-27.29 2.937-3.808.39-7.618.758-11.832 1.22M887.072 272.1c5.741.628 11.066 1.026 16.299 1.95 1.568.276 2.878 2.018 4.305 3.088-1.683.9-3.413 2.65-5.044 2.562-9.467-.51-18.905-1.525-28.365-2.21-3.803-.276-7.67.132-11.44-.322-1.9-.229-3.65-1.69-5.467-2.593 1.773-1.153 3.538-3.278 5.321-3.293 7.977-.065 15.96.472 24.391.819m-432.155-48.974a10889 10889 0 0 1-31.369-19.295c-2.119-1.307-5.078-2.651-2.78-5.54.765-.96 4.302-.797 5.83.106 10.452 6.187 20.75 12.642 30.973 19.204 1.274.817 1.822 2.768 2.706 4.193-1.675.497-3.35.995-5.36 1.332m-21.027 23.088c4.232 1.173 8.167 1.997 11.87 3.424 1.245.48 1.902 2.492 2.828 3.804-1.503.642-3.24 2.132-4.473 1.792-10.41-2.866-20.766-5.953-31.029-9.307-1.292-.423-1.954-2.777-2.907-4.236 1.801-.568 3.835-1.978 5.363-1.556 6.072 1.678 11.987 3.928 18.348 6.08m37.161-54.292c1.32 2.151 2.843 3.869 3.467 5.867.49 1.564-.135 3.477-.265 5.235-1.608-.58-3.938-.674-4.709-1.819a780 780 0 0 1-18.047-28.105c-.677-1.105.2-3.163.356-4.78 1.426.452 3.484.454 4.175 1.427 5.1 7.178 9.927 14.55 15.023 22.175"/><path fill="#f5977a" d="M1045.8 478.344c-1.1 1.17-2.665 2.254-4.914 3.495-9.434 2.438-18.21 4.629-26.909 7.09-1.437.407-2.54 1.997-3.798 3.04-4.201-1.336-8.403-2.673-13.037-4.035 9.231-2.607 18.814-5.568 28.586-7.634 6.394-1.351 13.062-1.405 20.073-1.956"/><path fill="#df6f30" d="M757.687 567.174c2.944 11.496.497 22.556-2.019 33.58-.136.598-1.86.834-3.316.825-.588-6.178-.538-11.952-.871-17.704-.272-4.69-1.002-9.352-1.529-14.027a300 300 0 0 1 5.546-3.721c.81.225 1.335.584 2.189 1.047"/><path fill="#eda54a" d="M869.822 234.945c4.216-1.202 7.99-2.573 11.885-3.319 1.387-.266 3.065.983 4.611 1.54-1.03 1.446-1.781 3.76-3.136 4.196-9.152 2.946-18.404 5.602-27.704 8.047-1.3.342-3.038-.988-4.573-1.544.945-1.323 1.619-3.367 2.883-3.844 5.115-1.928 10.411-3.374 16.034-5.076m-10.255-46.069c4.818 1.246 5.639 3.36 2.4 6.163-7.033 6.086-14.187 12.042-21.516 17.764-1.155.902-3.484.3-5.27.394.47-1.56.45-3.664 1.485-4.596 7.408-6.667 15.03-13.096 22.9-19.725"/><path fill="#a94720" d="M491.682 351.542c8.414-3.44 16.904-6.595 25.445-9.602 1.7-.598 3.598-.633 5.8.172-8.238 5.838-16.476 11.676-24.874 17.827-2.2-2.477-4.238-5.268-6.37-8.397"/><path fill="#f9be44" d="M924.88 383.21c1.434.74 3.3 1.374 3.4 2.217.422 3.58.794 7.313.126 10.787-.202 1.055-4.84 2.627-5.638 1.92-1.834-1.624-3.214-4.407-3.578-6.896-.56-3.82.463-7.4 5.69-8.027"/><path fill="#ee8b3d" d="M749.598 569.894c.881 4.629 1.611 9.292 1.883 13.981.333 5.752.283 11.526.466 17.703-.195.485-.419.62-.728.974-.593.22-1.064.284-1.893.346a32.4 32.4 0 0 1-1.306-6.722c-.684-8.126-1.286-16.26-1.973-24.806 1.029-.754 2.112-1.092 3.55-1.476"/><path fill="#be6726" d="M999.109 116.71c-4.467-7.482-8.782-15.23-13.1-23.348 6.506 6.266 11.207 13.922 13.1 23.347"/><path fill="#64b0a5" d="M103.736 613.483c-8.633 6.192-9.436 14.562-6.173 24.44-6.194-7.945-3.279-20.385 6.173-24.44m358.589 28.43c2.396-4.424 6.15-8.547 4.738-14.52-.445-1.882-.596-3.834-.774-6.181 4.035 7.292 2.646 15.106-3.964 20.7"/><path fill="#be6726" d="M974.86 82.693c-.476.344-1.187.256-1.775.485-5.85 2.274-5.955 2.21-6.094-4.74 2.563 1.045 5.127 2.508 7.87 4.255"/><path fill="#9c3f23" d="M1127.153 487.613a292 292 0 0 1-19.978-4.733c6.485 1.278 13.096 2.867 19.978 4.733"/><path fill="#ca7225" d="M554.634 470.163c.798-5.015 1.468-9.665 2.137-14.315l1.822.328c-1.21 5.351-2.42 10.702-3.902 15.972-.243-.595-.214-1.107-.057-1.985"/><path fill="#be6726" d="M959.387 76.042c-.367-.246-.356-.452-.297-.963 2.35.543 4.651 1.392 7.2 2.526-2.01-.318-4.268-.92-6.903-1.563"/><path fill="#64b0a5" d="M97.663 638.77c1.605 1.066 3.293 2.451 5.053 4.177-1.61-1.06-3.289-2.458-5.053-4.177"/><path fill="#f5977a" d="M990.641 489.993a18.5 18.5 0 0 1-4.411 2.297c1.221-.914 2.64-1.601 4.411-2.297m4.994-1.949c-1.07.65-2.49 1.297-4.279 1.945 1.064-.648 2.497-1.298 4.28-1.945"/><path fill="#f8a24b" d="M830.59 293.821c-.242-1.18-.325-2.657-.257-4.556.24 1.138.328 2.699.257 4.556"/><path fill="#be6726" d="M879.99 167.255c.605.5 1.272 1.313 1.968 2.457-.615-.494-1.26-1.318-1.967-2.457"/><path fill="#64b0a5" d="M110.6 613.03c-.777.242-1.949.406-3.353.351.831-.29 1.895-.36 3.353-.351"/><path fill="#f8a24b" d="M830.336 302.758c-.23-.846-.275-1.936-.19-3.413.212.798.293 1.984.19 3.413"/><path fill="#64b0a5" d="M465.258 618.483c-.42-.252-.883-.785-1.398-1.603.418.251.885.788 1.398 1.603"/><path fill="#ca7225" d="M956.354 73.667c-.892.076-2.007-.132-3.44-.648-.094-.337.13-.366.869-.183.516.21.956.233.956.233.464.105.928.21 1.615.598"/><path fill="#64b0a5" d="M466.338 620.396c-.352-.133-.744-.548-1.08-1.288.384.118.713.561 1.08 1.288"/><path fill="#be6726" d="M979.936 86.687c-.44.038-1.015-.195-1.654-.752.463-.056.991.212 1.654.752m-20.963-12.06c-.469.133-1.085-.032-1.894-.467.454-.123 1.1.022 1.894.467"/><path fill="#9c3f23" d="M1130.285 488.63q-.658.221-2.026-.318.658-.221 2.026.318m2.705 1.056q-.601.166-1.773-.4.602-.165 1.774.4"/><path fill="#be6726" d="M985.943 92.74c-.196.05-.458-.153-.818-.589.185-.044.469.145.818.589"/><path fill="#e29637" d="M954.686 72.938c.053.131-.387.109-.594.034.002-.315.251-.345.594-.034"/><path fill="#ad4d25" d="M437.983 448.289c.186-.048.402.162.76.544-.142.013-.434-.14-.76-.544"/><path fill="#f7a14a" d="M858.436 479.827c-.298.016-.396-.173-.34-.567.311-.052.44.137.34.567"/><path fill="#be6726" d="M983.059 89.683c-.215.07-.511-.125-.907-.575.208-.066.517.12.907.575m-6.986-6.015c-.21.093-.514-.071-.94-.471.2-.086.523.063.94.47m1.087.924c-.23.1-.557-.067-.99-.499.226-.098.559.067.99.5m1.088.887c-.253.122-.6-.029-1.032-.464.256-.126.597.033 1.032.464m2.792 2.215c-.207.076-.5-.107-.903-.529.198-.07.508.1.903.53m1.02.987c-.213.073-.51-.118-.912-.559.206-.068.517.113.912.559m2.947 3.028c-.208.06-.488-.145-.864-.596.2-.055.496.138.864.595m-.954-1.022c-.213.07-.507-.127-.903-.575.206-.065.514.122.903.575"/><path fill="#64b0a5" d="M463.255 615.926c-.07.05-.07-.02-.082-.005s.152-.045.082.005"/><path fill="#fcfcf9" d="M695.797 301.112c-8.625-25.113 4.656-50.189 29.07-55.532 15.954-3.491 33.515 4.397 42.352 19.026 8.943 14.802 7.142 33.035-3.285 46.198-13.559 17.115-41.408 19.195-56.503 6.053-4.718-4.107-7.705-10.202-11.634-15.745m34.452-35.096c-10.467-5.035-19.296-2.308-24.748 7.81-5.217 9.677-4.18 19.288 1.127 28.496 5.035 8.734 16.55 10.881 24.724 4.933 12.737-9.27 12.504-29.88-1.103-41.239m-129.342 33.726c-10 24.126-34.081 30.945-54.756 22.044-21.153-9.107-29.476-35.635-18.472-55.785 9.918-18.162 30.626-25.678 50.108-18.188 17.991 6.917 28.928 27.763 24.504 46.73-.377 1.618-.847 3.214-1.384 5.199m-44.832-4.639c.863 1.972 1.613 4.004 2.61 5.905 3.216 6.127 8.446 9.393 15.257 9.597 7.084.212 12.554-3.054 15.927-9.294 4.333-8.018 5.175-16.402 1.7-24.992-3.045-7.526-8.18-12.544-16.687-12.894-7.893-.325-15.18 4.319-17.641 12.824-1.637 5.657-.924 11.995-1.166 18.854"/><path fill="#effdfc" d="M678.418 681.386c-16.132-.113-32.263-.226-48.854-.326.431-12.792 1.322-25.598 2.235-39.225.153-4.916-.047-9.052.482-13.092.998-7.632 2.416-15.209 3.815-22.983.38-.394.624-.59.886-.763 10.723 1.023 21.447 2.045 32.802 3.364 3.132 9.112 5.631 17.928 8.131 26.744 2.673 12.105 5.346 24.21 7.987 36.967-2.516 3.54-5 6.427-7.484 9.314"/><path fill="#e3602e" d="M756.223 173.76c-8.035-4.381-15.722-8.666-23.568-12.634-2.558-1.294-3.53-2.462-1.467-4.788a27038 27038 0 0 1 39.34-44.25c.313-.352.837-.515 2.318-1.387 4.807 26.382 5.132 52.522 5.81 79.123-7.907-5.657-15.027-10.75-22.433-16.064"/><path fill="#e3612e" d="M539.772 117.17a56348 56348 0 0 1 37.908 42.209c-19.463 7.204-35.563 16.768-50.616 30.072-.528-26.754 2.518-51.814 6.452-78.378 2.501 2.435 4.252 4.139 6.256 6.097"/><path fill="#e86d71" d="M645.883 327.074c-8.34-2.72-14.553-7.748-17.933-16.07-2.519-6.203-1.098-10.103 5.499-10.894a152.6 152.6 0 0 1 25.607-.89c3.324.164 8.166 2.345 9.388 4.97 2.043 4.389.424 9.755-3.468 13.181-4.294 3.78-9.195 6.871-14.25 10.35-1.894-.158-3.369-.402-4.843-.647"/><path fill="#ac4b21" d="M678.35 681.746c2.552-3.247 5.036-6.134 7.7-9.302 14.923-7.994 36.823-8.453 45.478-.052-7.735-.756-14.243-1.13-20.667-2.073-15.17-2.229-29.687 8.3-31.857 23.364-1.898 13.174 5.416 20.59 18.664 19.164-.537-4.507-1.325-8.997-1.54-13.516-.225-4.703 1.288-8.897 5.415-12.044-1.496 9.45-4.29 19.491 4.761 26.131 5.219 3.828 12.137 1.85 18.33.403-1.559-9.223-5.028-18.501 4.842-25.22-.909 3.396-2.041 6.752-2.648 10.2-.388 2.204-.34 4.614.106 6.811 1.345 6.631 4.57 8.761 11.119 6.817 4.556-1.352 8.836-3.637 13.608-5.473-2.125 5.313-6.98 7.593-12.052 9.2-13.272 4.209-26.838 4.279-40.49 2.196a49 49 0 0 0-2.975-.348c-18.182-1.637-26.287-14.753-19.615-31.767.546-1.393 1.167-2.756 1.821-4.491"/><path fill="#4f301c" d="M645.881 327.43c1.476-.111 2.95.133 4.665.616 3.416 9.07 10.295 14.62 18.436 14.917 7.347.27 11.853-2.576 15.019-9.185.525-1.096 1.875-1.796 2.844-2.68.397 1.31 1.249 2.666 1.119 3.92-.91 8.799-11.665 14.811-22.18 12.445-7.277-1.637-13.05-5.633-17.752-12.384-4.526 6.504-10.082 10.944-17.652 12.475-9.754 1.973-18.875-2.75-21.493-11.605-.463-1.564.205-3.464 1.307-5.546 3.731 9.265 9.66 14.34 19.447 12.412 8.27-1.629 14.138-6.443 16.24-15.385"/><path fill="#ee8b3d" d="M723.873 454.186c3.77 4.65 7.221 9.55 11.198 14.947 2.034 7.996 3.543 15.493 5.052 22.99-1.488 5.046-4.19 9.062-9.695 11.018-2.212-11.358-4.193-22.705-5.846-34.099-.699-4.817-.705-9.734-.71-14.856"/><path fill="#8c3e1e" d="M707.927 228.94c-1.339.385-2.262.814-3.232.988-2.551.46-5.479 2.94-7.394-.913-1.593-3.205-.105-8.52 3.195-10.04 3.575-1.645 7.433-2.966 11.301-3.555 1.775-.27 5.39 1.37 5.515 2.451.301 2.608-.228 5.993-1.809 7.937-1.451 1.786-4.716 2.097-7.576 3.131M589.439 216.37c4.581 1.249 8.28 2.98 9.262 7.798.986 4.845-1.717 7.35-6.38 5.926-3.499-1.069-7.003-2.13-10.454-3.34-3.654-1.283-5.364-3.763-4.265-7.74 1.137-4.115 4.201-4.183 7.555-3.604 1.31.227 2.603.55 4.282.96"/><path fill="#ee8b3d" d="M635.94 605.935c-1.243 7.6-2.66 15.176-3.66 22.808-.528 4.04-.328 8.176-.565 12.671-2.312-11.575-4.516-23.553-6.349-35.924 3.772-.114 7.173.165 10.574.445"/><path fill="#be6726" d="M677.876 634.673c-2.46-8.384-4.96-17.2-7.623-26.35-.957-5.086-1.751-9.838-2.765-15.905 4.73 4.702 9.889 27.573 10.388 42.255"/><path fill="#b64a21" d="M636.096 605.76c-3.557-.105-6.958-.384-10.74-.68-4.26-1.84-8.138-3.664-12.182-5.787-.165-.3-.18-.275-.18-.275 7.889 1.77 15.778 3.54 23.827 5.645-.101.507-.344.703-.725 1.097m-23.075-6.777c-.33-.167-.672-.324-1.014-.481.251.062.502.123.87.35.117.166.132.14.144.13"/><path fill="#ac4b21" d="M753.77 704.244q.059.546-.582 1.6-.059-.546.583-1.6"/><path fill="#ca7225" d="M558.573 453.265c-.037.027.037-.028 0 0"/><path fill="#ac4b21" d="M752.742 706.042c.087.215-.077.525-.5.912-.09-.221.08-.518.5-.912"/><path fill="#e77257" d="M1074.154 546.172c.259 1.07.518 2.138.762 3.541-2.415.88-4.814 1.424-7.843 2.112-5.381-11.871-13.606-21.936-22.929-31.769 5.534-6.885 10.986-13.126 16.473-19.338 4.104-4.647 8.252-9.256 12.548-14.175 1.872-1.298 3.528-2.398 5.289-3.291 8.134-4.124 12.494-1.419 12.512 7.938.007 3.444-.413 6.923-.983 10.328-2.505 14.967-6.7 29.314-15.755 41.842-.454.628-.068 1.861-.074 2.812"/><path fill="#f5997d" d="M1074.481 546.072c-.321-.85-.707-2.084-.253-2.712 9.054-12.528 13.25-26.875 15.755-41.842.57-3.405.99-6.884.983-10.328-.018-9.357-4.378-12.062-12.512-7.938-1.761.893-3.417 1.993-5.63 3.392-7.932 6.42-15.357 12.446-22.782 18.473-.175-2.99.823-7.594-3.362-7.41-3.932.171-8.323 2.257-11.437 4.81-2.512 2.06-3.618 5.776-8.114 4.606 13.119-19.645 30.55-33.215 53.797-38.603 9.39-2.177 13.887-.337 16.152 8.317 6.178 23.596 2.677 45.193-14.864 63.3-2.167 2.237-4.923 3.903-7.733 5.935"/><path fill="#f5977a" d="M938.886 526.843c.545-1.635 1.266-2.915 2.192-4.558-7.223-7.148-12.49-15.544-14.442-25.783-2.075-10.886-2.36-21.753.129-32.6 1.52-6.622 2.812-7.385 9.365-5.111 13.53 4.694 24.523 13.06 33.725 23.885 1.597 1.878 2.893 4.012 4.429 6.315-3.761 5.498-7.623 10.708-11.89 15.616-7.073-12.51-16.134-22.46-28.36-30.749-3.146 17.163 2.382 31.525 8.937 45.817 3.033-2.28 6.014-4.518 8.994-6.756-2.55 4.751-4.927 9.607-7.725 14.207-1.295 2.13-3.413 2.731-5.354-.283"/><path fill="#973f26" d="M1013.115 687.079c1.706-4.364 3.234-8.81 5.197-13.056.907-1.96 2.664-3.526 4.389-5.396-2.307 7.524-4.96 15.174-7.63 22.82-1.422 4.072-3.167 8.06-4.243 12.22-1.575 6.095.61 10.12 6.595 12.008 10.357 3.27 21.031 3.135 31.663 1.89 5.413-.633 7.81-4.84 9.97-9.463 6.115-13.095 12.563-26.035 18.92-39.016.47-.958 1.261-1.76 2.56-2.272-.608 1.822-1.215 3.643-2.103 6.08-2.346 5.02-4.45 9.41-6.405 13.864-.148.337.762 1.138 1.421 1.879a149 149 0 0 0 4.43 1.848c-5.139-1.202-7.477 1.279-8.841 6.018-1.329 4.613-3.589 8.95-5.115 13.518-2.725 8.152-8.252 12.816-16.753 13.478-10.14.79-20.286.851-30.134-2.404-10.14-3.352-13.176-8.99-9.976-19.134 1.396-4.425 3.29-8.692 5.234-13.511.459-.777.64-1.074.821-1.371"/><path fill="#e36c50" d="M952.094 512.663c-3.11 2.494-6.09 4.733-9.123 7.012-6.555-14.292-12.083-28.654-8.937-45.817 12.226 8.288 21.287 18.24 28.004 30.804-1.555 1.466-3.158 2.574-5.235 4.019a107 107 0 0 0-2.82 2.31c-.587.472-1.174.944-1.89 1.672"/><path fill="#ea866b" d="M1073.208 688.482c-.418-.586-1.328-1.387-1.18-1.724 1.955-4.455 4.06-8.843 6.313-13.506 13.76-1.248 27.331-2.24 41.338-3.205 1.065 3.754 1.696 7.484 1.929 11.647-9.035 1.784-17.652 3.28-26.315 4.441-7.335.984-14.721 1.58-22.085 2.347"/><path fill="#321e19" d="M992.288 584.837c-4.164-5.17-5.143-11.786-1.658-16.27 1.82-2.343 5.37-4.856 7.958-4.676 2.842.197 6.248 2.865 8.025 5.418 2.848 4.093 1.34 11.221-2.324 14.684-3.533 3.339-7.498 4.027-12 .844m-60.879-10.288c-5.89-4.64-4.386-18.119 2.219-20.314 1.818-.605 5.51.586 6.541 2.144 3.943 5.958-1.272 16.726-8.76 18.17"/><path fill="#b24626" d="M1010.457 492.161c.98-1.235 2.083-2.825 3.52-3.232 8.7-2.461 17.475-4.652 26.631-6.929-4.21 4.728-8.826 9.45-13.509 14.507-5.499-1.162-10.932-2.658-16.642-4.346"/><path fill="#a04227" d="M1049.965 505.327a1135 1135 0 0 1 22.693-18.39c-3.789 4.525-7.937 9.134-12.041 13.781-5.487 6.212-10.94 12.453-16.516 19.004-1.17-.124-2.231-.572-3.233-1.675 2.818-4.425 5.577-8.193 8.336-11.962.304-.088.532-.271.761-.758"/><path fill="#f5997d" d="M1048.808 506.064c-2.363 3.79-5.122 7.558-8.065 11.642-1.33-.574-3.582-1.97-3.445-2.27 1.133-2.467 2.295-5.213 4.275-6.912 1.72-1.478 4.517-1.703 7.235-2.46"/><path fill="#f5977a" d="M954.342 510.989c.422-.656 1.204-1.313 2.3-2.024-.437.639-1.189 1.33-2.3 2.024"/><path fill="#f0fdfe" d="M1220.003 536.995c-.354.206-.696.432-1.038.657l-.208-.377a4.6 4.6 0 0 1 1.058-.26c.232.032.2-.002.188-.02"/><path fill="#f5f9eb" d="M1123.684 378.847c-1.685-.024-2.97-.092-4.791-.187 2.26-6.84 4.373-13.232 6.49-19.643 4.999 1.919 7.956 6.27 7.613 11.202-.38 5.457-4.166 7.564-9.312 8.628m-9.297-64.03c3.273-6.046 5.822-7.326 12.824-6.298l-6.403 19.16c-5.448-2.54-7.05-5.693-6.42-12.862m-25.383-115.143c-1.442 6.48-6.137 7.538-12.558 8.032l4.403-20.813c5.418 2.958 8.334 6.644 8.155 12.781m-19.755-58.437c2.712-1.394 5.138-2.546 8.96-4.363l-4.676 20.359c-7.262-2.655-9.228-9.622-4.284-15.996m-824.115 41.849c.912-3.896 1.751-7.383 2.602-10.915 5.915 2.426 9.244 7.956 8 12.848-1.186 4.66-5.283 6.943-12.348 6.533.565-2.723 1.12-5.39 1.746-8.466m-4.933-58.995c1.613-.34 2.866-.573 4.883-.95l-4.569 19.766c-3.987-2.007-6.103-4.907-6.664-9.05-.66-4.862 1.72-7.85 6.35-9.766"/><path fill="#a04227" d="M1073.449 688.637c7.123-.922 14.51-1.518 21.844-2.502 8.663-1.16 17.28-2.657 26.322-4.044.4.88.396 1.796-.023 3.142-13.184 2.631-25.952 4.833-38.86 7.06.163 3.173 2.507 4.886 5.888 5.675 10.607 2.477 20.698.05 30.709-3.187-1.226 4.542-4.99 6.436-8.91 6.906-7.037.845-14.189 1.22-21.274 1.046-7.004-.173-9.91-5.15-11.142-11.847-1.521-.965-2.917-1.53-4.554-2.25"/><path fill="#e7795d" d="M1119.556 694.57c-10.238 3.448-20.329 5.875-30.936 3.398-3.38-.79-5.725-2.502-5.887-5.675 12.907-2.227 25.675-4.429 38.861-6.716.792.574 1.166 1.231 1.504 2.284-1.129 2.429-2.222 4.463-3.542 6.708"/><path fill="#f5f9eb" d="M1012.909 686.765c.025.61-.156.908-.57 1.329-3.856.092-7.479.061-11.538.068-.2-1.415.035-2.868.342-4.672 3.9.754 7.73 1.858 11.766 3.275"/><path fill="#f9eedd" d="M376.597 150.983c1.107-.58 2.419-1.305 3.01-.92 3.081 2.006 4.403 5.075 3.23 8.568-1.213 3.609-4.201 4.773-8.442 4.285.71-3.958 1.392-7.762 2.202-11.933"/><path fill="#f5f9eb" d="M368.685 126.533c-1.3-2.808-3.43-5.667-2.918-7.93.467-2.066 3.793-3.487 5.859-5.193l1.473 1.087c-.794 3.948-1.56 7.903-2.45 11.83-.056.25-1.073.281-1.964.206"/><path fill="#f9eedd" d="M957.062 386.15c5.22 5.82 4.692 8.65-2.89 10.543.958-3.975 1.769-7.337 2.89-10.543m-8.228-18.864c-2.582.886-4.07-.135-3.746-2.718.205-1.633 1.42-3.14 2.183-4.703l1.595.432c0 2.199 0 4.398-.032 6.989"/><path fill="#f6997c" d="M912.515 647.701c-18.3-8.09-23.997-27.007-19.263-44.626 3.442-12.81 16.863-20.593 31.938-18.947 12.065 1.317 22.238 6.355 29.746 16.177 14.906 19.497 4.968 45.264-19.087 49.845-7.98 1.52-15.503.297-23.334-2.449m22.22-26.945c-.869-3.847-1.586-7.74-2.711-11.511-.292-.978-1.781-1.99-2.87-2.198-.709-.135-2.186.99-2.47 1.835-2.564 7.627-2.403 15.26.752 22.689.427 1.005 2.159 2.304 2.946 2.107 1.181-.296 2.65-1.641 2.955-2.812.784-3.003.995-6.155 1.399-10.11m-32.78-15.103c-3.041 4.502-2.817 19.877.487 23.881.646.783 2.23 1.7 2.837 1.412 1.16-.554 2.486-1.796 2.77-2.985 1.68-7.008.66-13.872-2.058-20.44-.426-1.031-2.2-1.505-4.036-1.868"/><path fill="#f9eedd" d="M740.396 491.916c-1.782-7.29-3.291-14.787-5.046-22.577-.246-1.436-.246-2.579-.246-3.9 10.997 9.369 11.84 17.526 5.292 26.477"/><path fill="#d98729" d="M902.208 184.265c-1.32-2.144-2.398-4.037-3.561-5.876-.813-1.287-1.742-2.5-2.25-4.087 1.27.025 2.322.203 3.05.785 14.73 11.763 31.206 16.133 49.79 12.078 20.298-4.43 34.512-16.156 40.974-35.895 6.677-20.4 1.818-38.557-13.271-53.904-2.674-2.72-5.3-5.488-7.948-8.233.27-2.581.975-3.182 3.38-1.37 11.51 8.668 19.638 19.665 23.856 33.493.338 1.108.801 2.18 1.475 3.507.445 11.853.947 23.426-4.661 34.3-10.448 20.26-27.03 31.518-49.354 34.947-15.066 2.314-28.354-2.67-41.48-9.745"/><path fill="#f8a24b" d="M559.049 709.96c.152.14.255.325.358.51-.119-.026-.238-.05-.428-.22-.07-.146.02-.244.07-.29"/><path fill="#f9be44" d="M968.645 89.044c2.995 2.834 5.62 5.602 8.295 8.322 15.089 15.347 19.948 33.504 13.27 53.904-6.46 19.74-20.675 31.466-40.972 35.895-18.585 4.055-35.06-.315-49.79-12.078-.73-.582-1.781-.76-3.043-1.16-2.552-3.324-5.245-6.388-6.83-9.945-3.403-7.64-6.233-15.535-9.47-23.661-.39-20.98 7.12-38.28 24-50.23 20.791-14.72 42.562-13.728 64.54-1.047m-5.76 61.438c-.861-10.76-6.787-17.274-16.904-20.428-1.432-.446-3.648-1.615-3.731-2.599-.395-4.676-.177-9.403-.177-15.015l11.835 4.454 6.417-12.225c-5.027-1.708-9.436-3.648-14.049-4.64-3.942-.85-5.892-2.277-5.23-6.55.503-3.257.117-5.609-4.49-5.587-4.44.021-5.058 2.058-4.644 5.492.474 3.94-.637 6.041-4.963 7.426-9.962 3.19-14.86 9.944-15.004 18.846-.156 9.659 3.677 15.481 14.161 19.213 4.921 1.752 6.606 4.262 5.835 9.079-.182 1.137-.032 2.328-.034 3.494-.01 6.872-.795 7.783-6.989 5.23-6.497-2.676-7.102-2.884-11.007 4.418-.596 1.114-1.214 2.215-2.448 4.46 6.053 1.9 11.54 3.514 16.932 5.393 1.315.458 3.044 1.596 3.355 2.75 1.602 5.968 2.548 6.557 9.389 4.332-1.547-5.828 2.18-7.443 6.954-9.01 8.412-2.762 13.586-8.693 14.792-18.533"/><path fill="#e29637" d="M873.135 143.302c.28-.08.655.008.732.21.065.17-.219.47-.348.714a2.9 2.9 0 0 1-.384-.924"/><path fill="#432c23" d="M730.569 266.208c13.287 11.167 13.52 31.777.783 41.047-8.174 5.948-19.689 3.801-24.724-4.933-5.307-9.208-6.344-18.819-1.127-28.497 5.452-10.117 14.281-12.844 25.068-7.617M556.027 294.69c.29-6.446-.423-12.784 1.214-18.441 2.461-8.505 9.748-13.15 17.64-12.824 8.508.35 13.643 5.368 16.688 12.894 3.475 8.59 2.633 16.974-1.7 24.992-3.373 6.24-8.843 9.506-15.927 9.294-6.811-.204-12.04-3.47-15.256-9.597-.998-1.901-1.748-3.933-2.66-6.318"/><path fill="#9c3f23" d="M934.754 621.187c-.422 3.524-.633 6.676-1.417 9.679-.306 1.17-1.774 2.516-2.955 2.812-.787.197-2.52-1.102-2.946-2.107-3.155-7.428-3.316-15.062-.753-22.69.285-.845 1.762-1.969 2.47-1.834 1.09.208 2.58 1.22 2.87 2.198 1.126 3.77 1.843 7.664 2.731 11.942m-32.456-15.718c1.493.547 3.268 1.02 3.694 2.051 2.717 6.57 3.739 13.433 2.059 20.441-.285 1.19-1.61 2.431-2.771 2.985-.606.289-2.191-.629-2.837-1.412-3.304-4.004-3.528-19.379-.145-24.065"/><path fill="#fcf1a3" d="M962.874 150.89c-1.195 9.432-6.37 15.363-14.781 18.125-4.774 1.567-8.5 3.182-6.954 9.01-6.84 2.225-7.787 1.636-9.39-4.331-.31-1.155-2.04-2.293-3.354-2.751-5.393-1.88-10.879-3.492-16.932-5.392 1.234-2.246 1.852-3.347 2.448-4.46 3.905-7.303 4.51-7.095 11.007-4.418 6.194 2.552 6.98 1.641 6.99-5.231.001-1.166-.149-2.357.033-3.494.771-4.817-.914-7.327-5.835-9.08-10.484-3.73-14.317-9.553-14.16-19.212.144-8.902 5.04-15.656 15.003-18.846 4.326-1.385 5.437-3.485 4.963-7.426-.414-3.434.204-5.47 4.644-5.492 4.607-.022 4.993 2.33 4.49 5.587-.662 4.273 1.288 5.7 5.23 6.55 4.613.992 9.022 2.932 14.049 4.64l-6.417 12.225-11.835-4.454c0 5.612-.218 10.34.177 15.015.083.984 2.3 2.153 3.731 2.599 10.117 3.154 16.043 9.667 16.893 20.837m-14.904 1.247c.22-4.65-1.733-7.568-6.462-8.914v14.194l1.13.723c1.736-1.745 3.473-3.49 5.332-6.003m-16.038-36.996c-.03-1.913-.51-3.874-2.625-1.735-1.551 1.57-3.277 4.163-3.013 6.03.332 2.353 2.61 4.432 4.049 6.63l1.591-.815c0-3.09 0-6.18-.002-10.11"/><path fill="#f8bf4c" d="M947.909 152.523c-1.798 2.129-3.535 3.873-5.272 5.618l-1.13-.723v-14.194c4.73 1.346 6.684 4.263 6.402 9.299m-15.976-36.96.001 9.69-1.591.814c-1.439-2.198-3.717-4.277-4.05-6.63-.263-1.867 1.463-4.46 3.014-6.03 2.115-2.139 2.594-.178 2.626 2.156"/></svg>