<svg xmlns="http://www.w3.org/2000/svg" xml:space="preserve" style="background:0 0" viewBox="0 0 1280 771"><path fill="#fbaf57" d="M800.241 324.34c-3.683 6.222-7.365 12.443-11.693 18.55-10.322-6.726-20.619-11.955-31.777-15.264l-1.453 1.919 23.831 24.003c-12.284 12.33-27.499 19.846-43.321 26.362-4.403 1.813-8.81 3.614-13.722 5.525-5.556 1.171-10.606 2.24-15.656 3.309l.39 1.961 16.294-2.727c7.591 5.309 15.539 10.183 22.69 16.03 10.54 8.616 21.02 17.42 30.616 27.048 18.385 18.445 20.474 38.105 7.25 60.785-10.542 18.084-23.38 34.348-39.145 48.224-1.481 1.304-2.663 2.949-4.53 4.82-4.616 4.758-8.464 9.369-12.816 13.442-4.77 4.464-10.021 4.49-13.939.745l7.757-10.884-1.173-.812c-3.667 3.047-7.162 6.335-11.042 9.08-4.954 3.504-11.74 2.114-14.805-3-3.351-5.59 2.31-6.9 5-9.552 2.018-1.99 4.105-3.909 6.161-5.86l-1.126-1.521c-2.58 1.567-5.183 3.095-7.731 4.71-2.632 1.669-5.21 3.421-7.992 5.257-.753-.917-1.356-1.476-1.749-2.156-4.903-8.504-1.94-20.413 6.832-27.035 3.348-2.527 6.906-4.777 10.368-7.154l-.552-1.396-11.39 2.514c-1.446-7.159 1.668-11.676 8.38-12.172 3.442-.254 6.982.037 10.406.551 3.269.491 5.854-.01 7.947-2.72 6.29-8.144 12.662-16.225 18.96-24.363 1.858-2.401 1.624-4.055-1.24-5.98-7.3-4.904-14.32-10.23-21.357-15.515-4.147-3.113-8.11-6.47-12.157-9.717l-1.374 1.111c2.967 3.965 5.934 7.93 8.925 12.309.492 5.002.992 9.588 1.42 14.18.81 8.674 1.58 17.35 2.139 26.34-4.34.095-8.453-.284-12.569-.31-7.556-.048-14.003 3.855-13.97 11.23.037 8.287-4.18 14.417-6.304 21.578-4.098 13.824 1.423 24.693 16.113 35.611 4.725 2.064 9.304 3.816 13.877 5.954.781 2.096 1.156 4.26 2.438 5.429 3.167 2.884 3.86 5.77 2.91 10.071-1.939 8.78-3.013 17.75-4.443 26.642-2.035 18.662-4.194 37.312-5.966 55.999-.254 2.68 1.356 5.539 1.941 8.935-3.266 3.378-.265 4.97 1.09 6.766 4.48 5.945 5.302 13.58 1.964 19.225-2.913 4.925-8.872 7.675-14.613 6.742 4.112-15.958 1.609-26.76-5.365-26.255.756 5.64 1.985 11.278 2.154 16.949.22 7.43-3.248 11.317-10.487 11.98-4.308.394-8.717-.317-13.33-.543 4.803-15.015 2.695-25.267-5.464-26.658.418 1.226.568 2.347 1.127 3.2 3.066 4.68 2.95 9.772 1.899 14.902-1.093 5.335-5.403 7.823-10.49 5.912-5.723-2.149-10.426-5.855-11.287-12.221-.725-5.363.064-10.914-.413-16.33-2.113-23.986-4.478-47.95-6.65-71.93-.335-3.704-1.79-5.145-5.668-4.997-12.123.464-23.822-1.734-35.034-6.435-2.117-.887-4.29-1.64-6.437-2.455l-.492 1.127c2.862 2.205 5.725 4.41 8.626 6.967 1.366 2.796 2.436 5.434 4.093 7.629 1.683 2.23 3.945 4.021 5.959 6.437-2.018 23.582-4.054 46.733-6.056 69.886-.642 7.415-2.625 14.3-9.426 18.308-6.849 4.036-14.47 5.911-22.475 5.437-4.883-.289-8.77-3.6-9.187-7.662-.664-6.469-.302-12.696 5.204-17.393.739-.63 1.076-1.73 1.721-2.82-10.189-.91-14.441 11.052-10.117 27.72-6.613.367-13.578 1.176-17.952-4.612-6.266-8.292-3.07-16.77 1.452-25.248-2.663 1.163-5.476 2.402-6.606 4.534-4 7.546-3.502 15.24 1.557 22.84-3.216-.999-5.663-1.76-8.304-2.811-1.89-4.76-3.589-9.228-5.287-13.695 3.39-9.691 9.618-16.836 18.742-21.65 1.301-.687 2.475-3.294 2.298-4.852-3.012-26.58-6.429-53.117-9.382-79.704-2.94-26.481-4.71-53.014-1.48-79.637 1.6-13.191 2.939-26.414 4.9-40.132 3.07-10.698 5.636-20.885 8.2-31.073l-1.264-.34c-.467 1.187-1.148 2.337-1.365 3.568-1.356 7.71-6.125 12.85-12.759 16.214a828 828 0 0 1-32.31 15.51c-2.562 1.163-4.475 2.03-4.112 5.155-10.294 2.947-20.283.95-29.542-3.289-17.96-8.22-35.558-17.227-53.307-25.906-3.12-1.527-6.244-3.048-9.82-4.658-.453-.085-.585-.411-.503-.747-1.394-1.715-2.708-3.342-4.375-4.425-4.295-2.79-9.195-4.834-12.957-8.182-2.088-1.858-2.377-5.735-3.477-8.702 3.149-.96 6.274-2.014 9.46-2.837 1.319-.34 2.766-.184 4.155-.254-5.298-5.67-10.67-4.558-16.361-.695-1.8-4.954-2.035-9.36.301-13.754 1.218-2.29 2.702-3.122 5.208-1.463 2.737 1.812 5.704 3.277 8.634 4.93 3.572-3.742-.138-5.05-2.05-6.543-3.611-2.821-7.989-5.598-6.043-10.807 1.988-5.324 7.282-4.965 12.032-4.68.823.049 1.643.223 2.454.392 7.407 1.543 13.454 5.409 18.736 10.723 3.276 3.297 5.883 2.906 7.212-.79 4.677 1.57 9.48 2.847 14.008 4.767 12.847 5.447 25.588 11.147 38.356 16.78 1.346.593 2.551 1.508 3.901 2.088 3.636 1.563 7.057 2.925 11.182.538 17.114-9.904 34.39-19.53 52.32-29.31 7.886 1.403 14.694 4.887 22.168 4.693l.311-1.445-22.565-5.39c-13.187-6.144-26.954-11.317-39.372-18.747-9.511-5.69-17.318-14.23-25.681-21.978 8.759-5.36 17.316-10.247 25.874-15.134l-.838-1.966c-1.798.26-3.7.23-5.376.83-8.206 2.934-16.351 6.036-24.518 9.079-2.893-4.703-5.786-9.407-8.355-14.615 2.371-1.166 4.376-2.12 6.477-2.44 9.822-1.49 19.684-2.73 29.497-4.277 1.279-.202 2.358-1.67 3.53-2.552-1.1-.75-2.246-2.213-3.291-2.145-13.374.88-26.732 1.978-40.095 3.021-1.742-7.393-3.485-14.786-4.792-22.579 13.9 2.247 27.366 4.894 40.83 7.54l.667-2.064c-4.3-1.8-8.55-3.734-12.91-5.374-9.613-3.616-19.28-7.084-28.926-10.612.235-14.404 4.152-28.058 10.02-40.939 5.011-10.996 12.01-21.073 17.381-31.926 2.097-4.237 2.943-9.476 3-14.275.344-29.201 2.966-58.165 8.488-86.831 1.853-9.622 4.305-19.155 6.991-28.583 1.763-6.188 4.89-7.288 9.937-3.371 10.117 7.851 20.416 15.605 29.628 24.454 12.957 12.446 25.014 25.83 37.403 38.864 2.51 2.64 4.496 6.064 9.535 5.04 2.57 8.61 4.633 16.8 6.729 24.98.888 3.466 2.577 6.391 6.643 6.164 3.88-.217 6.036-2.728 6.07-6.584.082-9.586-.016-19.174-.042-28.761 3.407-.381 6.814-.762 10.756-.665.795 4.621.907 8.78 1.347 12.903.86 8.08 1.838 16.15 2.898 24.208.546 4.144 3.028 6.761 7.246 6.949 4.205.186 6.841-2.11 7.765-6.272.324-1.456.729-2.895 1.028-4.356 2.3-11.215 4.584-22.434 6.872-33.651 3.197.314 6.393.629 9.869 1.632-1.094 9.506-2.576 18.308-3.79 27.146-.495 3.603.665 6.92 4.694 7.606 3.924.67 6.72-1.596 8.212-5.123 3.62-8.564 7.087-17.192 10.615-25.794 4.785 1.407 7.62-1.111 10.455-4.597 18.87-23.193 40.288-43.808 63.757-62.31.783-.616 1.63-1.152 2.455-1.715 5.839-3.983 9.489-3.192 11.068 3.623 3.933 16.98 8.358 33.978 10.412 51.227 2.786 23.395 3.467 47.038 5.279 70.557.202 2.619 1.477 5.393 2.95 7.637 13.01 19.814 23.118 40.79 26.541 64.53.308 2.133.399 4.297.124 6.916-15.484 4.582-30.223 9.455-44.64 15.202l.596 2.714c14.813-.379 29.38-4.05 44.177-4.659-1.634 7.204-3.268 14.408-5.561 21.756-13.371-1.085-26.07-2.5-38.806-3.384-2.522-.175-5.186 1.693-7.784 2.619 2.574 1.01 5.068 2.37 7.734 2.967 11.627 2.602 23.304 4.98 34.962 7.44m-171.75-7.308c-3.137 8.865-9.83 13.245-18.793 14.067-8.105.743-14.218-2.48-17.385-10.449-.333-.837-1.93-1.172-2.94-1.74-.297 1.154-.818 2.307-.821 3.461-.002.934.563 1.896.976 2.799 4.585 10.017 17.294 14.207 28.751 8.71 5.023-2.41 9.232-6.515 13.892-9.91 4.617 6.688 11.263 11.253 20.118 12.206 9.698 1.044 18.893-4.19 21.53-12.514.445-1.406-.373-3.211-.607-4.832-1.141 1.012-2.356 1.953-3.407 3.05-2.355 2.457-4.18 5.84-7.017 7.344-10.342 5.482-23.73.01-27.889-11.729 1.097-.838 2.082-1.934 3.31-2.471 6.754-2.954 11.528-7.737 13.517-14.875 1.077-3.867.41-8.29-4.166-8.586-10.497-.677-21.07-.59-31.593-.237-3.38.113-5.204 2.86-5.055 6.773.312 8.187 7.925 16.191 17.58 18.933m-53.678-68.343c-1.272-1.07-2.518-2.173-3.818-3.207-12.05-9.588-25.51-11.16-39.404-5.497-14.36 5.853-22.964 17.02-24.434 32.588-1.544 16.353 7.715 31.845 21.837 38.277 15.557 7.085 34.14 4.015 45.875-7.58 14.784-14.607 14.963-36.243-.056-54.581M722 237.179c-1.83-.051-3.66-.14-5.49-.146-26.256-.086-45.128 26.018-36.878 51 6.45 19.524 26.213 30.231 47.004 25.464 21.56-4.944 35.001-26.214 29.076-46.983-4.688-16.43-16.34-25.71-33.712-29.336m-179.606-75.315 14.802-7.535c-12.72-17.204-26.082-33.035-41.174-47.659-4.791 7.676-9.43 68.651-6.396 76.094 10.65-6.83 21.377-13.707 32.768-20.9m180.61-24.32-12.413 15.732 47.419 28.843c.473-25.129-.893-50.07-4.866-74.816l-1.873-.658c-9.263 10.124-18.526 20.249-28.267 30.9m-145.089 75.148c-4.207-1.419-8.375-2.976-12.636-4.211-3.09-.896-6.293.05-6.613 3.327-.217 2.215 1.347 5.447 3.172 6.815 2.546 1.909 6.071 2.523 9.192 3.652 2.612.944 5.978 2.882 7.526-.376 1.117-2.348.03-5.743-.64-9.207m107.939.838c-.383 2.753-1.085 5.522-.94 8.247.039.745 2.884 2.218 3.986 1.879 4.875-1.504 9.874-3.064 14.2-5.654 1.536-.921 1.897-4.905 1.555-7.315-.134-.94-3.869-2.28-5.63-1.9-4.302.93-8.41 2.76-13.171 4.743"/><path fill="#fbb59e" d="M1160.318 504.035s.369-.201.619.255c1.178 2.263 2.105 4.069 3.042 6.228.993 2.398 1.976 4.444 2.956 6.88.383 1.793.77 3.194 1.143 4.933.32 1.115.652 1.893.98 3.036.34 1.234.684 2.102 1.029 2.97 1.345 12.018 3.503 24.017 3.769 36.059.198 8.999-2.044 18.052-3.784 27.48-1.385 1.44-2.23 2.452-2.979 3.53-10.467 15.065-23.6 26.87-41.281 32.708-10.98 3.625-22.367 6.067-33.227 9.993-21.531 7.786-43.775 9.893-66.308 9.44.216-4.01 3.703-7.534-.177-12.827-1.972 4.903-3.805 8.533-4.908 12.374a1827 1827 0 0 0-11.22 40.77c-1.871 7.134-5.475 12.065-13.392 12.524-3.974.23-7.955.503-11.932.495-10.622-.022-15.599-4.49-16.623-15.045-.562-5.784-.5-11.636-1.19-17.4a169 169 0 0 0-3.176-18.082c-.47-2.022-1.885-5.384-5.194-1.383-4.56.34-8.695 1.097-12.788.914-6.917-.308-13.874-.816-20.699-1.94-19.131-3.151-38.059-7.091-55.17-16.947-2.36-1.36-5.1-2.062-7.623-3.385.842-1.003 1.642-1.689 2.795-2.327 12.15-4.482 18.258-13.636 19.721-25.634 2.779-22.781-12.322-49.58-39.26-52.89-1.33-.163-3.583-2.35-3.462-3.36 1.55-12.92 4.745-25.424 10.172-37.187 6.459.275 6.856-.306 5.232-5.98-.287-1.005.275-2.494.892-3.48 10.802-17.268 25.017-30.974 42.839-40.918 1.2-.67 2.072-1.93 3.097-2.917 6.185-2.89 12.37-5.78 18.963-8.126-.096 6.496-3.615 12.332-.367 18.575 1.5-1.537 2.365-3.186 2.78-4.941 2.769-11.736 6.547-23.061 13.173-33.26 7.006-10.785 14.445-21.232 24.867-29.066 4.337-3.26 5.57-2.743 7.587 2.283 6.458 16.096 8.777 32.826 6.803 49.993-1.27 11.044-4.688 21.426-12.38 30.003-1.57 1.75-2.281 4.271-3.388 6.437 2.425-.969 5.376-1.36 7.189-3.004 9.237-8.38 13.21-19.435 14.467-31.487.686-6.583.498-13.258.705-19.89.642-.053 1.284-.105 2.353.318 4.44 5.246 8.304 10.157 12.583 14.676.936.988 3.368.857 5.084.76 7.96-.452 16.036-2.23 23.84-1.392 16.475 1.772 32.837 4.7 49.183 7.51 9.58 1.647 10.103 1.708 14.7-6.38 6.278 3.216 12.812 6.022 18.778 9.738 11.213 6.983 22.376 14.146 30.793 25.226-4.702 4.97-9.5 9.072-13.806 13.637-2.816 2.986-3.418 6.978-1.17 10.62 2.305 3.736 5.976 5.162 10.33 4.158 3.544-.817 7.016-1.944 10.561-2.752 4.136-.943 8.317-1.69 12.479-2.523m-201.25-46.544c3.539-13.222 3.824-26.506.909-39.886-.822-3.772-2.714-4.194-5.636-2.21-.682.463-1.3 1.044-1.872 1.643-12.686 13.28-19.775 29.348-23.204 47.157-.22 1.145 1.006 3.27 2.126 3.854 5.599 2.921 11.327 5.624 17.163 8.031 1.017.42 3.607-.572 4.045-1.55 2.37-5.297 4.29-10.794 6.47-17.04m-55.3 89.515c6.3-.326 10.054-3.75 10.957-9.994 1.002-6.919-1.985-14.23-7.133-15.515-2.54-.634-6.22-.147-8.276 1.352-7.563 5.513-5.08 20.569 4.452 24.157m-56.692-10.94c1.338 2.284 2.297 5.019 4.204 6.628.748.631 4.378-.708 5.39-2.1 3.255-4.48 4.489-9.745 2.364-15.073-.676-1.697-2.861-3.81-4.427-3.87-1.868-.071-4.847 1.427-5.508 3.01-1.352 3.24-1.476 6.992-2.023 11.405m51.486-36.91c3.013 1.255 5.958 2.798 9.093 3.546.7.167 2.067-2.461 3.126-3.802-2.594-1.478-5.043-3.417-7.826-4.301-2.7-.858-4.263 1.069-4.394 4.556"/><path fill="#90bddc" d="M1137.015 680.127c13.75 2.936 27.5 5.87 41.248 8.817.483.104 1.056.211 1.388.527 2.086 1.984 5.982 4.324 5.72 5.981-.384 2.417-3.419 5.543-5.94 6.294-10.63 3.166-21.353 6.596-32.291 8.022-21.374 2.787-42.875 5.22-64.394 6.124-33.223 1.396-66.524 2.337-99.756 1.675-27.84-.555-55.697-3.04-83.416-5.922-14.935-1.553-29.604-5.703-44.374-8.77-1.764-.367-3.695-.949-5.041-2.05-1.677-1.373-3.87-3.367-3.905-5.132-.035-1.695 2.066-4.376 3.81-5.001 7.94-2.848 16.044-5.27 24.174-7.543 3.812-1.066 7.815-1.452 12.349-1.8 2.18 5.794 4.348 11.085 10.264 12.818 9.22 2.7 18.744 3.48 28.029.528 7.4-2.352 8.927-9.793 11.995-15.779.075-.147.183-.278.664-.352 3.855-.202 7.328-.403 10.784-.758 2.873-.296 5.727-.774 9.033-1.139 3.534-.22 4.696.963 4.747 4.283.058 3.771.833 7.59 1.74 11.278 1.948 7.916 7.126 12.854 15.172 13.892 5.228.674 10.656.67 15.906.122 13.085-1.364 17.323-5.349 20.368-18.025 2.286-9.514 2.286-9.514 11.993-10.707 1.481.3 2.572.457 3.661.973 2.628 3.175 4.764 7.244 8 8.516 4.95 1.945 10.635 2.44 16.047 2.69 10.078.464 18.685-1.95 21.243-13.618.185-.846 1.56-2.03 2.325-1.989.825.044 1.993 1.211 2.29 2.123.876 2.681 1.307 5.503 2.066 8.227 2.573 9.234 7.44 13.444 16.857 14.405 4.47.456 8.97.668 13.46.867 11.166.497 21.106-2.177 23.059-17.733.08-.635.476-1.23.725-1.844"/><path fill="#4e83b1" d="M97.356 588.007c-.108-3.372-.217-6.743.15-10.565 1.136-.494 1.964-.297 2.434-.62 4.464-3.062 6.572-.601 8.142 3.332.553 1.384 1.626 2.694 1.733 4.094.268 3.506 2.402 3.953 5.446 3.945 5.293 5.751 11.47 7.765 19.001 7.722 39.482-.226 78.965-.114 118.448-.12 37.65-.006 75.3-.071 112.95.016 11.91.028 21.884-5.685 21.637-21.224-.618-38.807-.238-77.63-.2-116.446.007-7.484.28-14.968.79-22.436 4.882 1.348 9.404 2.68 13.927 4.012 0 0 .132.326.24.465.024 3.13-.131 6.12-.132 9.11-.008 45.305.004 90.61.01 135.914.003 16.89-7.933 24.898-25.28 24.942-73.95.185-147.9.284-221.849.354-12.155.011-24.31-.225-36.464-.45-6.662-.125-12.329-2.516-16.166-8.44 1.435-1.814 3.762-3.504 3.49-4.418-1.26-4.219-3.122-8.335-8.307-9.187"/><path fill="#4d83b0" d="M99.783 275.894c4.103-8.418 11.256-11.126 20.115-11.114 44.164.058 88.327.01 132.49.016 40.331.004 80.662.027 120.992.043 1.5 0 3-.003 4.5.018 15.68.213 24.053 8.53 24.089 24.168.057 25.498.003 50.997-.012 76.495-.002 3.666-.043 7.332-.603 11.464-5.026.4-9.515.335-14.1-.212-.122-25.806-.13-51.13-.18-76.453-.027-13.692-6.521-20.192-20.205-20.198-38.986-.015-77.972.087-116.958-.013-32.306-.084-64.612-.39-96.946-1.01-1.835-1.284-3.59-2.752-5.46-2.916-6.339-.553-12.716-.716-19.082-.855-1.323-.029-2.662.688-3.993 1.06.538 1.234 1.076 2.466 1.354 3.914-1.77.701-3.28 1.187-4.789 1.278-.756-2.367 2.763-5.386-1.52-6.505-4.565-1.193-9.328.397-10.422 3.373-.564 1.534-1.489 2.935-2.25 4.395-1.569-1.092-3.284-2.03-4.657-3.329-1.018-.963-1.592-2.396-2.363-3.62"/><path fill="#8fbcda" d="M523.19 690.939c2.108 4.45 3.806 8.918 5.733 14.026 2.461 2.324 4.451 4.763 6.965 5.571 19.072 6.131 38.241 6.585 57.16-.584 6.919-2.622 11.24-8.246 13.565-15.145 1.046-3.105 1.178-6.518 2.168-9.802 2.274.027 4.105.046 5.935.103 8.297.254 16.594.52 25.023 1.231.883 19.02 6.712 25.726 23.633 28.612 11.49 1.96 22.812 1.582 34.188-.502 14.644-2.682 19.533-8.152 20.432-23.052 14.15 1.101 27.99 3.687 41.094 9.277 1.982.846 4.822 3.481 4.59 4.829-.354 2.06-2.733 4.795-4.78 5.372-11.796 3.327-23.614 6.907-35.672 8.908-31.227 5.183-62.796 6.502-94.41 6.275-21.428-.155-42.894-.076-64.266-1.373-25.015-1.518-50.033-3.89-74.318-10.738-4.11-1.159-8.084-2.983-11.91-4.916-3.248-1.64-3.037-4.306-.412-6.373 2.055-1.617 4.433-3.277 6.91-3.83 12.61-2.819 25.299-5.283 38.371-7.889"/><path fill="#f0957b" d="M1026.185 647.955c22.625.045 44.869-2.062 66.4-9.848 10.86-3.926 22.247-6.368 33.227-9.993 17.68-5.838 30.814-17.643 41.281-32.707.75-1.079 1.594-2.09 2.717-3.268-4.608 21.258-15.14 39.506-31.104 54.596-.73-2.087-.974-3.793-1.219-5.5l-1.273-.355c-.701 1.105-1.728 2.125-2.043 3.331-.88 3.371-1.81 6.79-2.1 10.242-.783 9.28-1.099 18.6-1.875 27.88-.615 7.36-3.803 10.572-11.031 10.94-5.795.295-11.628.094-17.434-.14-8.915-.361-11.129-2.21-13.95-10.76-2.607-7.9-5.205-15.808-8.03-23.632-.63-1.745-2.188-3.155-3.32-4.72l-1.523.766c.837 3.79 1.674 7.58 2.106 11.456-19.464 4.216-38.687 6.946-58.2 6.458 2.485-8.518 4.928-16.632 7.37-24.746"/><path fill="#f9b84b" d="M319.894 194.905c-5.738 2.512-11.054 5.239-16.677 6.96-3.021.925-4.907 1.659-4.536 5.09.07.656.001 1.331-.034 1.996-.366 6.986-1.17 7.525-8.082 6.754-4.169-.465-6.127-2.21-4.93-6.485 1.427-5.093-.538-7.078-5.624-8.615-5.753-1.738-11.03-5.179-16.35-8.172-2.333-1.312-2.577-3.28-.955-5.887 6.207-9.975 6.095-10.026 16.64-5.25 1.663.753 3.4 1.356 5.139 1.922.921.3 1.917.372 3.624.683.659-8.164 1.505-16.052 1.725-23.959.036-1.313-2.43-3.278-4.133-3.967-19.171-7.758-24.994-29.457-11.267-44.855 3.751-4.207 9.613-7.356 15.1-8.966 5.787-1.698 8.549-3.85 7.66-9.973-.547-3.768 1.2-5.37 5.173-5.253 6.258.185 7.097.526 6.313 6.887-.626 5.078.721 7.296 5.953 8.501 4.912 1.132 9.551 3.762 14.032 6.237 1.244.687 2.479 3.535 2.021 4.756-1.384 3.698-3.377 7.242-5.655 10.48-.556.79-3.254.616-4.711.125-3.452-1.162-6.734-2.817-10.114-4.202-2.676-1.096-4.06-.252-4.227 2.767-.294 5.314-.61 10.635-1.206 15.92-.41 3.63.932 5.246 4.41 6.436 14.738 5.042 21.731 15.574 20.72 30.8-.512 7.686-3.99 13.976-10.009 19.27m-15.558-10.756c4.24-2.191 6.608-5.69 6.27-10.44-.376-5.305-3.118-9.218-9.001-11.974-.515 7.648-1.032 14.665-1.31 21.69-.012.308 2.172.701 4.041.724m-14.314-63.73c-3.604 2.717-4.684 6.34-3.44 10.554.908 3.072 2.007 6.199 6.349 7.022.612-5.73 1.392-11.113 1.696-16.524.212-3.75-2.156-2.267-4.605-1.052"/><path fill="#487fae" d="M99.48 276.115c1.074 1.002 1.648 2.435 2.666 3.398 1.373 1.3 3.088 2.237 4.657 3.33.761-1.462 1.686-2.862 2.25-4.396 1.094-2.976 5.857-4.566 10.423-3.373 4.282 1.12.763 4.138 1.306 6.774-6.766 4.346-8.676 10.362-8.675 17.377.005 91.72-.002 183.44.014 275.16 0 4.72-.622 9.612 2.867 13.615-2.771.201-4.905-.246-5.173-3.752-.107-1.4-1.18-2.71-1.733-4.094-1.57-3.933-3.678-6.394-8.142-3.332-.47.323-1.298.126-2.332.17-.465-6.658-.637-13.318-.638-19.977-.004-88.33-.02-176.661.124-264.992.008-5.23 1.359-10.458 2.387-15.908"/><path fill="#f7b84b" d="M227.182 82.1c-1.023 4.052-2.174 7.882-3.742 11.534-.198.46-2.66.244-3.945-.117-3.587-1.007-7.107-2.255-11.742-3.761-.294 6.62-.68 12.042-.64 17.461.007.954 1.65 2.171 2.797 2.777 1.746.923 3.81 1.236 5.58 2.124 10.41 5.22 14.651 13.187 13.385 24.891-.98 9.052-8.276 16.785-18.82 18.814-4.812.926-7.042 2.61-6.306 7.663.558 3.83-1.989 4.358-5.037 4.169-2.857-.177-6.296.147-5.559-4.235.843-5.01-1.356-6.83-5.97-7.485-2.566-.365-5.08-1.564-7.453-2.723-8.846-4.323-8.856-4.923-3.434-13.039 1.894-2.835 3.562-3.15 6.55-1.762 11.938 5.55 11.978 5.463 12.231-7.813.029-1.5-.097-3.021.116-4.494.494-3.406-.965-5.017-4.178-6.191-12.383-4.525-16.718-11.071-15.92-23.289.632-9.69 8.228-18.066 19.11-20.317 3.602-.745 4.292-2.562 3.974-5.54-.41-3.852 1.455-4.843 5.026-4.751 3.481.089 6.037.484 5.377 4.887-.526 3.515 1.065 4.661 4.578 5.478 4.753 1.105 9.191 3.563 14.022 5.718m-20.17 43.148c-.59.443-1.686.875-1.696 1.332-.12 5.266-.077 10.536-.077 16.908 2.272-1.302 4.186-1.904 5.388-3.177 4.286-4.538 3.187-9.687-3.614-15.063m-9.98-25.917v-9.15c-4.703 1.01-6.088 3.783-6 7.376.085 3.439 1.45 6.21 5.627 7.409.143-1.861.253-3.3.373-5.635"/><path fill="#91411d" d="M903.897 452.789c-.71 1.12-1.582 2.38-2.783 3.05-17.822 9.944-32.037 23.65-42.84 40.918-.616.986-1.178 2.475-.89 3.48 1.623 5.674 1.226 6.255-5.233 5.98-5.427 11.763-8.621 24.268-10.172 37.186-.121 1.011 2.131 3.198 3.462 3.362 26.938 3.308 42.039 30.108 39.26 52.889-1.463 11.998-7.57 21.152-20.141 25.57-2.726 1.214-4.68 2.54-6.634 3.865-1.924-.246-3.866-.802-5.769-.692-32.424 1.883-55.028-31.151-41.726-62.734 4.18-9.925 12.406-15.468 22.655-17.858 3.536-.825 4.78-2.271 5.08-5.934 1.449-17.612 7.596-33.635 17.46-48.602-13.189-15.571-18.294-34.281-20.12-54.167a63 63 0 0 1-.157-9.472c.385-6.524 1.994-7.868 8.465-7.195 12.422 1.293 24.341 4.85 34.898 11.272 8.855 5.387 16.622 12.564 25.185 19.082m-29.008 16.218c2.793-2.388 5.586-4.777 9.046-7.472l13.132-7.79c-15.775-15.907-34.525-23.642-56.676-26.281.23 4.64.4 8.094.48 12.423 2.032 17.163 6.278 33.47 17.399 47.428 5.74-6.482 10.87-12.274 16.62-18.308m-36.802 152.707c5.254.495 10.534 1.593 15.757 1.364 12.495-.55 22.238-9.022 25.25-21.152 5.297-21.324-11.22-46.377-32.87-49.858-12.638-2.031-25.807 3.917-30.722 13.878-10.626 21.53-.65 46.889 22.585 55.768"/><path fill="#b3541c" d="M608.337 685.016c-.546 3.273-.678 6.686-1.724 9.79-2.324 6.9-6.646 12.524-13.565 15.146-18.919 7.17-38.088 6.715-57.16.584-2.514-.808-4.504-3.247-6.772-5.279 2.412.412 4.859 1.172 8.075 2.171-5.06-7.6-5.556-15.294-1.557-22.84 1.13-2.132 3.943-3.37 6.606-4.534-4.522 8.477-7.718 16.956-1.452 25.248 4.374 5.788 11.339 4.98 17.952 4.612-4.324-16.668-.072-28.63 10.117-27.72-.645 1.09-.982 2.19-1.72 2.82-5.507 4.697-5.87 10.924-5.205 17.393.417 4.062 4.304 7.373 9.187 7.662 8.004.474 15.626-1.4 22.475-5.437 6.801-4.008 8.784-10.893 9.426-18.308 2.002-23.153 4.038-46.304 6.306-70.185.608-3.799.971-6.869 1.352-10.087-1.783-.765-3.388-1.576-5.074-2.144-2.172-.731-4.41-1.267-6.62-1.888l-8.586-6.615.492-1.127c2.147.815 4.32 1.568 6.437 2.455 11.212 4.701 22.911 6.9 35.034 6.435 3.879-.148 5.333 1.293 5.668 4.996 2.172 23.981 4.537 47.945 6.65 71.931.477 5.416-.312 10.967.413 16.33.861 6.366 5.564 10.072 11.287 12.221 5.087 1.911 9.397-.577 10.49-5.912 1.05-5.13 1.167-10.223-1.899-14.902-.559-.853-.71-1.974-1.127-3.2 8.159 1.391 10.267 11.643 5.464 26.658 4.613.226 9.022.937 13.33.542 7.239-.662 10.708-4.549 10.487-11.98-.169-5.67-1.398-11.309-2.154-16.948 6.974-.505 9.477 10.297 5.365 26.255 5.74.933 11.7-1.817 14.613-6.742 3.338-5.644 2.516-13.28-1.964-19.225-1.355-1.796-4.356-3.388-.998-6.404 5.865 2.87 7.583 8.495 9.715 14.325-.608 15.184-5.497 20.654-20.14 23.336-11.377 2.084-22.7 2.462-34.189.502-16.921-2.886-22.75-9.591-23.5-29.058-1.953-25.607-3.884-50.318-5.956-75.018-.077-.928-1.433-2.393-2.33-2.504-5.24-.65-10.523-.97-16.117-1.429-.355 2.01-.777 3.769-.963 5.552-1.277 12.255-2.661 24.502-3.705 36.777-1.012 11.899-1.657 23.829-2.464 35.745"/><path fill="#f6b84c" d="M1058.866 90.643c-3.813 10.748-10.126 2.615-15.801 1.894-.76 4.375-1.78 8.243-1.925 12.144-.053 1.417 1.667 3.514 3.116 4.273 9.57 5.012 13.047 10.862 11.623 20.328-1.138 7.562-8.008 14.021-17.083 15.186-3.852.494-6.178 1.175-6.338 5.663-.035.982-3.017 2.585-4.613 2.55-1.226-.025-3.57-2.368-3.407-3.344.725-4.331-1.246-5.957-4.993-7.048-2.17-.631-4.285-1.965-6.007-3.463-1.481-1.288-3.685-3.816-3.26-4.815 1.036-2.437 3.187-4.605 5.372-6.234.72-.537 2.927.887 4.44 1.452 2.123.793 4.232 1.62 7.029 2.694.81-4.9 2.035-9.123 1.94-13.317-.037-1.68-2.742-3.663-4.637-4.88-10.054-6.453-11.458-20.587-2.301-28 2.721-2.204 6.386-3.71 9.845-4.396 3.113-.618 4.934-1.306 4.775-4.747-.168-3.668 1.582-4.873 5.239-4.523 4.188.401 3.188 3.168 2.8 5.46-.546 3.23 1.001 4.162 3.756 5.188 4.094 1.525 9.473 1.693 10.43 7.935m-17.14 32.226-4.282-3.949-1.68 13.933c6.221-.633 7.858-3.365 5.963-9.984m-12.642-23.824 3.64 5.027 1.52-12.234c-4.543.96-5.461 3.287-5.16 7.207"/><path fill="#f7b84b" d="M892.942 257.696c1.705-.298 3.047-.727 4.33-.592 3.298.347 4.96-1.07 5.44-4.256.408-2.714 1.654-4.374 4.752-3.28 2.468.872 4.925 1.752 3.597 5.223-1.238 3.236.24 4.946 3.157 6.133 1.672.68 3.252 1.685 4.72 2.756 5.404 3.944 5.363 5.057.817 10.075-2.208 2.437-3.936 2.567-6.146.166-.994-1.08-2.31-1.916-3.597-2.66-2.15-1.242-3.748-1.053-4.304 1.843-.407 2.118-1.061 4.194-1.71 6.257-.933 2.968-.052 4.866 2.63 6.649 6.428 4.273 10.936 9.826 9.597 18.255-1.531 9.642-8.453 15.744-18.245 15.643-3.864-.04-6.427.343-6.558 5.011-.072 2.549-1.949 3.34-4.302 2.373-2.05-.843-5.774-.353-4.4-4.356 1.4-4.084.097-6.19-3.91-7.357-1.699-.495-3.234-1.7-4.716-2.758-6.12-4.372-5.837-8.557.944-11.844.932-.451 2.728.225 3.816.887 2.35 1.427 4.498 3.184 7.726 5.532 1.65-5.5 3.171-9.974 4.213-14.557.2-.876-1.25-2.629-2.347-3.215-6.675-3.567-9.591-9.263-8.851-16.492.8-7.814 5.112-13.191 13.347-15.436m8.573 40.39-3.58-1-2.897 11.85c6.94-.984 8.761-4.145 6.477-10.85m-4.717-29.712c-5.376 2.442-6.006 6.458-.65 11.133.514-4.104.943-7.53.65-11.133"/><path fill="#f5b249" d="M861.526 163.487c-21.573-20.286-23.928-47.735-4.761-69.764 12.773-14.68 29.777-20.228 49.241-15.558 26.771 6.424 43.16 30.952 38.181 56.859-6.67 34.715-46.427 51.919-76.26 32.981-2.104-1.335-4.093-2.852-6.401-4.518m17.339-79.299c-22.737 8.147-34.574 28.678-29.36 50.924 6.236 26.612 33.067 42.089 59.33 33.649 26.205-8.422 39.405-38.678 26.31-63.551-9.889-18.78-33.6-27.777-56.28-21.022"/><path fill="#8f401b" d="M984.411 430.057c-.008 7.014.18 13.689-.506 20.272-1.257 12.052-5.23 23.108-14.467 31.487-1.813 1.644-4.764 2.035-7.19 3.004 1.108-2.166 1.82-4.686 3.39-6.437 7.69-8.577 11.11-18.959 12.38-30.003 1.973-17.167-.346-33.897-6.804-49.993-2.017-5.026-3.25-5.544-7.587-2.283-10.422 7.834-17.86 18.28-24.867 29.066-6.626 10.199-10.404 21.524-13.174 33.26-.414 1.755-1.28 3.404-2.78 4.94-3.247-6.242.272-12.078.725-18.417.75-2.012 1.664-3.591 2.334-5.268 7.348-18.376 18.093-34.364 33.438-47.004 8.296-6.835 13.464-5.89 16.864 4.239 3.565 10.622 5.435 21.814 8.244 33.137"/><path fill="#b85618" d="m710.284 454.352-8.901-11.894 1.374-1.11c4.046 3.246 8.01 6.603 12.157 9.716 7.037 5.285 14.058 10.61 21.357 15.516 2.864 1.924 3.098 3.578 1.24 5.979-6.298 8.138-12.67 16.219-18.96 24.363-2.093 2.71-4.678 3.211-7.947 2.72-3.424-.514-6.964-.805-10.405-.551-6.713.496-9.827 5.013-8.38 12.172l11.39-2.514.551 1.396c-3.462 2.377-7.02 4.627-10.368 7.154-8.772 6.622-11.735 18.53-6.832 27.035.393.68.996 1.24 1.749 2.156 2.782-1.836 5.36-3.588 7.992-5.256 2.548-1.616 5.152-3.144 7.73-4.711l1.127 1.522c-2.056 1.95-4.143 3.87-6.161 5.859-2.69 2.652-8.351 3.961-5 9.552 3.065 5.114 9.851 6.504 14.805 3 3.88-2.745 7.375-6.033 11.042-9.08l1.173.812-7.757 10.884c3.918 3.745 9.17 3.719 13.939-.745 4.352-4.073 8.2-8.684 12.568-13.225-1.511 11.463-9.164 17.332-20.414 20.388-.897.201-1.199.257-1.78.154-1.702-.635-3.126-1.11-4.768-1.892-5.418-.427-10.616-.547-15.814-.667-14.544-10.607-20.065-21.476-15.967-35.3 2.123-7.16 6.34-13.29 6.304-21.577-.033-7.376 6.414-11.279 13.97-11.231 4.116.026 8.229.405 12.906.29 6.994-8.174 13.424-16.016 19.972-24-5.253-3.926-9.819-7.449-14.507-10.8-3.036-2.168-6.25-4.085-9.385-6.115"/><path fill="#f8c453" d="M1080.675 145.774c12.978-1.592 17.219-10.484 19.362-21.35.512-2.597 1.525-5.094 2.308-7.636l1.494.059c.61 1.06 1.428 2.055 1.782 3.194a44.6 44.6 0 0 1 1.46 6.321c1.797 11.487 8.322 18.112 19.895 19.827 1.994.295 3.88 1.318 5.817 2.005l.114 1.42c-2.033.761-4.014 1.958-6.11 2.211-12.533 1.518-18.719 8.838-20.111 21.024-.36 3.148-1.527 6.204-2.323 9.302l-1.667.075c-.758-1.657-1.723-3.255-2.224-4.986-.693-2.389-1.077-4.872-1.522-7.327-1.766-9.737-7.216-15.81-17.154-17.679-2.85-.535-5.597-1.614-8.392-2.443l-.16-1.714c2.35-.73 4.7-1.46 7.43-2.303"/><path fill="#f9c250" d="M410.469 93.813c2.727.702 5.069 1.286 8.394 2.116-1.506 1.44-2.15 2.301-3.004 2.801-.836.49-1.87.762-2.846.87-14.348 1.588-21.382 9.846-22.263 23.993-.132 2.124-1.263 4.186-2.41 7.77-1.286-2.54-2.01-3.56-2.335-4.696-.64-2.23-1.339-4.501-1.522-6.795-.956-11.994-7.793-18.096-19.276-19.91-2.464-.389-4.817-1.48-7.221-2.248l.033-1.65c1.883-.634 3.725-1.462 5.655-1.868 14.607-3.07 18.475-6.97 21.388-21.66.598-3.016 1.356-6 2.347-10.346 1.405 2.047 2.24 2.807 2.5 3.729.765 2.713 1.473 5.464 1.898 8.247 1.637 10.722 7.32 17.571 18.662 19.647"/><path fill="#883a18" d="m1077.419 666.156-2.51-11.37 1.523-.764c1.13 1.564 2.69 2.974 3.32 4.72 2.824 7.823 5.422 15.73 8.03 23.632 2.82 8.55 5.034 10.398 13.95 10.758 5.805.235 11.638.436 17.433.14 7.228-.367 10.416-3.58 11.031-10.94.776-9.28 1.092-18.599 1.874-27.879.291-3.452 1.221-6.87 2.101-10.242.315-1.206 1.342-2.226 2.043-3.331l1.273.356c.245 1.706.49 3.412.893 5.515-.455 11.083-1.069 21.768-1.524 32.915-.09 1.074-.487 1.67-.566 2.305-1.953 15.556-11.893 18.23-23.058 17.733-4.492-.2-8.991-.41-13.461-.867-9.416-.961-14.284-5.17-16.857-14.405-.759-2.724-1.19-5.546-2.065-8.227-.298-.912-1.466-2.079-2.29-2.123-.766-.04-2.14 1.143-2.326 1.989-2.558 11.668-11.165 14.082-21.243 13.618-5.412-.25-11.098-.745-16.047-2.69-3.236-1.272-5.372-5.34-7.825-8.771 1.682-.137 3.188.341 4.924 1.092 6.65 5.752 14.416 4.832 21.958 4.742 8.416-.1 11.672-2.772 14.313-11.188 2.398-1.353 4.48-2.567 6.657-3.836z"/><path fill="#b14a1b" d="M996.988 429.47c19.165-1.638 38.195-.414 56.854 4.049 11.91 2.849 23.512 6.99 35.165 11.016-1.835 3.668-4.305 4.286-7.88 3.519-9.68-2.079-19.425-3.878-29.186-5.545-13.24-2.26-26.533-2.492-39.89-.795-3.583.456-8.008 1.18-10.76-.426-3.574-2.084-5.862-6.373-8.487-9.46z"/><path fill="#b75119" d="M646.501 138.232c-1.867 11.335-4.15 22.554-6.45 33.769-.3 1.46-.705 2.9-1.029 4.356-.924 4.162-3.56 6.458-7.765 6.272-4.218-.188-6.7-2.805-7.246-6.95a987 987 0 0 1-2.898-24.207c-.44-4.124-.552-8.282-.923-12.803 8.556-.438 17.223-.497 26.311-.437"/><path fill="#f8c453" d="M481.771 559.952c-1.341.324-2.292.658-3.272.816-8.176 1.32-13.237 5.464-13.86 14.287-.237 3.345-1.48 6.619-2.265 9.925l-1.64.193c-.7-2.16-1.907-4.297-2.012-6.486-.546-11.322-6.676-17.134-17.549-18.67-1.37-.193-2.67-.883-4.002-1.342l-.127-1.554c2.536-.618 5.042-1.532 7.614-1.8 7.761-.81 11.854-5.005 12.97-12.672.574-3.937 1.84-7.772 2.794-11.654l1.75.048c.618 2.616 1.306 5.219 1.842 7.852 2.702 13.261 3.96 14.5 17.53 17.136 1.245.242 2.46.638 4 2.103-1.132.582-2.264 1.164-3.773 1.818"/><path fill="#b45720" d="M387.35 377.255c4.489.064 8.978.129 13.914.222 2.446 1.056 4.558 1.915 6.423 3.146 5.58 3.685 11.062 7.515 16.86 11.48-1.051 3.887-3.658 4.278-6.934.981-5.282-5.314-11.33-9.18-18.736-10.723-.81-.169-1.631-.343-2.454-.392-4.75-.285-10.044-.644-12.032 4.68-1.946 5.21 2.432 7.986 6.044 10.807 1.91 1.493 5.621 2.801 2.05 6.542-2.931-1.652-5.898-3.117-8.635-4.929-2.506-1.659-3.99-.827-5.208 1.463-2.336 4.393-2.1 8.8-.301 13.754 5.69-3.863 11.063-4.976 16.361.695-1.389.07-2.836-.086-4.156.254-3.185.823-6.31 1.877-9.46 2.837 1.1 2.967 1.39 6.844 3.478 8.702 3.762 3.348 8.662 5.393 12.957 8.182 1.667 1.083 2.981 2.71 4.375 4.425-4.605-.996-9.127-2.328-14.093-4.01-1.128-1.053-1.725-1.877-2.509-2.444-9.64-6.97-12.175-17.164-11.97-28.124.06-3.24 2.786-6.442 4.34-9.637.541-1.115 1.89-2.256 1.748-3.22-1.029-6.968 2.322-11.403 7.937-14.691"/><path fill="#f2a537" d="M1074.12 366.645c-.473-.029-.945-.058-1.894-.518a64 64 0 0 0-6.465-2.676c-14.662-5.195-28.098-23.07-28.564-38.628 1.484-2.981-2.477-6.67 1.842-8.39-1.203 35.91 31.851 54.566 59.372 43.287 19.594-8.03 30.839-31.033 23.756-50.983-6.737-18.975-21.022-28.773-41.091-30.214 1.437-.738 2.816-1.52 4.117-1.407 14.267 1.24 25.78 7.51 34.45 19.007 11.292 14.972 11.419 38.375-3.09 52.85-4.524 4.512-8.984 9.088-13.473 13.636-1.01.547-2.022 1.094-3.63 1.587-1.235.308-1.873.67-2.512 1.033-.43.185-.86.37-1.777.384-1.067.064-1.647.3-2.226.536-.751.212-1.502.423-2.966.358-5.759-.139-10.804 0-15.85.138"/><path fill="#a94618" d="M1160.18 503.694c-4.024 1.174-8.205 1.92-12.34 2.864-3.546.808-7.018 1.935-10.562 2.752-4.354 1.004-8.025-.422-10.33-4.158-2.248-3.642-1.646-7.634 1.17-10.62 4.306-4.565 9.104-8.667 13.802-13.292 8.482 5.252 13.081 13.859 18.26 22.454"/><path fill="#eca442" d="M976.061 185.173c22.685-10.762 50.56 2.79 57.66 26.788 4.801 16.227.689 30.714-11.165 42.062-12.305 11.779-27.417 14.954-44.05 8.832.392-1.176.927-1.924 1.854-2.677 5.621.625 10.888 2.012 16.076 1.763 28.206-1.35 42.258-31.21 31.988-53.652-8.641-18.884-27.328-27.722-47.716-21.745-1.72-.603-3.183-.987-4.647-1.371"/><path fill="#f6ac5b" d="M733.067 571.346c5.686-2.38 11.526-2.807 17.32-.701 10.018 3.641 12.748 15.7 5.56 25.368-4.41 5.933-10.093 10.488-17.628 12.398 8.058-16.616 6.592-27.51-5.252-37.065"/><path fill="#b55218" d="M676.253 143.53c-3.26 8.889-6.726 17.517-10.346 26.08-1.491 3.528-4.288 5.794-8.212 5.124-4.029-.687-5.189-4.003-4.694-7.606 1.214-8.838 2.696-17.64 4.06-26.87 6.3.72 12.611 1.853 19.192 3.272"/><path fill="#d99641" d="M1103.46 362.53c4.11-4.469 8.569-9.045 13.093-13.558 14.509-14.474 14.382-37.877 3.09-52.85-8.67-11.497-20.183-17.766-34.45-19.006-1.301-.113-2.68.669-4.52 1.49-2.61.743-4.732.984-6.838 1.324-6.032.975-11.671 2.237-16.455 6.915-8.51 8.322-16.13 16.95-18.337 29.128-4.323 2.18-.362 5.869-2.039 8.828-.723.163-.979.12-1.235.08-.014-2.7-.028-5.401.29-8.614.265-1.072.198-1.631.132-2.19.046-.467.092-.932.574-1.862.517-1.24.598-2.017.68-2.794.058-.343.117-.685.552-1.419.45-.77.524-1.149.598-1.528 5.45-16.723 22.636-29.626 41.096-30.854 19.379-1.289 37.814 9.264 45.741 26.184 8.131 17.354 4.747 37.459-9.213 51.652-3.528 3.587-8.221 6.029-12.759 9.075"/><path fill="#f49744" d="M713.024 564.06c1.423.474 2.847.949 4.594 2.043.368 2.157.412 3.695.559 5.542 10.39 4.664 11.775 13.47 10.662 22.9-.668 5.66-2.815 11.146-4.298 16.71-3.9.122-7.8.244-12.161.302.97-8.957 2.043-17.927 3.982-26.707.95-4.302.257-7.187-2.91-10.071-1.282-1.168-1.657-3.333-2.125-5.594.778-2.075 1.237-3.6 1.697-5.125"/><path fill="#b34f17" d="M725.012 611.381c1.012-5.69 3.16-11.175 3.827-16.836 1.113-9.43-.273-18.236-10.426-22.92.134-.331.604-.255.604-.255l.474-.037c4.247-.01 8.495-.018 13.159-.007 12.26 9.574 13.727 20.47 5.308 37.033-4.186 1.279-8.33 2.214-12.946 3.022M608.59 139.188c.446 9.633.544 19.22.461 28.807-.033 3.856-2.19 6.367-6.07 6.584-4.065.227-5.754-2.698-6.642-6.164-2.096-8.18-4.159-16.37-6.32-24.923 5.994-1.695 12.073-3.022 18.572-4.304"/><path fill="#9c431e" d="M857.945 629.065c1.935-1.301 3.889-2.627 6.263-3.888-.38.75-1.18 1.435-1.946 2.765 1.683 2.713 3.176 4.934 5.007 6.828 11.42 11.817 25.315 19.651 40.614 25.327 17.491 6.489 35.191 11.846 54.093 12.221-1.698 1.508-3.403 2.625-5.524 3.784-4.199-.463-7.968-1.138-11.766-1.41-2.5-.18-5.04.22-7.733.06-1.389-.787-2.606-1.273-4.185-1.915a18815 18815 0 0 0-40.634-13.696c-.338 3.367-.714 7.118-1.372 10.628-1.108-4.086-1.933-7.931-2.76-12.177.22-3.518-1.184-4.919-4.322-4.486 0 0-.429.007-.612-.506-1.96-1.498-3.738-2.482-5.515-3.466 0 0-.38-.005-.522-.512-1.209-1.122-2.277-1.737-3.346-2.353 0 0 .127-.076.058-.302-.429-.367-.789-.508-1.148-.65 0 0 .171-.037.13-.317-4.967-5.509-9.895-10.737-14.822-15.966 0 0 .062.006.042.03"/><path fill="#933c12" d="M996.599 429.399c-.922.81-2.233 1.549-3.795 2.43 2.625 3.086 4.913 7.375 8.487 9.46 2.752 1.604 7.177.88 10.76.425 13.357-1.697 26.65-1.465 39.89.795 9.76 1.667 19.506 3.466 29.185 5.545 3.576.767 6.046.15 8.124-3.264 1.098.098 1.864.407 2.867.928-4.361 8.3-4.883 8.24-14.464 6.593-16.346-2.81-32.708-5.738-49.183-7.51-7.804-.839-15.88.94-23.84 1.391-1.716.098-4.148.23-5.084-.76-4.279-4.518-8.143-9.43-12.127-14.5 2.949-.736 5.87-1.17 9.18-1.533"/><path fill="#f5c25b" d="M136.73 220.932a538 538 0 0 1-2.675 8.719l-1.696.73c-.09-11.309-5.545-17.821-16.112-20.313 3.996-1.885 8.935-2.896 11.72-5.903 2.723-2.94 3.25-7.915 5.233-13.345 2.05 5.387 2.663 10.297 5.393 13.25 2.756 2.978 7.612 4.014 12.017 6.127-4.443 3.515-13.032 2.1-13.88 10.735m261.001-28.865c4.805-1.092 7.107-3.905 7.862-8.342.429-2.522 1.39-4.954 3.275-7.507 1.501 4.029 2.104 8.846 4.755 11.867 2.665 3.035 7.368 4.282 11.229 6.34-3.952 2.213-8.86 3.594-11.5 6.827-2.627 3.22-2.976 8.298-4.74 13.878-1.973-5.746-2.505-10.805-5.194-14.107-2.553-3.134-7.364-4.428-12.09-7.031a380 380 0 0 1 6.403-1.925"/><path fill="#9c431e" d="M1163.97 510.165c-.928-1.806-1.855-3.612-2.854-5.765 1.18-2.804 2.508-5.226 3.666-7.727 4.019-8.68 10.52-12.507 18.057-10.547 8.204 2.133 13.489 10.11 12.678 19.135-.93 10.377-8.572 18.98-19.27 21.651-1.776.444-3.586.752-5.77 1.274-.735-.717-1.08-1.585-.97-2.817 2.772-.38 5.147-.083 7.4-.48 3.953-.695 8.01-1.612 8.182-7.285 4.221-4.212 6.182-8.958 5.906-15.004-.384-5.767-2.916-9.846-7.875-11.984-3.471-1.497-6.797-.748-9.732 2.338-2.041 3.09-3.912 5.935-5.523 8.922-1.447 2.683-2.608 5.52-3.895 8.289"/><path fill="#883a18" d="M933.13 672.993c1.217.486 2.434.972 3.804 2.114.174 1.568.195 2.48.216 3.392-.092.139-.2.27-.275.417-3.068 5.986-4.594 13.427-11.995 15.78-9.285 2.951-18.81 2.172-28.029-.53-5.916-1.732-8.084-7.023-9.86-12.761-.45-7.716-.685-15.139-.435-22.97.806-.422 1.127-.434 1.448-.442.825 3.845 1.65 7.69 2.79 12.104.29 1.008.265 1.447-.04 2.14.067 2.437.417 4.62.885 7.18.876 5.287 2.862 9.141 8.137 10.61 17.722 4.933 25.534 1.379 32.879-15.127.262-.59.32-1.269.474-1.907"/><path fill="#b55218" d="M809.843 292.557c-14.943.993-29.511 4.665-44.324 5.044l-.596-2.714c14.417-5.747 29.156-10.62 44.557-14.763.426 3.997.468 8.022.363 12.433"/><path fill="#be5f21" d="M495.485 473.99c-.78-3.134 1.133-4.001 3.696-5.164a828 828 0 0 0 32.31-15.51c6.633-3.364 11.402-8.504 12.758-16.214.217-1.231.898-2.38 1.365-3.568l1.265.34c-2.565 10.188-5.13 20.375-7.964 30.688.056-2.8.382-5.725.863-10.045-14.256 9.145-27.847 17.23-44.293 19.473"/><path fill="#f5b249" d="M979.968 260.184c-.535.747-1.07 1.495-1.777 2.477-.172.236-.599.284-.599.284s-.397-.163-.622-.651c-1.45-.816-2.675-1.143-3.9-1.47-3.621-2.64-7.243-5.279-11.008-8.598-1.504-2.156-2.864-3.632-4.225-5.109 0 0 .065-.062-.017-.287a5.4 5.4 0 0 0-.966-.916c-7.372-9.382-8.295-20.336-5.961-31.244 2.941-13.745 11.41-23.719 24.805-29.505 1.827.392 3.29.776 4.654 1.48-3.903 2.322-7.912 4.016-11.474 6.382-15.035 9.987-19.904 28.987-12.384 45.273 4.917 10.65 13.2 17.22 23.474 21.884"/><path fill="#b34f17" d="M800.513 324.116a1027 1027 0 0 1-35.234-7.216c-2.666-.596-5.16-1.958-7.734-2.967 2.598-.926 5.262-2.794 7.784-2.619 12.736.884 25.435 2.299 38.551 3.625-.762 3.05-1.928 6-3.367 9.177"/><path fill="#b75119" d="M779.491 353.437c-8.286-7.89-16.23-15.891-24.173-23.892l1.453-1.919c11.158 3.309 21.455 8.538 31.46 15.33-2.58 3.578-5.489 6.974-8.74 10.481"/><path fill="#b34f17" d="M462.311 314.447c13.41-1.399 26.768-2.497 40.142-3.377 1.045-.068 2.191 1.394 3.29 2.145-1.171.882-2.25 2.35-3.53 2.552-9.812 1.548-19.674 2.787-29.496 4.278-2.101.319-4.106 1.273-6.526 2.084-1.557-2.342-2.742-4.834-3.88-7.682m-5.188-32.997c9.75 3.08 19.417 6.548 29.03 10.164 4.36 1.64 8.61 3.574 12.91 5.374l-.667 2.064c-13.464-2.646-26.93-5.293-40.774-7.955-.455-3.076-.53-6.137-.5-9.647"/><path fill="#f9c250" d="M222.82 207.227c6.678 2.22 8.888 6.024 6.835 11.115-1.812 4.492-6.68 6.515-11.086 4.492-3.667-1.683-4.936-4.812-4.439-8.601.624-4.747 3.893-6.621 8.69-7.006"/><path fill="#b55218" d="M474.58 337.416a567 567 0 0 1 24.533-9.396c1.677-.6 3.578-.57 5.376-.83l.838 1.966c-8.558 4.887-17.115 9.773-25.98 14.825-1.8-1.972-3.291-4.11-4.767-6.565"/><path fill="#f6b84c" d="M1096.248 234.806c-3.983-.822-6.81-2.898-6.69-6.622.075-2.288 1.504-5.656 3.28-6.481 2.264-1.053 6.243-1.017 8.096.384 1.833 1.386 2.789 5.117 2.598 7.706-.26 3.545-3.326 5.063-7.284 5.013"/><path fill="#f9c250" d="M937.123 354.806c-3.872-.6-5.833-2.989-5.512-6.18.192-1.91 1.898-4.241 3.598-5.303 2.967-1.852 6.883-.004 8.128 3.194 1.444 3.706-.828 6.94-6.214 8.289"/><path fill="#f6ac5b" d="M1035.623 325.26c.402-.34.658-.296 1.105-.225.935 15.345 14.371 33.221 29.033 38.416a64 64 0 0 1 6.146 2.513c-7.093.47-12.965-3.073-18.206-7.341-10.41-8.48-16.992-19.314-18.078-33.362"/><path fill="#f5c25b" d="M864.117 223.97c-2.404 3.07-5.364 4.142-7.861 1.556-1.344-1.392-2.046-4.84-1.238-6.466.787-1.586 4.032-3.066 5.906-2.767 3.905.625 4.42 3.876 3.193 7.677m128.865 107.915c2.733 4.516 2.253 8.032-1.215 8.751-1.84.381-4.78-.048-5.768-1.28-1.043-1.301-1.216-5.02-.232-5.843 1.658-1.386 4.53-1.318 7.215-1.628"/><path fill="#487fae" d="M97.263 588.384c5.278.475 7.14 4.591 8.4 8.81.272.914-2.055 2.604-3.556 4.092-.371.155-.359.08-.4-.257-.384-.528-.728-.72-1.072-.912-.824-1.497-1.648-2.995-2.318-4.932-.005-.688-.164-.936-.323-1.185-.274-1.746-.55-3.493-.73-5.616"/><path fill="#be5f21" d="M544.54 385.341c7.488 1.47 15.01 3.267 22.531 5.064l-.311 1.445c-7.474.194-14.282-3.29-21.87-4.812-.382-.5-.35-.935-.35-1.697"/><path fill="#f5c25b" d="M369.33 169.574c-1.627 1.181-3.116 2.479-4.713 2.626-.635.06-2.241-2.533-2.067-3.722.181-1.236 1.98-2.234 3.072-3.336 1.268 1.362 2.536 2.725 3.708 4.432"/><path fill="#be5f21" d="M722.982 387.622c-5.28 1.265-10.71 2.174-16.142 3.083l-.39-1.961c5.05-1.069 10.1-2.138 15.39-3.022.491.637.74 1.091 1.142 1.9"/><path fill="#91411d" d="M857.943 629.384a340 340 0 0 1 14.746 15.696c-4.9-4.876-9.803-10.111-14.746-15.696"/><path fill="#f6ac5b" d="M1074.415 366.916c4.75-.41 9.795-.548 15.16-.446-4.742.398-9.804.557-15.16.446"/><path fill="#91411d" d="M888.002 657.592c-.319.41-.64.421-1.201.437-1.048-1.438-1.856-2.876-2.892-4.619 2.909-.737 4.312.664 4.093 4.182"/><path fill="#eca442" d="M957.917 247.449c1.28 1.145 2.64 2.62 4 4.479-1.308-1.128-2.614-2.638-4-4.479"/><path fill="#91411d" d="M877.732 649.42c1.598.698 3.376 1.682 5.208 3.007-1.64-.679-3.334-1.7-5.208-3.007"/><path fill="#f6ac5b" d="M719.574 570.86c-.083.473-.557.51-.557.51s-.47-.076-.706-.055c-.28-1.517-.325-3.055-.414-5.051.257-.517.56-.573 1.09-.617.374 1.586.522 3.163.587 5.214"/><path fill="#91411d" d="M873.816 646.548c.938.337 2.006.952 3.126 1.906-.965-.316-1.98-.971-3.126-1.906"/><path fill="#eca442" d="M973.31 261.084c.985.067 2.21.394 3.529 1.04-1.035-.048-2.163-.414-3.53-1.04"/><path fill="#f6ac5b" d="M1037.229 309.624c.134.574.053 1.35-.302 2.277-.154-.592-.034-1.332.302-2.277m-1.214 4.594c.242.418.309.977.151 1.66-.258-.423-.292-.97-.15-1.66m61.199 51.119c.362-.47 1-.833 1.94-1.124-.353.458-1.008.845-1.94 1.124m-4.026.944c.325-.368.905-.604 1.62-.657-.366.385-.866.588-1.62.657m-54.807-59.618c.14.19.065.57-.264 1.107-.153-.201-.051-.56.264-1.107"/><path fill="#eca442" d="M956.925 246.205c.224-.06.519.17.917.664-.213.052-.53-.16-.917-.664"/><path fill="#91411d" d="M872.695 645.588c.26-.13.619.012 1.047.453-.27.14-.608-.021-1.047-.453"/><path fill="#4e83b1" d="M100.73 600.4c.249-.09.593.1.995.596-.261.097-.58-.109-.995-.597m-2.759-6.142c.182-.008.34.24.361.6-.22-.04-.302-.192-.36-.6"/><path fill="#fcfcf3" d="M575.065 248.942c14.768 18.085 14.589 39.721-.195 54.328-11.735 11.595-30.318 14.665-45.875 7.58-14.122-6.432-23.381-21.924-21.837-38.277 1.47-15.567 10.073-26.735 24.434-32.588 13.895-5.663 27.355-4.091 39.404 5.497 1.3 1.034 2.546 2.136 4.07 3.46m-33.684 40.971c5.845 11.903 21.911 13.84 30.04 2.578 6.304-8.732 5.95-22.956-.841-31.344-7.44-9.19-20.457-8.936-27.382.679-6.224 8.64-6.359 17.89-1.817 28.087m181.056-52.671c16.935 3.561 28.587 12.841 33.275 29.272 5.925 20.77-7.516 42.04-29.076 46.983-20.79 4.767-40.555-5.94-47.004-25.465-8.25-24.98 10.622-51.085 36.879-51 1.83.007 3.66.096 5.926.21m-.831 54.762c5.73-9.507 6.21-19.212.423-28.765-7.08-11.69-22.646-11.764-30.261-.462-4.425 6.567-4.941 13.77-3.238 21.046 1.787 7.636 5.856 13.952 14.191 15.751 7.48 1.615 13.776-.742 18.885-7.57"/><path fill="#e97131" d="M542.063 162.02c-11.059 7.036-21.785 13.914-32.436 20.743-3.033-7.443 1.605-68.418 6.396-76.094 15.092 14.624 28.455 30.455 41.174 47.66a9152 9152 0 0 1-15.134 7.691"/><path fill="#ea6f30" d="m723.244 137.28 28.028-30.636 1.873.658c3.973 24.746 5.339 49.687 4.866 74.816l-47.419-28.843a5835 5835 0 0 1 12.652-15.995"/><path fill="#ef807e" d="M628.704 316.336c-9.867-2.046-17.48-10.05-17.792-18.237-.15-3.912 1.675-6.66 5.055-6.773 10.523-.354 21.096-.44 31.593.237 4.577.296 5.243 4.72 4.166 8.586-1.99 7.138-6.763 11.921-13.517 14.875-1.228.537-2.213 1.633-3.616 2.598-1.51-2.942-3.646-2.326-5.89-1.286"/><path fill="#603813" d="M628.598 316.684c2.35-1.388 4.486-2.004 5.893 1.314 4.567 11.236 17.955 16.708 28.297 11.226 2.837-1.504 4.662-4.887 7.017-7.344 1.051-1.097 2.266-2.038 3.407-3.05.234 1.62 1.052 3.426.607 4.832-2.637 8.324-11.832 13.558-21.53 12.514-8.855-.953-15.501-5.518-20.118-12.206-4.66 3.395-8.869 7.5-13.892 9.91-11.457 5.497-24.166 1.307-28.75-8.71-.414-.903-.98-1.865-.977-2.799.003-1.154.524-2.307.822-3.46 1.01.567 2.606.902 2.94 1.74 3.166 7.968 9.279 11.19 17.384 10.448 8.962-.822 15.656-5.202 18.9-14.415"/><path fill="#fcfcf3" d="M710.308 454.767c3.11 1.615 6.325 3.532 9.36 5.7 4.69 3.351 9.255 6.874 14.508 10.8-6.548 7.984-12.978 15.826-19.746 23.687-1.123-8.656-1.892-17.333-2.701-26.007-.43-4.592-.929-9.178-1.42-14.18"/><path fill="#984615" d="M578.2 212.96c.387 3.196 1.474 6.591.357 8.94-1.548 3.257-4.914 1.32-7.526.375-3.121-1.129-6.646-1.743-9.192-3.652-1.825-1.368-3.389-4.6-3.172-6.815.32-3.276 3.524-4.223 6.613-3.327 4.261 1.235 8.429 2.792 12.92 4.479m107.944.312c4.474-1.726 8.581-3.554 12.882-4.485 1.762-.38 5.497.96 5.63 1.9.343 2.41-.018 6.394-1.555 7.315-4.325 2.59-9.324 4.15-14.2 5.654-1.1.34-3.946-1.134-3.986-1.879-.144-2.725.558-5.494 1.23-8.505"/><path fill="#f49744" d="M599.024 602.372c2.17.269 4.408.805 6.58 1.536 1.686.568 3.29 1.38 5.074 2.144-.38 3.218-.744 6.288-1.358 9.656-2.258-1.686-4.52-3.478-6.203-5.707-1.657-2.195-2.727-4.833-4.093-7.629"/><path fill="#e97131" d="M712.805 563.752c-.24 1.833-.7 3.358-1.472 5.048a153 153 0 0 1-14.196-5.404c5.052-.191 10.25-.071 15.668.356"/><path fill="#ef9479" d="M961.97 671.929c-18.896.014-36.596-5.343-54.087-11.832-15.3-5.676-29.193-13.51-40.614-25.327-1.83-1.894-3.324-4.115-5.05-6.511 2.488.68 5.228 1.381 7.59 2.741 17.11 9.856 36.038 13.796 55.17 16.947 6.824 1.124 13.78 1.632 20.698 1.94 4.093.183 8.228-.575 12.996-.577 1.533 7.761 2.415 15.19 3.297 22.619"/><path fill="#ed8565" d="M959.017 457.9c-2.127 5.836-4.049 11.333-6.418 16.63-.438.978-3.028 1.97-4.045 1.55-5.836-2.407-11.564-5.11-17.163-8.031-1.12-.585-2.347-2.71-2.126-3.854 3.429-17.81 10.518-33.878 23.204-47.157.572-.6 1.19-1.18 1.872-1.643 2.922-1.984 4.814-1.562 5.636 2.21 2.915 13.38 2.63 26.664-.96 40.295"/><path fill="#8b3c19" d="M961.976 672.318c-.888-7.818-1.77-15.247-2.86-23.012 2.658-4.334 4.073-.972 4.543 1.05a169 169 0 0 1 3.177 18.082c.69 5.764.627 11.616 1.189 17.4 1.024 10.556 6 15.023 16.623 15.045 3.977.008 7.958-.264 11.932-.495 7.917-.46 11.52-5.39 13.392-12.523a1827 1827 0 0 1 11.22-40.771c1.103-3.84 2.936-7.47 4.908-12.374 3.88 5.293.393 8.818.177 12.828a2400 2400 0 0 1-7.693 25.41c.719 1.455 1.597 2.53 2.724 2.975 1.774.7 3.714.977 5.584 1.432-9.317 1.338-9.317 1.338-11.603 10.852-3.045 12.676-7.283 16.661-20.368 18.025-5.25.547-10.678.552-15.906-.122-8.046-1.038-13.224-5.976-15.171-13.892-.908-3.688-1.683-7.507-1.74-11.278-.052-3.32-1.214-4.502-4.743-4.427-.438-.176-.492-.462-.492-.462 1.704-1.118 3.409-2.235 5.107-3.743"/><path fill="#573015" d="M903.371 546.954c-9.134-3.537-11.617-18.593-4.054-24.106 2.056-1.5 5.736-1.986 8.276-1.352 5.148 1.285 8.135 8.596 7.133 15.515-.903 6.244-4.657 9.668-11.355 9.943"/><path fill="#e98262" d="M1190.955 502.99c.316 5.656-1.645 10.402-6.168 14.783-2.57 1.386-4.686 2.297-6.794 3.217.007.01.024.023.154-.293a106 106 0 0 1 1.69-3.07l-.844-1.253-10.901 5.62c-.387-1.402-.774-2.803-.877-4.803 2.431-4.8 4.578-9 7.122-13.193 2.152-.329 3.905-.664 5.661-.631.138 1.299.273 2.228.366 2.87l5.045-.253zm-9.457 13.451s.056.096 0 0"/><path fill="#573015" d="M847.035 535.629c.589-3.977.713-7.729 2.065-10.968.661-1.584 3.64-3.082 5.508-3.01 1.566.06 3.75 2.172 4.427 3.869 2.125 5.328.89 10.594-2.365 15.073-1.01 1.392-4.64 2.731-5.389 2.1-1.907-1.61-2.866-4.344-4.246-7.064"/><path fill="#f0957b" d="M1173.939 503.99c-2.146 4.2-4.293 8.401-6.72 12.81-1.264-1.838-2.247-3.884-3.24-6.282 1.278-3.122 2.44-5.96 3.886-8.642a53 53 0 0 1 5.883-8.744c1.51 1.946 2.378 3.896 2.952 6.01-1.117 1.725-1.939 3.287-2.761 4.849"/><path fill="#883a18" d="M898.498 498.798c.195-3.131 1.758-5.058 4.458-4.2 2.783.884 5.232 2.823 7.826 4.3-1.06 1.342-2.425 3.97-3.126 3.803-3.135-.748-6.08-2.29-9.158-3.903"/><path fill="#b45720" d="M1177.985 520.982c2.116-.912 4.231-1.823 6.649-2.904.284 5.2-3.774 6.116-7.727 6.812-2.253.396-4.628.1-7.396.114-.78-.78-1.114-1.558-1.433-2.673 3.648-2.21 7.281-4.084 10.915-5.957l.844 1.253c-.52.918-1.04 1.836-1.84 3.116-.19.321-.1.28-.012.239"/><path fill="#9c431e" d="M1027.282 677.51c-2.26-.6-4.2-.877-5.974-1.577-1.127-.445-2.005-1.52-2.765-2.57 19.784-.174 39.007-2.904 58.47-7.12.872.78 1.338 1.646 1.957 2.795-2.177 1.27-4.259 2.483-7.085 3.818-11.875 1.502-23.01 2.854-34.126 4.337-.72.096-1.302 1.212-1.948 1.854-1.505-.478-3.01-.956-4.69-1.178-1.267.098-2.358-.059-3.839-.36"/><path fill="#fbb59e" d="M956.452 676.102c.417-.041.471.245.466.389-2.868.541-5.722 1.02-8.595 1.315-3.456.355-6.929.556-10.784.758-.41-.977-.431-1.89-.434-3.157 2.541-.495 5.082-.895 7.581-.715 3.798.272 7.567.947 11.766 1.41"/><path fill="#d0eefc" d="M387.254 376.772c-5.52 3.77-8.87 8.206-7.842 15.174.142.964-1.207 2.105-1.749 3.22-1.553 3.195-4.278 6.397-4.339 9.637-.205 10.96 2.33 21.154 11.97 28.124.784.567 1.381 1.391 2.15 2.43-.068 7.816-.34 15.3-.348 22.784-.037 38.817-.417 77.64.2 116.446.248 15.54-9.726 21.252-21.636 21.224-37.65-.087-75.3-.022-112.95-.016-39.483.006-78.966-.106-118.448.12-7.53.043-13.708-1.97-19.001-7.722-3.762-4.196-3.14-9.087-3.14-13.808-.016-91.72-.009-183.44-.014-275.16 0-7.015 1.91-13.03 8.674-16.982 1.723-.755 3.234-1.24 5.468-1.915 9.397-.398 18.07-.607 26.744-.816 32.306.207 64.612.512 96.918.596 38.986.1 77.972-.002 116.958.013 13.684.006 20.178 6.506 20.205 20.198.05 25.323.058 50.647.18 76.453M235.79 406.763l59.834 51.728c-4.804 5.407-9.17 9.779-12.873 14.655-3.177 4.186-1.392 8.184 3.743 9.29 3.898.838 7.89 1.236 11.811 1.984 16.997 3.242 33.968 6.619 50.98 9.778 6.81 1.264 10.975-3.098 8.995-9.545-5.715-18.608-11.536-37.186-17.612-55.679-2.626-7.991-8.132-9.128-13.807-3.282-3.943 4.061-7.87 8.146-11.611 12.39-2.172 2.465-4.101 2.303-6.357.327-3.382-2.963-6.845-5.832-10.203-8.82-12.922-11.5-25.816-23.03-38.59-35.242 2.949-1.738 5.958-3.382 8.829-5.24 2.445-1.584 5.031-3.124 7.025-5.194 4.171-4.329 3.53-9.76 2.47-15.041-1.52-7.571.334-10.753 7.917-11.661 4.25-.51 8.629.158 12.939.002 5.205-.188 10.753.34 15.51-1.303 6.387-2.204 12.837-5.452 15.031-13.26l-4.719-1.441c3.049-7.827 4.93-8.995 12.234-7.542 3.638.724 6.025-.886 5.464-4.264-.522-3.14-2.067-6.618-4.279-8.83-2.18-2.178-5.66-3.29-8.764-4.231-2.136-.648-4.853-.881-6.876-.13-6.769 2.514-10.17 7.587-11.036 14.927-.956 8.108-3.602 9.966-11.728 8.756-10.302-1.534-19.807-.654-28.879 5.303-7.654 5.028-11.445 11.264-10.168 20.1.165 1.14.669 2.23.852 3.37.5 3.115-.133 5.018-3.866 5.97-5.194 1.324-10.118 3.704-15.754 5.301-5.255-4.596-10.54-9.158-15.759-13.796-10.066-8.947-20.035-18.005-30.158-26.887-6.64-5.826-10.926-5.751-17.425.208-8.578 7.864-17.118 15.774-25.508 23.837-5.41 5.199-5.713 10.688-1.282 15.277 4.656 4.822 9.565 4.687 15.178-.605 4.719-4.45 9.329-9.017 13.935-13.584 1.91-1.894 3.716-2.61 6.015-.539 10.863 9.784 21.773 19.515 32.66 29.98-.064.492.052 1.137-.218 1.455-9.098 10.7-16.646 22.81-29.057 30.447-5.696 3.505-12.114 7.085-12.53 14.968-.278 5.27.008 10.63.679 15.869.54 4.216-1.204 6.31-4.925 6.313-10.566.004-17.121 7.252-24.286 13.195-3.708 3.076-3.651 8.038-.897 11.143 3.412 3.847 7.658 4.457 11.875 1.703 4.85-3.166 9.454-6.834 14.62-9.351 4.553-2.218 9.743-3.116 14.631-4.662 4.154-1.314 6.423-4.14 6.12-8.572-.372-5.443-.514-10.962-1.595-16.278-.942-4.637.304-7.283 4.533-9.08 2.709-1.15 5.699-2.29 7.722-4.286 6.229-6.147 12.046-12.71 18.036-19.1 3.478-3.71 6.979-7.4 11.124-10.83m16.71 119.364h-42.479c-20.323.005-40.646.043-60.969-.01-3.437-.009-6.256.95-6.322 4.717-.068 3.864 2.953 4.78 6.251 4.848.666.014 1.333.011 1.999.011 65.965.019 131.93.042 197.896.029 1.807 0 4.01.186 5.317-.73 1.519-1.064 3.075-3.258 3.057-4.945-.013-1.29-2.258-2.967-3.863-3.708-1.387-.64-3.27-.24-4.935-.24-31.65.004-63.301.016-95.952.028m89.976 27.93c-26.99.008-53.982.013-80.973.028-1.83.001-3.937-.465-5.418.278-1.665.836-3.778 2.766-3.826 4.279-.048 1.5 1.96 3.554 3.574 4.473 1.43.814 3.56.513 5.38.515 20.138.011 40.277-.016 60.416-.028 9.663-.007 19.328.098 28.989-.066 3.165-.053 6.958-.477 6.775-4.842-.17-4.043-3.424-4.802-6.933-4.657-2.328.096-4.664.02-7.984.02m-186.884 9.647c24.119-.011 48.238-.014 72.357-.05 1.819-.002 3.862.238 5.393-.492 1.519-.723 3.453-2.497 3.502-3.87.054-1.528-1.514-3.554-2.942-4.558-1.178-.829-3.182-.637-4.82-.637-25.948-.008-51.897.024-77.845.055-1.33.001-3.037-.437-3.908.214-1.67 1.249-3.699 3.01-3.964 4.797-.177 1.193 2.204 3.483 3.863 4.054 2.256.776 4.915.38 8.364.487"/><path fill="#487fae" d="M152.965 279.098c-8.646.623-17.32.832-26.457 1.015-1.002-1.26-1.54-2.492-2.078-3.725 1.331-.373 2.67-1.09 3.993-1.061 6.366.139 12.743.302 19.082.855 1.87.164 3.625 1.632 5.46 2.916"/><path fill="#fdfbfa" d="M608.78 685.005c.364-11.905 1.01-23.835 2.02-35.734 1.045-12.275 2.429-24.522 3.706-36.777.186-1.783.608-3.543.963-5.552 5.594.459 10.876.78 16.118 1.429.896.111 2.252 1.576 2.33 2.504 2.07 24.7 4.002 49.411 5.824 74.567-8.43.186-16.728-.08-25.025-.334-1.83-.057-3.661-.076-5.935-.103"/><path fill="#fcfcf3" d="M303.982 184.314c-1.515-.188-3.699-.581-3.687-.888.278-7.026.795-14.043 1.31-21.691 5.883 2.756 8.625 6.67 9.002 11.975.337 4.749-2.032 8.248-6.625 10.604"/><path fill="#fef7ea" d="M290.337 120.209c2.134-1.005 4.502-2.489 4.29 1.262-.304 5.41-1.084 10.795-1.696 16.524-4.342-.823-5.441-3.95-6.35-7.022-1.243-4.213-.163-7.837 3.756-10.764m-82.967 5.17c6.444 5.244 7.543 10.393 3.257 14.93-1.202 1.274-3.116 1.876-5.388 3.178 0-6.372-.044-11.642.077-16.908.01-.457 1.105-.889 2.055-1.2m-10.342-25.601a306 306 0 0 1-.37 5.187c-4.175-1.2-5.541-3.97-5.626-7.409-.088-3.593 1.297-6.365 6-7.376 0 3.346 0 6.248-.004 9.598"/><path fill="#f9b29a" d="M837.71 621.573c-22.857-8.738-32.833-34.097-22.207-55.627 4.915-9.961 18.084-15.91 30.723-13.878 21.65 3.48 38.166 28.534 32.87 49.858-3.013 12.13-12.756 20.602-25.251 21.152-5.223.23-10.503-.87-16.135-1.505m4.458-45.539c1.523 6.378 2.777 12.842 4.762 19.074.49 1.538 3.357 2.32 5.131 3.45 1.02-1.848 3.233-4.006 2.848-5.489-1.48-5.69-3.53-11.282-5.906-16.673-1.226-2.782-3.82-3.609-6.835-.362m-20.976 5.725c1.762 5.104 3.32 10.295 5.453 15.238.437 1.012 3.03 1.093 4.63 1.604.446-1.481 1.545-3.126 1.222-4.413a115 115 0 0 0-4.383-13.698c-.503-1.29-2.469-3.057-3.43-2.871-1.324.255-2.33 2.157-3.492 4.14m19.77-142.748-.571-11.547c22.151 2.639 40.901 10.374 56.676 26.28-4.594 2.726-8.863 5.259-13.6 7.582-2.247.368-4.042.903-5.804 1.534-1.916.686-3.801 1.461-5.984 2.017-5.817-6.324-10.923-12.944-17.042-18.434-3.756-3.371-9.064-5.013-13.675-7.432"/><path fill="#e98262" d="M840.917 439.45c4.656 1.98 9.964 3.622 13.72 6.993 6.12 5.49 11.225 12.11 17.084 18.78a906 906 0 0 0 2.55 4.026l-16.001 18.066c-11.121-13.958-15.367-30.265-17.353-47.866"/><path fill="#f0957b" d="M874.58 469.128c-1.051-1.045-1.793-2.212-2.576-3.724 1.858-1.083 3.743-1.858 5.66-2.544 1.76-.63 3.556-1.166 5.47-1.381-2.659 2.751-5.452 5.14-8.554 7.65"/><path fill="#fef7ea" d="M1041.86 123.234c1.762 6.254.125 8.986-6.097 9.619l1.68-13.933c1.987 1.832 3.135 2.89 4.418 4.314m-12.828-24.58c-.25-3.529.67-5.856 5.212-6.816l-1.52 12.234c-1.787-2.467-2.713-3.747-3.692-5.418M901.701 298.421c2.098 6.37.277 9.53-6.663 10.515l2.896-11.85c1.194.334 2.387.667 3.767 1.335m-4.541-29.96c-.069 3.515-.498 6.942-1.013 11.046-5.355-4.675-4.725-8.69 1.012-11.046"/><path fill="#ba640f" d="M879.253 84.08c22.291-6.647 46.003 2.35 55.891 21.13 13.096 24.873-.104 55.13-26.31 63.55-26.262 8.44-53.093-7.036-59.33-33.648-5.213-22.246 6.624-42.777 29.75-51.031m-13.152 11.453c-12.25 11.05-16.296 24.604-12.24 40.549 5.73 22.526 31.34 36.454 53.934 28.772 22.01-7.483 35.542-34.12 24.27-56.879-10.938-22.08-44.479-30.043-65.964-12.442"/><path fill="#dd7454" d="M1036.042 679.32c.415-.915.998-2.03 1.717-2.127 11.116-1.483 22.25-2.835 33.808-4.198-1.895 8.295-5.151 10.968-13.567 11.067-7.542.09-15.309 1.01-21.958-4.742"/><path fill="#c26b10" d="M1039.04 316.432c2.21-12.637 9.83-21.265 18.34-29.587 4.784-4.678 10.423-5.94 16.455-6.915 2.106-.34 4.228-.581 6.744-.952 20.566.986 34.851 10.784 41.588 29.76 7.083 19.949-4.162 42.952-23.756 50.982-27.52 11.28-60.575-7.378-59.372-43.288m51.66-33.085c-3.814-.156-7.63-.279-11.442-.473-19.546-.994-43.249 22-35.195 48.725 5.775 19.16 24.282 30.314 44.248 27.353 18.347-2.72 32.616-19.301 32.7-37.8.072-15.801-10.873-32.709-30.31-37.805"/><path fill="#bd690e" d="M980.36 260.178c-10.666-4.659-18.949-11.228-23.866-21.878-7.52-16.286-2.65-35.286 12.384-45.273 3.562-2.366 7.57-4.06 11.73-6.163 20.488-6.297 39.175 2.54 47.816 21.425 10.27 22.441-3.782 52.302-31.988 53.652-5.188.249-10.455-1.138-16.076-1.763m45.213-22.353c2.943-7.494 3.714-15.33 1.758-23.019-5.469-21.499-27.154-32.348-47.717-24.067-18.857 7.593-25.639 22.446-21.991 40.237 3.04 14.826 16.6 26.535 32.202 27.85 12.649 1.068 27.985-4.688 35.748-21.001"/><path fill="#ec8c71" d="M932.768 672.837c.208.794.15 1.474-.113 2.063-7.345 16.506-15.157 20.06-32.879 15.127-5.275-1.469-7.261-5.323-8.026-11.015-.242-2.863-.479-4.947-.715-7.03.024-.438.049-.877.041-1.643.344-4.08.72-7.831 1.058-11.198 13.368 4.495 26.82 9.017 40.634 13.696m244.225-173.86c-.867-1.95-1.734-3.899-2.962-6.026 2.292-3.083 5.618-3.832 9.089-2.335 4.96 2.138 7.49 6.217 7.875 11.984-1.708 1.29-3.376 2.19-5.586 3.384l-5.045.253c-.093-.642-.228-1.571-.218-3.193 1.162-2.861 2.18-5.031 3.198-7.201l-1.625-1.093z"/><path fill="#9c431e" d="M890.754 672.237c.517 1.828.754 3.912.878 6.4-.46-1.78-.81-3.963-.878-6.4"/><path fill="#533318" d="M541.208 289.579c-4.368-9.863-4.233-19.112 1.991-27.753 6.925-9.615 19.943-9.868 27.382-.68 6.791 8.39 7.145 22.613.841 31.345-8.129 11.262-24.195 9.325-30.214-2.912"/><path fill="#523117" d="M721.382 292.292c-4.884 6.54-11.18 8.897-18.66 7.282-8.335-1.8-12.404-8.115-14.191-15.751-1.703-7.276-1.187-14.48 3.238-21.046 7.615-11.302 23.18-11.227 30.26.462 5.788 9.553 5.308 19.258-.647 29.053"/><path fill="#dd7454" d="M1176.7 499.141c1.868-1.573 3.444-2.982 5.019-4.391l1.625 1.093c-1.018 2.17-2.036 4.34-3.202 6.832-1.9.659-3.653.994-5.804 1.323.423-1.57 1.245-3.131 2.362-4.857"/><path fill="#b45720" d="M1181.526 516.49c.028.047-.028-.049 0 0"/><path fill="#e98262" d="M1177.993 520.99c-.096.033-.185.074-.125.07.15-.047.132-.06.125-.07"/><path fill="#3da663" d="M219.965 393.115c-10.893-9.75-21.803-19.481-32.666-29.265-2.3-2.07-4.105-1.355-6.015.539-4.606 4.567-9.216 9.134-13.935 13.584-5.613 5.292-10.522 5.427-15.178.605-4.43-4.589-4.127-10.078 1.282-15.277 8.39-8.063 16.93-15.973 25.508-23.837 6.5-5.96 10.785-6.034 17.425-.208 10.123 8.882 20.092 17.94 30.158 26.887 5.218 4.638 10.504 9.2 16.193 14.258 6.034 5.188 11.633 9.914 17.233 14.64 12.905 11.518 25.799 23.049 38.721 34.548 3.358 2.988 6.821 5.857 10.203 8.82 2.256 1.976 4.185 2.138 6.357-.327 3.741-4.244 7.668-8.329 11.61-12.39 5.676-5.846 11.182-4.71 13.808 3.282 6.076 18.493 11.897 37.07 17.612 55.679 1.98 6.447-2.186 10.81-8.995 9.545-17.012-3.159-33.983-6.536-50.98-9.778-3.921-.748-7.913-1.146-11.811-1.985-5.135-1.105-6.92-5.103-3.743-9.289 3.702-4.876 8.07-9.248 12.873-14.655a58952 58952 0 0 0-60.337-52.115c-5.443-4.678-10.383-8.97-15.323-13.26"/><path fill="#bcdff2" d="M260.035 394.694c-5.665-4.38-11.264-9.105-17-14.128 4.904-2.224 9.828-4.604 15.022-5.928 3.733-.952 4.367-2.855 3.866-5.97-.183-1.14-.687-2.23-.852-3.37-1.277-8.836 2.514-15.072 10.168-20.1 9.072-5.957 18.577-6.837 28.88-5.303 8.125 1.21 10.771-.648 11.727-8.756.866-7.34 4.267-12.413 11.036-14.927 2.023-.751 4.74-.518 6.876.13 3.104.941 6.584 2.053 8.764 4.232 2.212 2.211 3.757 5.688 4.279 8.83.561 3.377-1.826 4.987-5.464 4.263-7.304-1.453-9.185-.285-12.234 7.542l4.72 1.441c-2.195 7.808-8.645 11.056-15.031 13.26-4.758 1.642-10.306 1.115-15.511 1.303-4.31.156-8.688-.511-12.939-.002-7.583.908-9.437 4.09-7.918 11.66 1.06 5.282 1.702 10.713-2.469 15.042-1.994 2.07-4.58 3.61-7.025 5.193-2.871 1.859-5.88 3.503-8.895 5.588"/><path fill="#baddf1" d="M219.962 393.472c4.943 3.935 9.883 8.226 14.999 12.77-3.315 3.952-6.816 7.642-10.294 11.353-5.99 6.39-11.807 12.952-18.036 19.099-2.023 1.996-5.013 3.135-7.722 4.287-4.229 1.796-5.475 4.442-4.533 9.079 1.08 5.316 1.223 10.835 1.595 16.278.303 4.431-1.966 7.258-6.12 8.572-4.888 1.546-10.078 2.444-14.63 4.662-5.167 2.517-9.771 6.185-14.621 9.351-4.217 2.754-8.463 2.144-11.875-1.703-2.754-3.105-2.81-8.067.897-11.143 7.165-5.943 13.72-13.19 24.286-13.195 3.72-.002 5.464-2.097 4.925-6.313-.67-5.239-.957-10.6-.679-15.87.416-7.882 6.834-11.462 12.53-14.967 12.411-7.638 19.96-19.748 29.057-30.447.27-.318.154-.963.221-1.813"/><path fill="#5488b5" d="M253 526.128c32.15-.011 63.801-.023 95.452-.026 1.664 0 3.548-.4 4.935.24 1.605.74 3.85 2.416 3.863 3.707.018 1.687-1.538 3.88-3.057 4.945-1.307.916-3.51.73-5.317.73-65.965.013-131.93-.01-197.896-.029-.666 0-1.333.003-1.999-.01-3.298-.069-6.319-.985-6.251-4.849.066-3.767 2.885-4.726 6.322-4.717 20.323.053 40.646.015 60.97.01 14.159-.002 28.318 0 42.978 0"/><path fill="#487fae" d="M342.97 554.06c2.826 0 5.161.075 7.49-.02 3.509-.146 6.763.613 6.933 4.656.183 4.365-3.61 4.789-6.775 4.842-9.661.164-19.326.06-28.99.066-20.138.012-40.277.04-60.415.028-1.82-.002-3.95.3-5.38-.515-1.614-.919-3.622-2.973-3.574-4.473.048-1.513 2.16-3.443 3.826-4.28 1.48-.742 3.588-.276 5.418-.277 26.991-.015 53.982-.02 81.467-.027m-187.86 9.646c-2.967-.106-5.626.29-7.882-.487-1.659-.571-4.04-2.861-3.863-4.054.265-1.788 2.294-3.548 3.964-4.797.87-.65 2.578-.213 3.908-.214 25.948-.03 51.897-.063 77.845-.055 1.638 0 3.642-.192 4.82.637 1.428 1.004 2.996 3.03 2.942 4.558-.049 1.373-1.983 3.147-3.502 3.87-1.531.73-3.574.49-5.393.493-24.12.035-48.238.038-72.838.05"/><path fill="#883a18" d="M842.35 575.664c2.834-2.877 5.427-2.05 6.653.732 2.376 5.39 4.425 10.982 5.906 16.673.385 1.483-1.828 3.64-2.848 5.488-1.774-1.13-4.641-1.91-5.131-3.45-1.985-6.23-3.239-12.695-4.58-19.443"/><path fill="#8b3c19" d="M821.201 581.366c1.152-1.59 2.159-3.492 3.483-3.747.961-.186 2.927 1.58 3.43 2.871a115 115 0 0 1 4.383 13.698c.323 1.287-.776 2.932-1.222 4.413-1.6-.51-4.193-.592-4.63-1.604-2.133-4.943-3.691-10.134-5.444-15.631"/><path fill="#f7b03f" d="M866.398 95.332c21.19-17.399 54.73-9.436 65.667 12.644 11.273 22.759-2.258 49.396-24.27 56.88-22.593 7.68-48.203-6.247-53.933-28.773-4.056-15.945-.01-29.5 12.536-40.751m21.607 38.272-1.458 5.868-7.756-4.21c-7.599 6.224-7.48 7.792.98 12.065.742.375 1.465.887 2.256 1.049 2.676.546 3.186 2.145 3.144 4.699-.022 1.297 1.478 2.62 2.29 3.932 1.399-1.009 3.71-1.802 4.01-3.07.65-2.758 1.787-3.699 4.58-4.115 7.545-1.125 12.12-5.304 13.006-11.178 1.09-7.235-2.072-13.294-8.821-16.899-3.08-1.645-4.91-6.876-2.574-9.255.954-.971 4.142.23 6.309.487.612.073 1.205.306 1.71.44 5.462-7.75 5.655-8.21-.997-11-4.079-1.712-5.542-3.995-4.609-9.933-3.088 1.552-6.407 2.362-6.485 3.415-.27 3.624-2.518 4.137-5.13 4.851-6.085 1.662-10.64 5.149-11.346 11.752-.707 6.615 2.275 11.654 8.333 14.511 2.755 1.3 3.88 2.911 2.558 6.59"/><path fill="#f7af3f" d="M1091.1 283.492c19.037 4.951 29.982 21.859 29.91 37.66-.084 18.499-14.353 35.08-32.7 37.8-19.966 2.96-38.473-8.193-44.247-27.353-8.055-26.725 15.648-49.72 35.194-48.725 3.812.194 7.628.317 11.843.618m-24.161 50.828-2.815 5.173c2.428 1.166 4.533 2.567 6.847 3.196 3.426.93 7.051 1.156 6.247 6.31-.07.45 2.121 1.711 3.283 1.738.816.02 2.47-1.537 2.372-2.183-.627-4.18 2.051-4.86 5.12-5.792 6.006-1.825 9.442-6.005 9.873-12.363.407-6.016-2.794-10.976-8.717-13.78-6.956-3.293-7.184-3.785-5.485-12.79 5.8 2.788 9.89 1.514 10.953-5.245-2.895-4.941-13.274-.617-11.946-10.243h-5.525c.85 4.866-1.635 6.832-5.567 8.568-5.13 2.264-8.461 6.573-8.307 12.52.142 5.447 3.3 9.34 7.899 11.868 6.408 3.522 6.961 4.531 5.291 11.88-3.147.167-6.17.327-9.523 1.143m-41.529-96.145c-7.6 15.963-22.936 21.719-35.585 20.652-15.603-1.316-29.163-13.025-32.202-27.85-3.648-17.792 3.134-32.645 21.991-40.238 20.563-8.28 42.248 2.568 47.717 24.067 1.956 7.69 1.185 15.525-1.92 23.37m-36.676-36.084c-4.742 1.351-7.87 4.312-8.617 9.265-.734 4.858 1.118 8.853 4.954 11.823 4.936 3.822 5.302 5.18 2.51 11.228-8.4-3.446-8.4-3.446-11.62 2.523 1.332 1.07 2.611 2.4 4.15 3.27 3.456 1.954 7.402 3.372 6.045 8.724-.11.432 1.497 1.858 2.25 1.816 1.09-.062 3.05-1.053 3.043-1.628-.056-4.56 3.259-4.58 6.326-5.296 4.715-1.1 8.277-3.803 9.146-8.77.874-4.995.045-9.641-4.582-12.832-5.786-3.99-6.053-5.09-2.997-11.918.735.298 1.673.406 2.185.93 3.005 3.079 5.036 1.205 6.777-1.343 2.098-3.07-.13-4.998-2.489-5.747-4.444-1.412-5.53-4.523-5.027-9.959-2.509 1.308-5.28 1.999-5.36 2.924-.348 3.991-3.255 4.13-6.694 4.99"/><path fill="#fcf7c4" d="M888.039 133.216c1.288-3.292.163-4.903-2.592-6.203-6.058-2.857-9.04-7.896-8.333-14.511.707-6.603 5.261-10.09 11.346-11.752 2.612-.714 4.86-1.227 5.13-4.851.078-1.053 3.397-1.863 6.485-3.415-.933 5.938.53 8.22 4.609 9.932 6.652 2.79 6.459 3.251.997 11-.505-.133-1.098-.366-1.71-.439-2.167-.258-5.355-1.458-6.31-.487-2.336 2.38-.505 7.61 2.575 9.255 6.749 3.605 9.912 9.664 8.82 16.899-.885 5.874-5.46 10.053-13.006 11.178-2.792.416-3.93 1.357-4.58 4.115-.298 1.268-2.61 2.061-4.009 3.07-.812-1.312-2.312-2.635-2.29-3.932.042-2.554-.468-4.153-3.144-4.7-.79-.16-1.514-.673-2.256-1.048-8.46-4.273-8.579-5.84-.98-12.064l7.756 4.209c.6-2.419 1.03-4.143 1.492-6.256m5.979-.294-.974 7.689c4.364-.528 5.59-2.844 4.705-5.956-.309-1.084-2.36-1.673-3.731-1.733m-4.943-15.554 3.257-6.578-1.76-.728c-3.422 1.274-4.627 3.364-1.497 7.306"/><path fill="#fdf7c2" d="M1067.103 333.992c3.189-.488 6.212-.648 9.36-.815 1.669-7.349 1.116-8.358-5.292-11.88-4.6-2.527-7.757-6.421-7.899-11.867-.154-5.948 3.178-10.257 8.307-12.521 3.932-1.736 6.417-3.702 5.567-8.568h5.525c-1.328 9.626 9.05 5.302 11.946 10.243-1.063 6.759-5.153 8.033-10.953 5.244-1.699 9.006-1.47 9.498 5.485 12.792 5.923 2.803 9.124 7.763 8.717 13.779-.43 6.358-3.867 10.538-9.872 12.363-3.07.933-5.748 1.613-5.121 5.792.097.646-1.556 2.203-2.372 2.183-1.162-.027-3.354-1.289-3.283-1.738.804-5.154-2.821-5.38-6.247-6.31-2.314-.63-4.419-2.03-6.847-3.196 1.097-2.017 1.956-3.595 2.98-5.501m14.941-5.364c.004.826-.209 1.73.059 2.458.453 1.234 1.21 2.357 1.838 3.526 1.028-1.117 2.729-2.133 2.916-3.377.236-1.572-.298-3.727-1.326-4.92-1.928-2.238-3.422-1.62-3.487 2.313m-8.43-22.474c-1.393 3.695.598 5.304 4.245 6.717 0-2.309.022-4.083-.004-5.855-.054-3.55-1.47-3.686-4.241-.862m-84.496-104.128c3.055-.793 5.962-.933 6.31-4.924.08-.925 2.851-1.616 5.36-2.924-.503 5.436.583 8.547 5.027 9.959 2.36.75 4.587 2.678 2.49 5.747-1.742 2.548-3.773 4.422-6.778 1.343-.512-.524-1.45-.632-2.185-.93-3.056 6.828-2.789 7.928 2.997 11.918 4.627 3.19 5.456 7.837 4.582 12.832-.869 4.967-4.43 7.67-9.146 8.77-3.067.716-6.382.736-6.326 5.296.007.575-1.953 1.566-3.043 1.628-.753.042-2.36-1.384-2.25-1.816 1.357-5.352-2.59-6.77-6.045-8.724-1.539-.87-2.818-2.2-4.15-3.27 3.22-5.97 3.22-5.97 11.62-2.523 2.792-6.047 2.426-7.406-2.51-11.228-3.836-2.97-5.688-6.965-4.954-11.823.748-4.953 3.875-7.914 9-9.33m8.725 30.311-1.888-4.424-1.412.222-1.446 7.263 1.181.829c1.15-1.046 2.3-2.092 3.565-3.89"/><path fill="#f6ac5b" d="M894.076 132.545c1.313.437 3.364 1.026 3.673 2.11.885 3.112-.34 5.428-4.705 5.956.347-2.74.66-5.214 1.032-8.066m-5.286-15.41c-2.845-3.71-1.64-5.8 1.781-7.073l1.761.728c-1.086 2.193-2.171 4.385-3.541 6.345"/><path fill="#f5c25b" d="M1082.046 328.215c.064-3.52 1.558-4.138 3.486-1.9 1.028 1.193 1.562 3.348 1.326 4.92-.187 1.244-1.888 2.26-2.916 3.377-.629-1.17-1.385-2.292-1.838-3.526-.268-.728-.055-1.632-.058-2.871m-8.206-22.374c2.545-2.51 3.962-2.375 4.016 1.175.026 1.772.004 3.546.004 5.855-3.647-1.413-5.638-3.022-4.02-7.03m-76.054-73.127c-1.207 1.422-2.358 2.468-3.508 3.514l-1.181-.829 1.446-7.263 1.412-.222c.629 1.474 1.258 2.95 1.83 4.8"/></svg>