<svg xmlns="http://www.w3.org/2000/svg" xml:space="preserve" style="background:0 0" viewBox="0 0 1328 800"><path fill="#f7b06a" d="M515.97 183.32c4.79.53 8.21 1.07 12.65 2.08-7.92 14.93-13.14 30.3-14.23 47.02.18 5.13 1.52 10.02 5.39 11.23 4.78 1.49 8.42-.65 11.93-4.38.28-1.31 1.01-2.85 1.67-4.36 3.16-6.07 4.82-12.42 8.01-18.21 5.18-8.49 10.06-16.59 15.14-24.85 2.29-.88 5.13-1.18 6.8-2.73 19.54-18.31 38.26-37.56 58.55-54.99 14.29-12.27 30.31-22.67 46.22-32.87 9.77-5.7 13.82-3.78 16.85 7.72 6.75 23.19 9.68 46.8 12.26 70.63 2.75 25.38 3.45 50.79 2.71 76.25-.27 9.45-1.36 18.89-2.3 29.03-.05 2.26-.24 3.72.37 4.92 4.14 8.13 8.52 16.13 12.7 24.75 10.73 19.61 16.62 40.98 19.54 63.87.1 9.13.42 17.81.4 27.41-7 1.42-13.73 4.15-20.32 5.49-16.2 5.47-32.36 11.08-48.49 16.78-1.45.52-2.56 2.03-3.83 3.09 1.52.6 3.21 1.31 4.58 1.75.75.21 1.64-.08 2.78-.19 21.49-2.15 41.78-5.41 62.79-7.66-.77 4.48-.99 8.68-2.34 12.48-2 7.69-6.05 15.17-9.53 22.65-7.96-1.02-15.52-1.97-23.08-2.9-14.3-1.76-28.59-3.61-42.92-5.1-1.53.48-3.3 2.48-4.95 3.46 1.2.72 2.29 2.19 3.65 3.75.69.2 1.83.32 2.79.75 18.72 5.75 37.45 9.97 56.14 15.37-5.59 8.02-11.15 15.69-17.03 23.23-15.73-9.98-30.88-20.49-50.01-25.38-.54.74-1.07 1.49-1.61 2.24 2.72 2.64 5.45 5.26 8.14 7.93 9.88 9.8 19.74 19.61 29.3 29.57-12.96 7.58-25.53 15.18-38.34 22.35-5.86 3.28-12.19 5.72-18.57 9.19-.07-.52-1.15-.45-1.59-.38.08.22.16.44.24.65.53-.32 1.05-.65 1.98-.96 2.81-.42 5.2-.85 8.13-.89 1.27 1.21 2.96 2.7 4.68 2.74 10.08.27 19.95-1.25 28.77-6.34 10.3-5.95 20.5-12.13 30.28-18.88 4.32-2.98 8.12-6.93 9.03-13.03.44-2.95 3.32-4.91 5.12-8.26 1.24-1.88 2.86-3.58 3.72-5.6 4.1-9.62 7.7-19.45 12.03-28.95 9.2-20.2 14.69-41.21 14.77-63.46.02-8.46-.67-16.92-1.03-25.77-.3-2.44-.61-3.98.01-7.02-2.57-13.15-4.24-25.84-5.53-38.55.84-.13 1.58-.09 1.75-.38 3-5.38 8.44-6.8 14.14-8.3 3.43 5.53 7.38 10.86 10.38 16.04 2.81 4.05 8.57 6.44 12.05 5.15 4.96-1.82 6.79-5.79 6.25-10.7-.53-3.98-1.08-9.58-2.64-14.02-3.78-10.34-11.39-18.95-19.08-27.05-3.27-3.46-6.24-7.2-9.35-10.81 11.32-2.3 22.63-4.62 33.94-6.76 1.79-.5 3.59-.74 5.7-.71 1.36 1.89 2.61 3.36 3.43 5.04 6.77 13.83 13.36 27.75 20.23 41.64 2.73 3.52 3.93 7.27 6.79 10.07 5.34 5.23 13.91 3.46 17.43-3.31 3.25-7.78 3.21-16.2 2.04-24.41-.94-10.14-3.76-20.16-5.7-30.23 11.95 1.07 23.91 2.12 35.86 3.24 1.96.18 3.88.68 6.19 1.67 1 6.56 1.91 12.47 2.96 18.41-.23 10.28-.4 20.6 1.16 30.86-.46 5.21 3.44 8.12 8.65 8.53 6.81.54 12.14-2.65 14.69-8.44 6.92-11.94 10.29-25.13 12.92-38.54 14.96 5.49 29.22 11.63 42.47 20.76-1.86 5.72-3.37 10.99-5.54 15.96-3.17 7.3-6.91 14.78-10.22 21.59-2.3 5.05-3.38 10.46.93 14.89 5.1 4.38 9.73 3.3 14.95 1.67 1.4-.39 2.54-.98 3.52-1.54 6.4-5.75 12.85-11.17 19.03-16.89 3.85-3.57 7.24-7.63 10.83-11.48 7.99 7.63 16.16 15.37 24.22 22.97 3.36 3.76 6.22 8.33 9.54 13.2-7.01 9.15-14.1 17.61-21.18 26.1-2.42 2.91-5.38 5.57-7.05 9.55-4.2 7.61 1.83 16.44 11.11 15.63 5.08-.45 10.33-1.19 15.03-3.01 8.63-2.98 16.92-7.57 25.35-11.43 9.63 18.01 16.77 37.21 18.65 57.36 1.65 12.25 1.61 24.98 1.94 38.1-3.54 15.44-4.87 31.05-11.49 45.36.05.51.51 1.47.44 2.69-.99.36-1.88.97-2.24 1.8-8.19 19.14-23.21 30.57-40.9 39.59-1.81-3.49-2.98-7.03-5.16-9.04-1.05-2.06-4-1.9-6.08-2.42.57 1.94-.96 3.98-.6 5.81.61 3.06 2.26 5.91 2.85 8.97 1.59 8.23 2.85 16.51 3.87 24.8-2.2.71-4.03 1.39-5.84 2.66-6.4 1.93-13.08 3.9-19.12 7.07-7.78 4.09-15.38 7.83-24.53 6.57-.46-.13-1.99 1.03-3.29 2.02-2.85 2.52-5.26 5.3-8 7.7-7.4 6.47-16.28 8.97-24.69 6.35-11.65-3.04-14.64-19.01-7.07-29.73 1.3-1.84 2.67-3.64 4.33-5.88-5.09-1.2-7.88 2.19-9.61 4.45-6.45 11.54-5.64 22.75 3.33 34.16-7.46-.45-14.04-.71-20.59-.83-10.48-1.38-17.21-8.89-17.54-19.31-.22-6.74 1.52-12.81 5.01-18.49.6-.98.87-2.15 1.65-4.16-6.35 1.87-8.63 6.07-10.27 10.59-3.66 10.16-2.72 19.81 4.28 29.12-3.13-.46-6.01-.78-9.38-1.12-13.18-2.31-22.75-15.22-20.13-28.29 3.31-16.55 15.49-25.72 29.8-31.06 12.97-6.19 26.82-4.25 40.4-2.34 6.34.89 12.67 1.85 19.01 2.79.13-.49.25-.98.38-1.46-9.68-2.91-19.24-6.4-29.09-8.57-9.96-2.3-20.85.04-30.93 3.04-3.24.96-4.77.3-6.36-2.53-19.28-34.14-27.89-70.37-20.97-109.43 3.49-19.65 11.92-37.13 27.53-50.72 5.03-5.21 12.03-9 18.75-13.63 17.17-6.6 34.36-8.02 51.98-3.34-10.67-5.15-21.97-6.64-33.36-4.93-7.36 1.1-14.45 4.06-22.02 6.17-10.75 3.6-19.79 10.33-26.85 18.79-20.93 25.06-26.87 54.79-24.42 86.36 1 12.78 4.71 25.34 6.89 38.3-.44 7.51-.1 15.39-.93 21.91-.42 3.66-2.07 7.91-4.61 10.45-8.67 8.67-20.22 12.48-31.48 16.27-17.82 5.99-36.46 6.32-55.01 5.9-5.56-.13-11.25-1.87-15.4-6.47-2.43-3.65-7.05-6.9-10.14-10.7-2.72-3.35-5-7.1-6.71-10.88-1.56-2.06-1.97-4.53-2.66-7.22.83-3.87 1.59-7.33 2.35-10.8-1.3.77-1.74 1.8-2.22 2.8-5.39 12.29-10.73 25.2-16.98 36.73-12.34 19.54-29.76 33.46-53.32 37.06-12.96 1.98-25.99 3.81-39.05 5.27-24.38 1.15-48.79 2.38-73.21 3.24-5.49.83-11.47 1.61-16.77 4.92-10.03 6.64-20.6 11.35-32.67 12.93-16.18 2.13-28-11.05-22.63-26.35 1.33-3.77 5.26-6.61 7.94-9.93.67-.82 1.12-1.82 1.66-2.74-1.16-.29-2.51-1.11-3.44-.77-2.13.78-3.55 1.79-6.02 3.3-6.29 5.72-8.71 13.09-6.85 21.26 1.22 5.33 3.84 10.34 6.17 16.37-7.39-1.02-14.99-1.59-22.35-3.25-4.91-1.11-8.88-4.38-11.03-9.39-4.64-10.81-3.25-21.06 2.5-31.01.82-1.42 1.46-2.95 2.44-4.96-7.19 1.37-12.79 8.44-13.12 17.48-.27 7.55.95 15.16 1.5 22.55-8.81-2.54-16.15-10.58-16.81-18.9-1.7-21.26 12.98-39.55 34.32-42.46 6.32-.77 12.35-1.33 18.46-5.49 21.21-12.65 44.91-17.88 69.27-20.49 10.05-1.08 20.25-2.35 30.59-3.58 11.94-.62 22.58-1.19 33.64-1.76-.01-.4-.01-.79-.02-1.19-7.18-.45-15.62-.91-23.84-1.65 3.87-.58 7.45-.88 11.03-1.17-5.34-1.59-10.67-2.66-15.94-2.44-7.85.33-15.68 1.45-23.49 2.49-2.03.27-3.95 2.27-6.35 2.29-11.67 2.54-22.98 3.82-34.13 6.28-8.24 2.4-16.27 4.59-24.67 6.62-4.61-.48-9.18.15-13.64-.57-17.12-.49-33.73-3.54-49.85-9.3-7.68-2.95-15.94-6.57-22.11-13.24-.4-.75-.92-1.57-1.65-1.84-4.31-1.69-9.07-3.11-13.5-4.9-11.33-4.57-22.59-9.28-33.88-13.76-20.71-12.04-39.12-26.55-52.95-46.67 10.48-8.06 20.74-15.59 31-23.11-.31-.56-.63-1.11-.95-1.67-12.9 3.52-25.56 7.64-37.56 13.54-3.15-8.02-7.22-15.77-10.55-23.43 8.55-2.6 15.61-4.11 23.34-4.38 8.75-1.22 17.84-1.1 26.34-1.82 1.78-.15 3.4-2.28 5.09-3.5-1.59-1.32-3.18-3.78-4.77-3.78-17.84 0-36.17.37-54.25.93-1.64-10.33-3.29-20.38-4.48-30.83 4.45.67 8.47 1.69 12.45 2.81 10.7 3.02 21.37 6.15 32.09 9.06 1.73.47 3.69.07 5.55.07.2-.52.39-1.04 1.14-1.56-17.07-10.65-34.74-19.67-51.7-29.99.65-26.1 7.78-50.55 19.57-73.6 5.73-10.81 12.88-21.72 19.22-32.64 1.18-2.05 2.16-4.11 2.18-6.9.46-42.06 6.03-83.55 14.57-124.62 3.27-15.73 8.39-31.12 13.42-46.41 2.62-7.99 6.74-9.14 13.67-4.12 11.44 8.28 22.46 17.16 33.73 25.99 5.2 4.37 10.27 9.19 16.01 14.32.21.76.45.95.9 1.09 0 0-.18.02-.04.2.35.44.59.64 1.08.8 0 0 .15.02-.07.21.36.45.61.65 1.26.8 0 0-.41.43-.27.2.41.39.67.6 1.51.96 0 0-.65.12-.51.04.4.39.67.6 1.62 1.07 0 0-.76.04-.63-.08.41.4.68.61 1.63 1.3 0 0-.76-.02-.63-.3.41.4.67.61 1.57 1.7 0 0-.71-.01-.57-.7.41.39.67.61 1.46 1.7 0 0-.6-.01-.45-.7.4.4.66.61 1.43 1.67 0 0-.58.06-.44-.67.4.39.66.61 1.28 1.45 0 0-.42-.53-.27-.44.36.43.61.65 1.26 1.43 0 0-.41-.52-.26-.43.41.39.67.6 1.55 1.1 0 0-.69.01-.55-.1.41.39.68.6 1.77 1.16 0 0-.91.06-.77-.17.41.39.68.61 1.73 1.49 0 0-.88.01-.73-.49.41.39.68.61 1.74 1.56 0 0-.89.01-.74-.56.41.39.68.61 1.74 1.14 0 0-.88-.16-.75-.14.41.39.69.61 1.76 1.21 0 0-.89-.05-.76-.21.41.4.68.61 1.75 1.49 0 0-.89-.2-.75-.48.41.39.68.6 1.74 1.49 0 0-.88-.04-.74-.49.4.39.68.6 1.73 1.53 0 0-.87-.06-.74-.53.41.39.68.61 1.63 1.72 0 0-.76-.09-.63-.72.41.39.68.61 1.58.92 0 0-.71.79-.58.08.39.4.65.61 1.27.94 0 0-.41 0-.27.06.33.45.57.66.86.96 0 0 .02-.15.14.05.31.44.53.64.78.94 0 0 .08.1.48.2.04.77.37 1.21 1.35 1.66 0 0-.18-.02-.18.3 6.03 9.89 12.89 19.48 19.05 29.01.37.54 2.26.56 2.29 1.27.44 8.08.77 15.71 1.28 23.32.4 5.95.58 11.97 1.69 17.8 1.24 6.6 8.09 8.73 12.82 3.95 3.29-2.45 4.58-6.03 5.07-9.36 2.12-14.41 3.59-28.93 5.65-43.41 5.4-.58 11.17-1.16 17.36-1.22.13 2.31-.12 4.12-.49 5.9-3.62 17.43-5.69 35.01-5.06 52.83-.08 4.2 1.46 7.49 6.55 8.6 5 1.43 8.75 0 11.07-4.61 1.42-2.8 2.73-5.71 3.67-8.7 3.29-10.43 6.3-20.96 9.62-31.39 2.45-7.71 5.22-15.32 7.85-22.97m-54.12 267.32c-6.35 7.71-14.59 11.91-24.44 13.04-10.18 1.18-18.16-3.8-21.49-13.1-.41-1.14-1.7-1.97-2.59-2.95-1.06 1.3-3.16 2.78-2.97 3.86.5 2.85 1.48 5.91 3.19 8.18 7.1 10.31 17.04 11.52 28.11 9.89 9.79-1.43 17.76-6.94 23.62-13.06 6.71 5.26 13.64 11.05 19.94 14.99 10.58 5.83 22.08 7.62 33.5 1.7 6.49-3.31 10.47-8.68 11.02-16.08.09-1.23-1.5-2.58-2.31-3.88-1.14.95-2.89 1.69-3.31 2.89-3.24 9.3-9.54 14.32-19.35 14.82-14.46-1.36-25.56-8.29-33.82-20.71 1.56-1.51 2.87-3.57 4.73-4.42 6.58-3.02 11.67-7.59 15.5-13.6 6.63-9.25 3.49-16.33-6.91-19.5-5.35-.85-10.91-2.87-16.47-3.41-8.56-.86-17.56-.3-25.83 3.25-3.82 1.64-6.21 4.93-4.52 8.78 2.82 6.44 5.83 13.11 10.27 18.42 3.65 4.37 9.5 6.9 14.13 10.89m119.29-112.33c-33.74 6.8-50.55 38.46-44.77 69.69 4.75 23.49 26.84 42.53 50.22 43.99 26.32 1.64 48.18-12.36 56.98-36.51 8.4-23.02 1.32-48.97-17.25-64.78-12.95-11.03-27.92-14.05-45.18-12.39m-166.43 21.6c-.81-1.45-.77-2.91-2.45-4.35-14.37-24.98-44.56-33.88-69.49-20.04-31.12 17.77-36.26 63.79-10.01 89.68 19.81 19.55 50.19 19.7 70.09.34 17.42-16.95 21.94-41.09 11.86-65.63M604.94 212.6c22.48 12.36 42.72 27.78 61.24 45.75 5.68-8.88 3.56-100.74-1.35-109.67-.69-.38-1.59-.25-2.11.26-19.78 19.7-39.51 39.44-59.28 59.96-1.95 1.5-1.17 2.32 1.5 3.7m-217.38-17.67c-14.04-18.95-28.41-37.6-46.84-53-8.07 34.79-12.49 69.45-12.01 104.9 20.05-17.44 42.02-31.08 66.84-41.17-2.85-3.85-5.2-7.01-7.99-10.73m-.57 94.54c-1.8.85-3.68 1.88-5.38 3.01-4.46 2.22-5.81 6.46-3.98 9.49 2.15 4.54 5.91 3.57 10.07 2.39 5.19-1.95 10.97-4.03 16.68-5.56 4.78-2.6 9.54-4.6 14.12-6.91 3.98-1.79 4.78-7.2 2.91-10.92-2.03-4.04-5.19-2.67-8.15-1.57-8.55 3.2-17.06 6.49-26.27 10.07m185.95 8.1c-8.22-3.97-16.34-8.15-24.69-11.83-4.58-2.02-7.77 1.14-6.37 5.24-.48 2.59 1.96 6.02 3.32 7.22 9.94 5.67 20.22 10.75 30.44 15.92 3.35 1.69 6.74 1.45 8.57-2.21 1.75-3.51 1.17-6.93-2.45-9.23-2.57-1.8-5.43-3.19-8.82-5.11m372.63 106.64c0 .19-.01.39.04.57 0 .03.26.01 1.24 0-.56-.18-.85-.37-1.28-.57M719.73 553.87c-.15.06-.31.12-.47.6.16-.36.31-.31.47-.6"/><path fill="#90bbd7" d="M1124.2 599.84c15.72 2.34 29.37 6.6 42.67 14.27 9.51 5.32 9.95 13.36.47 18.44-8.43 5.08-17.45 9.4-26.7 10.8-21.86 5.49-45.27 10.6-68.17 14.41-25.36 4.22-50.94 7.17-76.5 9.99-20.79 2.72-41.68 3.83-62.56 5.4-28.18 1.78-56.19 3.38-84.6 5.52-16.1.28-32.22 1.16-48.34 1.52-66.11.62-132.22 1.4-198.34 1.63-26.61.09-53.24-1.1-79.85-2-21.6.02-42.49-1.63-64.77-2.98-25.85-1.62-51.68-3.7-77-5.08-19.87-2.24-39.29-3.47-58.54-5.96-27.8-3.58-55.62-7.39-83.15-12.6-19.84-3.75-39.25-9.82-58.3-14.89-4.4-1.36-8.11-3.57-11.61-5.77-8.63-5.6-9.24-12.87-.18-18.15 7.4-3.56 15.57-7.53 23.74-10.21 8.32-2.73 17.05-4.2 26.14-5.78.52 15.47 6.98 26.92 21.11 32.04 10.81 3.91 22.8 6.84 33.75 7.86 20.67 1.86 41.32 1.39 59.31-11.82 2.44-1.79 6.19-1.92 9.4-2.53 4.53.02 9.11-1.43 14.11-2.09 5.06-.47 9.69-.7 14.29-1.5 10.01-1.42 20-2.98 29.93-4.05-.31 6.87-1.71 13.51-.57 19.69 2.54 13.81 13.53 19.73 25.49 24.1 15.8 5.77 32.22 5.87 48.77 5.88 16.15.01 31.28-4.24 44.62-12.32 4.74-2.79 9.42-4.87 15.3-5.01 35.1-.84 70.24-1.34 105.06-6.69 13.4-2.06 26.58-4.59 38.2-13 1.55-1.44 4.09-2.05 6.74-2 .88-.54 1.35-.33 1.84-.27 25.7 3.18 51.46 2.7 77.23 1.06 8.94-.57 18.2-1.29 26.78-2.5 15.21-1.35 30.43-2.64 45.71-3.52-.26 17.66 12.26 30.63 27.66 32.66 16.81 1.48 34.21 2.59 50.61 3.42 13.33.66 25.89-1.87 35.47-12.43.3.01.88-.42 1.79-.57 19.53-2.21 36.7-9.5 53.13-19.24 2.49-2.85 4.64-5.14 7.1-7.59 3.31-2.46 6.19-4.06 9.37-7.02 2.55-1.63 5.4-3.65 8.56-3.84 10.58-.7 21.55-.98 32.49-.96 20.95.04 41.8-.62 62.34-6.32"/><path fill="#e89554" d="M1124.23 599.58c-20.57 5.96-41.42 6.62-62.37 6.58-10.94-.02-21.91.26-32.49.96-3.16.19-6.01 2.21-8.56 3.84-3.18 2.96-6.06 4.56-9.41 6.59-.75-9.32-1.18-18.37-1.6-27.42 17.46-9.3 32.48-20.73 40.67-39.87.36-.83 1.25-1.44 3.23-1.33 4.18 1.22 5.28-1.61 6.86-4.63 5.19-14.01 4.04-28.62 4.29-43.16 13.4-.46 26.8-.93 40.64-.96-1.82 2.74-3.98 5.18-6.38 7.34-2.87 3.31-2.7 4.25 1.05 5.61 1.69.41 2.07.8 3.19.84 11.2.42 22.41.77 34.16 1.49 4.28 3.32 10.39 3.91 13.66 2.25 6.96 5.82 9.16 14.58 10.41 23.93-6.3-.82-12.09-2.14-17.92-3.24-10.86-2.05-21.79-2.49-32.41.93-2.62.84-5.77 3.59-6.37 6.03-.5 2.04 1.81 5.6 3.86 7.26 3 2.8 6.82 3.92 10.42 5.51 9.24 4.06 18.55 8.74 27.98 12.22 2.31 2.39 4.46 4.49 6.62 6.59-6.92 11.2-17.41 17.71-29.53 22.64"/><path fill="#b0582d" d="M355.85 621.83c-4.56.69-9.14 2.14-13.67 2.12-3.21.61-6.96.74-9.4 2.53-17.99 13.21-38.64 13.68-59.31 11.82-10.95-1.02-22.94-3.95-33.75-7.86-14.13-5.12-20.59-16.57-20.38-32.02 1.62-5.84 3.18-11.5 5.8-16.62 6.59-12.88 18.2-19.37 31.79-21.65 9.72-1.63 18.28-4.72 26.65-9.99 15.59-9.8 32.98-15.58 50.79-19.49 1.61-1.01 3.06-2.12 5.01-3.28 11.03 4.29 22.29 9 33.62 13.57 4.43 1.79 9.19 3.21 13.5 4.9.73.27 1.25 1.09 1.33 1.68-6.98-1.19-13.4-2.4-20.03-3.89-3.06-1.4-5.94-2.52-8.86-3.78-.13-.18-.22-.23-.3-.28.12.14.25.27.95.74 2.12 2.79 4.72 5.25 7.53 8.03 2.68 3.87 5.31 7.47 8.08 10.96 10.3 12.94 19.92 26.51 34.2 35.82 3.2 1.59 4.59 1.72 7-.29 6.82-5.69 14.78-8.71 23.57-9.56 3.46-.33 7.43.56 10.32-.84 8.15-3.96 15.86-8.82 24.05-13.32 7.81-2.35 15.84-4.54 24.08-6.94 11.15-2.46 22.46-3.74 34.57-6.23 8.51-.06 16.15-.13 23.94.56.82.83.75 1.85.69 2.86-10.44 1.19-20.64 2.46-30.69 3.54-24.36 2.61-48.06 7.84-69.27 20.49-6.11 4.16-12.14 4.72-18.46 5.49-21.34 2.91-36.02 21.2-34.32 42.46.66 8.32 8 16.36 16.81 18.9-.55-7.39-1.77-15-1.5-22.55.33-9.04 5.93-16.11 13.12-17.48-.98 2.01-1.62 3.54-2.44 4.96-5.75 9.95-7.14 20.2-2.5 31.01 2.15 5.01 6.12 8.28 11.03 9.39 7.36 1.66 14.96 2.23 22.35 3.25-2.33-6.03-4.95-11.04-6.17-16.37-1.86-8.17.56-15.54 6.85-21.26 2.47-1.51 3.89-2.52 6.02-3.3.93-.34 2.28.48 3.44.77-.54.92-.99 1.92-1.66 2.74-2.68 3.32-6.61 6.16-7.94 9.93-5.37 15.3 6.45 28.48 22.63 26.35 12.07-1.58 22.64-6.29 32.67-12.93 5.3-3.31 11.28-4.09 16.77-4.92 24.42-.86 48.83-2.09 73.21-3.24 13.06-1.46 26.09-3.29 39.05-5.27 23.56-3.6 40.98-17.52 53.32-37.06 6.25-11.53 11.59-24.44 16.98-36.73.48-1 .92-2.03 2.22-2.8-.76 3.47-1.52 6.93-2.56 11.08-1 2.89-1.71 5.11-2.43 7.32-5.63 17.3-13.71 33.16-26.8 46.12-1.39 1.37-2.43 3.09-3.63 4.64-2.25 1-4.79 1.61-6.34 3.05-11.62 8.41-24.8 10.94-38.2 13-34.82 5.35-69.96 5.85-105.06 6.69-5.88.14-10.56 2.22-15.3 5.01-13.34 8.08-28.47 12.33-44.62 12.32-16.55-.01-32.97-.11-48.77-5.88-11.96-4.37-22.95-10.29-25.49-24.1-1.14-6.18.26-12.82.74-19.37 2.45-5.29 4.66-9.32 6.93-13.46-3.09-2.44-6.19-4.66-9.01-7.17-10.83-9.63-17.97-22.08-26.1-33.82-5.36-7.72-11.53-14.95-17.9-21.88-4.03-4.94-10.77-8.04-17.13-6.13-9.95 2.67-19.17 6.41-28.9 9.75-9.63 4.5-19.26 8.34-28.05 13.58-6.17 3.67-12.38 6.16-19.33 7.4-4.22.76-8.47 1.72-12.52 3.44-14.15 4.66-23.69 20.64-23.68 35.61.61 10.21 7.65 19.21 16.46 20.69-.68-2.65-1.51-5.15-1.93-7.72-1.09-8.96-.76-17.6 4.45-25.39 1.57-2.36 3.41-4.02 7.36-2.92-5.07 7.99-7.12 15.82-6.56 24.21.55 8.63 5.16 15.61 13.51 17.66 7.01 1.71 14.29 2.28 21.44 3.36-.07-1.86-.6-2.42-1.05-3.03-8.08-11.11-7.97-26.54.54-34.4 2.02-1.87 4.96-2.74 7.48-4.07 1.02.58.76 1.16 1.14 2.52-1.27.64-2.59 2.01-3.51 3.47-6.14 7.06-7.14 15.06-4.01 23.41 3.06 8.17 9.82 10.46 18.01 10.59 8.42.14 16.68-1.22 23.38-5.94 10.9-7.51 23.04-7.62 35.23-8.04-.39 1.38-.74 2.43-1.08 3.48m0-84.12c.08-.13.83-.26 1-.4-.9.06-1.03.12-1 .4"/><path fill="#b75b30" d="M827.41 271.32c2.28 10 5.1 20.02 6.04 30.16 1.17 8.21 1.21 16.63-2.04 24.41-3.52 6.77-12.09 8.54-17.43 3.31-2.86-2.8-4.06-6.55-6.79-10.07-6.87-13.89-13.46-27.81-20.23-41.64-.82-1.68-2.07-3.15-3.03-4.96 14.44-.74 28.8-1.23 43.48-1.21"/><path fill="#b75b2f" d="M743.48 279.85c3.52 3.68 6.49 7.42 9.76 10.88 7.69 8.1 15.3 16.71 19.08 27.05 1.56 4.44 2.11 10.04 2.64 14.02.54 4.91-1.29 8.88-6.25 10.7-3.48 1.29-9.24-1.1-12.05-5.15-3-5.18-6.95-10.51-10.74-16.2-4.17-4.6-8.02-8.48-12.03-12.64-8.37-6.26-16.57-12.24-24.77-18.22 11.31-3.5 22.63-7 34.36-10.44"/><path fill="#b75b30" d="M515.5 183.24c-2.16 7.73-4.93 15.34-7.38 23.05-3.32 10.43-6.33 20.96-9.62 31.39-.94 2.99-2.25 5.9-3.67 8.7-2.32 4.61-6.07 6.04-11.07 4.61-5.09-1.11-6.63-4.4-6.55-8.6-.63-17.82 1.44-35.4 5.06-52.83.37-1.78.62-3.59.94-5.78 10.62-.48 21.22-.55 32.29-.54"/><path fill="#b65a30" d="M909.92 286.72c-2.37 13.67-5.74 26.86-12.66 38.8-2.55 5.79-7.88 8.98-14.69 8.44-5.21-.41-9.11-3.32-8.65-8.53-1.56-10.26-1.39-20.58-1.16-30.86-1.05-5.94-1.96-11.85-2.65-18.17 13.14 3.09 26.35 6.57 39.81 10.32"/><path fill="#b75b31" d="M986.54 331.62c-3.98 4.17-7.37 8.23-11.22 11.8-6.18 5.72-12.63 11.14-19.03 16.89-.98.56-2.12 1.15-3.52 1.54-5.22 1.63-9.85 2.71-14.95-1.67-4.31-4.43-3.23-9.84-.93-14.89 3.31-6.81 7.05-14.29 10.22-21.59 2.17-4.97 3.68-10.24 5.72-15.5 11.46 7.37 22.16 15.23 33.71 23.42"/><path fill="#b75b30" d="M1043.14 404.59c-8.4 4.22-16.69 8.81-25.32 11.79-4.7 1.82-9.95 2.56-15.03 3.01-9.28.81-15.31-8.02-11.11-15.63 1.67-3.98 4.63-6.64 7.05-9.55 7.08-8.49 14.17-16.95 21.67-25.78 3.39 4.45 7.5 9.01 11.55 14.13 3.51 6.99 7.19 14.42 11.19 22.03"/><path fill="#ba5e32" d="M1146.99 570.5c-9.28-3.63-18.59-8.31-27.83-12.37-3.6-1.59-7.42-2.71-10.42-5.51-2.05-1.66-4.36-5.22-3.86-7.26.6-2.44 3.75-5.19 6.37-6.03 10.62-3.42 21.55-2.98 32.41-.93 5.83 1.1 11.62 2.42 17.84 4.11 3.04 10.87.33 20.61-5.33 30.34-3.47-.91-6.32-1.85-9.18-2.35"/><path fill="#b65a30" d="M556.26 191.56c-4.81 8.55-9.69 16.65-14.87 25.14-3.19 5.79-4.85 12.14-8.01 18.21-.66 1.51-1.39 3.05-1.67 4.36-3.51 3.73-7.15 5.87-11.93 4.38-3.87-1.21-5.21-6.1-5.39-11.23 1.09-16.72 6.31-32.09 14.72-46.88 9.38 1.69 18.13 3.71 27.15 6.02m-91.66-6.7c-1.26 14.5-2.73 29.02-4.85 43.43-.49 3.33-1.78 6.91-5.07 9.36-4.73 4.78-11.58 2.65-12.82-3.95-1.11-5.83-1.29-11.85-1.69-17.8-.51-7.61-.84-15.24-1.31-23.6.65-1.55 1.36-2.36 2.07-3.18 7.74-1.43 15.48-2.85 23.67-4.26"/><path fill="#e99553" d="M708.79 290.29c8.53 5.98 16.73 11.96 25.05 18.62-1.21 7.48-2.52 14.29-3.11 21.7.95 12.09 2.62 24.78 3.92 37.85-.76-.1-1.4-.53-1.51-1.07-1.67-8.02-2.89-16.09-4.91-24.07-3.6-18.73-13.44-35.22-23.26-51.42 1.16-.54 2.33-1.07 3.82-1.61"/><path fill="#b4582d" d="M258.62 383.18c17.25 10.01 34.92 19.03 51.99 29.68-.75.52-.94 1.04-1.14 1.56-1.86 0-3.82.4-5.55-.07-10.72-2.91-21.39-6.04-32.09-9.06-3.98-1.12-8-2.14-12.39-3.03-.63-6.45-.87-12.61-.82-19.08"/><path fill="#b75b31" d="M1136.96 515.1c-11.2-.36-22.41-.71-33.61-1.13-1.12-.04-1.5-.43-3.19-.84-3.75-1.36-3.92-2.3-1.05-5.61 2.4-2.16 4.56-4.6 6.84-7.26 15.97-1.84 30.58.9 41.89 13.41-3.63.7-7.35 1.06-10.88 1.43"/><path fill="#dc8445" d="M704.67 291.76c10.12 16.34 19.96 32.83 23.56 51.56 2.02 7.98 3.24 16.05 4.91 24.07.11.54.75.97 1.5 1.53.66 2.66.97 4.2.93 6.7-2.07 1.09-3.8 1.72-5.19 2.36-3.07-22.44-8.96-43.81-19.69-63.42-4.18-8.62-8.56-16.62-12.7-24.75-.61-1.2-.42-2.66-.36-4.46 2.83 1.93 4.58 4.1 7.04 6.41"/><path fill="#b0582d" d="M263.85 433.43c18.09-.68 36.42-1.05 54.26-1.05 1.59 0 3.18 2.46 4.77 3.78-1.69 1.22-3.31 3.35-5.09 3.5-8.5.72-17.59.6-26.34 1.82-7.73.27-14.79 1.78-23.34 3.22-1.6-3.44-2.93-7.16-4.26-11.27"/><path fill="#b4582d" d="M278.77 469.38c11.89-5.99 24.55-10.11 37.45-13.63.32.56.64 1.11.95 1.67-10.26 7.52-20.52 15.05-30.28 22.79-3.41-3.35-5.71-6.92-8.12-10.83"/><path fill="#af562a" d="M1064.67 501.31c-.07 14.37 1.08 28.98-4.11 42.99-1.58 3.02-2.68 5.85-7.14 4.06-.64-1.12-1.1-2.08-1.15-2.59 6.62-14.31 7.95-29.92 11.39-45.29.94.06.58.28 1.01.83"/><path fill="#dc8445" d="M440.61 188.98c-.39.96-1.1 1.77-1.78 2.87.03.02-1.86 0-2.23-.54-6.16-9.53-13.02-19.12-18.9-29.04 2.1 2.35 5.12 4.85 7.59 8.4 5.15 5.53 10.01 11.91 15.32 18.31m696.9 326.48c2.98-.73 6.7-1.09 10.73-1.48 1.02.81 2.32 1.63 2.7 2.74-3.04 2.65-9.15 2.06-13.43-1.26"/><path fill="#e17644" d="M1147.14 570.35c2.71.65 5.56 1.59 8.76 3.24-.32.75-.97 1.85-1.67 3.16-2.63-1.91-4.78-4.01-7.09-6.4"/><path fill="#dc8445" d="M417.11 161.7c-.36-.15-.69-.59-.82-1.32.07.15.46.59.82 1.32m-21.13-21.95c-.17.04-.44-.17-.84-.6.15-.03.45.16.84.6m-1.02-.99c-.15.03-.41-.18-.81-.59.14-.02.42.17.81.59m-1.02-1c-.18.08-.43-.12-.79-.57.14-.01.42.16.79.57m-1.04-1c-.17.06-.41-.14-.75-.58.19.54.46.08.75.58m9.04 9c-.19.08-.44-.14-.8-.6.14-.01.42.17.8.6m-10.01-10.01c-.2.09-.44-.1-.79-.54.22.41.49.02.79.54m19.28 18.99c-.4.05-.68-.16-1.08-.6.17-.04.48.15 1.08.6m-8.25-7.98c-.15.03-.41-.18-.82-.59.14-.02.43.17.82.59m1.63.98c-.77.05-1.04-.16-1.45-.59.17-.03.47.15 1.45.59m.64.99c-.41.06-.68-.16-1.09-.6.18.78.5.14 1.09.6m-4.29-3.97c-.15.03-.41-.19-.81-.61.15-.02.43.17.81.61m5.3 4.97c-.42.06-.69-.16-1.1-.6.17.78.5.14 1.1.6m.75 1.01c-.17.05-.44-.17-.86-.61.16-.03.47.16.86.61m1.01 1c-.18.05-.46-.17-.86-.6.16-.04.46.15.86.6m1 1c-.19.05-.46-.16-.87-.6.17-.04.47.15.87.6m1.26 1c-.45.05-.72-.16-1.13-.6.17.85.48.15 1.13.6m-13.28-12.99c-.17.04-.44-.17-.85-.61.16-.02.46.17.85.61m15 15c-.18.05-.45-.17-.86-.61.17-.03.47.16.86.61m.99 1.01c-.17.04-.44-.18-.85-.61.16-.03.46.16.85.61m.98 1c-.18.04-.44-.17-.83-.61.16-.03.45.17.83.61m.94 1.02c-.2.07-.44-.14-.77-.61.13-.02.4.18.77.61m.93 1.01c-.17.05-.39-.15-.7-.58.19-.1.44.08.7.58m-15.86-16.03c-.16.03-.42-.18-.83-.61.15-.02.44.17.83.61m-1-1c-.16.03-.42-.19-.83-.62.15-.02.44.18.83.62m-.98-1.01c-.18.04-.44-.17-.85-.61.16-.03.46.17.85.61"/><path fill="#f8f8f1" d="M581.58 338.24c16.82-1.59 31.79 1.43 44.74 12.46 18.57 15.81 25.65 41.76 17.25 64.78-8.8 24.15-30.66 38.15-56.98 36.51-23.38-1.46-45.47-20.5-50.22-43.99-5.78-31.23 11.03-62.89 45.21-69.76m-8 90.93c10.41 2.52 18.72-.96 25.08-9.21 10.18-13.2 9.64-33.68-1.03-46.4-11.41-13.59-30.53-12.06-39.33 3.39-6.89 12.59-7.08 24.73-1.58 37.43 3.14 7.24 9.14 12.32 16.86 14.79m-158.73-68.91c9.94 24.19 5.42 48.33-12 65.28-19.9 19.36-50.28 19.21-70.09-.34-26.25-25.89-21.11-71.91 10.01-89.68 24.93-13.84 55.12-4.94 69.49 20.04 1.68 1.44 1.64 2.9 2.59 4.7m-9.05 17.71c-2.32-4.74-4.01-9.69-7.08-14.13-9.92-13.54-27.49-13.16-36.92.71-8.45 12.43-9.26 25.98-2.99 39.4 8.77 18.75 30.33 20.19 42.01 3.05 5.82-8.54 7.11-18.13 4.98-29.03"/><path fill="#e89554" d="M684.12 626.96c.8-2.6 1.84-4.32 3.23-5.69 13.09-12.96 21.17-28.82 26.8-46.12.72-2.21 1.43-4.43 2.36-6.92.97 2.01 1.38 4.48 2.94 6.54a50.4 50.4 0 0 0 6.71 10.88c3.09 3.8 7.71 7.05 10.14 10.7 4.15 4.6 9.84 6.34 15.4 6.47 18.55.42 37.19.09 55.01-5.9 11.26-3.79 22.81-7.6 31.48-16.27 2.54-2.54 4.19-6.79 4.61-10.45.83-6.52.49-14.4 1.2-21.66 5.66 13.02 10.77 26.09 16.13 39.8-11.38 7.64-20.6 18.33-24.51 32.96-15.22 1.31-30.44 2.6-45.65 3.95-8.58 1.21-17.84 1.93-26.78 2.5-25.77 1.64-51.53 2.12-77.23-1.06-.49-.06-.96-.27-1.84.27"/><path fill="#e17644" d="M604.64 212.41c-2.37-1.19-3.15-2.01-1.2-3.51 19.77-20.52 39.5-40.26 59.28-59.96.52-.51 1.42-.64 2.11-.26 4.91 8.93 7.03 100.79 1.35 109.67-18.52-17.97-38.76-33.39-61.54-45.94"/><path fill="#e27645" d="M387.79 195.21c2.56 3.44 4.91 6.6 7.76 10.45-24.82 10.09-46.79 23.73-66.84 41.17-.48-35.45 3.94-70.11 12.01-104.9 18.43 15.4 32.8 34.05 47.07 53.28"/><path fill="#af562a" d="M835.68 621.73c3.85-15.06 13.07-25.75 24.45-33.39-5.36-13.71-10.47-26.78-15.84-40.1-2.74-12.91-6.45-25.47-7.45-38.25-2.45-31.57 3.49-61.3 24.42-86.36 7.06-8.46 16.1-15.19 27.19-18.64 1.38.81 2.07 1.48 2.75 2.14-6.41 4.44-13.41 8.23-18.44 13.44-15.61 13.59-24.04 31.07-27.53 50.72-6.92 39.06 1.69 75.29 20.97 109.43 1.59 2.83 3.12 3.49 6.36 2.53 10.08-3 20.97-5.34 30.93-3.04 9.85 2.17 19.41 5.66 29.09 8.57-.13.48-.25.97-.38 1.46-6.34-.94-12.67-1.9-19.01-2.79-13.58-1.91-27.43-3.85-40.4 2.34-14.31 5.34-26.49 14.51-29.8 31.06-2.62 13.07 6.95 25.98 20.13 28.29 3.37.34 6.25.66 9.38 1.12-7-9.31-7.94-18.96-4.28-29.12 1.64-4.52 3.92-8.72 10.27-10.59-.78 2.01-1.05 3.18-1.65 4.16-3.49 5.68-5.23 11.75-5.01 18.49.33 10.42 7.06 17.93 17.54 19.31 6.55.12 13.13.38 20.59.83-8.97-11.41-9.78-22.62-3.33-34.16 1.73-2.26 4.52-5.65 9.61-4.45-1.66 2.24-3.03 4.04-4.33 5.88-7.57 10.72-4.58 26.69 7.07 29.73 8.41 2.62 17.29.12 24.69-6.35 2.74-2.4 5.15-5.18 8.3-7.8 1.47 1.21 2.2 2.64 1.88 3.61-.59 1.8-2.01 3.32-3.09 4.96-.46.2-1.04.63-1.34.62-9.58 10.56-22.14 13.09-35.47 12.43-16.4-.83-33.8-1.94-50.61-3.42-15.4-2.03-27.92-15-27.66-32.66"/><path fill="#e89452" d="M473.75 570.81c-7.6 4.82-15.31 9.68-23.46 13.64-2.89 1.4-6.86.51-10.32.84-8.79.85-16.75 3.87-23.57 9.56-2.41 2.01-3.8 1.88-7 .29-14.28-9.31-23.9-22.88-34.2-35.82-2.77-3.49-5.4-7.09-7.9-11.19.36-1.78.53-2.99.88-4.2 6.25 1.21 12.67 2.42 19.42 3.8 6.72 6.64 14.98 10.26 22.66 13.21 16.12 5.76 32.73 8.81 49.85 9.3 4.46.72 9.03.09 13.64.57"/><path fill="#e99553" d="M730.23 378.43c1.54-1.09 3.27-1.72 5.34-2.29.7 8.27 1.39 16.73 1.37 25.19-.08 22.25-5.57 43.26-14.77 63.46-4.33 9.5-7.93 19.33-12.03 28.95-.86 2.02-2.48 3.72-3.72 5.6-1.8 3.35-4.68 5.31-5.12 8.26-.91 6.1-4.71 10.05-9.03 13.03-9.78 6.75-19.98 12.93-30.28 18.88-8.82 5.09-18.69 6.61-28.77 6.34-1.72-.04-3.41-1.53-4.91-2.97 6.64-3.18 13.27-5.37 19.5-8.38 11.33-5.38 21.79-12.36 30.99-21.19 4.34-5.01 8.37-9.7 12.39-14.39 5.56-7.67 11.12-15.34 17.06-23.45 3.06-5.34 5.74-10.25 8.42-15.16 3.08-7.56 7.13-15.04 9.13-22.73 1.35-3.8 1.57-8 2.63-12.64 3.5-6.8 3.44-13.36 2.55-20.02-.33-8.68-.65-17.36-.75-26.49"/><path fill="#e5878d" d="M462.96 450c-5.74-3.35-11.59-5.88-15.24-10.25-4.44-5.31-7.45-11.98-10.27-18.42-1.69-3.85.7-7.14 4.52-8.78 8.27-3.55 17.27-4.11 25.83-3.25 5.56.54 11.12 2.56 16.47 3.41 10.4 3.17 13.54 10.25 6.91 19.5-3.83 6.01-8.92 10.58-15.5 13.6-1.86.85-3.17 2.91-5.05 4.58-2.72-4.87-5.66-2.11-7.67-.39"/><path fill="#553921" d="M461.97 450.32c3-2.04 5.94-4.8 8.65.45 8.59 11.88 19.69 18.81 34.15 20.17 9.81-.5 16.11-5.52 19.35-14.82.42-1.2 2.17-1.94 3.31-2.89.81 1.3 2.4 2.65 2.31 3.88-.55 7.4-4.53 12.77-11.02 16.08-11.42 5.92-22.92 4.13-33.5-1.7-6.3-3.94-13.23-9.73-19.94-14.99-5.86 6.12-13.83 11.63-23.62 13.06-11.07 1.63-21.01.42-28.11-9.89-1.71-2.27-2.69-5.33-3.19-8.18-.19-1.08 1.91-2.56 2.97-3.86.89.98 2.18 1.81 2.59 2.95 3.33 9.3 11.31 14.28 21.49 13.1 9.85-1.13 18.09-5.33 24.56-13.36"/><path fill="#b4582d" d="M730.63 405.84c1.24 5.74 1.3 12.3-2.16 18.65-21.34 2.86-41.63 6.12-63.12 8.27-1.14.11-2.03.4-2.78.19-1.37-.44-3.06-1.15-4.58-1.75 1.27-1.06 2.38-2.57 3.83-3.09 16.13-5.7 32.29-11.31 48.49-16.78 6.59-1.34 13.32-4.07 20.32-5.49m-14.36 54.39c-2.28 4.99-4.96 9.9-7.99 14.9-19.07-4.97-37.8-9.19-56.52-14.94-.96-.43-2.1-.55-2.79-.75-1.36-1.56-2.45-3.03-3.65-3.75 1.65-.98 3.42-2.98 4.95-3.46 14.33 1.49 28.62 3.34 42.92 5.1 7.56.93 15.12 1.88 23.08 2.9m-25.4 38.56c-3.7 4.82-7.73 9.51-12.45 15.13-.94-.74-1.18-.54-1.43-.93-9.86-9.8-19.72-19.61-29.6-29.41-2.69-2.67-5.42-5.29-8.14-7.93.54-.75 1.07-1.5 1.61-2.24 19.13 4.89 34.28 15.4 50.01 25.38"/><path fill="#934c28" d="M387.33 289.31c8.87-3.42 17.38-6.71 25.93-9.91 2.96-1.1 6.12-2.47 8.15 1.57 1.87 3.72 1.07 9.13-2.91 10.92-4.58 2.31-9.34 4.31-14.12 6.91-5.71 1.53-11.49 3.61-16.68 5.56-4.16 1.18-7.92 2.15-10.07-2.39-1.83-3.03-.48-7.27 3.98-9.49 1.7-1.13 3.58-2.16 5.72-3.17m185.94 8.43c3.06 1.75 5.92 3.14 8.49 4.94 3.62 2.3 4.2 5.72 2.45 9.23-1.83 3.66-5.22 3.9-8.57 2.21-10.22-5.17-20.5-10.25-30.44-15.92-1.36-1.2-3.8-4.63-3.32-7.22-1.4-4.1 1.79-7.26 6.37-5.24 8.35 3.68 16.47 7.86 25.02 12"/><path fill="#e69a59" d="M951.21 644.81c.63-1.69 2.05-3.21 2.64-5.01.32-.97-.41-2.4-1.58-3.62.7-.88 2.23-2.04 2.69-1.91 9.15 1.26 16.75-2.48 24.53-6.57 6.04-3.17 12.72-5.14 19.12-7.07 1.81-1.27 3.64-1.95 5.9-2.26.11 2.5-.21 4.61-.52 6.73-16.08 10.21-33.25 17.5-52.78 19.71"/><path fill="#af562a" d="M1004.34 625.57c-.04-2.59.28-4.7.54-7.22-1.45-8.67-2.71-16.95-4.3-25.18-.59-3.06-2.24-5.91-2.85-8.97-.36-1.83 1.17-3.87.6-5.81 2.08.52 5.03.36 6.08 2.42 2.18 2.01 3.35 5.55 5.16 9.04.65 9.33 1.08 18.38 1.53 27.86-2.12 2.72-4.27 5.01-6.76 7.86"/><path fill="#9f4f1f" d="M676.69 513.15c.55.23.79.03 1.41.4-8.5 8.59-18.96 15.57-30.29 20.95-6.23 3.01-12.86 5.2-19.56 7.99-2.64.66-5.03 1.09-7.83 1.64-.23.04.03.26.03.26 5.71-3.17 12.04-5.61 17.9-8.89 12.81-7.17 25.38-14.77 38.34-22.35m214.82-106.21c-.99-.47-1.68-1.14-2.7-1.94 6.87-2.27 13.96-5.23 21.32-6.33 11.39-1.71 22.69-.22 33.36 4.93-17.62-4.68-34.81-3.26-51.98 3.34"/><path fill="#f1a35f" d="M730.39 329.99c.93-6.79 2.24-13.6 3.82-20.8 3.69 3.48 7.54 7.36 11.49 11.54-5.12 2.08-10.56 3.5-13.56 8.88-.17.29-.91.25-1.75.38M556.78 557.77c-7.64.06-15.28.13-23.36.14 1.53-.02 3.45-2.02 5.48-2.29 7.81-1.04 15.64-2.16 23.49-2.49 5.27-.22 10.6.85 15.94 2.44-3.58.29-7.16.59-11.36 1.38-3.82.61-7 .71-10.19.82"/><path fill="#9f4f1f" d="M556.93 558.52c3.04-.86 6.22-.96 9.74-1.28 8.85.24 17.29.7 24.47 1.15.01.4.01.79.02 1.19-11.06.57-21.7 1.14-33.64 1.76.16-.97.23-1.99-.59-2.82m63.18-14.27c-.63.06-1.15.39-1.68.71-.08-.21-.16-.43-.24-.65.44-.07 1.52-.14 1.59.38.67-.3.41-.52.33-.44m325.67-140.04c.22.2.51.39 1.07.57-.98.01-1.24.03-1.24 0a.52.52 0 0 1 .17-.57"/><path fill="#b0582d" d="M719.73 554.44c-.16-.28-.31-.33-.47.03.16-.48.32-.54.47-.03"/><path fill="#e89452" d="M356.29 621.86c-.1-1.08.25-2.13.86-3.19.99-1.87 2.2-2.4 2.4-3.19 3.08-11.93 6.4-24.1-.34-35.69-3.62-6.22-8.64-11.64-12.95-17.29-8.95-10.84-19.81-17.61-33.72-17.56-1.36.01-2.56-.7-3.6-1.08 9.36-3.28 18.58-7.02 28.53-9.69 6.36-1.91 13.1 1.19 17.13 6.13 6.37 6.93 12.54 14.16 17.9 21.88 8.13 11.74 15.27 24.19 26.1 33.82 2.82 2.51 5.92 4.73 9.01 7.17-2.27 4.14-4.48 8.17-6.86 12.46-10.17 1.75-20.16 3.31-30.17 4.73-4.6.8-9.23 1.03-14.29 1.5"/><path fill="#f7af69" d="M308.57 543.92c1.41.32 2.61 1.03 3.97 1.02 13.91-.05 24.77 6.72 33.72 17.56 4.31 5.65 9.33 11.07 12.95 17.29 6.74 11.59 3.42 23.76.34 35.69-.2.79-1.41 1.32-2.36 2.26-12.45 1.03-24.59 1.14-35.49 8.65-6.7 4.72-14.96 6.08-23.38 5.94-8.19-.13-14.95-2.42-18.01-10.59-3.13-8.35-2.13-16.35 4.01-23.41.92-1.46 2.24-2.83 3.51-3.47-.38-1.36-.12-1.94-1.14-2.52-2.52 1.33-5.46 2.2-7.48 4.07-8.51 7.86-8.62 23.29-.54 34.4.45.61.98 1.17 1.05 3.03-7.15-1.08-14.43-1.65-21.44-3.36-8.35-2.05-12.96-9.03-13.51-17.66-.56-8.39 1.49-16.22 6.56-24.21-3.95-1.1-5.79.56-7.36 2.92-5.21 7.79-5.54 16.43-4.45 25.39.42 2.57 1.25 5.07 1.93 7.72-8.81-1.48-15.85-10.48-16.46-20.69-.01-14.97 9.53-30.95 23.68-35.61 4.05-1.72 8.3-2.68 12.52-3.44 6.95-1.24 13.16-3.73 19.33-7.4 8.79-5.24 18.42-9.08 28.05-13.58"/><path fill="#dc8445" d="M367.8 543.65c.03 1.49-.14 2.7-.6 4.15-2.89-2.22-5.49-4.68-7.66-7.47-.23-.33-.55.6-.55.6 2.87.2 5.75 1.32 8.81 2.72m-12.03-6.05c.05-.17.18-.23 1.08-.29-.17.14-.92.27-1.08.29m3.72 2.4c-.6-.14-.73-.27-.85-.41.08.05.17.1.3.28.05 1.06.37.13.55.13"/><path fill="#503723" d="M573.17 429.94c-7.31-3.24-13.31-8.32-16.45-15.56-5.5-12.7-5.31-24.84 1.58-37.43 8.8-15.45 27.92-16.98 39.33-3.39 10.67 12.72 11.21 33.2 1.03 46.4-6.36 8.25-14.67 11.73-25.49 9.98"/><path fill="#503724" d="M405.87 378.39c2.06 10.48.77 20.07-5.05 28.61-11.68 17.14-33.24 15.7-42.01-3.05-6.27-13.42-5.46-26.97 2.99-39.4 9.43-13.87 27-14.25 36.92-.71 3.07 4.44 4.76 9.39 7.15 14.55"/></svg>