<svg xmlns="http://www.w3.org/2000/svg" xmlns:xlink="http://www.w3.org/1999/xlink" version="1.1" id="Layer_1" x="0px" y="0px" width="100%" viewBox="0 0 1328 800" enable-background="new 0 0 1328 800" xml:space="preserve" style="background: transparent;"><path fill="#F9A757" opacity="1.000000" stroke="none" d="M790.99 415.79C795.26 421.46 799.64 427.84 803.88 434.94C801.39 437.43 799.85 439.38 797.99 440.94C791.4 446.46 784.62 451.77 778.55 457.32C775.34 459.62 773.55 463.1 775.78 466.93C777.48 468.38 780.86 470.26 783.71 470.62C786.98 471.25 790.52 469.73 793.87 468.87C801.22 466.98 808.53 464.89 815.85 462.88C818.18 470.98 820.51 479.85 822.47 487.63C813.92 492.15 805.68 496.11 797.58 500.34C794.71 501.84 791.56 503.5 792.46 507.87C793.32 512.51 796.3 513.68 799.99 513.91C808.39 514.45 816.81 514.65 825.22 514.98C824.61 524.37 824.11 533.77 823.31 543.14C823.48 546.25 822.33 549.31 821.67 553.66C820.3 554.62 819.65 555.44 819.39 556.36C813.16 578.37 802.21 597.68 785.21 613.33C783.94 614.5 783.71 616.78 782.99 618.55C781.3 620.92 779.6 623.3 777.5 626.23C776.42 628.94 775.25 631.14 775.18 633.22C775.68 640.16 776.5 647.1 777.64 653.97C780.21 669.44 782.24 685.25 780.8 700.65C780.27 706.36 778.23 712.54 775.4 717.27C768.42 727.6 757.38 729.22 746.49 730.11C736.2 730.96 730.23 723.67 732.67 713.54C733.71 709.25 736.25 705.33 738.1 701.24C737.82 700.9 737.54 700.56 737.26 700.22C734.98 702.3 732.24 704 730.57 706.55C726.18 714.26 727.29 722.15 731.61 730.54C724.11 732.38 717.17 731.69 711.47 726.82C705.59 721.77 705.3 714.64 706.24 707.44C706.45 705.87 706.48 704.28 706.59 702.7C699.84 710.74 701.57 719.16 705.48 727.93C703.66 727.93 702.82 728.12 702.1 727.9C692.12 724.96 686.6 714.56 689.62 704.5C692.82 693.85 706.14 684.34 718.8 683.92C725.56 683.7 732.33 683.88 739.98 683.88C732.62 680.43 726.99 678.41 718.9 679.55C717.29 679.85 713.81 679.53 713.17 678.39C709.6 671.98 706.62 665.24 703.92 659.6C712.41 656.67 720.49 654.24 728.23 650.99C730.31 650.12 732.76 646.56 732.48 644.6C732.14 642.26 729.34 639.91 727.6 638.35C725.44 637.24 722.88 636.96 720.81 637.14C715.42 637.65 709.22 638.2 703.58 639.46C691.86 642.7 691.82 642.3 686.55 631.35C674.16 605.58 675.32 580.59 692.54 557.49C698.21 549.89 706.21 544.3 713.48 537.24C727.65 529.41 741.21 524.48 756.63 523.48C740.56 522.6 725.62 525.28 711.62 534C707.21 536.84 703.12 539.51 699.56 541.79C700.31 534.42 704 530.43 711.47 529.72C714.78 529.48 716.86 527.43 718.88 525.5C723.18 521.39 726.85 516.64 731.95 512.48C740.7 503.63 747.68 491.75 750.34 478.87C751.45 474.46 752.87 469.31 749.15 464.56C749.36 461.96 749.59 458.5 749.83 454.86C749.14 455.77 748.89 454.99 748.83 455.86C748.58 455.5 748.26 455.94 748.18 456.4C743.79 482.64 728.99 502.36 709.9 518.8C701.4 525.55 693.6 530.58 688.15 539.59C682.48 548.96 673.34 555.87 661.1 556.22C656.59 556.77 652.77 554.48 650.73 550.39C648.54 546.32 650.84 542.36 653.51 538.99C654.63 537.58 655.87 536.27 657.52 534.92C656.65 534.63 656.25 534.34 655.86 534.46C648.11 537.83 644.23 542.8 644.9 551.82C638.53 552.78 633.1 550.52 628.4 546.79C622.87 542.41 621.63 538.32 623.53 531.87C625.32 525.74 629.58 521.7 634.83 518.49C637.16 517.63 639.46 515.59 641.77 514.13C641.45 513.71 641.14 513.29 640.83 512.87C629.22 514.63 622.12 522.58 617.61 532.62C604.81 526.24 602.91 510.41 613.88 501.73C616.73 499.48 619.95 497.65 623.15 495.92C626.19 494.28 629.44 493.36 632.59 491.62C624.17 489.29 618.24 495.17 609.63 498.21C611.23 493.94 611.68 490.47 613.55 488.14C618.98 481.37 626.36 477.75 635.53 476.87C643.94 475.96 653.23 476.37 660.94 470.82C668.89 465.93 676.63 459.63 684.28 452.94C685.64 451.85 686.92 449.65 687.98 447.95C687.16 447.97 687.91 448.64 686.69 448.13C681.79 451.73 677.2 455.24 671.34 459.72C672.79 453.6 673.93 447.87 675.65 442.69C674.62 442.54 674.17 442.38 673.72 442.23C671.51 448.38 669.41 453.89 667.99 459.62C666.23 461.5 665.39 463.83 663.4 464.6C658.33 467.13 652.51 469.61 646.79 471.36C640.38 472.64 633.56 472.57 627.13 474.12C612.83 477.55 606.23 486.3 606.45 500.76C606.24 502.35 605.45 504.12 604.79 505.48C599.22 517.82 602.55 528.69 614.12 536.71C615.45 536.85 617.27 538.83 617.47 539.35C618.63 546.96 624.29 550.39 630.13 554.12C633.27 556.35 636.2 559.17 639.59 559.9C644.89 561.29 650.64 560.95 655.96 562.31C661.98 563.85 667.63 563.57 673.42 561.75C677.62 560.43 681.88 559.25 686.24 558.36C673.2 579.32 670.67 600.72 677.61 624.13C640.36 627.41 605.17 622.66 572.74 602.36C572.49 603.88 572.23 603.66 571.98 604.31C577.63 607.96 583.29 611.61 588.97 615.64C590 622.32 590.68 628.68 592.13 634.88C592.96 638.47 595.19 641.78 596.49 645.66C595.96 651.9 595.59 657.7 594.97 663.47C593.72 675.18 592.68 686.94 590.88 698.57C589.83 705.39 587.12 711.98 580.34 715.21C563.28 723.32 545.12 725.49 526.41 724.85C520.23 724.64 514.72 721.69 512.26 715.38C509.67 708.74 510.26 702.35 514.77 696.56C515.5 695.61 516.15 694.59 517.1 693.22C506.11 694.92 503.46 707.74 510.35 722.68C500.77 723.45 490.49 714.23 491.15 704.74C491.85 694.76 495.8 686.25 505.67 682.71C510.5 680.26 515.69 678.82 521.19 677.3C529.11 678.23 536.57 679.1 544.63 680.11C544.19 680.28 544.27 680.32 544.35 680.36C544.23 680.25 544.98 680.14 543.9 679.68C538.21 677.57 532.6 675.8 526.85 673.7C525.78 670.9 524.85 668.43 523.92 665.96C523.92 665.96 524.23 665.98 523.92 665.72C523.59 664.66 523.37 663.86 523.15 663.56C521.5 656.28 519.85 649.5 518.4 642.29C518.6 641.85 518.99 641.7 519.45 641.76C527.46 641.41 534.23 641.4 541.27 640.35C543.65 640 546.87 637.35 547.45 635.15C547.93 633.35 545.57 629.46 543.57 628.59C536.65 625.59 529.45 622.97 522.11 621.29C518.5 620.47 516.94 619.78 516.9 615.91C516.81 608.6 516.25 601.3 515.94 593.55C516.36 586.51 516.75 579.91 517.36 573.92C517.79 571.44 517.99 570.17 518.22 568.79C518.27 568.67 518.13 568.46 518.34 568.27C518.69 567.72 518.83 567.37 519.13 566.68C520.47 563.74 521.13 559.48 522.92 556.59C527.49 549.22 526.81 541.49 525.8 533.49C522.91 510.63 523.22 487.79 526.66 464.98C527.95 456.41 528.89 447.78 530 439.18C529.73 439.13 529.46 439.68 529.19 439.99C527.45 444.34 525.71 449.66 523.59 455.1C518.72 458.27 513.57 458.99 508.37 458.12C506.57 458.13 504.78 459.36 502.59 460.16C494.17 457.32 486.13 454.69 478.14 451.92C449.19 441.9 422.68 427.57 400.98 406.66C393.97 400.99 387.58 397.96 379.13 398.78C374.73 399.27 368.53 399.79 363.87 398.27C354.8 395.32 345.72 391.75 337.54 386.92C330.77 382.93 329.16 373.98 331.98 367.35C334.57 361.26 338.74 359.53 344.6 362.23C347.62 363.62 350.49 365.41 353.6 366.53C355.14 367.86 357.83 366.53 358.84 366.48C357.84 364.97 357.17 362.85 355.77 362.88C352.28 360.2 348.47 358.91 344.77 357.42C337.79 354.6 334.89 349.43 337.83 342.49C339.47 338.64 342.75 335.23 346.17 332.51C350.64 329.24 354.43 330.39 357.89 334.8C361.18 338.99 364.22 343.36 367.51 347.55C368.67 349.32 370.23 350.21 371.6 351.52C372.56 349.76 372.74 348.67 372.3 347.98C369.56 342.84 365.76 337.66 362.18 332.72C357.66 326.49 359.34 320.32 366.67 317.88C373.29 315.67 379.42 316.88 385.11 320.95C388.12 323.11 390.32 325.51 390.99 329.53C389.72 336.37 391.85 342.74 396.39 348.36C384.43 352.6 377.38 360.32 378.34 373.24C378.75 378.46 380.76 383.83 386.85 386.39C382.94 378.52 380.23 369.53 385.55 361.22C390.81 352.99 399.6 351.24 409.41 351.85C407.12 349.27 405.28 348.27 403.47 347.23C394.33 341.83 391.67 327.57 399.71 319.64C401.96 316.54 405.9 314.77 409.88 316.93C413.87 319.99 417.94 321.73 420.86 325.12C426.54 331.72 427.67 340.22 427.91 348.57C428.4 352.99 429.49 355.8 433.25 357.8C444.84 363.97 456.3 370.36 467.98 376.33C471.8 378.29 474.67 379.65 473.21 385.26C472.57 389.24 472.1 393.9 472.17 398.36C472.24 402.28 474.13 406.19 478.29 406.23C481.25 406.26 484.26 404.19 486.39 401.9C488.11 400.18 488.73 397.2 489.44 394.66C490.27 391.72 490.68 388.66 491.2 385.98C500.4 388.4 508.51 390.72 517.71 393.38C527.66 400.72 540.12 399.99 551.77 402.46C540.21 398.55 528.65 394.64 516.85 390.49C512.37 388.14 508.16 386.18 503.85 383.58C499.84 380.7 495.9 378.14 491.97 375.57C488.63 372.33 485.3 368.49 481.94 364.24C483.49 362.18 483.97 360.53 485.36 359.5C491.21 355.18 497.24 351.99 503.11 346.79C504.89 345.48 506.34 343.72 507.94 342.16C507.58 341.73 507.22 341.3 506.87 340.87C505.11 341.63 503.32 342.33 501.6 343.17C492.85 347.44 484.12 351.76 475.38 356.59C471.9 351.26 468.43 345.99 465.32 340.53C474.64 337.58 483.56 334.99 492.54 332.57C497.83 331.14 503.23 330.12 508.5 328.6C509.52 328.31 510.12 326.56 510.91 325.48C509.78 325.69 508.57 324.17 507.52 324.31C491.89 326.47 476.29 328.76 460.68 331.22C458.44 323.59 456.2 316.15 454.35 308.19C469.42 309.94 484.11 310.53 499.2 312.27C497.29 306.94 466.74 296.24 452.75 294.97C452.16 280.7 454.86 266.91 459.4 253.37C463.55 238.76 470.96 225.6 479.42 212.96C480.43 211.45 480.83 209.29 480.88 207.42C481.32 190.78 481.18 174.12 482.45 157.51C483.48 130.59 487.23 102.89 494.13 76.23C496.14 68.47 499.89 66.53 506.31 71.22C519.51 80.53 531.85 89.91 543.56 100.44C557.27 112.77 569.79 126.41 582.98 139.32C584.23 140.54 586.57 140.64 588.94 141.53C593.22 151.71 596.78 161.7 600.86 171.47C601.66 173.4 604.29 175.39 606.37 175.8C609.68 176.44 611.89 174.43 612.77 170.81C613.65 169.7 613.17 168.49 613.93 167.35C612.42 156.98 611.69 146.61 610.98 136.24C614.68 135.79 618.38 135.34 622.55 135.37C624.34 148.18 625.62 160.52 626.98 172.84C627.46 177.12 629.48 180.77 634.5 180.95C639.16 181.13 641.27 177.77 642.17 173.23C644.72 160.25 647.34 147.28 649.94 134.31C652.74 134.44 655.54 134.56 658.68 135.27C658.38 145.9 656.85 155.93 656.19 166.53C655.95 169.68 657.15 173.82 661.56 174.42C665.92 174.99 668.25 171.84 669.12 167.97C669.71 165.89 670.36 163.82 671.16 161.82C674.23 154.12 677.37 146.46 680.48 138.78C682.39 137.79 684.79 137.22 686.14 135.72C699.94 120.41 713.14 104.52 727.41 89.67C736.24 80.49 746.47 72.61 756.38 64.52C764.41 57.96 768.45 59.38 771.67 69.52C778.37 90.64 783.59 112.15 785.84 134.18C787.92 154.5 788.7 174.94 790.24 195.32C790.4 197.42 791.46 199.74 792.78 201.42C811.35 224.67 823.58 250.3 825.64 280.78C809.25 288.16 792.78 294.94 776.62 301.88C775.28 302.45 774.44 304.16 773.36 305.34C774.82 305.64 776.38 306.45 777.72 306.17C793.8 302.9 809.84 299.47 825.9 296.86C823.69 306.18 821.48 316.27 818.68 326.63C802.65 323.24 786.96 321.7 771.11 322.53C768.19 322.12 765.29 323.86 762.38 323.64C763.39 328.23 767.69 327.68 770.71 328.51C784.8 332.36 798.99 335.82 813.15 339.42C809.72 345.65 804.99 351.88 800.19 358.97C787.86 351.8 776.73 343.12 763.37 339.37C763.66 340.79 764.24 341.75 764.99 342.55C772.32 350.26 779.72 357.92 787.16 365.66C788.22 366.94 789.63 368.57 790.73 370.39C784.45 374.88 778.24 379.73 771.98 384.55C770.71 385.56 769.36 386.47 767.62 387.78C767.46 388.17 766.82 388.2 766.28 388.18C764.52 388.52 763.84 388.8 761.74 389.33C753.1 392.73 744.56 396.39 735.83 399.54C730.97 401.29 725.81 402.24 720.78 403.55C720.86 404.56 720.93 404.57 721.13 405.79C726.95 404.34 732.88 403.61 739.16 403.36C745.7 404.87 751.5 408.42 758.34 407.68C759.13 406.91 760.1 407.66 760.82 408.28C758.71 410.82 756.59 412.93 754.87 415.33C752.89 418.95 752.32 421.65 754.78 423.97C757.63 425.9 760.51 427.33 763.46 427.35C766.59 427.39 769.88 425.81 772.84 424.4C778.98 421.48 784.95 418.21 790.99 415.79M636.79 321.62C644.78 318.91 652.39 314.21 655.19 304.89C657.49 297.25 654.89 293.47 646.96 292.5C644.5 291.74 641.99 290.95 639.6 291.23C631.62 292.16 623.59 293.73 615.77 294.82C611.86 295.69 610.23 298.84 611.88 303.39C615.45 313.26 622.92 318.28 632.25 321.88C626.2 340.63 597.16 344.89 588.14 331.3C587.58 330.46 586.44 330.26 584.96 329.77C584.67 331.11 583.69 332.94 584.23 333.69C585.74 335.8 587.98 337.35 589.72 339.31C591.47 341.29 593.71 343.26 594.46 345.64C599.51 361.55 616.65 375.75 631.85 377.72C651.64 378.79 668.22 363.47 673.38 348.71C675.22 343.43 676.56 338.49 681.7 335.48C682.75 334.86 683.56 333.48 683.98 332.28C684.36 331.22 684.42 329.92 684.31 328.73C682.84 329.14 681.5 329.19 680.55 330.27C671.81 345.63 640.66 337.84 636.79 321.62M684.77 260.35C674.17 287.88 693.1 319.39 728.53 317.59C746.49 316.67 759.78 306.88 765.42 289.4C770.99 272.9 766 257.31 752.6 244.79C734.32 227.71 697.71 228.52 684.77 260.35M509.7 301.36C522.53 324.95 555.95 328.44 573.19 312.61C585.77 301.88 591.57 283.23 586.24 267.88C580.25 250.59 564.56 238.5 547.56 238.91C515.28 237.3 494.16 270.93 509.7 301.36M744.5 163.99C752.56 169.21 759.61 174.44 767.29 179.74C769.9 166.69 763.86 104.42 759.3 97.42C742.56 112.53 729.18 130.32 716.15 148.75C725.76 153.87 734.84 158.71 744.5 163.99M506.37 108.51C503.27 134.77 501.16 161.78 502.29 189.14C518.1 174.36 534.57 163.14 552.78 154.98C552.66 154.72 552.73 153.65 552.56 153.44C539.32 137.44 525.71 121.78 509.74 108.39C509.75 107.83 507.78 108.24 506.37 108.51M561.58 220.89C566.42 222.62 570.46 224.48 574.98 226.39C578.96 227.41 581.49 225.68 581.66 221.48C581.82 217.39 580.65 213.91 576.17 212.6C573.47 211.81 570.78 210.55 568.52 210.46C565.5 210.37 561.65 210.76 560.65 212.36C559.48 214.23 560.79 217.65 561.58 220.89M704.42 215.85C706.22 212.2 706.46 208.51 702.45 206.32C698.26 204.22 686.47 207.97 684.8 212.36C683.88 214.76 684.24 217.83 684.71 220.48C684.84 221.23 687.61 222.3 688.77 221.95C693.92 220.37 698.92 218.33 704.42 215.85M675.34 439.99C675.4 439.94 675.47 439.88 675.34 439.99z"/><path fill="#8FB8D5" opacity="1.000000" stroke="none" d="M786.13 701.91C814 703.54 841.72 706.17 868.67 714.49C871.45 714.74 873.41 715.67 875.58 716.85C880.34 719.44 880.64 723.83 875.85 726.42C871.51 728.77 866.75 730.86 861.93 731.71C842.51 735.1 823.71 738.69 803.49 740.85C779.89 743.54 754.56 745.17 730.51 746.73C715.29 747.67 700.46 747.86 685.66 747.94C656.69 748.91 627.71 748.13 598.74 747.8C584.46 747.65 570.19 746.58 555.46 745.48C554.16 743.43 553.72 741.28 552.4 740.34C549.73 738.44 549.32 736.71 551.3 734.18C552.26 733.25 552.49 732.12 553.67 730.17C541.81 730.17 531.1 730.19 520.39 730.31C518.58 730.36 516.34 729.58 515.29 730.45C509.69 733.96 507.44 728.76 504.41 726.92C514.81 727.91 524.83 730.39 534.77 729.7C546.76 729.32 557.4 727.2 568.55 725C582.95 722.16 592.94 714.78 595.89 698.92C595.95 698.61 596.17 698.32 596.76 697.99C604.31 697.67 611.43 697.18 618.54 697.11C634.64 696.97 650.74 697.31 666.84 697.54C673.64 697.76 680.43 697.33 687.15 697.83C686.78 701.67 684.48 705.11 684.16 708.67C683.35 721.49 694.34 733.24 708.39 733.82C720.32 734.31 732.29 734.76 744.21 734.44C755.57 734.13 766.8 732.63 775.61 724.43C781.88 717.93 784.46 710.16 786.13 701.91z"/><path fill="#B2511E" opacity="1.000000" stroke="none" d="M786.57 701.46C784.46 710.16 781.88 717.93 775.61 724.43C766.8 732.63 755.57 734.13 744.21 734.44C732.29 734.76 720.32 734.31 708.39 733.82C694.34 733.24 683.35 721.49 684.16 708.67C684.48 705.11 686.78 701.67 687.44 697.62C692.9 688.96 700.85 684.61 709.9 681.12C707.35 675.61 705.41 670.46 702.69 665.77C695.68 653.69 688.39 641.77 681.2 629.91C680.39 628.9 678.32 628.17 677.12 628.28C655.42 630.21 634.12 628.73 613.27 623.66C611.75 623.35 609.1 624.61 608.63 625.76C606.17 631.75 603.17 637.79 602.3 644.75C599.8 661.99 598.24 680.31 596.31 698.23C596.17 698.32 595.95 698.61 595.89 698.92C592.94 714.78 582.95 722.16 568.55 725C557.4 727.2 546.76 729.32 534.77 729.7C524.83 730.39 514.81 727.91 504.25 726.84C503.68 726.81 503.33 726.91 503.18 726.68C502.7 726.35 502.37 726.25 501.87 726.16C501.7 725.89 501.27 725.89 501.61 725.65C500.24 725.24 499.63 725.79 499.16 724.95C499.11 724.99 499.71 724.95 498.91 724.69C498.17 724.25 497.6 724.6 497.33 723.91C497.32 723.96 497.12 723.95 497.26 723.71C496.63 723.35 496.33 723.23 495.93 722.99C495.83 722.87 495.52 722.9 495.35 722.63C494.81 722.2 494.43 722.31 494.55 721.91C494.6 721.95 494.14 721.93 494.7 721.66C493.68 721.23 493.36 721.7 493.31 720.94C493.19 720.98 493.91 720.95 493.14 720.7C492.64 720.28 492.34 720.12 492.24 719.98C492 720 492.46 719.95 491.98 719.7C491.62 719.29 491.34 719.12 491.29 718.98C491.45 719 491.47 718.95 490.99 718.66C490.65 718.99 490.38 717.82 490.1 717.37C490.92 717.2 489.83 716.96 489.8 716.72C489.64 716.15 489.4 715.97 489.28 715.95C489.11 715.98 489.83 715.97 489.22 715.65C488.67 715.46 488.38 714.75 488.78 714.92C487.4 710.24 486.73 706.75 486.61 703.27C486.19 703.16 486.4 703.77 486.43 702.95C491.97 683.2 500.62 676.25 521.37 673.98C522.16 673.92 522.66 673.79 523.91 673.61C523.91 671.35 523.91 669.11 523.92 666.41C524.85 668.43 525.78 670.9 526.61 673.96C524.59 675.45 522.65 676.34 520.72 677.23C515.69 678.82 510.5 680.26 505.67 682.71C495.8 686.25 491.85 694.76 491.15 704.74C490.49 714.23 500.77 723.45 510.35 722.68C503.46 707.74 506.11 694.92 517.1 693.22C516.15 694.59 515.5 695.61 514.77 696.56C510.26 702.35 509.67 708.74 512.26 715.38C514.72 721.69 520.23 724.64 526.41 724.85C545.12 725.49 563.28 723.32 580.34 715.21C587.12 711.98 589.83 705.39 590.88 698.57C592.68 686.94 593.72 675.18 594.97 663.47C595.59 657.7 595.96 651.9 596.77 645.5C599.8 637.3 602.49 629.72 605.25 621.94C599.91 619.76 594.43 617.51 588.94 615.26C583.29 611.61 577.63 607.96 571.98 604.31C572.23 603.66 572.49 603.88 572.74 602.36C605.17 622.66 640.36 627.41 677.61 624.13C670.67 600.72 673.2 579.32 686.31 558.19C690.79 552.51 694.91 547.34 699.27 542.18C703.12 539.51 707.21 536.84 711.67 534.37C712.4 535.51 712.77 536.44 713.14 537.38C706.21 544.3 698.21 549.89 692.54 557.49C675.32 580.59 674.16 605.58 686.55 631.35C691.82 642.3 691.86 642.7 703.58 639.46C709.22 638.2 715.42 637.65 720.81 637.14C722.88 636.96 725.44 637.24 727.6 638.35C729.34 639.91 732.14 642.26 732.48 644.6C732.76 646.56 730.31 650.12 728.23 650.99C720.49 654.24 712.41 656.67 703.92 659.6C706.62 665.24 709.6 671.98 713.17 678.39C713.81 679.53 717.29 679.85 718.9 679.55C726.99 678.41 732.62 680.43 739.98 683.88C732.33 683.88 725.56 683.7 718.8 683.92C706.14 684.34 692.82 693.85 689.62 704.5C686.6 714.56 692.12 724.96 702.1 727.9C702.82 728.12 703.66 727.93 705.48 727.93C701.57 719.16 699.84 710.74 706.59 702.7C706.48 704.28 706.45 705.87 706.24 707.44C705.3 714.64 705.59 721.77 711.47 726.82C717.17 731.69 724.11 732.38 731.61 730.54C727.29 722.15 726.18 714.26 730.57 706.55C732.24 704 734.98 702.3 737.26 700.22C737.54 700.56 737.82 700.9 738.1 701.24C736.25 705.33 733.71 709.25 732.67 713.54C730.23 723.67 736.2 730.96 746.49 730.11C757.38 729.22 768.42 727.6 775.4 717.27C778.23 712.54 780.27 706.36 780.8 700.65C782.24 685.25 780.21 669.44 777.64 653.97C776.5 647.1 775.68 640.16 775.18 633.22C775.25 631.14 776.42 628.94 777.32 626.55C778.21 632.36 778.39 638.5 779.63 644.42C783.55 663.97 787.19 681.76 786.57 701.46z"/><path fill="#F8A757" opacity="1.000000" stroke="none" d="M923.63 519.32C917.51 543.73 906.59 564.69 886.44 580.77C883.67 570.81 882.25 560.88 878.8 551.71C874.99 541.57 867.86 533.62 856.9 529.61C856.87 528.11 856.93 527.97 857 525.91C857 525.91 857.24 526.11 857.18 525.8C857.55 525.4 857.77 524.49 857.99 523.93C857.99 523.93 858 524.16 858.3 523.91C860.75 519.91 862.91 516.82 865.65 512.1C870.91 502.97 874.36 493.31 880.37 484.88C885.5 477.66 893.6 473.46 902.92 474.49C914.92 475.81 923.6 485.58 923.98 497.96C924.2 505.66 923.4 512.2 923.63 519.32z"/><path fill="#B1511F" opacity="1.000000" stroke="none" d="M517.13 573.31C516.75 579.91 516.36 586.51 515.53 593.57C514.39 595.14 513.42 596.28 513.11 597.32C513.69 606.27 514.37 614.73 515.34 623.4C515.97 628.95 517.14 634.44 517.99 640.18C517.91 640.78 517.76 640.2 517.76 640.2C509.26 610.66 508.53 581.54 522.32 553.13C523.42 550.87 524.85 547.89 523.62 545.44C519.78 521.27 519.18 497.57 521.83 472.74C521.9 472.12 521.72 471.47 521.73 471.58C503.99 465.56 486.52 460.16 469.45 453.7C443.54 443.89 419.9 430.35 399.62 410.96C393.83 405.53 387.86 402.83 379.52 402.49C368.36 402.29 357.11 399.68 346.27 396.74C337.71 394.24 329.34 388.67 326.82 378.5C325.58 371.35 327.55 365.11 332.11 359.68C333.18 358.53 334.69 356.27 333.54 354.78C328.25 342.21 338.76 326.86 351.96 326.9C353.13 326.91 354.7 324.93 355.2 323.95C358.72 312.71 372.61 308.29 384.24 314.97C386.83 316.45 389.26 318.2 391.82 319.86C392.4 319.79 392.48 319.77 392.61 319.57C401.45 305.64 415.2 310.83 423.13 320.88C428.98 328.31 431.93 336.93 432 346.36C432.26 350.71 433.48 353.55 437.47 355.43C452.64 362.58 467.73 369.88 483.49 377.4C490.73 379.75 497.33 381.82 503.94 383.89C508.16 386.18 512.37 388.14 516.81 390.88C517.17 392.14 517 392.53 516.98 393.46C508.51 390.72 500.4 388.4 491.2 385.98C490.68 388.66 490.27 391.72 489.44 394.66C488.73 397.2 488.11 400.18 486.39 401.9C484.26 404.19 481.25 406.26 478.29 406.23C474.13 406.19 472.24 402.28 472.17 398.36C472.1 393.9 472.57 389.24 473.21 385.26C474.67 379.65 471.8 378.29 467.98 376.33C456.3 370.36 444.84 363.97 433.25 357.8C429.49 355.8 428.4 352.99 427.91 348.57C427.67 340.22 426.54 331.72 420.86 325.12C417.94 321.73 413.87 319.99 409.88 316.93C405.9 314.77 401.96 316.54 399.71 319.64C391.67 327.57 394.33 341.83 403.47 347.23C405.28 348.27 407.12 349.27 409.41 351.85C399.6 351.24 390.81 352.99 385.55 361.22C380.23 369.53 382.94 378.52 386.85 386.39C380.76 383.83 378.75 378.46 378.34 373.24C377.38 360.32 384.43 352.6 396.39 348.36C391.85 342.74 389.72 336.37 390.99 329.53C390.32 325.51 388.12 323.11 385.11 320.95C379.42 316.88 373.29 315.67 366.67 317.88C359.34 320.32 357.66 326.49 362.18 332.72C365.76 337.66 369.56 342.84 372.3 347.98C372.74 348.67 372.56 349.76 371.6 351.52C370.23 350.21 368.67 349.32 367.51 347.55C364.22 343.36 361.18 338.99 357.89 334.8C354.43 330.39 350.64 329.24 346.17 332.51C342.75 335.23 339.47 338.64 337.83 342.49C334.89 349.43 337.79 354.6 344.77 357.42C348.47 358.91 352.28 360.2 355.77 362.88C357.17 362.85 357.84 364.97 358.84 366.48C357.83 366.53 355.14 367.86 353.6 366.53C350.49 365.41 347.62 363.62 344.6 362.23C338.74 359.53 334.57 361.26 331.98 367.35C329.16 373.98 330.77 382.93 337.54 386.92C345.72 391.75 354.8 395.32 363.87 398.27C368.53 399.79 374.73 399.27 379.13 398.78C387.58 397.96 393.97 400.99 400.98 406.66C422.68 427.57 449.19 441.9 478.14 451.92C486.13 454.69 494.17 457.32 502.85 460.27C509.65 462.19 515.79 463.84 522.39 465.62C523.12 461.45 523.49 458.22 523.97 454.99C525.71 449.66 527.45 444.34 529.19 439.99C529.46 439.68 529.73 439.13 530 439.18C528.89 447.78 527.95 456.41 526.66 464.98C523.22 487.79 522.91 510.63 525.8 533.49C526.81 541.49 527.49 549.22 522.92 556.59C521.13 559.48 520.47 563.74 518.9 566.86C518.38 567.73 518.25 568.96 518.13 568.46C518.13 568.46 518.27 568.67 517.92 569.46C517.42 570.72 517.27 572.16 517.13 573.31z"/><path fill="#8DB7D5" opacity="1.000000" stroke="none" d="M501.27 725.89C501.27 725.89 501.7 725.89 502.3 726.22C502.69 726.67 503.11 726.79 503.33 726.91C503.33 726.91 503.68 726.81 503.84 726.89C507.44 728.76 509.69 733.96 515.29 730.45C516.34 729.58 518.58 730.36 520.39 730.31C531.1 730.19 541.81 730.17 553.67 730.17C552.49 732.12 552.26 733.25 551.3 734.18C549.32 736.71 549.73 738.44 552.4 740.34C553.72 741.28 554.16 743.43 555 745.42C543.74 745.12 532.47 744.63 521.23 743.71C508.34 742.67 495.46 741.41 482.61 739.96C463.15 737.77 443.66 735.55 425.14 728.74C422.1 727.62 418 724.71 417.6 722.13C416.94 717.85 421.66 715.91 425.36 715.95C442.81 711.23 460.33 707.65 477.84 704.43C480.26 703.54 482.76 703.42 485.65 703.19C486.73 706.75 487.4 710.24 488.15 714.4C488.51 715.37 488.8 715.67 489.83 715.97C489.83 715.97 489.11 715.98 489.1 716.16C489.34 716.62 489.55 716.82 489.83 716.96C489.83 716.96 490.92 717.2 490.16 717.67C490.5 718.41 490.77 718.68 491.47 718.95C491.47 718.95 491.45 719 491.13 719.2C491.45 719.68 491.71 719.86 492.46 719.95C492.46 719.95 492 720 492.13 720.2C492.54 720.59 492.82 720.77 493.91 720.95C493.91 720.95 493.19 720.98 493.14 721.18C493.56 721.56 493.85 721.74 494.14 721.93C494.14 721.93 494.6 721.95 494.22 722.18C494.75 722.57 495.14 722.74 495.52 722.9C495.52 722.9 495.83 722.87 496.56 723.18C496.51 723.74 496.79 723.89 497.12 723.95C497.12 723.95 497.32 723.96 497.19 724.18C497.92 724.59 498.5 724.77 499.71 724.95C499.71 724.95 499.11 724.99 499.2 725.22C500.22 725.6 500.65 725.75 501.27 725.89z"/><path fill="#F8C064" opacity="1.000000" stroke="none" d="M390.52 155.48C388.87 156.88 387.23 158.91 385.92 158.72C384.43 158.5 382.71 156.51 382.24 154.9C380.34 150.93 379.72 146.77 377.87 142.62C375.55 134.58 370.18 129.67 362.49 126.87C359.59 125.63 355.57 124.36 352.43 122.54C348.13 119.97 348.21 116.6 352.79 114.46C355.79 113.53 359 112.7 362.16 111.62C369.96 108.58 374.65 103.18 377.47 95.53C378.58 90.62 379.9 85.61 381.86 80.87C382.53 79.24 385.33 77.14 386.41 77.34C388.15 77.58 390.31 79.65 391.37 81.44C392.97 86.2 394.23 91.23 395.74 96.16C398.24 104.25 403.38 109.6 411.66 111.89C414.7 112.73 417.75 113.71 420.58 115.53C424.86 117.82 424.95 119.9 420.8 122.26C418.72 123.82 415.12 125.15 412.11 125.99C402.38 128.72 396.49 134.99 393.89 144.63C392.93 148.16 391.75 151.63 390.52 155.48z"/><path fill="#F8BF63" opacity="1.000000" stroke="none" d="M924.74 151.51C926.56 145.97 928.18 140.74 929.79 135.51C930.22 134.85 930.31 132.44 931.11 131.27C932.16 129.73 933.7 127.62 935.13 127.54C936.43 127.46 938.52 129.53 939.12 131.86C940.73 135.25 942.27 139.59 942.92 143.97C944.67 152.38 949.56 157.41 957.9 159.38C961.44 160.22 964.94 161.4 968.28 162.84C969.59 163.39 971.31 165.15 971.21 166.22C972 167.46 969.4 168.96 968.37 169.59C965.34 170.98 961.87 172.1 958.67 172.94C949.8 175.26 944.24 180.59 942.11 189.64C941.13 193.82 939.57 197.9 937.91 201.86C937.37 203.14 935.43 204.89 934.51 204.69C933.11 204.37 931.46 202.77 930.93 201.35C929.63 197.78 928.75 194.34 927.99 190.3C926.12 181.13 920.99 175.15 911.78 172.66C908.44 171.76 905.18 170.37 902.68 168.84C900.95 168.29 899.63 166.61 899.72 165.57C899.81 164.46 901.29 163.28 902.49 162.54C906.95 160.74 911.69 159.58 916.41 157.58C919.11 156.17 921.72 153.78 924.74 151.51z"/><path fill="#F8C064" opacity="1.000000" stroke="none" d="M372.48 211.36C374.99 214.81 372.74 216.54 370.24 217.39C365.92 218.75 361.52 220.27 357.2 222.12C352.15 224.47 348.59 227.57 347.41 232.9C345.65 237.69 344.49 242.56 342.79 247.24C342.85 249.18 340.25 250.72 338.93 252.45C337.49 250.65 335.47 249.57 334.75 247.69C333.42 243.28 332.96 239.25 331.97 235.39C330.2 228.46 325.95 223.69 319.23 221.13C315.5 219.71 311.73 218.36 308.11 216.69C306.92 216.13 305.25 214.48 305.41 213.63C305.65 212.34 307.82 210.82 308.38 210.26C312.19 208.62 316.18 207.41 320.1 206.27C326.87 203.64 330.46 198.57 332.11 191.85C333.13 187.65 333.89 183.37 335.27 179.3C335.8 177.73 337.73 176.63 339.28 175.32C340.31 176.63 342.17 177.74 342.75 179.31C344.12 183.4 345.43 186.96 345.88 190.85C347.87 199.64 353.18 205.12 361.82 207.59C365.32 208.59 368.73 209.95 372.48 211.36z"/><path fill="#F8C064" opacity="1.000000" stroke="none" d="M894.33 312.77C892.92 308.9 891.72 305.42 891.96 301.84C889.46 292.41 883.28 287.62 874.69 285.75C872.63 284.46 870.4 284.81 868.58 283.23C866.91 282.52 865.68 280.31 864.26 278.91C865.89 277.72 867.38 276.15 869.19 275.4C872.86 273.88 876.7 272.77 880.48 271.55C885.53 269.92 888.44 266.36 889.85 261.39C890.98 257.4 891.88 253.32 893.31 249.43C893.91 247.8 895.85 245.28 896.77 245.45C898.48 245.76 900.46 247.46 901.27 249.1C902.65 251.89 903.27 255.67 904.83 258.12C905.96 265.2 909.9 270.28 917.23 272.43C920.89 273.49 924.5 274.8 927.99 276.33C929.17 276.85 930.63 278.38 930.63 279.46C930.64 280.53 929.19 282.71 928.14 282.59C924.84 283.99 921.49 285.47 918.17 286.89C911.18 288.28 906.22 292.38 904.37 299.78C903.4 303.64 902.22 307.47 900.87 311.22C899.62 314.72 897.49 316.21 894.33 312.77z"/><path fill="#F8A757" opacity="1.000000" stroke="none" d="M829.97 551.68C834.26 548.5 839.42 545.33 845.24 542.83C846.93 542.63 847.98 543.26 849.17 544.2C862.35 558.55 867.76 575.31 867.64 594.25C858.13 600.37 847.86 602.43 837.42 603.91C834.82 604.28 832.17 604.26 829.31 603.84C833.49 593.33 836.49 582.39 834.81 571.25C833.81 564.59 831.61 558.19 829.97 551.68z"/><path fill="#F8BF63" opacity="1.000000" stroke="none" d="M865.18 78.58C867.11 85.15 871.31 88.72 877.19 90.69C880.31 91.64 882.98 92.38 885.67 93.64C887.16 94.34 888.22 95.94 889.47 97.13C888.34 98.23 887.37 99.67 886.22 100.34C883.66 101.53 881.12 102.45 878.56 103.12C870.21 105.28 865.64 110.78 863.88 119.29C863.25 121.93 862.63 124.91 861.45 127.63C860.84 129.28 858.96 130.82 857.74 130.75C856.49 130.69 854.84 128.78 854.26 127.33C853.17 124.57 852.63 121.58 852.21 118.65C850.3 110.34 845.37 105.17 837.23 102.78C834.39 101.94 831.55 100.77 829.57 99.19C826.49 97.56 826.47 95.41 829.49 93.91C830.53 93.4 831.61 92.86 832.74 92.66C845.82 90.33 851.66 81.64 853.89 69.35C854.35 66.81 856.55 64.59 857.94 62.22C859.55 64.65 861.51 66.94 862.67 69.57C863.87 72.27 864.3 75.32 865.18 78.58z"/><path fill="#B8501C" opacity="1.000000" stroke="none" d="M867.43 594.2C867.76 575.31 862.35 558.55 849.17 543.83C850.35 539.44 851.68 535.73 853.35 532.92C853.35 532.92 853 532 853.33 531.97C854.77 531.3 855.88 530.65 856.99 530.12C867.86 533.62 874.99 541.57 878.8 551.71C882.25 560.88 883.67 570.81 886.11 580.84C880.84 585.57 873.94 589.86 867.43 594.2z"/><path fill="#B6501B" opacity="1.000000" stroke="none" d="M828.69 551.77C831.61 558.19 833.81 564.59 834.81 571.25C836.49 582.39 833.49 593.33 829.26 603.63C824.26 604.28 819.53 604.55 814.35 603.61C816.72 594.32 817.98 585.37 816.72 576.8C812.27 583.81 807.61 591.13 803.67 598.48C802.42 599.42 802.2 600.57 801.81 601.63C797.26 605.87 792.72 610.13 788.13 614.35C786.68 615.68 785.12 616.9 783.3 618.36C783.71 616.78 783.94 614.5 785.21 613.33C802.21 597.68 813.16 578.37 819.39 556.36C819.65 555.44 820.3 554.62 820.97 553.44C823.53 552.72 825.91 552.29 828.69 551.77z"/><path fill="#B7521F" opacity="1.000000" stroke="none" d="M649.5 134.15C647.34 147.28 644.72 160.25 642.17 173.23C641.27 177.77 639.16 181.13 634.5 180.95C629.48 180.77 627.46 177.12 626.98 172.84C625.62 160.52 624.34 148.18 623 135.41C631.67 134.64 640.36 134.31 649.5 134.15z"/><path fill="#B8501C" opacity="1.000000" stroke="none" d="M815.87 462.51C808.53 464.89 801.22 466.98 793.87 468.87C790.52 469.73 786.98 471.25 783.71 470.62C780.86 470.26 777.48 468.38 775.78 466.93C773.55 463.1 775.34 459.62 778.55 457.32C784.62 451.77 791.4 446.46 797.99 440.94C799.85 439.38 801.39 437.43 803.9 435.31C807.36 444.18 811.62 453.82 815.87 462.51z"/><path fill="#B6501B" opacity="1.000000" stroke="none" d="M790.91 414.74C784.95 418.21 778.98 421.48 772.84 424.4C769.88 425.81 766.59 427.39 763.46 427.35C760.51 427.33 757.63 425.9 754.78 423.97C752.32 421.65 752.89 418.95 754.87 415.33C756.59 412.93 758.71 410.82 761.13 408.14C763.59 405.81 765.69 404 767.58 401.99C769.83 399.6 771.9 397.4 774.47 394.55C779.64 401.17 785.24 407.78 790.91 414.74z"/><path fill="#B6501B" opacity="1.000000" stroke="none" d="M610.56 136.18C611.69 146.61 612.42 156.98 613.93 167.35C613.17 168.49 613.65 169.7 612.77 170.81C611.89 174.43 609.68 176.44 606.37 175.8C604.29 175.39 601.66 173.4 600.86 171.47C596.78 161.7 593.22 151.71 589.29 141.53C596.12 139.54 603.13 137.82 610.56 136.18z"/><path fill="#B7521F" opacity="1.000000" stroke="none" d="M680.22 138.5C677.37 146.46 674.23 154.12 671.16 161.82C670.36 163.82 669.71 165.89 669.12 167.97C668.25 171.84 665.92 174.99 661.56 174.42C657.15 173.82 655.95 169.68 656.19 166.53C656.85 155.93 658.38 145.9 659.52 135.43C666.41 136.79 673 137.14 680.22 138.5z"/><path fill="#B8501C" opacity="1.000000" stroke="none" d="M825.3 514.52C816.81 514.65 808.39 514.45 799.99 513.91C796.3 513.68 793.32 512.51 792.46 507.87C791.56 503.5 794.71 501.84 797.58 500.34C805.68 496.11 813.92 492.15 822.44 488.23C823.65 496.66 824.51 505.36 825.3 514.52z"/><path fill="#B1511F" opacity="1.000000" stroke="none" d="M923.35 519.11C923.4 512.2 924.2 505.66 923.98 497.96C923.6 485.58 914.92 475.81 902.92 474.49C893.6 473.46 885.5 477.66 880.37 484.88C874.36 493.31 870.91 502.97 865.65 512.1C862.91 516.82 860.75 519.91 858.26 523.91C862.95 507.7 866.81 490.79 880.97 478.56C892.93 466.76 912.32 466.95 921.5 479.72C929.85 490.89 930.91 502.2 925.68 514.91C925.12 516.28 924.32 517.57 923.35 519.11z"/><path fill="#B6501B" opacity="1.000000" stroke="none" d="M813.47 339.24C798.99 335.82 784.8 332.36 770.71 328.51C767.69 327.68 763.39 328.23 762.38 323.64C765.29 323.86 768.19 322.12 771.11 322.53C786.96 321.7 802.65 323.24 818.48 326.94C817.17 331.67 815.48 335.32 813.47 339.24z"/><path fill="#B6501B" opacity="1.000000" stroke="none" d="M826.15 295.67C809.84 299.47 793.8 302.9 777.72 306.17C776.38 306.45 774.82 305.64 773.36 305.34C774.44 304.16 775.28 302.45 776.62 301.88C792.78 294.94 809.25 288.16 825.58 281.22C825.98 285.81 826.59 290.54 826.15 295.67z"/><path fill="#B6501B" opacity="1.000000" stroke="none" d="M452.67 295.43C466.74 296.24 497.29 306.94 499.2 312.27C484.11 310.53 469.42 309.94 454.4 307.76C453.57 303.88 453.75 299.88 452.67 295.43z"/><path fill="#B6501B" opacity="1.000000" stroke="none" d="M790.41 370.12C789.63 368.57 788.22 366.94 787.16 365.66C779.72 357.92 772.32 350.26 764.99 342.55C764.24 341.75 763.66 340.79 763.37 339.37C776.73 343.12 787.86 351.8 799.85 358.11C797.67 362.81 793.91 366.33 790.41 370.12z"/><path fill="#B6501B" opacity="1.000000" stroke="none" d="M460.71 331.41C476.29 328.76 491.89 326.47 507.52 324.31C508.57 324.17 509.78 325.69 510.91 325.48C510.12 326.56 509.52 328.31 508.5 328.6C503.23 330.12 497.83 331.14 492.54 332.57C483.56 334.99 474.64 337.58 465.29 340.19C463.51 337.44 462.12 334.62 460.71 331.41z"/><path fill="#F0974C" opacity="1.000000" stroke="none" d="M774.79 394.26C771.9 397.4 769.83 399.6 767.58 401.99C765.69 404 763.59 405.81 761.29 407.84C760.1 407.66 759.13 406.91 758.34 407.68C751.5 408.42 745.7 404.87 739.44 402.8C743.55 400.87 747.98 399.78 751.87 397.7C757.93 394.95 761.73 391.43 766.64 388.23C766.82 388.2 767.46 388.17 767.47 388.98C768.11 388.49 768.49 388.91 769.59 389.86C769.57 390.56 769.87 390.74 770.18 390.92C771.44 391.94 772.7 392.95 774.79 394.26z"/><path fill="#F0974C" opacity="1.000000" stroke="none" d="M802.69 601.94C802.2 600.57 802.42 599.42 803.67 598.48C807.61 591.13 812.27 583.81 816.72 576.8C817.98 585.37 816.72 594.32 813.88 603.53C810.23 603.37 806.17 602.82 802.69 601.94z"/><path fill="#B6501B" opacity="1.000000" stroke="none" d="M475.34 356.44C484.12 351.76 492.85 347.44 501.6 343.17C503.32 342.33 505.11 341.63 506.87 340.87C507.22 341.3 507.58 341.73 507.94 342.16C506.34 343.72 504.89 345.48 503.11 346.79C497.24 351.99 491.21 355.18 485.36 359.5C483.97 360.53 483.49 362.18 481.89 363.91C479.69 361.8 477.5 359.31 475.34 356.44z"/><path fill="#F9F3E7" opacity="1.000000" stroke="none" d="M503.85 383.58C497.33 381.82 490.73 379.75 483.85 377.43C485.51 377.34 487.47 377.66 489.41 377.59C490.27 377.56 491.88 376.71 491.94 375.91C495.9 378.14 499.84 380.7 503.85 383.58z"/><path fill="#B1511F" opacity="1.000000" stroke="none" d="M852.72 532.19C851.68 535.73 850.35 539.44 849.28 543.53C847.98 543.26 846.93 542.63 845.58 542C847.66 538.78 850.55 535.58 852.72 532.19z"/><path fill="#B1511F" opacity="1.000000" stroke="none" d="M856.9 529.61C855.88 530.65 854.77 531.3 853.34 531.97C854.15 530.1 855.3 528.2 856.72 526.1C856.93 527.97 856.87 528.11 856.9 529.61z"/><path fill="#B2511E" opacity="1.000000" stroke="none" d="M523.14 663.38C523.37 663.86 523.59 664.66 523.91 665.77C523.72 665.29 523.42 664.5 523.14 663.38z"/><path fill="#B1511F" opacity="1.000000" stroke="none" d="M518.99 641.7C518.99 641.7 518.6 641.85 518.4 641.9C518.53 641.56 517.91 641.18 517.76 640.5C517.76 640.2 517.91 640.78 518.2 640.18C518.65 640.75 518.82 641.22 518.99 641.7z"/><path fill="#B1511F" opacity="1.000000" stroke="none" d="M857.7 524.68C857.77 524.49 857.55 525.4 857.13 525.82C857.9 525.43 857.25 524.82 857.7 524.68z"/><path fill="#F9A757" opacity="1.000000" stroke="none" d="M770.62 390.68C769.87 390.74 769.57 390.56 769.15 390.12C769.35 390.58 769.65 390.25 770.62 390.68z"/><path fill="#F9F4E7" opacity="1.000000" stroke="none" d="M684.9 259.98C697.71 228.52 734.32 227.71 752.6 244.79C766 257.31 770.99 272.9 765.42 289.4C759.78 306.88 746.49 316.67 728.53 317.59C693.1 319.39 674.17 287.88 684.9 259.98M731.93 281.13C731.34 276.54 731.4 271.75 730.44 267.41C727.45 259.73 719.58 253.16 712.11 252.96C704.12 252.74 696.72 257.7 693.44 266.24C689.66 276.94 690.83 285.74 696.87 294.27C705.28 306.16 722.4 304.55 728.85 291.45C730.3 288.52 730.88 285.17 731.93 281.13z"/><path fill="#F9F3E7" opacity="1.000000" stroke="none" d="M508.87 301.42C494.16 270.93 515.28 237.3 547.56 238.91C564.56 238.5 580.25 250.59 586.24 267.88C591.57 283.23 585.77 301.88 573.19 312.61C555.95 328.44 522.53 324.95 508.87 301.42M542.32 297.5C550.76 311.32 568.93 308.49 575.38 294.52C579.47 285.65 579.21 276.7 574.88 268.48C571.56 261.41 566.37 256.82 558.48 256.91C550.34 257 544.64 261.35 541.28 268.53C536.92 277.85 537.36 287.22 542.32 297.5z"/><path fill="#E56C32" opacity="1.000000" stroke="none" d="M744.21 163.77C734.84 158.71 725.76 153.87 716.15 148.75C729.18 130.32 742.56 112.53 759.3 97.42C763.86 104.42 769.9 166.69 767.29 179.74C759.61 174.44 752.56 169.21 744.21 163.77z"/><path fill="#E56C32" opacity="1.000000" stroke="none" d="M506.57 108.19C507.78 108.24 509.75 107.83 509.74 108.39C525.71 121.78 539.32 137.44 552.56 153.44C552.73 153.65 552.66 154.72 552.78 154.98C534.57 163.14 518.1 174.36 502.29 189.14C501.16 161.78 503.27 134.77 506.57 108.19z"/><path fill="#5F3316" opacity="1.000000" stroke="none" d="M636.17 321.91C640.66 337.84 671.81 345.63 680.55 330.27C681.5 329.19 682.84 329.14 684.31 328.73C684.42 329.92 684.36 331.22 683.98 332.28C683.56 333.48 682.75 334.86 681.7 335.48C676.56 338.49 675.22 343.43 673.38 348.71C668.22 363.47 651.64 378.79 631.85 377.72C616.65 375.75 599.51 361.55 594.46 345.64C593.71 343.26 591.47 341.29 589.72 339.31C587.98 337.35 585.74 335.8 584.23 333.69C583.69 332.94 584.67 331.11 584.96 329.77C586.44 330.26 587.58 330.46 588.14 331.3C597.16 344.89 626.2 340.63 632.65 321.46C634.98 321.33 635.14 321.62 636.17 321.91M644.55 349.67C634.24 347.29 624.77 348.98 616.14 355.31C612.75 357.79 612 360.8 614.87 363.65C617.99 366.73 621.47 369.87 625.41 371.61C636.13 376.35 651.44 372.15 657.46 363.48C660.29 359.41 660.21 356.8 655.84 354.4C652.56 352.53 648.88 351.35 644.55 349.67z"/><path fill="#B34F17" opacity="1.000000" stroke="none" d="M686.96 447.97C686.92 449.65 685.64 451.85 684.28 452.94C676.63 459.63 668.89 465.93 660.94 470.82C653.23 476.37 643.94 475.96 635.53 476.87C626.36 477.75 618.98 481.37 613.55 488.14C611.68 490.47 611.23 493.94 609.63 498.21C618.24 495.17 624.17 489.29 632.59 491.62C629.44 493.36 626.19 494.28 623.15 495.92C619.95 497.65 616.73 499.48 613.88 501.73C602.91 510.41 604.81 526.24 617.61 532.62C622.12 522.58 629.22 514.63 640.83 512.87C641.14 513.29 641.45 513.71 641.77 514.13C639.46 515.59 637.16 517.63 634.83 518.49C629.58 521.7 625.32 525.74 623.53 531.87C621.63 538.32 622.87 542.41 628.4 546.79C633.1 550.52 638.53 552.78 644.9 551.82C644.23 542.8 648.11 537.83 655.86 534.46C656.25 534.34 656.65 534.63 657.52 534.92C655.87 536.27 654.63 537.58 653.51 538.99C650.84 542.36 648.54 546.32 650.73 550.39C652.77 554.48 656.59 556.77 661.1 556.22C673.34 555.87 682.48 548.96 688.15 539.59C693.6 530.58 701.4 525.55 709.9 518.8C728.99 502.36 743.79 482.64 748.18 456.4C748.26 455.94 748.58 455.5 748.83 455.86C748.89 454.99 749.14 455.77 749.83 454.86C749.59 458.5 749.36 461.96 749.63 464.95C744.4 491.15 729.77 509.92 709.41 524.57C702.33 529.67 695.6 534.66 692.28 543.47C692.1 543.5 691.73 543.87 691.45 544.29C683.63 555.83 667.34 562.79 654.61 559.85C646.41 557.96 638.28 555.8 630.12 553.76C624.29 550.39 618.63 546.96 617.47 539.35C617.27 538.83 615.45 536.85 614.12 536.71C602.55 528.69 599.22 517.82 604.79 505.48C605.45 504.12 606.24 502.35 606.45 500.76C606.23 486.3 612.83 477.55 627.13 474.12C633.56 472.57 640.38 472.64 646.79 471.36C652.51 469.61 658.33 467.13 663.4 464.6C665.39 463.83 666.23 461.5 667.99 459.62C669.41 453.89 671.51 448.38 673.72 442.23C674.17 442.38 674.62 442.54 675.65 442.69C673.93 447.87 672.79 453.6 671.34 459.72C677.2 455.24 681.79 451.73 686.68 448.11C686.99 448 686.96 447.97 686.96 447.97z"/><path fill="#EA7A7B" opacity="1.000000" stroke="none" d="M636.48 321.77C635.14 321.62 634.98 321.33 632.73 321.98C622.92 318.28 615.45 313.26 611.88 303.39C610.23 298.84 611.86 295.69 615.77 294.82C623.59 293.73 631.62 292.16 639.6 291.23C641.99 290.95 644.5 291.74 646.96 292.5C654.89 293.47 657.49 297.25 655.19 304.89C652.39 314.21 644.78 318.91 636.48 321.77z"/><path fill="#F0974C" opacity="1.000000" stroke="none" d="M630.13 554.12C638.28 555.8 646.41 557.96 654.61 559.85C667.34 562.79 683.63 555.83 691.45 544.29C691.73 543.87 692.1 543.5 692.28 543.47C695.6 534.66 702.33 529.67 709.41 524.57C729.77 509.92 744.4 491.15 749.83 465.37C752.87 469.31 751.45 474.46 750.34 478.87C747.68 491.75 740.7 503.63 731.95 512.48C726.85 516.64 723.18 521.39 718.88 525.5C716.86 527.43 714.78 529.48 711.47 529.72C704 530.43 700.31 534.42 699.56 541.79C694.91 547.34 690.79 552.51 686.39 557.85C681.88 559.25 677.62 560.43 673.42 561.75C667.63 563.57 661.98 563.85 655.96 562.31C650.64 560.95 644.89 561.29 639.59 559.9C636.2 559.17 633.27 556.35 630.13 554.12z"/><path fill="#B7521F" opacity="1.000000" stroke="none" d="M519.45 641.76C518.82 641.22 518.65 640.75 518.27 640.12C517.14 634.44 515.97 628.95 515.34 623.4C514.37 614.73 513.69 606.27 513.11 597.32C513.42 596.28 514.39 595.14 515.48 594.19C516.25 601.3 516.81 608.6 516.9 615.91C516.94 619.78 518.5 620.47 522.11 621.29C529.45 622.97 536.65 625.59 543.57 628.59C545.57 629.46 547.93 633.35 547.45 635.15C546.87 637.35 543.65 640 541.27 640.35C534.23 641.4 527.46 641.41 519.45 641.76z"/><path fill="#A24818" opacity="1.000000" stroke="none" d="M561.3 220.64C560.79 217.65 559.48 214.23 560.65 212.36C561.65 210.76 565.5 210.37 568.52 210.46C570.78 210.55 573.47 211.81 576.17 212.6C580.65 213.91 581.82 217.39 581.66 221.48C581.49 225.68 578.96 227.41 574.98 226.39C570.46 224.48 566.42 222.62 561.3 220.64z"/><path fill="#A24818" opacity="1.000000" stroke="none" d="M704.2 216.15C698.92 218.33 693.92 220.37 688.77 221.95C687.61 222.3 684.84 221.23 684.71 220.48C684.24 217.83 683.88 214.76 684.8 212.36C686.47 207.97 698.26 204.22 702.45 206.32C706.46 208.51 706.22 212.2 704.2 216.15z"/><path fill="#F0974C" opacity="1.000000" stroke="none" d="M588.97 615.64C594.43 617.51 599.91 619.76 605.25 621.94C602.49 629.72 599.8 637.3 596.81 645.5C595.19 641.78 592.96 638.47 592.13 634.88C590.68 628.68 590 622.32 588.97 615.64z"/><path fill="#B34F17" opacity="1.000000" stroke="none" d="M766.28 388.18C761.73 391.43 757.93 394.95 751.87 397.7C747.98 399.78 743.55 400.87 739.89 402.63C732.88 403.61 726.95 404.34 721.13 405.79C720.93 404.57 720.86 404.56 720.78 403.55C725.81 402.24 730.97 401.29 735.83 399.54C744.56 396.39 753.1 392.73 761.74 389.33C763.84 388.8 764.52 388.52 766.28 388.18z"/><path fill="#A24818" opacity="1.000000" stroke="none" d="M713.48 537.24C712.77 536.44 712.4 535.51 711.98 534.2C725.62 525.28 740.56 522.6 756.63 523.48C741.21 524.48 727.65 529.41 713.48 537.24z"/><path fill="#F0974C" opacity="1.000000" stroke="none" d="M523.59 455.1C523.49 458.22 523.12 461.45 522.39 465.62C515.79 463.84 509.65 462.19 503.25 460.28C504.78 459.36 506.57 458.13 508.37 458.12C513.57 458.99 518.72 458.27 523.59 455.1z"/><path fill="#B34F17" opacity="1.000000" stroke="none" d="M517.71 393.38C517 392.53 517.17 392.14 517.67 391.11C528.65 394.64 540.21 398.55 551.77 402.46C540.12 399.99 527.66 400.72 517.71 393.38z"/><path fill="#A24818" opacity="1.000000" stroke="none" d="M521.19 677.3C522.65 676.34 524.59 675.45 526.76 674.3C532.6 675.8 538.21 677.57 543.91 679.67C544 680.2 544.18 679.98 544.18 679.98C536.57 679.1 529.11 678.23 521.19 677.3z"/><path fill="#B7521F" opacity="1.000000" stroke="none" d="M517.36 573.92C517.27 572.16 517.42 570.72 517.87 569.16C517.99 570.17 517.79 571.44 517.36 573.92z"/><path fill="#B34F17" opacity="1.000000" stroke="none" d="M675.44 439.91C675.47 439.88 675.4 439.94 675.44 439.91z"/><path fill="#A24818" opacity="1.000000" stroke="none" d="M543.98 680.13C544.98 680.14 544.23 680.25 544.35 680.36C544.27 680.32 544.19 680.28 544.63 680.11C544.18 679.98 544 680.2 543.98 680.13z"/><path fill="#B34F17" opacity="1.000000" stroke="none" d="M687.63 448.14C687.91 448.64 687.16 447.97 687.98 447.95C686.96 447.97 686.99 448 687.63 448.14z"/><path fill="#B7521F" opacity="1.000000" stroke="none" d="M518.34 568.27C518.25 568.96 518.38 567.73 518.73 567.19C518.83 567.37 518.69 567.72 518.34 568.27z"/><path fill="#E2F1F9" opacity="1.000000" stroke="none" d="M596.76 697.99C598.24 680.31 599.8 661.99 602.3 644.75C603.17 637.79 606.17 631.75 608.63 625.76C609.1 624.61 611.75 623.35 613.27 623.66C634.12 628.73 655.42 630.21 677.12 628.28C678.32 628.17 680.39 628.9 681.2 629.91C688.39 641.77 695.68 653.69 702.69 665.77C705.41 670.46 707.35 675.61 709.9 681.12C700.85 684.61 692.9 688.96 687.51 697.27C680.43 697.33 673.64 697.76 666.84 697.54C650.74 697.31 634.64 696.97 618.54 697.11C611.43 697.18 604.31 697.67 596.76 697.99z"/><path fill="#8FB8D5" opacity="1.000000" stroke="none" d="M501.61 725.65C500.65 725.75 500.22 725.6 499.21 725.19C499.63 725.79 500.24 725.24 501.61 725.65z"/><path fill="#8FB8D5" opacity="1.000000" stroke="none" d="M498.91 724.69C498.5 724.77 497.92 724.59 497.19 724.14C497.6 724.6 498.17 724.25 498.91 724.69z"/><path fill="#8FB8D5" opacity="1.000000" stroke="none" d="M489.22 715.65C488.8 715.67 488.51 715.37 488.16 714.77C488.38 714.75 488.67 715.46 489.22 715.65z"/><path fill="#8FB8D5" opacity="1.000000" stroke="none" d="M489.8 716.72C489.55 716.82 489.34 716.62 489.12 716.13C489.4 715.97 489.64 716.15 489.8 716.72z"/><path fill="#8FB8D5" opacity="1.000000" stroke="none" d="M490.99 718.66C490.77 718.68 490.5 718.41 490.17 717.84C490.38 717.82 490.65 718.99 490.99 718.66z"/><path fill="#8FB8D5" opacity="1.000000" stroke="none" d="M491.98 719.7C491.71 719.86 491.45 719.68 491.15 719.18C491.34 719.12 491.62 719.29 491.98 719.7z"/><path fill="#8FB8D5" opacity="1.000000" stroke="none" d="M493.14 720.7C492.82 720.77 492.54 720.59 492.16 720.18C492.34 720.12 492.64 720.28 493.14 720.7z"/><path fill="#8FB8D5" opacity="1.000000" stroke="none" d="M494.7 721.66C493.85 721.74 493.56 721.56 493.16 721.15C493.36 721.7 493.68 721.23 494.7 721.66z"/><path fill="#8FB8D5" opacity="1.000000" stroke="none" d="M495.35 722.63C495.14 722.74 494.75 722.57 494.21 722.14C494.43 722.31 494.81 722.2 495.35 722.63z"/><path fill="#8FB8D5" opacity="1.000000" stroke="none" d="M497.26 723.71C496.79 723.89 496.51 723.74 496.16 723.3C496.33 723.23 496.63 723.35 497.26 723.71z"/><path fill="#8FB8D5" opacity="1.000000" stroke="none" d="M503.18 726.68C503.11 726.79 502.69 726.67 502.2 726.34C502.37 726.25 502.7 726.35 503.18 726.68z"/><path fill="#563319" opacity="1.000000" stroke="none" d="M731.89 281.56C730.88 285.17 730.3 288.52 728.85 291.45C722.4 304.55 705.28 306.16 696.87 294.27C690.83 285.74 689.66 276.94 693.44 266.24C696.72 257.7 704.12 252.74 712.11 252.96C719.58 253.16 727.45 259.73 730.44 267.41C731.4 271.75 731.34 276.54 731.89 281.56z"/><path fill="#563319" opacity="1.000000" stroke="none" d="M542.12 296.73C537.36 287.22 536.92 277.85 541.28 268.53C544.64 261.35 550.34 257 558.48 256.91C566.37 256.82 571.56 261.41 574.88 268.48C579.21 276.7 579.47 285.65 575.38 294.52C568.93 308.49 550.76 311.32 542.12 296.73z"/><path fill="#EA7A7B" opacity="1.000000" stroke="none" d="M644.96 349.77C648.88 351.35 652.56 352.53 655.84 354.4C660.21 356.8 660.29 359.41 657.46 363.48C651.44 372.15 636.13 376.35 625.41 371.61C621.47 369.87 617.99 366.73 614.87 363.65C612 360.8 612.75 357.79 616.14 355.31C624.77 348.98 634.24 347.29 644.96 349.77z"/></svg>