<svg xmlns="http://www.w3.org/2000/svg" xmlns:xlink="http://www.w3.org/1999/xlink" version="1.1" id="Layer_1" x="0px" y="0px" width="100%" viewBox="0 0 1328 800" enable-background="new 0 0 1328 800" xml:space="preserve" style="background: transparent;"><path fill="#F5AC63" opacity="1.000000" stroke="none" d="M401.11 451.82C395.59 443.92 390.18 436.25 385.13 427.62C401.61 424.7 417.71 421.27 433.81 417.98C433.81 417.24 433.8 416.49 433.8 415.74C431.49 415.18 428.31 414.17 425.55 414.12C410.41 413.85 395.3 414.12 380.71 419.38C375.48 409.32 372.88 398.84 372.26 387.41C389.65 387.2 405.94 391.41 422.21 395.59C423.45 395.37 424.87 394.97 426.21 394.9C425.54 393.57 425.22 392.12 424.14 390.95C423.59 390.21 422.54 389.77 421.64 389.36C404.43 381.54 387.2 373.75 369.97 365.94C369.91 340.87 377.18 317.74 388.89 295.87C392.66 288.83 397.2 282.22 401.15 275.28C402.24 273.37 402.94 270.97 402.99 268.78C403.46 248.64 402.93 228.44 404.3 208.37C405.74 187.33 408.7 166.38 411.49 145.46C412.81 135.6 415.57 125.84 417.31 116.13C419.28 107.65 423.46 105.59 431.18 109.73C439.41 112.6 447.47 116.68 455.22 121.19C480.78 136.71 504.63 154.44 525.58 174.32C528.6 177.16 531.73 180 534.21 183.29C536.85 186.78 539.59 186.99 543.48 185.47C544.63 189.78 545.3 193.7 546.67 197.61C547.44 204.6 548.71 211.63 550.35 218.56C551.59 221.57 553.6 224.65 556.52 223.89C559.27 223.29 561.92 221.3 564.11 219.36C565.3 218.3 565.82 216.75 565.95 214.33C566.78 202.9 567.42 191.45 568.12 180.16C571.7 179.62 575.27 179.23 579.37 179.3C580.27 192.24 580.51 204.7 581.1 217.15C581.31 221.6 582.19 226.43 583.11 230.42C584.36 234.84 587.87 237.32 591.58 237.52C596.43 237.72 599.29 235.6 600.7 231.28C601.67 228.29 602.46 225.22 603.34 222.13C605.73 207.46 608.33 192.77 610.96 178.84C614.73 178.35 618.49 178.62 622.65 179.41C621.33 191.83 619.31 203.71 618.46 215.66C617.43 221.46 620.46 225.14 624.67 225.87C628.9 226.61 632.67 224.56 634.5 218.62C636.24 213.46 637.27 208.45 639.81 202.91C641.43 196.27 644.26 189.79 646.88 183.24C650.85 184.46 653.6 182.86 656.49 180.32C681.34 155.72 708.55 134.45 739.41 117.6C745.13 114.23 751.6 111.48 758.92 108.94C762.92 107.49 765.95 108.47 767.18 113.54C771.29 129.35 774.95 145.16 777.9 161.15C784.27 194.27 786.58 227.73 786.1 261.43C786.66 264.4 788.12 266.98 789.72 269.25C802.3 285.98 813.38 303.68 819.61 323.68C823.59 336.45 825.19 349.95 827.43 363.54C805.33 369.47 785.33 379.15 765.31 388.79C763.87 389.49 762.43 390.19 760.99 390.89C761.52 391.65 762.5 392.4 762.58 393.15C765.64 392.94 768.71 392.87 771.75 392.51C789.84 390.39 807.91 388.2 826 386.47C823.75 395.25 821.49 403.59 818.84 411.81C804.6 408.92 790.73 409.53 776.9 411.57C770.63 412.49 764.42 413.81 758.21 415.63C755.86 415.54 753.58 416.34 751.26 416.99C753.34 418.35 755.25 420.35 757.53 420.97C774.63 425.61 791.81 429.98 808.96 434.78C805.69 440.17 802.6 445.35 799.1 450.24C797.67 453.75 794.37 455.44 791.67 457.86C777.4 449.54 762.82 442.77 747.95 436.62C747.47 437.33 746.99 438.28 746.5 438.73C756.99 449.87 767.47 461.17 777.93 472.46C777.6 473.52 777.3 474.27 776.66 475.11C774.26 476.27 772.18 477.28 770.17 478.43C756.94 486.32 743.82 493.83 730.46 501.21C725.29 504.65 719.61 506.14 714.16 508.38C714.31 508.76 714.47 509.13 714.62 509.51C722.32 506.58 730.47 504.47 737.62 500.53C750.96 493.18 763.71 484.77 777.88 476.89C779.35 476.96 781.41 477.45 783.86 476.85C790.7 474.14 798.12 470.88 805.76 468.25C819.23 463.63 831.56 457.48 839.71 445.43C839.72 446.96 839.6 448.12 839.64 449.28C839.98 458.73 847.5 464.16 856.48 460.96C858.65 460.23 860.94 459.26 862.61 457.77C869.88 451.26 876.99 444.55 884.78 437.83C889.24 432.94 894.26 427.91 899.35 422.95C905.87 429.18 912.44 435.36 918.88 441.68C920.99 443.75 922.75 446.17 924.65 449.21C922.81 451.53 920.91 453.4 919.16 455.39C910.32 465.49 901.15 475.33 892.93 485.92C890.42 489.17 889.26 494.66 889.8 498.83C890.88 507.11 900.3 511.19 909.5 508.24C924.27 503.63 936.72 494.75 949.19 485.97C959.58 505.5 966.29 526.27 970.57 547.94C976.2 576.51 977.42 605.65 970.92 633.62C966.38 653.58 957.73 671.59 943.91 687.63C938.97 691.53 934.49 695.73 930 698.34C930.5 695.33 931.23 693.11 931.46 690.83C932.7 678.57 933.34 666.39 924.68 655.7C923.39 654.24 922.22 653.62 920.95 651.68C920.67 651.21 920.43 651.37 919.94 650.67C916.86 648.53 913.96 646.69 910.83 644.6C908.75 643.55 906.88 642.76 904.72 641.72C901.84 641.64 899.55 641.16 896.72 642.65C883.35 647.51 868.96 647.78 854.95 644.65C837.63 640.78 820.61 635.62 803.3 631.68C787.34 628.49 771.35 623.95 754.64 625.71C753.53 625.82 751.31 623.71 751.63 622.37C748.84 610.19 748.51 597.87 751.12 585.77C755.69 564.61 765.63 546.64 783.86 534C792.96 527.69 803.42 525.91 814.47 522.9C828.25 520.91 841.32 523.1 854.42 525.47C841.53 519.53 828.74 517.44 813.61 519.72C802.25 520.54 791.74 523.42 782.33 529.39C765.19 540.26 754.66 556.16 747.62 574.7C744.85 572.34 742.34 570.16 739.98 567.68C740.82 565.98 741.52 564.59 742.37 563.61C742.25 562.85 741.98 562.77 741.37 562.77C733.22 568.64 730.35 577.59 727.83 586C721.98 599.15 717.84 612.67 713.12 625.98C712.39 628.55 711.14 630.36 709.43 631.63C693.62 643.39 687.18 659.24 689.14 678.51C689.64 683.5 691.88 688.33 693.4 693.51C686.91 703.71 674.59 708.28 663.36 710.77C649.92 713.75 643.52 706.71 646.46 693.11C647.87 690.21 648.25 687.42 649.12 684.57C649.43 683.58 649.6 682.54 649.88 681.29C640.66 683.51 638.35 697.95 644.78 713.67C638.7 713.67 632.95 713.17 627.21 712.97C614.76 712.54 607.2 702.92 609.55 690.62C610.27 686.84 611.15 683.84 612.22 678.98C603.61 681.48 602.18 695.42 608.71 710.64C592.26 711.36 582.41 699.99 586.52 683.83C590.88 667.64 604.45 656.87 622.48 656.24C625.89 656.1 627.23 654.62 628.81 651.4C634.55 631.72 637.62 611.39 639.98 590.91C640.58 585.65 641.37 580.42 642.66 575.17C639.47 582.28 637.74 589.52 635.9 596.74C632.38 610.55 628.8 624.35 624.81 638.11C622.46 638.43 620.56 638.91 618.62 639.16C614.46 639.68 610.29 640.18 606.11 640.49C604.49 640.61 602.82 639.95 601.2 640.44C592.44 640.57 585.67 635.43 578.24 632.17C575.15 630.81 572.95 629.38 568.78 627.86C568.74 627.46 567.61 627.18 567.54 626.56C555.82 612 544.69 597.76 533.55 583.53C533.45 585.29 533.9 586.83 534.7 588.15C540.2 597.26 544.93 606.99 551.53 615.22C558.48 623.89 560.61 631.89 556.14 642.38C550.5 655.66 546.76 669.77 540.81 682.88C534.78 696.17 523.62 703.38 508.8 705.17C496.87 706.61 484.92 708.57 473.26 704.81C469.38 703.56 465.23 700.37 463.14 696.91C457.75 687.95 460.58 677.19 468.95 670.64C469.95 669.86 470.95 669.65 471.95 668.28C466.48 668.14 462.17 669.78 459.31 674.12C452.84 683.95 454.42 693.79 460.47 703.9C458.31 703.81 457.31 703.9 456.38 703.69C446.34 701.49 439.44 695.59 437.47 685.45C435.5 675.35 438.3 666.35 446.31 659.33C454.24 652.38 463.85 651.13 473.82 651.14C477.42 651.19 479.21 650.13 478.96 646.41C482.58 628.35 487.26 610.42 489.56 592.19C492.31 570.37 489.54 548.75 482.29 527.76C480.36 521.75 478.75 515.58 476.2 509.84C475 507.14 472.32 504.44 469.64 503.18C448.71 493.36 429.3 481.34 412.34 465.52C411.86 465.76 411.5 464.5 411.99 463.31C419.41 454.12 427.7 445.59 436 437.64C435.66 436.62 435.32 436.17 434.98 435.73C422.46 438.42 411.76 445.18 401.11 451.82M585.9 417.73C583.17 424.3 578.57 429.13 572.37 432.53C566.16 435.93 559.5 437.44 552.64 435.74C546.64 434.25 542.44 430.36 540.9 424C540.72 423.27 538.91 422.19 538.42 422.43C537.39 422.94 535.9 424.45 536.87 425.13C537.44 428.53 537.7 432.49 539.9 434.99C547.22 443.35 556.87 443.85 566.95 441.36C576.12 439.92 582.65 433.28 587.96 426.44C590.64 428.83 593.16 431.25 595.86 433.45C605.89 441.63 617.51 445.14 629.77 440.87C636.34 438.66 640.96 434.18 642.36 427.26C642.68 425.67 641.14 423.69 640.24 421.89C639.19 423.94 637.67 424.13 637.16 425.54C635.15 431.83 631.58 434.17 625.68 435.66C611.99 439.46 594.84 429.87 591.32 415.86C592.1 415.59 592.87 415.24 593.67 415.56C605.78 412.32 612.59 404.23 616.45 392.91C618.32 387.49 616.75 382.68 612.9 381.17C596.23 374.64 579.73 376.42 563.51 382.84C559.66 384.36 558.39 389.13 559.6 392.95C560.6 395.39 562.62 397.65 563.45 399.91C568.77 408.55 577.4 412.84 585.9 417.73M486.8 304.52C480.52 304.69 474.94 304.92 467.97 305.18C438.45 310.45 419.12 341.79 427.31 370.49C434.66 396.25 459.37 411.88 486.7 408.64C512.4 404.47 531.66 382.93 531.87 357.52C532.77 331.68 512.82 308.69 486.8 304.52M746.62 327.9C735.24 311.44 719.63 303.7 699.54 303.82C673.19 303.98 644.13 330.67 650.56 365.67C656.2 395.37 681.5 412.44 711.71 407.93C749.15 402.33 768.41 359.44 746.62 327.9M478.97 185.52C465.47 173.52 453.83 160.2 437.28 148.95C433.94 180.59 432.77 210.77 433.31 242.58C451.9 225.37 472.62 212.86 495.96 203.26C489.94 196.96 484.71 191.49 478.97 185.52M716.51 178.12C709.61 185.72 701.61 193.42 693.52 201.78C714.92 211.82 735.4 222.48 753.7 238.68C754.83 207.7 753.69 178.12 750.33 148.63C749.84 148.34 749.35 148.6 748.86 147.78C738.24 157.69 727.63 167.6 716.51 178.12M497.98 268.99C493.65 268.95 491.63 271.41 491.29 275.43C490.94 279.58 493.86 280.9 497.14 281.54C503.33 282.74 509.54 283.88 515.76 284.83C521.24 285.67 525.52 282.94 526 278.6C526.52 273.75 523.94 270.83 517.77 270.17C511.5 269.5 505.18 269.35 497.98 268.99M662.6 269.97C656.64 270.91 654.71 272.85 655.77 277.62C655.26 281.64 658.21 285.45 661.97 284.6C669.51 283.71 677.52 282.52 684.45 280.84C686.23 280.44 688.61 277.64 688.63 275.93C688.64 274.22 686.19 271.2 684.55 271.33C677.57 270.18 670.5 270.19 662.6 269.97M484.21 512.34C493.38 515.88 502.56 519.41 511.73 522.95C511.91 522.46 512.86 521.96 512.26 521.47C501.99 517.3 491.72 513.13 481.45 508.96C481.29 509.26 481.14 509.56 480.99 509.85C481.85 510.56 482.71 511.27 484.21 512.34M479.55 508.2C479.55 508.41 479.35 508.62 479.73 508.82C479.79 508.85 479.34 508.83 479.48 508.84C479.49 508.62 479.49 508.41 479.55 508.2z"/><path fill="#8DB8D6" opacity="1.000000" stroke="none" d="M930 698.49C934.49 695.73 938.97 691.53 943.8 687.93C956.34 689.67 968.31 692.47 979.15 698.57C984.84 701.78 984.87 706.56 978.79 708.79C968.56 712.54 958.38 716.85 947.33 717.78C925.56 721.23 903.63 723.82 881.68 725.95C858.72 728.17 835.67 729.64 812.64 731.43C796.52 732.51 779.43 732.76 762.82 732.98C721.87 733.51 680.91 733.99 639.96 733.87C615.18 733.79 590.39 733.21 565.65 731.71C540.79 730.39 515.95 728.46 491.18 725.97C466.93 723.52 442.74 720.4 418.64 716.8C410.21 715.54 402.86 712.28 393.94 709.3C391.58 708.43 388.43 705.25 388.55 703.32C388.7 701.14 391.79 698.77 394.2 697.32C406.19 693.55 418.38 690.42 431.15 687.33C435.25 699.93 443.61 706.31 455.51 709.12C470.18 712.6 485.11 713.44 500.51 712.53C512.19 711.79 524.39 709.49 534.19 701.79C542.36 695.59 546.45 686.71 551.39 677.96C561.95 677.73 572.99 677.57 582.22 677.8C575.46 697.41 583.66 714.55 604.77 716.38C622.77 717.95 640.99 717.82 659.84 717.29C674.53 716.85 687.34 711.43 696.79 698.91C697.47 698.57 697.61 698.46 698.29 698.24C698.41 697.91 698.79 697.58 699.18 697.25C700.43 699.31 701.43 701.7 702.97 702.54C713.32 712.43 725.17 719.79 739.7 721.54C751.75 722.41 762.55 721.85 774.37 722.34C785.84 722.76 796.93 723.44 808.71 723.18C823.21 722.84 838.4 721.79 854.92 721.12C861.28 720.16 867.99 719.14 875.15 718.18C887.52 717.67 898.8 714.51 910.22 709.85C910.54 709.56 910.78 709.27 911.11 708.99C911 708.99 910.99 709.1 911.36 709.27C915.18 707.55 918.79 706.34 922.35 704.49C924.9 702.86 927.36 700.52 930 698.49z"/><path fill="#EC9955" opacity="1.000000" stroke="none" d="M777.67 475.2C777.3 474.27 777.6 473.52 778.23 472.54C779.32 472.38 779.74 472.67 779.94 472.47C784.14 468.15 788.3 463.79 792.4 459.37C792.56 459.2 792.13 458.48 791.98 458.15C794.37 455.44 797.67 453.75 799.1 450.24C802.6 445.35 805.69 440.17 809.29 434.62C812.83 426.73 816.33 419.33 819.24 411.93C821.49 403.59 823.75 395.25 826.26 386.24C827.17 384.67 827.84 383.77 828.5 382.87C837.99 386.13 845.71 389.36 854.29 392.67C856.14 393.38 857.86 394.39 859.85 395.97C857.33 403.68 854.78 410.75 851.84 417.65C847.93 426.86 843.73 435.93 839.65 445.58C831.56 457.48 819.23 463.63 805.76 468.25C798.12 470.88 790.7 474.14 783.86 476.85C781.41 477.45 779.35 476.96 777.2 476.7C776.95 475.96 776.98 475.49 777.67 475.2z"/><path fill="#BA5E30" opacity="1.000000" stroke="none" d="M839.71 445.43C843.73 435.93 847.93 426.86 851.84 417.65C854.78 410.75 857.33 403.68 860.37 396.25C874.67 402.23 887.24 411.69 899.17 422.65C894.26 427.91 889.24 432.94 884.78 437.83C876.99 444.55 869.88 451.26 862.61 457.77C860.94 459.26 858.65 460.23 856.48 460.96C847.5 464.16 839.98 458.73 839.64 449.28C839.6 448.12 839.72 446.96 839.71 445.43z"/><path fill="#B45B2C" opacity="1.000000" stroke="none" d="M550.97 678.34C546.45 686.71 542.36 695.59 534.19 701.79C524.39 709.49 512.19 711.79 500.51 712.53C485.11 713.44 470.18 712.6 455.51 709.12C443.61 706.31 435.25 699.93 431.58 687.36C429.17 667.64 439.28 654.9 451.55 649.41C460.76 645.63 468.99 645.52 478.5 646.35C479.21 650.13 477.42 651.19 473.82 651.14C463.85 651.13 454.24 652.38 446.31 659.33C438.3 666.35 435.5 675.35 437.47 685.45C439.44 695.59 446.34 701.49 456.38 703.69C457.31 703.9 458.31 703.81 460.47 703.9C454.42 693.79 452.84 683.95 459.31 674.12C462.17 669.78 466.48 668.14 471.95 668.28C470.95 669.65 469.95 669.86 468.95 670.64C460.58 677.19 457.75 687.95 463.14 696.91C465.23 700.37 469.38 703.56 473.26 704.81C484.92 708.57 496.87 706.61 508.8 705.17C523.62 703.38 534.78 696.17 540.81 682.88C546.76 669.77 550.5 655.66 556.14 642.38C560.61 631.89 558.48 623.89 551.53 615.22C544.93 606.99 540.2 597.26 534.7 588.15C533.9 586.83 533.45 585.29 533.55 583.53C544.69 597.76 555.82 612 567 626.97C566.67 629.58 566.29 631.45 565.64 633.15C564.78 633.42 563.84 633.74 563.67 634.3C559.39 648.86 555.19 663.45 550.97 678.34z"/><path fill="#B95D2F" opacity="1.000000" stroke="none" d="M949.89 485.62C936.72 494.75 924.27 503.63 909.5 508.24C900.3 511.19 890.88 507.11 889.8 498.83C889.26 494.66 890.42 489.17 892.93 485.92C901.15 475.33 910.32 465.49 919.16 455.39C920.91 453.4 922.81 451.53 924.79 449.32C934.87 459.84 942.4 472.24 949.89 485.62z"/><path fill="#B75D31" opacity="1.000000" stroke="none" d="M610.58 177.93C608.33 192.77 605.73 207.46 603.34 222.13C602.46 225.22 601.67 228.29 600.7 231.28C599.29 235.6 596.43 237.72 591.58 237.52C587.87 237.32 584.36 234.84 583.11 230.42C582.19 226.43 581.31 221.6 581.1 217.15C580.51 204.7 580.27 192.24 579.8 179.3C589.87 178.48 600.36 178.13 610.58 177.93z"/><path fill="#B95D2F" opacity="1.000000" stroke="none" d="M828.31 382.44C827.84 383.77 827.17 384.67 826.25 385.8C807.91 388.2 789.84 390.39 771.75 392.51C768.71 392.87 765.64 392.94 762.58 393.15C762.5 392.4 761.52 391.65 760.99 390.89C762.43 390.19 763.87 389.49 765.31 388.79C785.33 379.15 805.33 369.47 827.4 363.95C827.9 369.96 828.12 375.99 828.31 382.44z"/><path fill="#B85C2F" opacity="1.000000" stroke="none" d="M646.54 183.65C644.26 189.79 641.43 196.27 639.81 202.91C637.27 208.45 636.24 213.46 634.5 218.62C632.67 224.56 628.9 226.61 624.67 225.87C620.46 225.14 617.43 221.46 618.46 215.66C619.31 203.71 621.33 191.83 623.46 179.53C630.77 180.38 638.49 181.63 646.54 183.65z"/><path fill="#B75D31" opacity="1.000000" stroke="none" d="M567.68 179.94C567.42 191.45 566.78 202.9 565.95 214.33C565.82 216.75 565.3 218.3 564.11 219.36C561.92 221.3 559.27 223.29 556.52 223.89C553.6 224.65 551.59 221.57 550.35 218.56C548.71 211.63 547.44 204.6 546.67 197.61C545.3 193.7 544.63 189.78 543.83 185.46C551.58 183.33 559.41 181.6 567.68 179.94z"/><path fill="#B45B2C" opacity="1.000000" stroke="none" d="M369.8 366.29C387.2 373.75 404.43 381.54 421.64 389.36C422.54 389.77 423.59 390.21 424.14 390.95C425.22 392.12 425.54 393.57 426.21 394.9C424.87 394.97 423.45 395.37 422.21 395.59C405.94 391.41 389.65 387.2 372.29 386.97C371.93 380.25 370.36 373.45 369.8 366.29z"/><path fill="#B45B2C" opacity="1.000000" stroke="none" d="M380.69 419.41C395.3 414.12 410.41 413.85 425.55 414.12C428.31 414.17 431.49 415.18 433.8 415.74C433.8 416.49 433.81 417.24 433.81 417.98C417.71 421.27 401.61 424.7 385.1 427.27C383.35 424.88 382.96 422.33 380.69 419.41z"/><path fill="#B85C2F" opacity="1.000000" stroke="none" d="M401.82 452.17C411.76 445.18 422.46 438.42 434.98 435.73C435.32 436.17 435.66 436.62 436 437.64C427.7 445.59 419.41 454.12 411.2 463.12C407.67 459.74 404.41 456.13 401.82 452.17z"/><path fill="#B45B2C" opacity="1.000000" stroke="none" d="M773.99 722.18C762.55 721.85 751.75 722.41 739.7 721.54C725.17 719.79 713.32 712.43 702.97 702.54C701.43 701.7 700.43 699.31 699.18 697.25C698.79 697.58 698.41 697.91 698.29 698.24C697.61 698.46 697.47 698.57 696.79 698.91C687.34 711.43 674.53 716.85 659.84 717.29C640.99 717.82 622.77 717.95 604.77 716.38C583.66 714.55 575.46 697.41 582.5 677.59C586.28 672.36 589.76 667.91 593.54 662.81C594.55 661.3 595.27 660.58 596.3 659.76C602.13 657.13 607.55 652.78 613.17 652.52C620.5 652.17 623.69 649.13 624.18 642.97C624.48 641.36 624.89 639.76 625.25 638.15C628.8 624.35 632.38 610.55 635.9 596.74C637.74 589.52 639.47 582.28 642.66 575.17C641.37 580.42 640.58 585.65 639.98 590.91C637.62 611.39 634.55 631.72 628.81 651.4C627.23 654.62 625.89 656.1 622.48 656.24C604.45 656.87 590.88 667.64 586.52 683.83C582.41 699.99 592.26 711.36 608.71 710.64C602.18 695.42 603.61 681.48 612.22 678.98C611.15 683.84 610.27 686.84 609.55 690.62C607.2 702.92 614.76 712.54 627.21 712.97C632.95 713.17 638.7 713.67 644.78 713.67C638.35 697.95 640.66 683.51 649.88 681.29C649.6 682.54 649.43 683.58 649.12 684.57C648.25 687.42 647.87 690.21 646.46 693.11C643.52 706.71 649.92 713.75 663.36 710.77C674.59 708.28 686.91 703.71 693.4 693.51C691.88 688.33 689.64 683.5 689.14 678.51C687.18 659.24 693.62 643.39 709.43 631.63C711.14 630.36 712.39 628.55 713.12 625.98C717.84 612.67 721.98 599.15 727.83 586C730.35 577.59 733.22 568.64 741.49 562.89C741.95 562.94 742.21 563.19 742.21 563.19C741.52 564.59 740.82 565.98 739.71 567.87C732.13 587.65 724.97 606.94 717.83 626.18C727.11 626 735.22 624.15 744.14 623.11C741.8 606.95 743.16 590.77 747.89 574.9C754.66 556.16 765.19 540.26 782.33 529.39C791.74 523.42 802.25 520.54 813.6 519.45C814.15 520.87 814.2 521.87 814.26 522.88C803.42 525.91 792.96 527.69 783.86 534C765.63 546.64 755.69 564.61 751.12 585.77C748.51 597.87 748.84 610.19 751.63 622.37C751.31 623.71 753.53 625.82 754.64 625.71C771.35 623.95 787.34 628.49 803.3 631.68C820.61 635.62 837.63 640.78 854.95 644.65C868.96 647.78 883.35 647.51 896.72 642.65C899.55 641.16 901.84 641.64 904.48 641.99C902.86 643.81 901.17 643.66 899.67 644.17C899.67 646.82 899.67 649.61 899.67 651.37C905.69 654.96 909.37 659.57 909.52 663.97C907.76 661.56 904.97 659.69 902.49 657.14C897.39 653.17 892.29 649.13 885.64 650.47C879.8 650.65 874.47 650.81 868.89 650.88C863.78 649.77 858.6 646.9 854.71 652.83C851.71 651.96 849.19 648.86 846.28 648.57C828.88 643.24 811.41 638.63 793.89 634.24C788.99 633.55 783.84 632.73 777.7 631.86C782.1 636.58 785.86 639.93 788.82 643.88C799.58 658.21 800.53 674.44 797.3 691.32C794.89 703.92 788.81 713.91 776.81 719.63C775.72 720.15 774.92 721.32 773.99 722.18M752.11 632.17C741.48 628.99 730.68 628.41 720.32 632.51C704.22 638.88 697.49 652.18 695.89 668.53C693.41 682.49 698.71 693.65 709.76 702.53C721.35 711.83 734.82 714.58 749.3 716.27C755.41 717.23 760.58 716.43 765.68 712.33C770.67 708.33 774.58 703.74 776.16 697.6C777.59 692.69 778.82 686.29 779.33 680.55C781.25 659.56 775.86 641.95 752.11 632.17z"/><path fill="#F7F5EC" opacity="1.000000" stroke="none" d="M487.22 304.63C512.82 308.69 532.77 331.68 531.87 357.52C531.66 382.93 512.4 404.47 486.7 408.64C459.37 411.88 434.66 396.25 427.31 370.49C419.12 341.79 438.45 310.45 467.97 305.18C474.94 304.92 480.52 304.69 487.22 304.63M511.27 378.7C518.51 368.63 520.9 357.63 515.9 346.6C512.28 336.55 505.75 328.87 494.46 327.73C483.99 326.68 476.5 331.63 471.46 340.39C465.64 350.53 465 361.38 469.28 372.98C476.86 391.89 497.91 394.58 511.27 378.7z"/><path fill="#F7F5EC" opacity="1.000000" stroke="none" d="M746.84 328.18C768.41 359.44 749.15 402.33 711.71 407.93C681.5 412.44 656.2 395.37 650.56 365.67C644.13 330.67 673.19 303.98 699.54 303.82C719.63 303.7 735.24 311.44 746.84 328.18M672.92 382.59C682.73 391.37 695.73 391.21 705.22 382.19C716.77 371.2 718.14 350.77 708.19 337.9C696.21 322.41 675.15 324.5 666.86 342.26C660.18 356.57 661.97 371 672.92 382.59z"/><path fill="#E17641" opacity="1.000000" stroke="none" d="M479.22 185.77C484.71 191.49 489.94 196.96 495.96 203.26C472.62 212.86 451.9 225.37 433.31 242.58C432.77 210.77 433.94 180.59 437.28 148.95C453.83 160.2 465.47 173.52 479.22 185.77z"/><path fill="#E17540" opacity="1.000000" stroke="none" d="M716.76 177.76C727.63 167.6 738.24 157.69 748.86 147.78C749.35 148.6 749.84 148.34 750.33 148.63C753.69 178.12 754.83 207.7 753.7 238.68C735.4 222.48 714.92 211.82 693.52 201.78C701.61 193.42 709.61 185.72 716.76 177.76z"/><path fill="#E7878A" opacity="1.000000" stroke="none" d="M586.82 417.58C577.4 412.84 568.77 408.55 563.45 399.91C562.62 397.65 560.6 395.39 559.6 392.95C558.39 389.13 559.66 384.36 563.51 382.84C579.73 376.42 596.23 374.64 612.9 381.17C616.75 382.68 618.32 387.49 616.45 392.91C612.59 404.23 605.78 412.32 593.67 415.56C592.87 415.24 592.1 415.59 590.68 415.94C588.71 416.37 587.4 416.71 586.82 417.58z"/><path fill="#B85C2F" opacity="1.000000" stroke="none" d="M909.8 664.14C909.37 659.57 905.69 654.96 899.67 651.37C899.67 649.61 899.67 646.82 899.67 644.17C901.17 643.66 902.86 643.81 904.78 642.24C906.88 642.76 908.75 643.55 910.83 644.98C914.64 647.4 917.91 649.18 920.12 650.96C920.43 651.37 920.67 651.21 920.94 652.56C922.28 653.76 923.53 654.88 924.79 655.99C933.34 666.39 932.7 678.57 931.46 690.83C931.23 693.11 930.5 695.33 930 698.34C927.36 700.52 924.9 702.86 922.35 704.49C918.79 706.34 915.18 707.55 911.33 708.64C916.38 696.14 916.12 683.73 912.94 670.85C912.63 670.23 912.32 669.51 911.96 668.84C911.91 668.67 911.92 668.31 911.86 668.45C911.54 667.52 911.29 667.27 910.98 666.83C910.92 666.64 910.91 666.25 910.92 665.92C910.58 665.75 910.24 664.56 909.89 664.82C909.88 664.12 909.8 664.14 909.8 664.14z"/><path fill="#B85C2F" opacity="1.000000" stroke="none" d="M818.84 411.81C816.33 419.33 812.83 426.73 809.29 434.28C791.81 429.98 774.63 425.61 757.53 420.97C755.25 420.35 753.34 418.35 751.26 416.99C753.58 416.34 755.86 415.54 758.21 415.63C764.42 413.81 770.63 412.49 776.9 411.57C790.73 409.53 804.6 408.92 818.84 411.81z"/><path fill="#EB9651" opacity="1.000000" stroke="none" d="M747.62 574.7C743.16 590.77 741.8 606.95 744.14 623.11C735.22 624.15 727.11 626 717.83 626.18C724.97 606.94 732.13 587.65 739.56 568.17C742.34 570.16 744.85 572.34 747.62 574.7z"/><path fill="#5D4026" opacity="1.000000" stroke="none" d="M585.99 417.4C587.4 416.71 588.71 416.37 590.31 416.99C594.84 429.87 611.99 439.46 625.68 435.66C631.58 434.17 635.15 431.83 637.16 425.54C637.67 424.13 639.19 423.94 640.24 421.89C641.14 423.69 642.68 425.67 642.36 427.26C640.96 434.18 636.34 438.66 629.77 440.87C617.51 445.14 605.89 441.63 595.86 433.45C593.16 431.25 590.64 428.83 587.96 426.44C582.65 433.28 576.12 439.92 566.95 441.36C556.87 443.85 547.22 443.35 539.9 434.99C537.7 432.49 537.44 428.53 536.87 425.13C535.9 424.45 537.39 422.94 538.42 422.43C538.91 422.19 540.72 423.27 540.9 424C542.44 430.36 546.64 434.25 552.64 435.74C559.5 437.44 566.16 435.93 572.37 432.53C578.57 429.13 583.17 424.3 585.99 417.4z"/><path fill="#EC9955" opacity="1.000000" stroke="none" d="M624.81 638.11C624.89 639.76 624.48 641.36 624.18 642.97C623.69 649.13 620.5 652.17 613.17 652.52C607.55 652.78 602.13 657.13 596.26 659.42C589.96 652.46 584.19 645.74 577.91 638.72C574.84 634.94 571.93 631.46 569.25 627.98C572.95 629.38 575.15 630.81 578.24 632.17C585.67 635.43 592.44 640.57 601.2 640.44C602.82 639.95 604.49 640.61 606.11 640.49C610.29 640.18 614.46 639.68 618.62 639.16C620.56 638.91 622.46 638.43 624.81 638.11z"/><path fill="#B85C2F" opacity="1.000000" stroke="none" d="M791.67 457.86C792.13 458.48 792.56 459.2 792.4 459.37C788.3 463.79 784.14 468.15 779.94 472.47C779.74 472.67 779.32 472.38 778.26 472.24C767.47 461.17 756.99 449.87 746.5 438.73C746.99 438.28 747.47 437.33 747.95 436.62C762.82 442.77 777.4 449.54 791.67 457.86z"/><path fill="#A2532B" opacity="1.000000" stroke="none" d="M498.43 268.98C505.18 269.35 511.5 269.5 517.77 270.17C523.94 270.83 526.52 273.75 526 278.6C525.52 282.94 521.24 285.67 515.76 284.83C509.54 283.88 503.33 282.74 497.14 281.54C493.86 280.9 490.94 279.58 491.29 275.43C491.63 271.41 493.65 268.95 498.43 268.98z"/><path fill="#A2532B" opacity="1.000000" stroke="none" d="M663.31 269.93C670.5 270.19 677.57 270.18 684.55 271.33C686.19 271.2 688.64 274.22 688.63 275.93C688.61 277.64 686.23 280.44 684.45 280.84C677.52 282.52 669.51 283.71 661.97 284.6C658.21 285.45 655.26 281.64 655.77 277.62C654.71 272.85 656.64 270.91 663.31 269.93z"/><path fill="#A2532B" opacity="1.000000" stroke="none" d="M776.66 475.11C776.98 475.49 776.95 475.96 776.82 476.62C763.71 484.77 750.96 493.18 737.62 500.53C730.47 504.47 722.32 506.58 714.62 509.51C714.47 509.13 714.31 508.76 714.16 508.38C719.61 506.14 725.29 504.65 730.46 501.21C743.82 493.83 756.94 486.32 770.17 478.43C772.18 477.28 774.26 476.27 776.66 475.11z"/><path fill="#A2532B" opacity="1.000000" stroke="none" d="M814.47 522.9C814.2 521.87 814.15 520.87 814.18 519.49C828.74 517.44 841.53 519.53 854.42 525.47C841.32 523.1 828.25 520.91 814.47 522.9z"/><path fill="#E17540" opacity="1.000000" stroke="none" d="M568.78 627.86C571.93 631.46 574.84 634.94 577.7 638.98C576.84 640.39 574.51 641.25 572.65 641.94C570.22 638.95 568.68 636.13 565.92 633.32C566.29 631.45 566.67 629.58 567.96 627.3C567.61 627.18 568.74 627.46 568.78 627.86z"/><path fill="#A2532B" opacity="1.000000" stroke="none" d="M483.89 512.16C482.71 511.27 481.85 510.56 480.99 509.85C481.14 509.56 481.29 509.26 481.45 508.96C491.72 513.13 501.99 517.3 512.26 521.47C512.86 521.96 511.91 522.46 511.73 522.95C502.56 519.41 493.38 515.88 483.89 512.16z"/><path fill="#B45B2C" opacity="1.000000" stroke="none" d="M919.94 650.67C917.91 649.18 914.64 647.4 911.45 645.23C913.96 646.69 916.86 648.53 919.94 650.67z"/><path fill="#B45B2C" opacity="1.000000" stroke="none" d="M924.68 655.7C923.53 654.88 922.28 653.76 921.34 652.26C922.22 653.62 923.39 654.24 924.68 655.7z"/><path fill="#A2532B" opacity="1.000000" stroke="none" d="M479.27 508.2C479.49 508.41 479.49 508.62 479.48 508.84C479.34 508.83 479.79 508.85 479.73 508.82C479.35 508.62 479.55 508.41 479.27 508.2z"/><path fill="#B45B2C" opacity="1.000000" stroke="none" d="M741.83 562.81C741.98 562.77 742.25 562.85 742.37 563.61C742.21 563.19 741.95 562.94 741.83 562.81z"/><path fill="#F5AB62" opacity="1.000000" stroke="none" d="M774.37 722.34C774.92 721.32 775.72 720.15 776.81 719.63C788.81 713.91 794.89 703.92 797.3 691.32C800.53 674.44 799.58 658.21 788.82 643.88C785.86 639.93 782.1 636.58 777.7 631.86C783.84 632.73 788.99 633.55 793.89 634.24C811.41 638.63 828.88 643.24 846.28 648.57C849.19 648.86 851.71 651.96 854.84 653.14C857.98 658.31 861.25 662.78 863.27 667.75C867.17 677.35 866.73 687.61 865.76 697.65C864.86 706.88 861.86 715.44 853.6 721.47C838.4 721.79 823.21 722.84 808.71 723.18C796.93 723.44 785.84 722.76 774.37 722.34z"/><path fill="#F5AB62" opacity="1.000000" stroke="none" d="M912.94 671.16C916.12 683.73 916.38 696.14 910.96 708.62C910.99 709.1 911 708.99 910.73 709.16C910.21 709.32 909.95 709.59 909.7 709.86C898.8 714.51 887.52 717.67 875.33 717.85C876.51 715.94 877.83 714.43 878.72 712.89C890.36 693.82 886.35 666.49 869.17 651.18C874.47 650.81 879.8 650.65 885.64 650.47C892.29 649.13 897.39 653.17 902.49 657.14C904.97 659.69 907.76 661.56 909.52 663.97C909.8 664.14 909.88 664.12 909.9 664.4C910.25 665.2 910.58 665.73 910.91 666.25C910.91 666.25 910.92 666.64 911.52 667.88C911.43 667.79 911.67 668.54 911.92 668.31C911.92 668.31 911.91 668.67 911.98 669.14C912.35 670.13 912.65 670.65 912.94 671.16z"/><path fill="#B85C2F" opacity="1.000000" stroke="none" d="M868.89 650.88C886.35 666.49 890.36 693.82 878.72 712.89C877.83 714.43 876.51 715.94 874.86 717.78C867.99 719.14 861.28 720.16 854.92 721.12C861.86 715.44 864.86 706.88 865.76 697.65C866.73 687.61 867.17 677.35 863.27 667.75C861.25 662.78 857.98 658.31 855.14 653.31C858.6 646.9 863.78 649.77 868.89 650.88z"/><path fill="#E2EFF6" opacity="1.000000" stroke="none" d="M565.64 633.15C568.68 636.13 570.22 638.95 572.76 642.25C574.78 644.61 576.24 646.65 578.36 648.33C583.28 653.18 588.16 657.55 593.23 662.15C589.76 667.91 586.28 672.36 582.53 677.2C572.99 677.57 561.95 677.73 551.39 677.96C555.19 663.45 559.39 648.86 563.67 634.3C563.84 633.74 564.78 633.42 565.64 633.15z"/><path fill="#B85C2F" opacity="1.000000" stroke="none" d="M910.22 709.85C909.95 709.59 910.21 709.32 910.74 709.17C910.78 709.27 910.54 709.56 910.22 709.85z"/><path fill="#F5AB62" opacity="1.000000" stroke="none" d="M752.48 632.32C775.86 641.95 781.25 659.56 779.33 680.55C778.82 686.29 777.59 692.69 776.16 697.6C774.58 703.74 770.67 708.33 765.68 712.33C760.58 716.43 755.41 717.23 749.3 716.27C734.82 714.58 721.35 711.83 709.76 702.53C698.71 693.65 693.41 682.49 695.89 668.53C697.49 652.18 704.22 638.88 720.32 632.51C730.68 628.41 741.48 628.99 752.48 632.32z"/><path fill="#EB9651" opacity="1.000000" stroke="none" d="M593.54 662.81C588.16 657.55 583.28 653.18 578.36 648.33C576.24 646.65 574.78 644.61 573.5 642.42C574.51 641.25 576.84 640.39 577.87 639.27C584.19 645.74 589.96 652.46 595.94 659.52C595.27 660.58 594.55 661.3 593.54 662.81z"/><path fill="#583E2B" opacity="1.000000" stroke="none" d="M511.62 378.99C497.91 394.58 476.86 391.89 469.28 372.98C465 361.38 465.64 350.53 471.46 340.39C476.5 331.63 483.99 326.68 494.46 327.73C505.75 328.87 512.28 336.55 515.9 346.6C520.9 357.63 518.51 368.63 511.62 378.99z"/><path fill="#583E2B" opacity="1.000000" stroke="none" d="M672.67 382.34C661.97 371 660.18 356.57 666.86 342.26C675.15 324.5 696.21 322.41 708.19 337.9C718.14 350.77 716.77 371.2 705.22 382.19C695.73 391.21 682.73 391.37 672.67 382.34z"/><path fill="#B45B2C" opacity="1.000000" stroke="none" d="M910.92 665.92C910.58 665.73 910.25 665.2 909.91 664.36C910.24 664.56 910.58 665.75 910.92 665.92z"/><path fill="#B45B2C" opacity="1.000000" stroke="none" d="M912.94 670.85C912.65 670.65 912.35 670.13 912.31 669.31C912.32 669.51 912.63 670.23 912.94 670.85z"/><path fill="#B45B2C" opacity="1.000000" stroke="none" d="M911.86 668.45C911.67 668.54 911.43 667.79 911.11 667.27C911.29 667.27 911.54 667.52 911.86 668.45z"/></svg>