<svg xmlns="http://www.w3.org/2000/svg" xml:space="preserve" style="background:0 0" viewBox="0 0 1328 800"><path fill="#f5aa5e" d="M613.92 112.4c3.75-.42 7.5-.85 11.73-.83 1.12 7.88 1.55 15.34 2.45 22.74.78 6.4 2.46 13.53 3.24 19.08 1.57 3.57 3.94 5.54 7.11 4.9 2.42-.49 4.83-2.85 6.45-4.98 1.31-1.73 1.56-4.33 2.08-6.58 2.68-11.8 5.3-23.6 7.95-35.41 3.45.3 6.91.59 10.76 1.37-1.33 10.42-3.22 20.49-4.48 30.3-.77 4 .26 7.97 5.08 8.84 4.85.86 6.27-2.85 7.67-6.31 3.88-9.55 7.71-19.13 11.56-28.69 8.35 3.96 12.38-1.95 17.08-7.14 19.81-21.89 40.76-42.52 66.13-58.08 7-4.3 10-3.45 11.93 5.28 4.26 16.69 8.21 34.37 11.19 52.96 4.13 23.9 4.55 48.86 4.56 73.85 0 4.41 3.28 8.86 5.71 12.89 10.99 18.18 18.48 37.53 20.42 59.32-17.19 4.26-33.42 9.31-48.71 16.37.62 4.3 3.69 3.52 6.65 3.27 14.16-1.17 28.33-2.27 42.5-3.4-1.41 7.09-2.82 14.18-4.83 21.54-8.29-.98-15.92-2.55-23.64-3.4-7.24-.8-14.55-.94-21.84-1.15-1.18-.03-2.39 1.1-2.86 1.69.61.98 1.03 2.34 2.59 2.85 1.39.79 3.45.93 5.37 1.45 12.89 3.29 24.58 6.61 36.87 10.39-3.4 5.44-6.8 11.35-10.87 17.38-11.8-6.34-22.59-13.51-35.41-16.57.16 1.34.58 2.21 1.22 2.88 6.75 7.11 13.57 14.15 20.29 21.3 1.31 1.4 2.25 3.16 3.37 4.76-4.03 4.18-7.91 8.51-12.12 12.49-2.62 2.47-5.73 4.4-9.15 6.9-2.28 1.3-4.05 2.29-6.2 3.29-3.78 1.68-7.13 3.45-10.57 5.02-10.27 4.71-20.58 9.35-30.87 14.02.01.14.03.29.04.44 5.87-1.53 11.75-3.06 18.13-4.23 9.04 4.5 18.3 9.11 27.96 12.61 6.9 2.5 14.35 3.52 21.43 5.52-2.21 3.89-4.73 7.29-6.26 11.08-1.34 3.34-1.92 7.22 1.57 10.18 2.99 2.87 6.72 3.23 10.49 1.55 3.13-.35 4.74-2.45 6.74-4.02 5.46-4.68 10.73-9.49 16.08-14.2 6.82 7.39 13.64 14.79 20.29 22.74-5.38 6.99-10.37 13.29-14.99 19.89-2.33 2.71-4.49 5.94-5.33 9.19-2.01 7.69 2.86 13.79 10.75 13.13 4.11-.34 8.36-1.92 12.05-3.88 6.11-3.26 11.82-7.28 17.71-10.85 6.39 11.12 12.79 22.37 18.91 34.22-7.44 7.27-14.65 13.91-21.76 20.75-2.88 2.62-4.84 5.75-3.47 10.03 1.64 4.29 5.05 6.13 9.44 5.85 4.27-.27 8.59-.65 12.76-1.57 5.32-1.18 10.5-2.94 15.74-4.45 3.1 10.98 6.94 21.81 9.15 32.97 5.55 28.55 6.48 56.53 1.93 84.84-3.38 20.99-9.92 41.03-23.18 58.92-5.07 4.91-9.74 9.85-13.55 13.93 2.44-12.95 2.7-24.4-4.85-35.2-2.42-3.04-5.86-6.76-10.4-5.1-10.08 4.4-20.23 4.59-31.01 2.56-6.04-1.51-11.88-2.58-17.51-4.33-17.54-5.46-34.82-7.86-53.4-2.57-.23-.06-.68-.17-.15-.46-.92-.76-1.22-1.24-.78-2.09-6.02-13.76-7.3-27.64-7.05-41.93.53-12.85 11.59-29.29 27.7-26.58 1.45.24 3.16.51 4.44-.01 2.38-.94 5.7-1.95 6.51-3.17 1.41-3.98-1.17-6.48-4.3-8-11.96-5.81-22.42-3.26-29.77 7.66-.43-.43-.58-.56-.61-.98 2.89-23.49 11.99-43.29 30.96-57.54 14.88-11.18 31.63-16.06 50.22-12.62 4.89.9 9.57 2.97 14.35 4.5a94 94 0 0 0-.13-1.6c-28.89-16.17-53.46-6.29-76.62 14.18 1.22-16.12 4.63-31.23 1.6-46.56-1.55 5.95-1.85 12.07-3.2 17.94-3.41 14.86-6.16 30.03-11.33 44.54-5 13.55-9.98 27.22-12.65 41.66-4.04 21.88-8.01 43.77-12.02 65.64-2.66 14.72-5.34 28.91-8.04 43.35-.14.8-.34 1.69.08 2.29-4.59 4.57-8.36 9.08-12.43 13.75-6.02 1.88-11.63 3.89-17.4 5.25-5.62 1.33-9.58-1.34-10.94-6.48-1.59-7.47-1.01-14.17 2.2-20.53.68-1.35 1.25-2.75 1.87-3.49-.48-1-.97-1.36-1.45-1.72-1.59 1.64-3.72 3.13-4.68 4.98-4.85 9.81-4.55 19.69 1.2 29.73-8.77.43-17.26 1.87-23.42-4.51-8.41-8.73-7.12-19.28-3.34-29.98-6.32 3.1-6.67 8.93-7.28 14.52.23 5.72 2.21 11.38 3.4 16.99-10.05-1.77-16.94-10.43-17.91-20.6-.36-14.02 7.96-25.67 21.47-30.29 1.82-.62 4.36-2.4 4.59-3.94 2.58-17.08 4.99-34.19 7.01-51.35 2.61-17.99 3.91-36.02 5.57-54.06 1.15-12.51 1.81-25.05 2.69-37.59-.91.38-1.34.88-1.41 1.42-4.63 34.22-9.23 68.44-14.25 102.67-10-.64-17.68-5.51-25.72-10.26-11.93-7.05-20.34-17.1-28-28.15-.09-1.01-1.79-1.74-2.63-2.97-1.54-3.83-2.9-7.28-4.47-11.28-.53 1.42-.8 2.16-1.36 3.67-1.75-2.48-3.11-4.48-4.64-6.62-6.53-10.53-13.01-21.09-18.88-31.98-6.06-7.74-11.33-15.16-16.67-22.83-.32-.87-.56-.91-.8-2.12l-1.1 1.16c.46.61.93 1.22 1.49 2.16 4.87 8.62 9.64 16.91 14.5 25.53 8.37 14.1 15.68 27.82 23.33 41.64 1.24 2.25 2.32 4.93 2.37 7.43.48 25.14 1.28 50.29.84 75.43-.11 10.2-1.19 20.5-3.9 30.5-.88 4.09-4.23 8.54-7.75 10.99-8.6 6.02-18.67 8.45-29.19 8.87-9.54.39-13.62-2.46-14.59-12.28-.09-2.97.86-6.17 2.22-9.15 1.2-5.72 5.95-8.3 12.29-10.17-5.51-2.83-9.25-.86-12.04 1.74-9.38 8.98-8.99 19.23-3.66 30.5-8.73.74-16.82.99-22.47-5.67-9.52-11.21-3.41-21.53 2.89-32-2.6 1.02-5.01 2.17-5.7 4.05-7.42 8.6-8.38 18.06-3.32 28.52-10.55-4.92-15.55-16.01-12.95-26.22 2.41-8.8 8.8-14.68 16.79-20.48 1.47-.55 2.62-1.07 4.1-1.7 1.4-.45 2.47-.81 3.87-1.18.77.06 1.2-.17 2.07-.23 11.29.02 22.16.02 33.03.02-7.81-5.33-16.93-3.97-25.5-6.32-1.11-19.46-2.2-38.1-3.24-58.03-1.41-13.76-2.46-27.14-4.45-40.39-2.59-17.31-5.92-34.52-8.93-51.77-1.39-9.51-3.18-18.98-4.08-28.53-2.34-24.7-2.51-49.44 1.49-74.07.86-11.16 3.04-22.25 5.52-33.24 1.08-4.76.6-7.24-4.09-9.79-13.25-7.22-24.52-17-33.64-29.47 8.21-5.73 16.28-10.99 24.33-15.98 1.77-1.44 3.49-2.68 5.95-3.89-1.02-.61-1.31-1.23-1.61-1.85-3.55.95-7.26 2.42-10.64 2.92-8.11 3.34-16.07 7.05-24.1 10.61-3.09-5.43-6.18-10.86-8.89-16.68 14.13-3.43 27.9-6.43 41.61-9.62 1.46-.34 2.65-1.81 3.97-2.34-.21-.99-.41-1.57-.61-2.15-16.19-.57-32.06 2.28-47.87 5.67-1.47-6.74-2.94-13.48-3.93-20.67 5.77-.74 11.11-1.6 17.03-.32 7.72-.27 16.05 1.26 24.44 2.16 1.47.15 3.08-.93 4.63-1.43-1.21-1.14-2.22-2.52-3.65-3.34-3.32-1.49-6.77-2.77-10.28-3.73-10.17-2.99-21.7-5.78-32.56-8.65 1.79-23.82 10.8-44.6 23.23-65.05 2.05-3.3 3.34-7.66 3.34-11.54.05-37.54 3.47-74.68 12.31-111.26.95-4.84 2.43-9.62 4.1-14.31 2.51-7.09 5.42-8.27 11.5-4.09 9.17 6.72 18.28 12.74 26.93 19.73 16.73 13.5 32.05 28.5 45.79 45.09.84 1.01 3.11 1.34 4.63 1.17 2.6-.28 5.14-1.19 8.18-1.41 3 10.62 5.34 19 8.24 28.14.6 1.87 3.69 4.41 5.04 4.27 2.29-.2 5.09-2.13 6.71-4.15 1.06-2.21 1.62-5.41 1.41-8.09-.65-8.05-1.84-16.07-2.83-24.1m88.04 552.97c-.74.02-.63.04-.51.06-.06-.23-.12-.45-.32-.9-6.98-6.36-22.77-8.42-29.2-4.72 9.45 1.73 19.21 3.52 30.03 5.56m-61.34-373.09c4.75-3.41 10.04-5.97 14.08-9.84 3.57-3.27 5.74-8.7 3.81-13.71-1.8-3.79-6.73-5.62-11.33-5.15-7.39-.76-14.81-.99-21.5.28-9.17-.2-11.95 4.75-8.03 12.63 1.24 2.23 1.73 5.43 3.58 6.06 4.48 4.34 9.37 6.58 13.92 10.89-3.44 7.96-9.7 13.12-18.49 15.15-8.52.94-15.4-2-18.95-10.64-.25-.62-1.86-1.33-2.34-1.07-.8.44-1.72 1.65-1.67 2.48.1 1.43.72 2.91 1.43 4.19 4.36 7.12 12.43 11.11 20.81 9.89 9.33-.5 16.31-6.29 21.66-14.47 5.03 8.19 12.15 12.93 21.35 14.45 9.25 1.54 20-2.62 22.24-10.92.8-2.52 1.55-5.09-2.47-5.51-3.52 8.85-10.5 12.95-20.31 11.12-9.1-1.69-15.61-6.97-17.79-15.83m112.02-11.14c19.46-16.31 19.09-45.01-.81-62.52-12.12-10.66-29.02-13.21-43.84-6.03-16.51 8.52-24.26 23.1-23.53 39.25.73 16.28 8.93 28.83 23.91 35.31 15.22 6.59 30.27 5.16 44.27-6.01m-237.83-50.8c-7.85 14.05-7.86 28.28 1.03 41.53 10.08 15.03 24.66 21.37 42.76 18.02 17.97-3.32 29.86-16.59 32.82-36.12 2.21-14.52-7.29-32.32-21.51-39.83-20.22-10.77-42.3-4.42-55.1 16.4M775 147.51c-.61-21.88-1.83-43.71-5.46-66.04-19 14.36-32.88 31.44-46.14 48.52 17.3 12.9 34.02 23.8 51.6 36.83zm-271-21.95v40.19c.58-.3 1.21-.5 1.68-.89 14.65-12.37 30.43-23.04 47.43-31.91 2.85-1.49 2.58-3.31.25-5.2-11.05-12.58-22.54-25.26-34.01-37.32-2.6-3.2-6.07-5.21-9.97-8.24-1.25 8.03-2.47 14.98-2.91 21.67-1.29 6.9-1.8 13.84-2.47 21.7m202.57 59.07c-5.02 1.09-10.21 1.7-15.01 3.62-4.72 1.44-5.14 5.89-4.36 10.24.43 2.41 1.79 3.8 4.64 2.7 3.39-1.31 6.92-2.25 10.31-3.54 6.2-2.36 7.69-6.18 4.42-13.02m-122.97 4.26c-3.2-1.31-6.34-2.41-9.63-3.64-2.33-1.13-6.2-1.6-7.46 2.29-1.2 3.71-.29 7.02 3.44 8.86 3.56 1.77 7.23 3.35 10.92 4.84 4.5 2.19 7.48-.07 6.94-4.88-.27-2.47-2.3-4.76-4.21-7.47m-49.2 179.29c-4.22-1.84-8.44-3.68-12.66-5.51-.22.55-.44 1.1-.02 1.66 8.63 3.82 17.28 7.65 26.24 11.47.24-.57.49-1.14.73-.98-4.54-2.59-9.08-4.44-14.29-6.64"/><path fill="#91b8d3" d="M866.94 701.5c3.83-3.95 8.5-8.89 13.46-13.13 5.74.91 11.3 1.93 16.8 4.55 6.54 1.45 13.3 3.89 19.61 7.41 5.13 2.33 5.11 5.24.49 9.65-2.45 1-5.39 2.4-8.31 3.49-17.69 7.18-36.1 10.22-54.76 12.4-22.74 2.66-45.54 4.83-68.35 6.9-8.76.8-17.6.97-26.41 1.05-45.78.41-91.56 1.5-137.34.85-24.72-.2-49.49-1.77-74.13-3.94-31.39-2.77-62.81-5.93-93.26-14.82-4.62-1.35-9.27-2.44-13.51-5.07-2.11-1.16-4.87-3.97-4.92-6.08-.04-1.94 2.83-5.07 5-5.48 13.14-3.82 26.44-7.71 40.01-10.68 2.25-1.21 4.95-1.28 8.1-1.21.71 1.49.9 2.56.98 4.01 1.41 4.27 2.93 8.15 4.51 12.32.72.95 1.38 1.62 2.31 2.55.18.43.47.6.77.99.01-.26-.04.05.94.04-.14.5.4.95.93.9-.02-.05-.1.03.02.33 1.07.79 2.02 1.26 3 1.68.02-.06-.11-.07 0 .26 1.78 1.07 3.44 1.81 5.11 2.67.01-.14-.01.09.15.14.73.4 1.3.54 2.51.71-.09.53-.31-.01-.4.26 2.06 1.18 3.89 1.22 5.97 2.3.59-.4.93-.41 1.61-.17 13.7.53 27.06.99 40.42.96 3.69-.01 7.38-1.44 11.26-2.19.18.02.73-.16.85.11.92-.53 1.5-.82 2.24-1.07.15.05.4.41.74.44.92-.87 1.51-1.18 2.25-1.47.16.02 1.03-.17.75-.17 1.46-.65 2.58-1.3 3.87-1.82.27-.17.05.25.11-.19.57-.33.85-.6 1.3-.86.16 0 .62-.21.65-.26.56-.21.94-.47 1.2-.55.4-.07.06.57-.1.12 1.09-1.09 1.87-1.75 2.75-1.72-.12-.71-.02-.45.14-.76.42-.37.6-.65.89-.46-.15-.19.03-.18.18-.6 2.11-3.4 3.91-6.65 5.8-10.03.09-.11.01-.38.29-.64 1.47-4.44 3.37-8.62 4.34-12.67 9.4.6 19 1.08 27.21 1.96-4.86 20.11 7.37 34.42 25.19 37.16 15.09 2.32 30.24 2.63 45.11-.95 5.89-1.31 11.25-5.01 17.62-7.06-.31-.26-.48-.54-.56-.18.53-.8 1.67-1.1 1.31-1.53 2.57-2.4 4.83-5.65 7.28-8.63 1.34 1.62 2.61 3.52 3.39 4.18 4.07 7.42 10.87 11.07 18.57 13.14 11.75 3.17 23.69 5.22 36.43 4.49 8.16-.34 15.83-.66 23.98-.97 7.15-1.03 13.82-1.27 20.93-2.41 8.57-3.15 16.72-5.64 25.07-8.15.46-.16.63-.37.71-.64-.02 0-.06.01.28-.08 5.5-3.55 10.66-7.61 16.66-11.38"/><path fill="#b25725" d="M570.24 714.99s-.55.18-.85.12c-10.54.58-20.07 1.54-29.62 1.79-7.41 1.06-14.85-.48-22.27-.77-.35.01-.69.02-1.51-.35-2.29-.85-4.12-1.33-5.65-1.8 0 0 .22.54-.51-.23.08-.41-1.3-.57-1.85-.52 0 0 .02-.23-.17-.49-1.81-1.03-3.43-1.82-5.04-2.6 0 0 .13.01.03-.28-1.09-.73-2.06-1.18-3.04-1.63 0 0 .08-.08-.01-.33.11-.45-1.23-.66-1.8-.59 0 0 .05-.31-.07-.52-.39-.39-.66-.58-.94-.65-.65-.8-1.31-1.47-2.01-2.83a206 206 0 0 0-4.43-12.06c-.18-1.3-.37-2.37-.66-3.83-.02-.57.06-.73.63-1.27 1.12-3.78 1.75-7.19 2.39-10.6 0 0-.02-.34.45-.21 1.13-1.86 2.66-2.35 2.45-4.62 0 0 .06.12.74.04.03-.62.28-1.16.81-1.13 0 0-.31.2-.07-.74.49-.34.66-.62.74-.94 0 0 .42.05.35.01 2.64-1.68 3.22-3.33 4.66-4.97 0 0 .01.01.36.01 1.1-.7 1.85-1.4 2.6-2.09 0 0 .03.08.38.08 1.81.34 3.27.69 5.22 1.27-8.17 5.53-14.56 11.41-16.97 20.21-2.6 10.21 2.4 21.3 12.95 26.22-5.06-10.46-4.1-19.92 3.32-28.52.69-1.88 3.1-3.03 5.7-4.05-6.3 10.47-12.41 20.79-2.89 32 5.65 6.66 13.74 6.41 22.47 5.67-5.33-11.27-5.72-21.52 3.66-30.5 2.79-2.6 6.53-4.57 12.04-1.74-6.34 1.87-11.09 4.45-12.29 10.17-1.36 2.98-2.31 6.18-2.22 9.15.97 9.82 5.05 12.67 14.59 12.28 10.52-.42 20.59-2.85 29.19-8.87 3.52-2.45 6.87-6.9 7.75-10.99 2.71-10 3.79-20.3 3.9-30.5.44-25.14-.36-50.29-.84-75.43-.05-2.5-1.13-5.18-2.37-7.43-7.65-13.82-14.96-27.54-22.99-41.71.71-1.43 1.17-2.47 1.62-3.5 6.49 10.56 12.97 21.12 19.5 31.65 1.53 2.14 2.89 4.14 4.64 6.62.56-1.51.83-2.25 1.36-3.67 1.57 4 2.93 7.45 4.3 12.05.28 3.29.8 6.09.78 8.89-.17 18.13-.37 36.26.21 54.39-1.2 12.46-1.74 24.91-2.5 37.46-1.34 4.52-2.33 9.44-3.32 13.37 0 0 .08.27-.32.72-2.2 3.34-4 6.58-5.64 10.11 0 0-.18-.01-.39-.2-.49.31-.68.58-.69 1.15 0 0-.1-.26-.45.36-1.09.09-1.85.78-2.12 2.26 0 0 .34-.64-.71-.77-.47.25-.68.49-.58.8 0 0-.46.21-.92.26-.74.32-1.02.6-1.06 1.25 0 0 .22-.42-.57-.08-1.44.37-2.56 1.01-3.07 1.65 0 0-.87.19-1.38.15-1.09.28-1.66.6-2.24 1.46 0 0-.25-.36-.75-.43-1.07.22-1.65.52-2.01.82"/><path fill="#ea934c" d="M792.9 391.35c-8.09-2.02-15.54-3.04-22.44-5.54-9.66-3.5-18.92-8.11-28.18-12.86 3.07-1.84 6.2-2.69 9.61-4.36 4.37-3.32 9.26-7.08 14.27-10.65 1.76-.99 3.53-1.98 5.66-3 10.29 7.67 20.53 15.37 29.99 23.63-3.37 5.32-6.59 8.89-8.91 12.78"/><path fill="#b25725" d="M654.54 111.17c-2.26 11.96-4.88 23.76-7.56 35.56-.52 2.25-.77 4.85-2.08 6.58-1.62 2.13-4.03 4.49-6.45 4.98-3.17.64-5.54-1.33-7.11-4.9-.78-5.55-2.46-12.68-3.24-19.08-.9-7.4-1.33-14.86-1.16-22.7 8.47-.47 17.84.16 27.6-.44"/><path fill="#b65625" d="M860.91 445.67c-5.81 4.04-11.52 8.06-17.63 11.32-3.69 1.96-7.94 3.54-12.05 3.88-7.89.66-12.76-5.44-10.75-13.13.84-3.25 3-6.48 5.33-9.19 4.62-6.6 9.61-12.9 15.07-19.56 6.82 8.62 13.39 17.48 20.03 26.68m31.7 64.88c-5.24 1.93-10.42 3.69-15.74 4.87-4.17.92-8.49 1.3-12.76 1.57-4.39.28-7.8-1.56-9.44-5.85-1.37-4.28.59-7.41 3.47-10.03 7.11-6.84 14.32-13.48 21.76-20.41 4.42 9.65 8.57 19.54 12.71 29.85M791.89 391.33c3.33-3.87 6.55-7.44 10.02-12.45 6.3 5.29 12.35 10.82 18.49 16.7-5.24 5.05-10.51 9.86-15.97 14.54-2 1.57-3.61 3.67-6.74 4.02-3.77 1.68-7.5 1.32-10.49-1.55-3.49-2.96-2.91-6.84-1.57-10.18 1.53-3.79 4.05-7.19 6.26-11.08"/><path fill="#b25725" d="M685.25 116.54c-3.58 9.85-7.41 19.43-11.29 28.98-1.4 3.46-2.82 7.17-7.67 6.31-4.82-.87-5.85-4.84-5.08-8.84 1.26-9.81 3.15-19.88 4.91-30.18 6.31.9 12.59 2.17 19.13 3.73m-71.73-4.25c1.39 8.14 2.58 16.16 3.23 24.21.21 2.68-.35 5.88-1.41 8.09-1.62 2.02-4.42 3.95-6.71 4.15-1.35.14-4.44-2.4-5.04-4.27-2.9-9.14-5.24-17.52-7.85-28.12 5.74-1.66 11.55-2.92 17.78-4.06m209.59 159.46c-14.3 1.53-28.47 2.63-42.63 3.8-2.96.25-6.03 1.03-6.65-3.27 15.29-7.06 31.52-12.11 48.64-15.94.48 4.91 1.5 9.96.64 15.41"/><path fill="#af5421" d="M455.24 258.46c10.96 2.41 22.49 5.2 32.66 8.19 3.51.96 6.96 2.24 10.28 3.73 1.43.82 2.44 2.2 3.65 3.34-1.55.5-3.16 1.58-4.63 1.43-8.39-.9-16.72-2.43-24.44-2.16-5.92-1.28-11.26-.42-16.94-.08-.49-4.64-.59-9.31-.58-14.45"/><path fill="#a5532c" d="M512.31 502.79c3.02 16.85 6.35 34.06 8.94 51.37 1.99 13.25 3.04 26.63 4.08 40.42-1.05 2.65-1.47 4.6-2.19 6.4.49 16.7 1.25 33.39 1.77 50.77.04.64-1.19 1.99-1.46 3.67-.32-.31-.5-.47-.5-.47-.54-20.28-.28-40.62-1.8-60.82-2.3-30.36-5.84-60.63-8.84-91.34"/><path fill="#b25725" d="M814.79 304.69c-12.44-2.95-24.13-6.27-37.02-9.56-1.92-.52-3.98-.66-5.37-1.45-1.56-.51-1.98-1.87-2.59-2.85.47-.59 1.68-1.72 2.86-1.69 7.29.21 14.6.35 21.84 1.15 7.72.85 15.35 2.42 23.45 3.7-.73 3.46-1.19 6.9-3.17 10.7"/><path fill="#af5421" d="M793.58 335.25c-1.46-1.58-2.4-3.34-3.71-4.74-6.72-7.15-13.54-14.19-20.29-21.3-.64-.67-1.06-1.54-1.22-2.88 12.82 3.06 23.61 10.23 35.08 16.83-2.95 4.64-6.23 7.99-9.86 12.09m-333.96-40.87c15.85-3.79 31.72-6.64 47.91-6.07.2.58.4 1.16.61 2.15-1.32.53-2.51 2-3.97 2.34-13.71 3.19-27.48 6.19-41.61 10.02-1.25-3.14-2.11-5.6-2.94-8.44m11.92 25.03c7.94-3.87 15.9-7.58 24.01-10.92 3.38-.5 7.09-1.97 10.64-2.92.3.62.59 1.24 1.61 1.85-2.46 1.21-4.18 2.45-5.95 3.89-8.05 4.99-16.12 10.25-24.47 15.69-2.11-2.31-3.93-4.8-5.84-7.59"/><path fill="#a5532c" d="M511.37 661.99c-1.77-.31-3.23-.66-5.08-1.03 5.03-2.01 10.44-3.99 16.25-6 .41-.01.59.15.43.39-.69 1.4-1.34 2.46-1.99 3.52-.44.07-.87.3-1.69-.09-2.99-2.32-3.87-.95-4.14 1.61-1.16.53-2.31 1.05-3.78 1.6m-18.79 13.82a65 65 0 0 1-1.98 10.09c.33-3.2 1.02-6.51 1.98-10.09m10.1-11.99c-1.13.81-1.71 2.46-4.38 4.13 1.12-1.57 2.59-3.18 4.38-4.13m-7.21 7.05c.5 2.12-1.03 2.61-2.03 4.06.36-1.27 1.05-2.59 2.03-4.06m10.17-9.9c-.44.63-1.19 1.33-2.29 2.02.42-.65 1.21-1.31 2.29-2.02m-8.87 8.22c.01.41-.24.95-.79 1.57-.03-.42.25-.93.79-1.57m.97-.79c.16-.13-.01.15-.47.49-.06-.17.09-.46.47-.49"/><path fill="#f8f3e7" d="M752.35 281.36c-13.71 10.95-28.76 12.38-43.98 5.79-14.98-6.48-23.18-19.03-23.91-35.31-.73-16.15 7.02-30.73 23.53-39.25 14.82-7.18 31.72-4.63 43.84 6.03 19.9 17.51 20.27 46.21.52 62.74m-23.74-13.06c6.66-9.51 7.07-19.4 3.28-29.46-4-7.02-9.11-11.18-17.64-11.31-7.69-.13-13.32 4.03-16.6 10.74-1.78 3.64-2.93 8.58-3.36 11.85-1.02 9.62 4.83 20.04 12.63 23.63 7.06 3.25 15.03 1.51 21.69-5.45m-213.64-38.16c12.64-20.62 34.72-26.97 54.94-16.2 14.22 7.51 23.72 25.31 21.51 39.83-2.96 19.53-14.85 32.8-32.82 36.12-18.1 3.35-32.68-2.99-42.76-18.02-8.89-13.25-8.88-27.48-.87-41.73m50.72 44.51c3.18-2 6.99-3.42 9.42-6.09 7.38-8.11 8-22.98 2.28-32.13-8.5-12.29-24.44-11.87-31.8.94-1.46 2.55-2.64 5.42-3.22 8.29-2.57 12.71 4.18 31.33 23.32 28.99"/><path fill="#ea934c" d="M596.81 682.15c.41-12.59.95-25.04 2.15-37.5-.58-18.13-.38-36.26-.21-54.39.02-2.8-.5-5.6-.5-8.85.73.42 2.43 1.15 2.52 2.16 7.66 11.05 16.07 21.1 28 28.15 8.04 4.75 15.72 9.62 25.75 10.68-.58 9.44-1.7 16.79-2.61 25-.76 6.85-1.26 13.74-9.99 15.37-.3.06-.53.4-.82.56-8.29 4.66-12.19 13.2-16.11 20.77-8.23-.47-17.83-.95-27.28-1.64-.54-.22-.9-.31-.9-.31"/><path fill="#b45623" d="M778.83 724.92c-12.26.94-24.2-1.11-35.95-4.28-7.7-2.07-14.5-5.72-18.57-13.14-.78-.66-2.05-2.56-3.39-4.18-2.45 2.98-4.71 6.23-7.56 8.92-.83.29-1.07.59-.95.88 0 0 .17.28-.71.25-1.84-1.08-3.32-1.81-4.8-2.55 3.74-4.53 7.51-9.04 12.1-13.61-.42-.6-.22-1.49-.08-2.29 2.7-14.44 5.38-28.63 8.04-43.35 4.01-21.87 7.98-43.76 12.02-65.64 2.67-14.44 7.65-28.11 12.65-41.66 5.17-14.51 7.92-29.68 11.33-44.54 1.35-5.87 1.65-11.99 3.2-17.94 3.03 15.33-.38 30.44-1.6 46.56 23.16-20.47 47.73-30.35 76.62-14.18.05.54.09 1.07.13 1.6-4.78-1.53-9.46-3.6-14.35-4.5-18.59-3.44-35.34 1.44-50.22 12.62-18.97 14.25-28.07 34.05-31.15 57.69-.16 1-.16 1.41-.16 2.65.4-1.24.54-1.68.68-2.12 7.63-10.62 18.09-13.17 30.05-7.36 3.13 1.52 5.71 4.02 4.3 8-.81 1.22-4.13 2.23-6.51 3.17-1.28.52-2.99.25-4.44.01-16.11-2.71-27.17 13.73-27.7 26.58-.25 14.29 1.03 28.17 6.04 42.22-2.14.2-4.07-.27-6.11-1.08-1.92-7.32-3.62-14.29-5.58-21.43-1.64 11.71-4.2 23.3-6.29 34.95 4.93-2.35 7.9-4.41 11.98-6.36.98 1.18 1.56 2.72 1.87 3.49-3.38 3.43-7.59 4.94-10.51 8.02-9.72 10.24-11.45 24.13-4.66 34.21.67.99 1.61 1.79 3.28 3.61-1.13-5.15-2.64-8.96-2.61-12.74.03-3.87 1.1-7.92 2.6-11.51 1.42-3.37 3.14-7.2 8.08-7.99-6.91 16.71-6.91 16.71-6 23.43 1.29 9.48 7.94 15.89 16.31 15.08-7.68-9.2-6.63-18.57-.43-27.55 3.15-4.57 7.72-7.32 13.76-5.92-1.01 1.76-2.21 1.89-3.1 2.42-9.45 3.78-11.11 11.8-11.16 18.14-.05 6.98 5.32 13.14 12.64 15.65 5.64 2.62 11.28 3.84 16.91 5.77m-44.37-13.65c-.32-.03-.23-.05-.15-.08-.11-.06.61.54-.57-.69-.28-.13-.56-.25-.84-.38-.08.21-.15.42-.23.64.45.07.9.14 1.79.51"/><path fill="#e2723a" d="M775 148.73v18.09c-17.58-13.03-34.3-23.93-51.6-36.83 13.26-17.08 27.14-34.16 46.14-48.52 3.63 22.33 4.85 44.16 5.46 67.26"/><path fill="#e1723b" d="M504.2 125.95c.47-8.25.98-15.19 2.27-22.09.44-6.69 1.66-13.64 2.91-21.67 3.9 3.03 7.37 5.04 9.97 8.24 11.47 12.06 22.96 24.74 34.01 37.32 2.33 1.89 2.6 3.71-.25 5.2-17 8.87-32.78 19.54-47.43 31.91-.47.39-1.1.59-1.68.89 0-13.53 0-26.86.2-39.8"/><path fill="#af5421" d="M706.57 710.96c1.81.6 3.29 1.33 5.16 2.66-5.21 2.09-10.57 5.79-16.46 7.1-14.87 3.58-30.02 3.27-45.11.95-17.82-2.74-30.05-17.05-25.19-37.16 3.94-7.98 7.84-16.52 16.13-21.18.29-.16.52-.5.82-.56 8.73-1.63 9.23-8.52 9.99-15.37.91-8.21 2.03-15.56 3.03-25.01 4.57-34.64 9.17-68.86 13.8-103.08.07-.54.5-1.04 1.41-1.42-.88 12.54-1.54 25.08-2.69 37.59-1.66 18.04-2.96 36.07-5.57 54.06-2.02 17.16-4.43 34.27-7.01 51.35-.23 1.54-2.77 3.32-4.59 3.94-13.51 4.62-21.83 16.27-21.47 30.29.97 10.17 7.86 18.83 17.91 20.6-1.19-5.61-3.17-11.27-3.4-16.99.61-5.59.96-11.42 7.28-14.52-3.78 10.7-5.07 21.25 3.34 29.98 6.16 6.38 14.65 4.94 23.42 4.51-5.75-10.04-6.05-19.92-1.2-29.73.96-1.85 3.09-3.34 4.68-4.98.48.36.97.72 1.45 1.72-.62.74-1.19 2.14-1.87 3.49-3.21 6.36-3.79 13.06-2.2 20.53 1.36 5.14 5.32 7.81 10.94 6.48 5.77-1.36 11.38-3.37 17.4-5.25"/><path fill="#b65625" d="M823.79 721.5c-6.68 1.39-13.35 1.63-20.27 2.37 3.13-2.59 7.46-4.74 9.7-8.05 7.94-10.93 7.96-24.57 2.73-37.34-1.51-3.69-4.73-6.68-7.06-9.67 1.32-1.69 2.49-2.42 3.76-2.46 2.75-1.09 5.56-1.67 8.34-2.16 10.49 1.73 20.64 1.54 30.72-2.86 4.54-1.66 7.98 2.06 10.4 5.1 7.55 10.8 7.29 22.25 4.85 35.2-6.02 3.64-11.18 7.7-16.66 10.89.33-1.63 1.02-2.95 1.61-4.32 5.28-12.21 6.52-24.34-.66-36.23-2.53-3.71-5.28-5.47-10.13-4.02-3.87 1.16-8.21.77-12.34 1.17-1.34-.01-1.9.06-4.55.18 12.15 11.48 12.03 29.55 6.29 42.23-2.12 3.39-4.62 6.36-6.73 9.97"/><path fill="#e57e81" d="M635.32 292.37c-4.72-3.24-9.61-5.48-14.09-9.82-1.85-.63-2.34-3.83-3.58-6.06-3.92-7.88-1.14-12.83 8.03-12.63 6.69-1.27 14.11-1.04 21.5-.28 4.6-.47 9.53 1.36 11.33 5.15 1.93 5.01-.24 10.44-3.81 13.71-4.04 3.87-9.33 6.43-14.76 9.46-1.99.09-3.31.28-4.62.47"/><path fill="#613c1d" d="M635.24 292.71c1.39-.53 2.71-.72 4.32-.79 3.24 9.22 9.75 14.5 18.85 16.19 9.81 1.83 16.79-2.27 20.31-11.12 4.02.42 3.27 2.99 2.47 5.51-2.24 8.3-12.99 12.46-22.24 10.92-9.2-1.52-16.32-6.26-21.35-14.45-5.35 8.18-12.33 13.97-21.66 14.47-8.38 1.22-16.45-2.77-20.81-9.89-.71-1.28-1.33-2.76-1.43-4.19-.05-.83.87-2.04 1.67-2.48.48-.26 2.09.45 2.34 1.07 3.55 8.64 10.43 11.58 18.95 10.64 8.79-2.03 15.05-7.19 18.58-15.88"/><path fill="#af5421" d="M820.7 663.89c-2.49.79-5.3 1.37-8.05 2.46-1.27.04-2.44.77-4.07 1.56-6.17-2.18-11.73-5.28-17.69-6.73-12.35-3.64-25.94-2.34-38.9-.34-.66-1.5-1.31-2.65-1.8-3.4 18.18-5.74 35.46-3.34 53 2.12 5.63 1.75 11.47 2.82 17.51 4.33"/><path fill="#b25725" d="M521.41 658.88c.22-1.07.87-2.13 2.05-3.49.26-1.65 1.49-3 1.45-3.64-.52-17.38-1.28-34.07-1.77-50.77.72-1.8 1.14-3.75 2.13-5.87 1.47 19.37 2.56 38.01 3.67 57.47 8.57 2.35 17.69.99 25.5 6.32-10.87 0-21.74 0-33.03-.02"/><path fill="#9b4b21" d="M706.87 184.89c2.97 6.58 1.48 10.4-4.72 12.76-3.39 1.29-6.92 2.23-10.31 3.54-2.85 1.1-4.21-.29-4.64-2.7-.78-4.35-.36-8.8 4.36-10.24 4.8-1.92 9.99-2.53 15.31-3.36m-122.93 4.72c1.57 1.99 3.6 4.28 3.87 6.75.54 4.81-2.44 7.07-6.94 4.88-3.69-1.49-7.36-3.07-10.92-4.84-3.73-1.84-4.64-5.15-3.44-8.86 1.26-3.89 5.13-3.42 7.46-2.29 3.29 1.23 6.43 2.33 9.97 4.36m181.83 168.34c-4.62 3.56-9.51 7.32-13.88 10.64-3.41 1.67-6.54 2.52-9.67 3.99-6.1 1.79-11.98 3.32-17.85 4.85-.01-.15-.03-.3-.04-.44 10.29-4.67 20.6-9.31 30.87-14.02 3.44-1.57 6.79-3.34 10.57-5.02"/><path fill="#af5421" d="M700.89 665.12c-9.75-1.79-19.51-3.58-28.96-5.31 6.43-3.7 22.22-1.64 29.18 4.68.69.44-.22.63-.22.63"/><path fill="#9b4b21" d="M568.79 534.39c-1.07 1.36-1.53 2.4-2.32 3.49-5.12-8.21-9.89-16.5-14.62-25.27.06-.49.35-.8.35-.8 5.26 7.42 10.53 14.84 16.59 22.58m-34.05-166.03c4.87 2.02 9.41 3.87 13.95 6.46-.24-.16-.49.41-.73.98-8.96-3.82-17.61-7.65-26.24-11.47-.42-.56-.2-1.11.02-1.66 4.22 1.83 8.44 3.67 13 5.69"/><path fill="#af5421" d="M741.86 653.99c1.92.47 3.85.94 6.02 1.12.54.18.84.66 1.04 1.75-.02 2.59.06 3.76-.11 5.56-1.45.71-3.29 1.21-4.81 1.7-.59-.59-1.17-2.13-1.87-3.56-.17-2.43-.22-3.95-.27-6.57"/><path fill="#b45623" d="M749.59 662.19c-.61-1.57-.69-2.74-.63-5.05.15-.32.6-.21.83-.15.89 1.2 1.54 2.35 1.93 4-1.07.74-1.86.97-2.13 1.2"/><path fill="#b25725" d="M515.47 660.29c-.05-2.46.83-3.83 3.49-1.5-1.02.69-2.09 1.05-3.49 1.5"/><path fill="#9b4b21" d="M551.76 512.27c-.61-.45-1.08-1.06-1.54-1.67l1.1-1.16c.24 1.21.48 1.25.8 2.12.08.25-.21.56-.36.71"/><path fill="#af5421" d="M701.18 664.84c.15.14.21.36.27.59-.12-.02-.23-.04-.46-.18-.1-.13.81-.32.19-.41"/><path fill="#f5a95d" d="M748.81 662.42c1.05-.46 1.84-.69 2.91-1.08 13.23-2.5 26.82-3.8 39.17-.16 5.96 1.45 11.52 4.55 17.58 7.14 2.75 3.48 5.97 6.47 7.48 10.16 5.23 12.77 5.21 26.41-2.73 37.34-2.24 3.31-6.57 5.46-9.72 8.04-8.36.61-16.03.93-24.19 1.27-6.11-2.14-11.75-3.36-17.39-5.98-7.32-2.51-12.69-8.67-12.64-15.65.05-6.34 1.71-14.36 11.16-18.14.89-.53 2.09-.66 3.1-2.42-6.04-1.4-10.61 1.35-13.76 5.92-6.2 8.98-7.25 18.35.43 27.55-8.37.81-15.02-5.6-16.31-15.08-.91-6.72-.91-6.72 6-23.43-4.94.79-6.66 4.62-8.08 7.99-1.5 3.59-2.57 7.64-2.6 11.51-.03 3.78 1.48 7.59 2.61 12.74-1.67-1.82-2.61-2.62-3.28-3.61-6.79-10.08-5.06-23.97 4.66-34.21 2.92-3.08 7.13-4.59 10.51-8.02 1.8-.67 3.64-1.17 5.09-1.88m75.41 59.33c1.68-3.86 4.18-6.83 6.3-10.22 5.74-12.68 5.86-30.75-6.29-42.23 2.65-.12 3.21-.19 4.55-.18 4.13-.4 8.47-.01 12.34-1.17 4.85-1.45 7.6.31 10.13 4.02 7.18 11.89 5.94 24.02.66 36.23-.59 1.37-1.28 2.69-1.95 4.41-.02.36.02.35-.15.63-.38-.01-.57.16.06.37-8.93 2.5-17.08 4.99-25.65 8.14"/><path fill="#a5532c" d="M517.83 716.38c7.09.04 14.53 1.58 21.94.52 9.55-.25 19.08-1.21 29.08-1.08-3.22.08-6.91 1.51-10.6 1.52-13.36.03-26.72-.43-40.42-.96m78.63-34.27c.35.04.71.13.76.22-.43 4.27-2.33 8.45-3.8 12.89.71-3.67 1.7-8.59 3.04-13.11M490.4 691.4c1.56 3.49 3.02 7.36 4.47 11.89-1.54-3.74-3.06-7.62-4.47-11.89m96.93 14.49c1.49-3.11 3.29-6.35 5.4-9.76-1.49 3.11-3.29 6.36-5.4 9.76m-77.08 8.36c1.62.2 3.45.68 5.5 1.42-1.61-.2-3.44-.24-5.5-1.42m-7.37-3.78c1.5.45 3.12 1.24 4.92 2.29-1.48-.48-3.14-1.22-4.92-2.29m73.46 2.52c.79-.64 1.91-1.28 3.36-1.46-.78.16-1.9.81-3.36 1.46m-76.46-4.46c.86.15 1.83.6 2.89 1.39-.87-.13-1.82-.6-2.89-1.39m83.49.9c.43-1.03 1.19-1.72 2.3-2.28-.43.53-1.21 1.19-2.3 2.28m-84.44-2.13c-.41-.06.93.15.84.65-.44.3-.98-.15-.84-.65m9.21 5.98c.39-.1 1.77.06 1.69.45-.39.09-.96-.05-1.69-.45m65.2 1.35c.24-.89.81-1.21 2.47-1.51-.96.33-1.55.64-2.47 1.51m-2.98.63c.24-.57.82-.87 1.74-1.14-.24.32-.82.61-1.74 1.14m15.9-8.31c-.15-.26.04-.53.55-.83.05.18-.13.46-.55.83m-3.99 2.91c-.13-.26.08-.5.59-.74.35.27-.03.53-.59.74m-85.05-3.59c0-.06.27.13.66.55-.19.05-.48-.12-.66-.55m83.1 4.71c-.02-.21.26-.49.84-.81q.015.315-.84.81"/><path fill="#af5421" d="M712.33 713.48c-.04-.65.2-.95 1.27-1.32.4.22-.74.52-1.27 1.32"/><path fill="#b65625" d="M849.29 713.6c-.05-.2.14-.37.54-.36.09-.01-.08.2-.54.36"/><path fill="#563923" d="M728.37 268.3c-6.42 6.96-14.39 8.7-21.45 5.45-7.8-3.59-13.65-14.01-12.63-23.63.43-3.27 1.58-8.21 3.36-11.85 3.28-6.71 8.91-10.87 16.6-10.74 8.53.13 13.64 4.29 17.64 11.31 3.79 10.06 3.38 19.95-3.52 29.46m-163.08 6.44c-18.74 2.25-25.49-16.37-22.92-29.08.58-2.87 1.76-5.74 3.22-8.29 7.36-12.81 23.3-13.23 31.8-.94 5.72 9.15 5.1 24.02-2.28 32.13-2.43 2.67-6.24 4.09-9.82 6.18"/><path fill="#f5a95d" d="M741.74 653.65c.17 2.96.22 4.48 0 6.8-3.97 2.31-6.94 4.37-11.87 6.72 2.09-11.65 4.65-23.24 6.29-34.95 1.96 7.14 3.66 14.11 5.58 21.43m-7.51 57.32c-.66-.07-1.11-.14-1.56-.21.08-.22.15-.43.23-.64.28.13.56.25.97.63.47.25.36.22.36.22"/><path fill="#f5aa5e" d="M746.39 582.41c-.42.14-.56.58-.96 1.82 0-1.24 0-1.65.19-1.72.19-.66.34-.53.77-.1"/><path fill="#f5a95d" d="M733.99 711.48c.93.25.21-.35.32-.29-.08.03-.17.05.04-.07-.12-.15-.01-.12-.36.36"/></svg>