<svg xmlns="http://www.w3.org/2000/svg" xml:space="preserve" style="background:0 0" viewBox="0 0 1328 800"><path fill="#f5a95c" d="M787.37 388.77c-1.51 2.21-4.23 4.42-6.62 7.08-2.21 1.69-3.98 2.93-6.12 5.1-14.98 7.2-29.32 15.34-43.49 23.22.59-.23 2.21-.43 4.76-.28.77 1.37 2.6 2.72 3.72 3.33 4.91 2.71 9.87 3.64 14.91 5.11 8.15 2.37 16.32 5.15 24.6 6.59 5.2 2.04 10.6 1.46 15.84 2.51-.8 2.56-1.71 4.71-2.21 6.96-1.91 9.35 3.89 14.44 12.52 12.22 2.99-.77 6.01-2.11 8.53-3.89 8.75-5.79 16.94-11.91 24.37-17.91 3.16 2.84 6.53 5.48 9.43 8.56 4.54 4.84 8.76 9.97 12.97 15.5-7.3 9.71-14.46 17.86-21.61 26.54-3.14 3.81-3.1 8-1.57 12.46 2.24 4.3 6.46 5.3 10.76 4.87 3.55-.38 7.42-1.51 10.64-3.33 7.34-4.13 14.31-8.89 21.44-12.61 5.53 9.94 11.07 20.68 16.4 31.97-1.75 2.92-3.24 4.08-4.83 5.77-6.01 6.43-12.21 12.7-18.05 19.29-4.83 6.4-2.6 14.69 5.89 15.94 3.05.45 7 .39 9.52-.42 6.55-1.84 13.09-3.79 19.69-6.5 2.01 10.91 4.63 21.74 5.9 32.74 2.81 25.17 1.11 48.74-5.57 72.58-3.86 13.75-9.82 26.3-18.68 38.41-3.74 4.08-7.06 6.55-10.39 9.22 5.26-17.51 2.86-27.27-8.95-37.1-3.99-3.32-7.86-4.55-13.21-2.31-4.06 2.43-9.18 2.83-13.41 1.81-16.75-3.26-33.2-7.63-50.02-10.8-9.29-1.46-15.57-4.95-21.32-11.85-6.93-9.4-16.84-14.28-28.64-13.75-3.59-15.68-3.97-31.1-1.32-46.42 2.51-14.47 7.97-27.73 19-38.16 6.99-6.61 15.08-11.32 24.2-14.42 13.67-5.01 27.13-6.43 40.89-3.17-15.53-6.1-30.99-5.93-46.77.31-16.89 5.66-27.89 18.84-37.63 34.49 1.59-10.3 2.96-19.2 4.33-28.1-.45-.1-.9-.2-1.35.04-2.28 9.5-5.81 19.31-8.55 29.18-4.5 16.14-8.87 32.32-13.07 48.86-1.02 2.8-1.7 4.84-2.3 7.08-6.62 24.73-10.85 49.87-14.07 75.26-1.65 14.95-8.15 20.48-24.13 22.46-8.09.72-13.04-3.91-12.86-12.11.65-5.61 1.31-11.21 2.9-17.8-2.56 1.86-4.51 3.06-5.26 5.5-3.94 8.31-2.83 17.58 1.73 25.93-11.75.86-17.82-.3-22.04-5.01-7.71-7.79-5.5-18.55-2.36-29.56-6.07 4.68-7.25 10.13-6.78 15.81.45 5.38 2 10.67 2.85 15.83-11.35-.22-20.86-11.53-18.62-23.55 3.4-14.52 11.5-23.86 25.16-29.03 1.68-.57 3.36-2.29 3.6-3.72 1.48-8.82 2.55-17.71 3.81-26.92.06-2.1.07-3.84.23-5.94.19-1.07.22-1.79.18-2.77 3.04-24.37 5.11-49.37 7.51-73.93-.71-.07-1.42-.15-2.14-.23-3.05 22.4-6.09 44.8-9.29 67.61-1.26 8.17-1.99 15.91-3.92 23.67-4.81-1.18-9.93-1.3-12.84-3.74-13.93-9.32-22.06-22.72-28.02-37.62-.06-1.45-2.48-2.38-4.03-3.8-4.21-9.72-7.67-19.41-12.23-28.56-4.4-8.84-9.92-17.11-15.07-25.88-.46-.7-.8-1.13-.81-1.77-.8-.18-1.04-.14-1.28-.11.17.24.35.48.58 1.01.35.75.65 1.23 1.02 2.06.78 2.04 1.46 3.74 2.56 5.4 10.55 23.74 20.83 47.65 23.29 74.83 1.95 20.31 4.19 41.35 1.17 62.42-1.31 9.16-3.63 19.09-14.04 21.7-10.15 2.85-20.64 5.03-31.12 5.95-9.8.85-15.12-5.43-15.7-15.4-.42-7.19 2.42-13.08 6.39-18.99-3.09 1.64-5.42 3.4-7.87 6.1-5 9.17-3.61 17.38.37 26.73-2.94-.38-5.1-.43-7.14-.95-13.82-3.54-20.08-19.79-12.24-34.56 4.8-9.03 12.78-14.23 22.72-16.38 2.48-.54 4.92-.83 3.03-4.31-2.1-33.18-3.11-66.48-6.62-99.51-2.94-27.7-8.32-55.18-12.84-82.34-4.58-20.6-9.8-40.71-14.81-60.83-.48-1.93-3.46-3.61-5.64-4.67-16.85-8.25-32.68-17.97-45.67-31.23-3.52-4.21-6.51-7.66-9.53-13.03 7.61-5.82 15.05-11.04 22.41-16.34 1.58-.87 2.93-2.62 4.38-3.94-12.19 1.01-22.61 5.91-33.04 11.09-2.7-5.83-5.41-11.66-7.77-18.96 4.42-1.93 8.62-3.71 13.79-4.25 9.68-1.3 20.26-1.93 30.78-2.7 1.44-.53 2.74-2.01 4.11-2.88-1.49-.87-2.92-2.34-4.49-2.21-16.05-1.89-32.08-1.83-48.02.99-1.02-7.15-2.05-14.17-2.67-21.89 13.19 2.43 25.95 5.38 38.77 8.07 2.13.36 4.28-.63 5.45-1-1.24-1.28-2.24-3.14-3.02-3.76-14.11-5.45-27.57-10.21-41.02-15.97 1.37-24.03 9.88-45.15 22.13-66.07 3.25-5.41 7.47-10.44 10.42-15.82 1.05-1.72 1.63-4.01 1.65-6.04.51-43.26 5.54-85.95 16.92-127.93.32-3.71 1.27-7.38 2.69-10.93 2.34-5.86 5.74-7.03 10.83-3.24 10.26 7.65 21 14.91 30.19 23.73 16.67 16 32.33 33.06 48.53 49.66 1.28 1.19 3.55 1.5 6.48 2.53 2.48 10.01 4.75 19.85 7.6 29.51.66 2.24 3.2 5.36 5.03 5.47 2.31.14 5.29-1.95 7.02-3.92 1.33-1.53 1.54-4.34 1.64-6.61.42-9.61.61-19.23.89-28.85 3.69-.48 7.38-.96 11.55-.97.36 1.96.09 3.45.14 4.94.44 12.43 1.49 24.89 2.29 37.28-.27 6.35 2.91 7.46 8.02 7.66 5.09.2 7.08-2.9 8.18-6.58 2.68-10.81 5.34-21.1 7.97-31.4 1.55-4.26 2.39-8.55 3.71-12.82 2.83.27 6.26.55 10.09 1.35-.61 3.5-2.07 6.42-2.53 9.48-1.32 8.78-2.51 17.61-3.08 26.46.16 1.88 2.32 5.1 4.16 5.6 1.97.53 4.98-.95 6.84-2.43 1.51-1.21 2.01-3.7 2.95-5.64 4.76-9.76 9.51-19.53 14.27-29.3 5.2 2.05 7.99-1.1 11.01-4.65 21.95-25.44 45.31-48.77 72.41-68.46.67-.49 2.16-1.04 2-1.49 8.89-5.74 12.9-4.68 16 5.69 3.39 18.8 7.16 37.73 10.14 56.75 4.64 27.09 5.57 52.99 4.97 79.66-.01 2.23 1.42 5.5 2.76 7.16 11.25 16.01 20.31 34.45 25.23 52.98 1.95 7.71 2.86 15.68 3.81 23.99-20.18 4.37-38.25 12.76-56.12 21.62-1.26.62-2.23 3.32-2.34 4.2.16 1.06 2.43 2.25 3.92 2.52 1.7.3 3.58-.3 5.37-.6 16.8-2.72 33-5.47 49.83-7.84-2.78 9.8-5.23 19.96-8.14 30.35-18.62-2.31-36.37-5.33-53.69-8.44-2.01.52-3.83 1.36-5.33 2.11 1.16 1.15 2.33 2.82 4.59 3.35 15.58 5.6 31.94 11.02 48.85 16.5-4.7 6.42-8.83 12.85-13.45 19.18-13.05-8.91-40.24-21.56-46.04-20.65 1.75 2.43 3.55 4.75 4.7 6.42 8.32 8.55 16.84 15.48 25.72 23.29.73 1.15 1.99 2.82 2.8 4.25m-162.84-54.99c10.27-2.6 17.8-8.4 20.09-19.09 1.06-4.41.11-8.35-4.34-9.9-12.1-4.23-24.44-4.21-36.5.06-2.05.73-4.5 4.08-4.48 6.59.09 7.96 10.47 21.9 21.31 22.42-2.99 9.77-9.84 15.34-18.99 17.82-9.96 2.91-15.78.24-21.15-8.79-.48-.04-1.68-1.18-2.54-1.76-.52 1.23-1.71 2.63-1.45 3.65 1.39 5.33 4.82 9.14 10.01 10.98 9.86 3.48 19.06 1.79 27.34-4.43 2.98-1.46 5.5-5.11 8.53-7.97 4.78 7.8 11.47 12.53 20.3 14.22 10.07 1.92 19.47-1.9 23.08-9.7 1.2-2.6 2.18-5.35-1.94-7-.48.91-.87 1.59-1.2 2.3-3.43 7.36-7.7 10.02-15.69 9.74-10.94-.38-19.49-7.36-22.38-19.14m124.9-73.83c-19.6-22.16-53.65-20.49-70.04 3.79-10.2 15.11-9.57 33.83 1.13 49.25 9.47 13.65 28.76 20.93 45.68 17.43 34.57-7.28 45.06-47.25 23.23-70.47M574.6 298.31c4.19-23.65-7.82-45.62-28.69-51.69-19.45-5.21-35.46-.05-46.92 14.84-18.61 21.38-12.62 56.27 16.43 66.66 25.09 9.76 49.57-3.3 59.18-29.81M770 162.52c-.21-20.52-2.47-40.98-6.41-61.03-17.16 16.27-32.1 33.07-46.15 50.65 17.84 12.2 35.09 23.98 52.56 36.54zM493.33 131.7c-.56 11.22-2.45 22.42-3.08 33.66-.44 7.62-.09 15.28-.09 23.13 9.04-6.59 17.2-13.17 25.99-18.78 9.17-5.41 18.38-10.39 27.79-14.87-14.63-19.23-28.6-37.84-46.47-54.69-1.59 11.11-2.99 21.07-4.14 31.55m201.35 99.51c.98.01 1.97-.3 2.92-.58 6.29-1.52 7.6-4.83 6.34-9.93-1.24-5-5.1-4.4-8.78-3.72-2.26.41-4.76.67-6.63 1.84-2.95 1.83-6.02 3.99-7.92 6.78-.94 1.38.13 4.79 1.29 6.66.59.95 3.44 1.13 5.22.61 2.28-.21 4.52-.94 7.56-1.66m-150.47-11.7c-1.76 6.47-.42 8.75 5.96 10.61 3.18.77 6.31 2.79 9.54 2.52 1.89.47 5.84.52 5.62-.19.92-1.95 1.67-5.57.82-7.82-2.21-5.87-16.26-9.33-21.94-5.12m286.16 315.06-1.11-.09c.26.13.51.25 1.11.09m-256.9 9.25c.08-.08.22-.16.22-.24.01-.09-.11-.18-.18-.27-.08.08-.15.16-.04.51"/><path fill="#8fb7d4" d="M880.13 710.2c3.32-3.07 6.64-5.54 10.28-9.29 10.8 2.39 21.35 4.61 31.73 7.46 3.63 1 8.53 2.41 8.46 7.24-.06 4.82-4.99 6.24-8.64 7.11-14.18 3.4-28.4 6.8-42.78 9.12-15.86 2.56-31.91 4.1-47.91 5.76-9.9 1.06-20.52 2.05-30.8 2.2-58.75.84-117.5 1.87-176.25 1.87-24.06 0-47.44-2.05-71.66-3.82-31.29-2.26-62.02-5.36-92.08-12.86-4.49-1.12-8.96-2.63-13.14-4.59-2.01-.95-4.71-3.52-4.56-5.12.18-2.06 2.57-4.88 4.63-5.62 7.95-2.82 16.04-4.7 24.3-7.19 13.65-2.62 26.84-4.34 40.79-6.03 1.94 13.13 8.87 22.21 21.18 24.01 12.59 1.84 25.54 2.81 38.22 2.11 17.7-.98 31.9-8.2 36.4-27.64 3.84.49 7.22.91 10.56 1.72-1.4 15.88 4.68 25.26 19.65 29.46 16.15 4.54 32.73 4.27 49.04 1.57 12.4-2.06 21.76-9.01 24.98-22.15.59-2.41 1.05-4.87 1.97-7.36 1.74.02 3.08.11 4.62.53 3.28 11.44 8.64 21.47 20.07 25.72 9.23 3.55 19.3 6.59 29.24 7.19 18.22 1.1 36.57.32 54.86.11 3.25-.04 6.49-1.17 10.14-1.76 8.87-1.98 17.34-4 26.1-6.01.69-.31 1.1-.62 1.66-.42-.19-.52.62-.11.19.14 7.52-3.42 15-5.78 18.75-13.46"/><path fill="#eb954f" d="M795.48 441.7c-5.75-1.32-11.15-.74-16.35-2.78-8.28-1.44-16.45-4.22-24.6-6.59-5.04-1.47-10-2.4-14.91-5.11-1.12-.61-2.95-1.96-4.25-3.5 11.56-6.41 23.01-12.19 34.29-18.29 2.13-1.15 3.57-3.58 5.33-4.44 1.78-2.21 3.55-3.45 5.64-4.82 10.21 6.16 20.11 12.46 30.18 19.41-5.14 8.93-10.45 17.21-15.33 26.12"/><path fill="#b55825" d="M607.84 694.85c-4.04 19.51-18.24 26.73-35.94 27.71-12.68.7-25.63-.27-38.22-2.11-12.31-1.8-19.24-10.88-20.75-24 .39-19.26 15.98-34.52 33.9-35.2 2.3 3.35-.14 3.64-2.62 4.18-9.94 2.15-17.92 7.35-22.72 16.38-7.84 14.77-1.58 31.02 12.24 34.56 2.04.52 4.2.57 7.14.95-3.98-9.35-5.37-17.56-.37-26.73 2.45-2.7 4.78-4.46 7.87-6.1-3.97 5.91-6.81 11.8-6.39 18.99.58 9.97 5.9 16.25 15.7 15.4 10.48-.92 20.97-3.1 31.12-5.95 10.41-2.61 12.73-12.54 14.04-21.7 3.02-21.07.78-42.11-1.17-62.42-2.46-27.18-12.74-51.09-23.29-74.83-1.1-1.66-1.78-3.36-2.4-5.54.88-.51.45-.79.45-.79 5.03 8.51 10.55 16.78 14.95 25.62 4.56 9.15 8.02 18.84 12.27 28.95 4.94 15.19 6.79 30.15 6.34 45.35-.47 15.77-1.41 32.33-2.15 47.28"/><path fill="#b75828" d="M644.59 135.3c-.24 4.33-1.08 8.62-2.63 12.88-2.63 10.3-5.29 20.59-7.97 31.4-1.1 3.68-3.09 6.78-8.18 6.58-5.11-.2-8.29-1.31-8.02-7.66-.8-12.39-1.85-24.85-2.29-37.28-.05-1.49.22-2.98.3-4.91-.04-.43.01-.53.47-.53.24-.02.41-.16.49-.41 9.11-.04 18.23-.08 27.83-.07"/><path fill="#ba5928" d="M794.97 441.43c5.39-8.64 10.7-16.92 16.23-25.61 9 7.28 17.97 14.76 27.77 22.66-8.22 6.33-16.41 12.45-25.16 18.24-2.52 1.78-5.54 3.12-8.53 3.89-8.63 2.22-14.43-2.87-12.52-12.22.5-2.25 1.41-4.4 2.21-6.96"/><path fill="#b95826" d="M880.14 489.65c-7.03 4.87-14 9.63-21.34 13.76-3.22 1.82-7.09 2.95-10.64 3.33-4.3.43-8.52-.57-10.76-4.87-1.53-4.46-1.57-8.65 1.57-12.46 7.15-8.68 14.31-16.83 21.72-26.23 6.62 8.57 12.99 17.34 19.45 26.47"/><path fill="#ba5928" d="M908.9 556.47c-6.64 3.09-13.18 5.04-19.73 6.88-2.52.81-6.47.87-9.52.42-8.49-1.25-10.72-9.54-5.89-15.94 5.84-6.59 12.04-12.86 18.05-19.29 1.59-1.69 3.08-2.85 4.88-5.42 4.25 10.85 8.25 22.18 12.21 33.35"/><path fill="#b75828" d="M827.29 311.71c-16.76 3.07-32.96 5.82-49.76 8.54-1.79.3-3.67.9-5.37.6-1.49-.27-3.76-1.46-3.92-2.52.11-.88 1.08-3.58 2.34-4.2 17.87-8.86 35.94-17.25 56.11-21.18.56 6.79.71 12.28.6 18.76M678.11 140.6c-4.5 10.05-9.25 19.82-14.01 29.58-.94 1.94-1.44 4.43-2.95 5.64-1.86 1.48-4.87 2.96-6.84 2.43-1.84-.5-4-3.72-4.16-5.6.57-8.85 1.76-17.68 3.08-26.46.46-3.06 1.92-5.98 2.95-9.31 7.24.91 14.46 2.65 21.93 3.72m-74.72-3.46c.14 9.73-.05 19.35-.47 28.96-.1 2.27-.31 5.08-1.64 6.61-1.73 1.97-4.71 4.06-7.02 3.92-1.83-.11-4.37-3.23-5.03-5.47-2.85-9.66-5.12-19.5-7.83-29.52 7.05-1.7 14.31-3.16 21.99-4.5"/><path fill="#b85925" d="M813.36 356.8c-16.63-6-32.99-11.42-48.57-17.02-2.26-.53-3.43-2.2-4.59-3.35 1.5-.75 3.32-1.59 5.33-2.11 17.32 3.11 35.07 6.13 53.24 8.67-1.44 4.31-3.27 8.6-5.41 13.81m-26 31.92c-.8-1.38-2.06-3.05-2.79-4.2-8.88-7.81-17.4-14.74-25.72-23.29-1.15-1.67-2.95-3.99-4.7-6.42 5.8-.91 32.99 11.74 45.76 20.81-3.93 4.52-8.07 8.79-12.55 13.1"/><path fill="#b55825" d="M434.16 330.67c16.06-3.18 32.09-3.24 48.14-1.35 1.57-.13 3 1.34 4.49 2.21-1.37.87-2.67 2.35-4.11 2.88-10.52.77-21.1 1.4-30.78 2.7-5.17.54-9.37 2.32-13.39 3.86-1.93-3.09-3.2-6.52-4.35-10.3m-2.65-33.89c13.73 4.74 27.19 9.5 41.3 14.95.78.62 1.78 2.48 3.02 3.76-1.17.37-3.32 1.36-5.45 1-12.82-2.69-25.58-5.64-38.74-8.51-.39-3.86-.41-7.72-.13-11.2"/><path fill="#b75828" d="M445.89 360.4c10.42-5.26 20.84-10.16 33.03-11.17-1.45 1.32-2.8 3.07-4.38 3.94-7.36 5.3-14.8 10.52-21.89 16.01-2.82-2.64-4.78-5.53-6.76-8.78"/><path fill="#f5a95c" d="M616.58 135.29c.1.33-.07.47.18.47-.8-.32-.63-.49-.18-.47"/><path fill="#b85925" d="M833.27 729.92c-3.49.62-6.73 1.75-9.98 1.79-18.29.21-36.64.99-54.86-.11-9.94-.6-20.01-3.64-29.24-7.19-11.43-4.25-16.79-14.28-19.83-26.22-.39-3.84-.45-6.83-.37-9.83.25-10.61 4.33-20.21 12.74-25.93 7.14-4.86 7.16-8.65 5.6-16.45-2.62-13.04-2.37-26.66-3.02-40.03-.39-1.61-.15-3.22-.15-4.83-.36.01-.58.01-.8.02-2.08 7.63-4.17 15.25-6.62 22.8-1.13-2.01-1.89-3.96-1.9-5.53 3.66-16.54 8.03-32.72 12.53-48.86 2.74-9.87 6.27-19.68 8.55-29.18.45-.24.9-.14 1.35-.04-1.37 8.9-2.74 17.8-4.33 28.1 9.74-15.65 20.74-28.83 37.87-34.21 2.16 1.14 3.71 1.37 5.91 1.93-9.39 3.75-17.48 8.46-24.47 15.07-11.03 10.43-16.49 23.69-19 38.16-2.65 15.32-2.27 30.74 1.32 46.42 11.8-.53 21.71 4.35 28.64 13.75 5.75 6.9 12.03 10.39 21.32 11.85 16.82 3.17 33.27 7.54 50.02 10.8 4.23 1.02 9.35.62 13.41-1.81 5.35-2.24 9.22-1.01 13.21 2.31 11.81 9.83 14.21 19.59 8.95 37.1-3.74 8.08-11.22 10.44-18.77 12.9 5.33-8.23 6.45-16.8 6.52-26.06-1.39-7.92-7.76-18.51-13.68-19.28-6.03-.78-12.24-.17-18.08-.17 11.57 17.52 10.59 36.46-2.84 52.73m-82.81-40.45c2.75-2.61 5.5-4.8 8.26-6.98.69.43.65.87.97 1.31-.9.95-1.91 1.82-2.17 2.86-6.86 8.54-8.13 17.83-4.57 27.82 2.75 7.72 9.3 11.3 16.41 12.19 12.17 1.53 24.52 1.89 36.81 2.13 7.79.15 14.82-1.9 17.83-10.58 3.91-11.27 4.11-22.63.19-33.67-1.61-3.89-4.89-8.19-8.48-9.99-13.32-6.68-27.4-11.17-42.03-10.2-18.4.43-37.41 11.82-40.43 32.91-1.81 12.67 6.55 25.44 18.26 26.34-7.19-11.07-8.7-22.37-1.05-34.14m-26.03-9.28c-3.32 12.23-1.49 23.52 5.91 33.93-3.79-11.8-2.41-23.23 4.39-33.91 6.62-10.36 16.15-16.49 28.38-19.85-14.33-6.8-31.95 2.37-38.68 19.83m9.77-82.31c.08-.38.16.02.24.43.11-.09.33-.2.32.03-.04-.72-.14-1.13-.56-.46"/><path fill="#f7f3e9" d="M749.67 259.35c21.59 23.82 11.1 63.79-23.47 71.07-16.92 3.5-36.21-3.78-45.68-17.43-10.7-15.42-11.33-34.14-1.13-49.25 16.39-24.28 50.44-25.95 70.28-4.39m-26.32 39.29c2.34-8.92 1.62-17.46-3.21-25.38-7.75-11.62-23-12.61-31.75-.48-5.64 7.67-6.82 16.71-3.91 26.22 2.11 6.91 5.84 12.72 13.25 15.23 11.57 3.3 21-2.33 25.62-15.59"/><path fill="#f8f4e9" d="M574.1 298.72c-9.11 26.1-33.59 39.16-58.68 29.4-29.05-10.39-35.04-45.28-16.43-66.66 11.46-14.89 27.47-20.05 46.92-14.84 20.87 6.07 32.88 28.04 28.19 52.1m-40.44-31.75c-10.54 9.01-13.8 24.3-7.48 36.58 3.64 7.07 9.28 11.39 17.42 11.29 8.01-.1 13.83-4.05 17.84-11.26 3.2-7.17 3.84-14.72 1.89-22.34-3.9-15.06-16.04-21.26-29.67-14.27"/><path fill="#e2713b" d="M770 163.19v25.49c-17.47-12.56-34.72-24.34-52.56-36.54 14.05-17.58 28.99-34.38 46.15-50.65 3.94 20.05 6.2 40.51 6.41 61.7"/><path fill="#e1723c" d="M493.61 131.24c.87-10.02 2.27-19.98 3.86-31.09 17.87 16.85 31.84 35.46 46.47 54.69-9.41 4.48-18.62 9.46-27.79 14.87-8.79 5.61-16.95 12.19-25.99 18.78 0-7.85-.35-15.51.09-23.13.63-11.24 2.52-22.44 3.36-34.12"/><path fill="#b55623" d="M724.37 618.41c.48 1.57 1.24 3.52 2.35 5.95-4.87 24.79-10.42 48.98-12.62 73.86-.52 2.43-.98 4.89-1.57 7.3-3.22 13.14-12.58 20.09-24.98 22.15-16.31 2.7-32.89 2.97-49.04-1.57-14.97-4.2-21.05-13.58-19.59-29.86 3.48-14.31 11.72-23.82 24.01-30.11 1.47-.75 3.31-2.17 3.61-3.57 1.11-5.13 1.64-10.38 2.39-15.59 1.5-7.74 2.23-15.48 3.78-23.75.99-1.58 1.56-2.64 2.13-3.7.4.03.8.06 1.57.09v10.52c-.03.72-.06 1.44-.66 2.76-.15 2.42-.01 4.23.12 6.04-1.2 8.86-2.27 17.75-3.75 26.57-.24 1.43-1.92 3.15-3.6 3.72-13.66 5.17-21.76 14.51-25.16 29.03-2.24 12.02 7.27 23.33 18.62 23.55-.85-5.16-2.4-10.45-2.85-15.83-.47-5.68.71-11.13 6.78-15.81-3.14 11.01-5.35 21.77 2.36 29.56 4.22 4.71 10.29 5.87 22.04 5.01-4.56-8.35-5.67-17.62-1.73-25.93.75-2.44 2.7-3.64 5.26-5.5-1.59 6.59-2.25 12.19-2.9 17.8-.18 8.2 4.77 12.83 12.86 12.11 15.98-1.98 22.48-7.51 24.13-22.46 3.22-25.39 7.45-50.53 14.07-75.26.6-2.24 1.28-4.28 2.37-7.08"/><path fill="#e9924c" d="M648.5 646.99c-.32 5.19-.85 10.44-1.96 15.57-.3 1.4-2.14 2.82-3.61 3.57-12.29 6.29-20.53 15.8-23.98 29.72-3.43-.02-6.81-.44-10.65-.93.28-15.02 1.22-31.58 1.69-47.35.45-15.2-1.4-30.16-6.08-45.1 1.25.78 3.67 1.71 3.73 3.16 5.96 14.9 14.09 28.3 28.02 37.62 2.91 2.44 8.03 2.56 12.84 3.74"/><path fill="#e67f82" d="M620.22 333.15c-10.45.19-20.83-13.75-20.92-21.71-.02-2.51 2.43-5.86 4.48-6.59 12.06-4.27 24.4-4.29 36.5-.06 4.45 1.55 5.4 5.49 4.34 9.9-2.29 10.69-9.82 16.49-20.72 19.09-1.65-.21-2.67-.42-3.68-.63"/><path fill="#5a391d" d="M620.14 333.51c1.09-.15 2.11.06 3.41.42 3.87 11.63 12.42 18.61 23.36 18.99 7.99.28 12.26-2.38 15.69-9.74.33-.71.72-1.39 1.2-2.3 4.12 1.65 3.14 4.4 1.94 7-3.61 7.8-13.01 11.62-23.08 9.7-8.83-1.69-15.52-6.42-20.3-14.22-3.03 2.86-5.55 6.51-8.53 7.97-8.28 6.22-17.48 7.91-27.34 4.43-5.19-1.84-8.62-5.65-10.01-10.98-.26-1.02.93-2.42 1.45-3.65.86.58 2.06 1.72 2.54 1.76 5.37 9.03 11.19 11.7 21.15 8.79 9.15-2.48 16-8.05 18.52-18.17"/><path fill="#984b22" d="M694.29 231.32c-2.65.61-4.89 1.34-7.17 1.55-1.78.52-4.63.34-5.22-.61-1.16-1.87-2.23-5.28-1.29-6.66 1.9-2.79 4.97-4.95 7.92-6.78 1.87-1.17 4.37-1.43 6.63-1.84 3.68-.68 7.54-1.28 8.78 3.72 1.26 5.1-.05 8.41-6.34 9.93-.95.28-1.94.59-3.31.69M544.2 219.15c5.69-3.85 19.74-.39 21.95 5.48.85 2.25.1 5.87-.82 7.82.22.71-3.73.66-5.62.19-3.23.27-6.36-1.75-9.54-2.52-6.38-1.86-7.72-4.14-5.97-10.97"/><path fill="#a84f19" d="M656.34 629.87c.07-3.24.07-6.75.07-10.26-.77-.03-1.17-.06-1.57-.09-.57 1.06-1.14 2.12-1.99 3.28 2.77-22.29 5.81-44.69 8.86-67.09.72.08 1.43.16 2.14.23-2.4 24.56-4.47 49.56-7.51 73.93m130.11-93.07c-1.93-1.21-3.48-1.44-5.26-2.6 15.16-6.5 30.62-6.67 46.15-.57-13.76-3.26-27.22-1.84-40.89 3.17m-11.82-135.85c-1.4.9-2.84 3.33-4.97 4.48-11.28 6.1-22.73 11.88-34.4 17.94-1.91.37-3.53.57-4.12.8 14.17-7.88 28.51-16.02 43.49-23.22m-118.7 237.63c-.19-1.46-.33-3.27-.2-5.33.27 1.49.26 3.23.2 5.33"/><path fill="#b55825" d="M575.16 545.82c.35.44.69.87 1.15 1.57.12.26.55.54-.39 1.39-.47-1.03-.77-1.51-1.02-2.36.06-.1.26-.6.26-.6"/><path fill="#a84f19" d="M830.2 534.71c-.43.02-.68-.1-.94-.23.37.03.74.06.94.23"/><path fill="#b55825" d="M574.86 546.13c-.29-.14-.47-.38-.64-.62.24-.03.48-.07 1.28.11-.34.2-.54.7-.64.51m-1.49-2.45c-.01-.21.06-.29.14-.37.07.09.19.18.18.27 0 .08-.14.16-.32.1"/><path fill="#f5a95c" d="M833.43 729.95c13.27-16.3 14.25-35.24 2.68-52.76 5.84 0 12.05-.61 18.08.17 5.92.77 12.29 11.36 13.68 19.28-.07 9.26-1.19 17.83-6.89 26.03.83.74.02.33-.24.31-.07.3-1.08.63-1.49.96-8.48 2.01-16.95 4.03-25.82 6.01"/><path fill="#e9924c" d="M714.5 698.16c1.8-24.82 7.35-49.01 13.36-73.73 1.33-8.04 3.42-15.66 5.5-23.29.22-.01.44-.01.8-.02 0 1.61-.24 3.22.15 4.83.65 13.37.4 26.99 3.02 40.03 1.56 7.8 1.54 11.59-5.6 16.45-8.41 5.72-12.49 15.32-12.74 25.93-.08 3-.02 5.99-.05 9.49-1.36.42-2.7.33-4.44.31"/><path fill="#b85925" d="M859.53 723.94c.13-.33 1.14-.66 1.23-.96-.13.34-.54.65-1.23.96"/><path fill="#f5a85b" d="M750.21 689.32c-7.4 11.92-5.89 23.22 1.3 34.29-11.71-.9-20.07-13.67-18.26-26.34 3.02-21.09 22.03-32.48 40.43-32.91 14.63-.97 28.71 3.52 42.03 10.2 3.59 1.8 6.87 6.1 8.48 9.99 3.92 11.04 3.72 22.4-.19 33.67-3.01 8.68-10.04 10.73-17.83 10.58-12.29-.24-24.64-.6-36.81-2.13-7.11-.89-13.66-4.47-16.41-12.19-3.56-9.99-2.29-19.28 4.57-27.82.26-1.04 1.27-1.91 2.17-2.86-.32-.44-.28-.88-.97-1.31-2.76 2.18-5.51 4.37-8.51 6.83"/><path fill="#f5a85b" d="M724.58 679.82c6.58-17.09 24.2-26.26 38.53-19.46-12.23 3.36-21.76 9.49-28.38 19.85-6.8 10.68-8.18 22.11-4.39 33.91-7.4-10.41-9.23-21.7-5.76-34.3"/><path fill="#e9924c" d="M734.37 596.94c.25.27.35.68.39 1.4.01-.23-.21-.12-.32-.03-.08-.41-.16-.81-.07-1.37"/><path fill="#583923" d="M723.23 299.21c-4.5 12.69-13.93 18.32-25.5 15.02-7.41-2.51-11.14-8.32-13.25-15.23-2.91-9.51-1.73-18.55 3.91-26.22 8.75-12.13 24-11.14 31.75.48 4.83 7.92 5.55 16.46 3.09 25.95m-189.26-32.46c13.32-6.77 25.46-.57 29.36 14.49 1.95 7.62 1.31 15.17-1.89 22.34-4.01 7.21-9.83 11.16-17.84 11.26-8.14.1-13.78-4.22-17.42-11.29-6.32-12.28-3.06-27.57 7.79-36.8"/></svg>