<svg xmlns="http://www.w3.org/2000/svg" xmlns:xlink="http://www.w3.org/1999/xlink" version="1.1" id="Layer_1" x="0px" y="0px" width="100%" viewBox="0 0 1328 800" enable-background="new 0 0 1328 800" xml:space="preserve" style="background: transparent;"><path fill="#F6AD66" opacity="1.000000" stroke="none" d="M297.49 469.98C294.4 460.24 290.59 450.49 287.56 440.38C294.44 441.52 300.9 443.2 307.35 444.55C314.93 446.34 322.48 448.27 330.93 449.88C331.42 450.16 333.25 449.13 334.5 448.71C333.84 447.72 333.4 446.23 332.48 445.83C316.57 438.79 300.6 431.89 284.64 424.96C282.71 406.94 284.13 389.17 288.25 371.54C292.93 355.89 298.19 339.52 305.92 324.53C306.8 322.82 307.19 320.34 306.69 318.52C298.33 287.94 293.25 256.83 291.98 225.18C291.33 208.93 291.79 192.63 292.94 176.36C292.34 163.26 295.71 160.42 307.98 164.78C323.45 170.28 338.43 177.12 353.99 183.92C354.94 184.63 355.51 184.81 356.86 185C356.86 185 355.99 185.12 356.16 185.21C356.92 185.61 357.49 185.8 358.71 185.99C358.71 185.99 358 186.55 358.15 186.24C358.89 186.64 359.49 186.81 360.76 186.99C360.76 186.99 360 187.43 360.15 187.24C360.89 187.64 361.48 187.81 362.68 187.98C362.68 187.98 362 187.99 362.12 188.28C377.96 199.42 393.99 209.88 409.25 221.35C414.31 225.15 417.58 225.32 421.83 221.51C422.62 221.38 423.41 221.25 424.67 221.32C425.19 221.69 425.24 221.85 425.23 222.34C425.2 223.12 425.23 223.56 425.2 224.47C425.42 229.62 425.69 234.32 425.96 239.47C426.94 249.14 427.6 258.42 429.15 267.54C429.54 269.83 432.58 272.96 434.78 273.3C437.93 273.67 440.48 271.72 442.24 269.75C443.96 267.83 444.69 264.66 445.31 261.94C446.81 247.64 448.33 233.3 450.91 218.62C450.53 216.21 450.82 214.16 451.11 212.11C454.84 211.17 458.57 210.23 462.72 209.72C463.58 210.81 463.42 211.48 462.92 212.13C459.18 232.36 459.19 252.71 461.18 273.11C461.41 277.53 463.57 280.82 468.96 281.72C472.48 282.61 475.74 280.31 477.68 276.36C478.7 274.3 479.46 272.57 479.98 269.81C485.86 247.83 491.42 226.95 499.91 205.28C503.93 205.22 507.96 205.15 512.21 205.41C511.53 207.94 510.25 208.32 509.76 209.81C506.73 219.11 503.31 228.34 501.15 237.85C499.54 244.9 499.41 252.33 499.1 259.61C498.96 263.52 500.39 266.22 504.47 266.97C508.39 267.68 511.42 266.34 513.12 262.7C514.6 259.54 515.82 256.26 517.15 253.39C520.52 244.89 523.35 236.47 527.4 228.68C531.62 221.61 534.65 213.65 542.21 209.97C544.43 208.82 547.38 208.23 548.78 206.43C574.62 173.34 604.24 143.93 638.19 119.43C640.35 117.89 642.6 116.46 644.89 115.12C651.65 111.15 655.9 112.62 659.13 119.94C668.79 141.77 675.22 164.62 680.75 187.77C686.86 213.39 689.95 239.41 691.76 265.62C691.93 268.99 691.69 270.6 691.54 273.87C691.44 278.99 691.44 281.54 691.44 284.19C693.55 285.17 695.6 285.56 696.8 286.78C699.47 289.5 702.11 292.44 704.7 295.64C710.55 305.69 716.78 315.9 723.17 326.31C723.47 326.87 723.7 327.16 723.89 327.58C723.85 327.72 723.94 327.98 723.99 328.31C724.66 329.57 725.28 330.5 725.88 331.57C725.87 331.71 725.98 331.98 726.63 332.28C726.41 332.89 726.68 333.2 726.87 333.61C726.81 333.7 726.88 333.93 726.92 334.31C727.5 336.8 728.59 337.45 728.57 338.84C735.24 356.94 739.74 375.44 738.42 394.95C735.65 395.66 733.24 396.27 730.87 397.5C704.68 405.65 678.47 414.23 652.33 423.32C650.61 423.61 649.5 426.64 648.1 427.55C650.61 428.33 652.15 430.15 653.96 429.75C669.39 427.5 684.78 424.95 700.16 422.38C712 420.41 723.81 418.29 736.19 416.14C733.27 430.3 728.14 442.46 721.94 454.29C720.23 457.56 718.26 458.44 714.89 458.6C697.28 455.72 679.67 453.46 662.35 451.34C654.29 450.41 646.51 449.73 638.72 449.15C637.52 449.65 636.22 450.15 634.97 450.7C635.81 451.92 636.38 453.66 637.54 454.26C640.28 455.52 642.78 456.33 645.49 457.95C664.82 462.54 684.18 467.9 703.51 473.36C705.16 473.82 706.67 474.76 709.19 475.92C701.39 484.75 694.19 492.89 687.36 500.98C669.25 488.91 651.91 477.37 631.25 471.82C632.11 474.1 633.38 475.86 634.93 477.33C645.67 487.53 656.43 497.69 667.26 507.78C668.66 509.79 670.48 509.92 672.11 511.34C667.76 515.15 663.68 519.61 658.98 521.96C650.68 527.86 642.56 531.6 633.49 536.36C636.25 536.31 638.39 535.72 640.5 534.65C650.7 529.44 660.83 524.11 671.21 519.12C679.11 519.27 685.79 516.23 691.67 511.64C708.85 498.82 720.22 481.46 728.33 461.94C730.4 456.98 730.8 451.33 732.18 445.62C732.75 443.38 733.41 441.5 734.98 439.63C739.26 425.53 743.55 411.26 742.95 395.53C743.42 374.78 738.81 355.55 731.19 336.74C733.63 336.97 735.82 337.46 738.21 338.21C753.32 350.71 763.24 366.36 769.98 384.26C771.37 387.95 772.68 392.56 775.26 394.82C777.25 396.95 781.16 398.14 784.24 398.18C788.15 398.24 790.2 394.85 790.87 391.17C791.43 388.82 791.87 384.89 791.76 381.77C791.8 362.84 786.29 345.88 775.98 328.69C775.6 327.65 775.24 326.91 774.88 326.17C783.26 325.41 791.62 324.61 800.98 323.89C801.98 323.72 803.98 323.82 806.58 324.2C809.48 330.82 812.29 336.9 813.95 343.29C816.4 352.74 817.91 362.44 820.7 371.97C821.43 377.95 825.32 380.51 831.4 380.24C836.42 379.62 840.37 377.74 841.22 372.25C842.8 363.34 844.66 354.28 844.32 345.26C844.5 338.88 842.8 332.45 841.94 326.37C857.95 326.78 873.35 330.51 888.75 336.9C888.75 338.43 888.67 340.98 888.26 341.69C885.35 352.92 882.23 364.11 879.51 375.39C878.28 380.5 878.5 386.62 882.72 389.65C887.72 393.49 893.93 393.37 898.52 389.51C904.36 384.91 908.93 379.34 913.24 373.45C917.92 366.4 921.68 358.57 925.94 351.7C941.46 357.86 955.43 367.16 968.91 378.11C965.17 384.19 961.24 389.52 957.54 395.16C952.55 402.44 947.49 409.63 943.24 417.56C938.49 426.49 943.74 433.5 953.75 433.47C955.87 432.95 958.22 432.75 960.25 431.78C973.26 424.6 986.4 417.22 999.53 409.85C1000.21 409.47 1000.63 408.62 1001.16 407.99C1010.15 419.61 1019.13 431.24 1027.92 443.48C1023.31 449.18 1019.36 454.61 1014.43 458.84C1008.34 465.19 1001.94 471.24 995.87 477.61C991.66 482.25 990.67 488.88 993.16 493.29C995.55 497.55 1000.73 500.19 1006.53 498.75C1013.78 497.17 1021.3 495.31 1028.12 492.82C1035 490.34 1041.65 486.93 1048.46 483.93C1051.6 493.51 1055.29 502.96 1057.77 512.71C1062.82 532.53 1064.38 552.78 1062.83 573.15C1060.57 602.83 1052.27 630.33 1031.83 653.75C1030.33 654.86 1029.24 655.52 1028.93 655.74C1028.53 651.53 1028.33 647.49 1029.64 644.23C1034.29 631.66 1022.84 609.75 1010.95 604.4C1006.81 602.53 1003.25 602.62 999.22 605.58C988.14 611.74 976.23 615.58 963.12 612.89C956.63 611.55 950.27 609.56 943.87 607.8C926.44 603.23 909.77 598.14 891.58 593.51C885.41 591.93 879.17 591.92 873.77 587.12C861.23 575.98 847.19 569.98 830.48 578.64C830 578.89 828.71 577.57 827.83 576.57C824.86 557.58 824.66 539.35 829.67 520.78C834.57 502.9 843.41 486.99 858.41 475.82C878.66 461.91 901.23 458.97 924.99 464.58C926.83 465.13 928.62 465.65 930.43 466.2C922.15 461.98 913.8 458.9 903.59 458.17C867.39 455.37 843.43 474.5 829.37 503.86C817.76 528.81 817.41 553.91 819.64 580.79C817.34 582.58 815.41 584.1 813.43 586.19C813.8 585.34 812.78 584.62 812.5 583.94C811.33 585.44 810.38 586.64 809.4 587.49C809.17 584.2 809.1 580.81 808.29 577.78C804.59 560.38 794.34 545.16 783.23 531.13C780.38 527.53 776.43 524.8 772.99 521.67C772.7 521.97 772.4 522.26 772.11 522.56C772.4 523.87 772.59 523.7 772.98 524.13C783.36 535.45 789.94 549.13 796.79 562.63C806.56 581.87 805.62 600.85 793.26 618.34C784.96 630.99 775.39 641.67 765.56 651.63C757.19 660.62 747.23 668.11 738.75 677.1C728.18 688.11 715.5 694.57 700.65 697.14C697.23 697.74 693.71 698.12 690.25 698.25C675.74 697.62 670.33 688.51 671.51 675.48C671.98 670.28 674.54 665.27 676.11 660.29C672.41 660.57 670.58 661.54 668.74 665.88C663.84 677.42 664.92 688.47 672.71 699.27C662.52 700.74 652.3 701.49 644.66 694.87C632.98 684.76 634.34 671.55 639.28 657.93C636.91 659.18 634.35 660.49 633.44 662.54C628.23 674.19 631.26 685.13 637.77 695.83C628.37 696.52 621.83 692.78 616.4 686.23C608.21 676.35 612.68 658.3 618.79 649.69C626.48 638.85 637.32 633.26 650.77 631.48C655.4 630.12 660.84 629.84 667.67 629.12C665.44 627.2 664.21 626.14 663.9 625.18C683.66 603.9 708.4 590.49 737.97 585.47C735.23 584.17 731.85 582.78 729.24 583.49C719.34 586.16 709.61 589.46 699.85 592.65C697.25 593.5 694.79 594.79 692.26 595.88C692.47 595.31 692.68 594.74 692.89 594.17C680.45 585.98 668.14 576.22 655.58 566.95C655.44 567.55 654.51 568.16 653.98 568.76C657.65 572.18 661.32 575.6 664.99 579.47C665.33 583.2 665.74 586.12 665.98 589.24C667.16 604.24 659.59 614.25 647.52 621.79C646.54 622.71 645.14 624.51 643.61 626.16C635.19 630.41 627.12 634.72 618.69 639.64C614.79 641.44 611.36 643.98 607.69 646.94C597.64 651.89 586.78 652.93 575.44 651.39C571.64 650.88 567.72 651.23 563.48 651.14C561.71 650.58 560.2 650.27 558.93 649.53C543.64 640.26 526.7 631.7 511.55 621.36C499.71 613.28 488.88 603.48 478.51 593.5C468.85 584.21 460.38 573.68 451.89 563.73C465.16 564.45 477.92 565.57 490.69 565.66C498.56 565.71 506.44 564.16 514.31 563.33C511.53 562.65 507.91 563.13 504.78 563.33C486.52 562.47 468.26 561.78 449.63 561.66C448.51 561.32 447.75 561.16 446.75 560.81C445.66 560.49 444.83 560.36 443.6 560.13C436.46 559.23 429.72 558.24 422.97 557.25C415.91 555.45 408.71 554.32 401.8 552.21C378.89 545.22 357.6 534.87 338.51 520.28C334.45 517.17 330.82 513.48 327.16 509.38C333.94 502.46 339 496.23 344.94 489.97C346.11 488.73 347.1 487.33 348.18 486.48C347.68 485.38 347.18 484.76 346.68 484.14C336.83 489.11 326.97 494.73 317.12 499.38C312.36 492.73 307.61 486.41 303.2 479.6C304.48 478.76 305.4 478.29 306.36 478.13C318.93 476.6 331.52 474.13 344.55 471.87C345.8 471.56 347.27 469.75 348.87 468.62C347.81 467.81 345.33 466.4 343.5 466.31C340.59 466.13 336.57 466.67 333.11 466.96C321.23 467.95 309.36 468.97 297.49 469.98M473.21 464.84C470.16 474.87 464.6 480.15 454.54 482.53C447.87 484.19 440.47 480.69 437.65 474.78C436.44 473.1 436.32 468.58 432.59 470.51C429 472.36 431.7 475.42 432.62 477.92C432.85 478.53 433.27 479.8 433.64 479.63C440.95 490.46 456.79 492.68 467.42 482.78C470.86 479.77 473.63 476.3 476.98 472.29C477.98 473.39 479.19 474.7 480.23 475.83C492.14 486.92 508.67 489.54 520.6 482.14C525.36 479.18 528.65 475.35 528.83 469.26C528.88 467.71 527.26 466.12 526.41 464.55C525.4 465.78 523.77 466.9 523.5 468.28C522.45 473.61 519.13 476.87 514.41 478.7C501.39 483.75 484.97 476.98 479.21 463.6C480.42 462.76 481.54 461.73 482.85 461.11C489.62 457.86 494.2 452.66 497.9 445.8C500.53 437.64 497.95 430.46 490.71 429.17C478.99 427.87 467.36 427.5 455.72 430.51C446.68 432.84 446.56 440.57 449.85 446.4C455.16 455.81 463.24 461.34 473.21 464.84M628.15 417.6C631.57 409.15 631.93 400.36 630.46 391.55C625.9 364.32 597.32 346.35 572.21 349.79C545.84 353.42 524.67 381.1 529.33 407.22C533.88 432.78 553.52 447.45 573.78 449.76C597.59 452.96 618.51 440.34 628.15 417.6M394.28 458.95C402.16 457.29 408.98 453.53 414.52 447.78C428.15 433.59 430.68 416.66 426 398.21C420.22 375.44 396.16 360.78 373.14 365.46C352.15 369.73 335.94 390.76 336.75 413.43C337.77 441.83 365.68 464.82 394.28 458.95M594.97 219.49C593.21 221.82 591.44 224.15 589.92 226.16C611.84 238.12 633.31 249.84 655.59 262C656.36 228.91 652.45 196.21 646.56 162.11C627.19 180.19 611.64 199.86 594.97 219.49M346.47 273.97C355.27 266.44 364.68 258.91 373.22 251.7C354.19 236.28 335.38 220.4 312.68 207.69C315.18 238.61 316.84 268.33 324.78 297.47C332.26 289.35 339.11 281.91 346.47 273.97M553.74 344.91C556.93 344.54 559.34 343.62 562.38 342.17C563.5 341.38 564.76 338.84 564.95 337.95C563.12 336.5 561.19 335.19 559.47 335.42C545.64 337.26 532.52 337.54 522.19 325.53C521.29 324.52 517.82 324.2 517.16 324.96C516.61 326.22 515.32 329.31 516.12 330.42C518.4 333.59 521.17 336.68 524.4 338.84C532.76 344.45 542.33 345.53 553.74 344.91M416.7 342.35C410.59 347.13 402.43 347.48 394.74 346.86C391.83 346.63 388.82 346.2 388.74 349.74C388.7 351.26 391.37 353.69 393.26 354.29C406.94 358.32 417.21 354.85 426.86 346.11C428.97 344.19 430.74 341.37 431.46 338.64C431.89 337.13 430.29 334.46 428.9 332.97C428.45 332.49 425.47 333.71 424.2 334.79C421.7 336.94 419.59 339.54 416.7 342.35M631.63 537.51C631.63 537.51 631.54 537.55 631.63 537.51M938.75 469.53C938.56 469.51 938.37 469.49 938.19 469.47C938.27 469.56 938.36 469.65 938.75 469.53M936.81 468.53C936.62 468.51 936.42 468.49 936.23 468.48C936.32 468.57 936.41 468.66 936.81 468.53M934.48 467.77C934.59 467.69 934.71 467.61 934.82 467.53C934.72 467.43 934.62 467.26 934.52 467.26C934.41 467.25 934.29 467.4 934.48 467.77M932.14 466.49C932.37 466.51 932.61 466.52 932.84 466.53C932.73 466.43 932.62 466.32 932.14 466.49z"/><path fill="#8DB8D5" opacity="1.000000" stroke="none" d="M1028.14 656.17C1029.24 655.52 1030.33 654.86 1031.72 654.57C1048.91 656.61 1065.85 659.17 1081.47 666.75C1082.37 667.19 1083.29 667.61 1084.14 668.12C1090.93 672.25 1091.15 678.22 1084 681.78C1077.35 685.93 1070.28 688.14 1063.45 689.6C1040.28 694.16 1017.44 698.59 994.46 701.82C970.14 705.25 945.65 707.42 921.2 709.78C909.29 710.94 897.32 711.41 885.36 711.97C861.45 713.99 837.52 714.78 813.6 715.1C805.96 715.43 798.32 715.95 790.67 716C733.39 716.34 675.4 716.81 617.77 716.77C595.65 716.76 573.53 715.71 551.42 714.82C532.66 714.63 513.89 713.14 495.16 711.78C467.67 709.77 440.22 707.35 412.75 705.28C379.47 702.21 346.37 698.37 313.95 689.82C305.81 687.76 297.75 684.72 290.24 680.96C283.41 677.35 283.5 671.83 290.79 668.11C305.35 660.83 320.59 657.93 336.12 655.2C338.39 654.59 340.71 654.4 343.54 654.49C346.89 668.5 355.48 677.62 368.46 680.67C392.48 687.45 417.98 689.81 441.69 685.23C472.97 680.33 500.16 665.29 525.43 647.16C529.88 643.98 533.37 642.76 538.55 645.94C557.92 657.83 578.81 665.7 601.56 668.28C602.87 668.43 604.78 670.48 605.12 671.88C607.77 688.7 615.65 697.13 632.22 700.92C652.25 705.49 672.6 705.53 692.87 704.39C701.66 703.9 710.46 701 718.94 698.22C730.63 694.4 739.46 686.59 747.88 677.46C750.67 674.62 753.6 673.45 757.62 673.7C774.66 674.76 791.55 673.68 808.35 670.3C815.56 669.12 822.81 667.7 828.49 675.26C828.42 675.68 828.7 675.86 829.12 676.34C839.98 684.29 849.76 689.77 862.71 692.54C862.57 692.14 861.93 691.99 862 692.2C862.28 692.65 862.54 692.75 863.26 692.84C887.19 696.85 910.84 697.83 935.92 696.17C944.97 694.79 954.35 693.36 964.18 691.98C978.51 689.48 992.17 686.28 1004.33 678.37C1005.97 677.65 1005.56 677.32 1006.15 676.98C1006 676.98 1005.98 677.43 1006.32 676.94C1014.83 672.22 1021.57 665.99 1027.32 658.16C1027.77 657.3 1027.93 656.67 1028.84 656.74C1028.69 656.12 1028.14 656.17 1028.14 656.17z"/><path fill="#AE5A2C" opacity="1.000000" stroke="none" d="M862.85 692.95C849.76 689.77 839.98 684.29 829.1 676.12C828.56 675.31 828.29 675.12 827.96 675.24C822.81 667.7 815.56 669.12 808.35 670.3C791.55 673.68 774.66 674.76 757.62 673.7C753.6 673.45 750.67 674.62 747.88 677.46C739.46 686.59 730.63 694.4 718.94 698.22C710.46 701 701.66 703.9 692.87 704.39C672.6 705.53 652.25 705.49 632.22 700.92C615.65 697.13 607.77 688.7 605.12 671.88C604.78 670.48 602.87 668.43 601.56 668.28C578.81 665.7 557.92 657.83 538.55 645.94C533.37 642.76 529.88 643.98 525.43 647.16C500.16 665.29 472.97 680.33 441.69 685.23C417.98 689.81 392.48 687.45 368.46 680.67C355.48 677.62 346.89 668.5 343.95 654.53C344.9 623.15 363.76 609.86 404.18 611.64C409.33 598.4 413.85 585.14 418.76 571.93C419.97 568.65 421.64 565.55 422.83 562.27C423.33 560.88 423.11 559.22 423.1 557.36C429.72 558.24 436.46 559.23 443.6 560.43C444 561.23 443.99 561.63 443.57 562.22C440.35 561.58 436.83 561.48 433.85 560.61C430.5 559.63 428.74 560.89 427.64 563.74C425.68 568.82 423.81 573.94 421.64 579.27C419.92 584 418.46 588.51 416.72 593.22C413.68 599.6 410.92 605.78 408.18 611.94C409.72 613.62 410.83 613.88 413.21 615.61C410.31 615.83 408.8 616.4 407.29 616.47C400.98 616.78 394.67 615.91 388.37 616.75C379.25 616.32 370.71 618.51 363.96 623.85C350.88 632.41 344.46 651.53 352.93 662.33C353.13 662.81 353.29 663.57 353.45 663.31C353.36 662.82 353.27 662.34 353.19 661.45C352.74 659.47 352.19 657.91 351.82 656.3C350.63 651.14 350.32 646.11 354.23 641.77C353.24 666.44 361.67 676.78 382.27 677.41C382.28 676.93 381.88 676.44 381.58 676.81C374.43 667.53 371.73 649.84 382.28 640.79C384.94 637.23 387.97 634.67 393.68 636.12C391.43 637.83 390.88 638.76 388.86 639.81C384.12 643.88 381.83 648.79 380.96 655.27C380.72 668.42 388.93 678.32 402.73 680.95C417.7 683.69 431.11 680.86 445.53 678.17C453.44 676.27 461.33 674.8 468.36 671.63C483.21 664.93 497.69 657.38 512.15 649.83C517.3 647.14 521.94 643.46 527.33 640.88C520.45 635.48 514.66 631.59 509.55 627.46C504.64 623.73 499.16 619.72 494.2 615.84C494.18 615.83 494.15 615.8 494.66 615.48C475.8 599.84 460.17 582.15 446.71 562.87C446.45 562.62 446.73 561.53 447 561C447.75 561.16 448.51 561.32 449.66 561.33C450.5 562.34 450.95 563.16 451.39 563.69C460.38 573.68 468.85 584.21 478.51 593.5C488.88 603.48 499.71 613.28 511.55 621.36C526.7 631.7 543.64 640.26 558.93 649.53C560.2 650.27 561.71 650.58 563.73 651.39C577.43 657.59 591.16 661.1 604.99 662.54C607.56 657.3 609.72 652.27 612.44 647.57C614.23 644.48 616.82 641.86 619.52 639.32C627.12 634.72 635.19 630.41 644.12 625.99C653.48 625.3 660.56 621.66 665.91 614.7C666.4 614.64 667.18 613.66 667.83 613.14C673.85 608.34 679.87 603.54 686.22 598.48C680.19 590.64 672.91 584.49 664.99 579.26C661.32 575.6 657.65 572.18 653.98 568.76C654.51 568.16 655.44 567.55 655.58 566.95C668.14 576.22 680.45 585.98 692.89 594.17C692.68 594.74 692.47 595.31 692.26 595.88C694.79 594.79 697.25 593.5 699.85 592.65C709.61 589.46 719.34 586.16 729.24 583.49C731.85 582.78 735.23 584.17 737.97 585.47C708.4 590.49 683.66 603.9 663.9 625.18C664.21 626.14 665.44 627.2 667.67 629.12C660.84 629.84 655.4 630.12 650.77 631.48C637.32 633.26 626.48 638.85 618.79 649.69C612.68 658.3 608.21 676.35 616.4 686.23C621.83 692.78 628.37 696.52 637.77 695.83C631.26 685.13 628.23 674.19 633.44 662.54C634.35 660.49 636.91 659.18 639.28 657.93C634.34 671.55 632.98 684.76 644.66 694.87C652.3 701.49 662.52 700.74 672.71 699.27C664.92 688.47 663.84 677.42 668.74 665.88C670.58 661.54 672.41 660.57 676.11 660.29C674.54 665.27 671.98 670.28 671.51 675.48C670.33 688.51 675.74 697.62 690.25 698.25C693.71 698.12 697.23 697.74 700.65 697.14C715.5 694.57 728.18 688.11 738.75 677.1C747.23 668.11 757.19 660.62 765.56 651.63C775.39 641.67 784.96 630.99 793.26 618.34C805.62 600.85 806.56 581.87 796.79 562.63C789.94 549.13 783.36 535.45 772.98 524.13C772.59 523.7 772.4 523.87 772.11 522.56C772.4 522.26 772.7 521.97 772.99 521.67C776.43 524.8 780.38 527.53 783.23 531.13C794.34 545.16 804.59 560.38 808.29 577.78C809.1 580.81 809.17 584.2 809.28 587.95C809.31 603.76 803.38 617 794.64 628.31C784.52 641.4 772.47 653.18 761.17 665.17C760.27 666.14 758.69 666.49 757.42 667.13C757.91 668.36 758.4 668.95 758.89 669.86C771.5 668.83 783.22 667.93 795.36 666.71C800.94 666.15 806.46 664.95 812.31 664.43C812.14 666.53 812.29 667.29 812.43 668.56C817.26 668.32 819.45 665.41 821.37 662.52C823.8 664.14 824.51 666.97 825.97 668.29C826.14 668.79 826.29 669.55 826.44 669.32C826.32 668.86 826.2 668.4 826.11 667.54C826.43 665.81 825.93 664.49 826.2 663.12C828.73 662.48 830.88 661.21 833.26 660.27C835.47 669.38 840.53 676.16 847.65 681.52C852.4 685.98 857.22 688.57 862.85 692.95M843.51 680.43C843.51 680.43 843.57 680.52 843.51 680.43z"/><path fill="#B65D30" opacity="1.000000" stroke="none" d="M499.46 205.18C491.42 226.95 485.86 247.83 479.98 269.81C479.46 272.57 478.7 274.3 477.68 276.36C475.74 280.31 472.48 282.61 468.96 281.72C463.57 280.82 461.41 277.53 461.18 273.11C459.19 252.71 459.18 232.36 462.92 212.13C463.42 211.48 463.58 210.81 463.11 209.74C475.63 207.92 487.35 206.5 499.46 205.18z"/><path fill="#B75D30" opacity="1.000000" stroke="none" d="M1001.33 407.67C1000.63 408.62 1000.21 409.47 999.53 409.85C986.4 417.22 973.26 424.6 960.25 431.78C958.22 432.75 955.87 432.95 953.75 433.47C943.74 433.5 938.49 426.49 943.24 417.56C947.49 409.63 952.55 402.44 957.54 395.16C961.24 389.52 965.17 384.19 969.15 378.43C979.66 387.84 990.28 397.6 1001.33 407.67z"/><path fill="#B65C2F" opacity="1.000000" stroke="none" d="M1048.42 483.53C1041.65 486.93 1035 490.34 1028.12 492.82C1021.3 495.31 1013.78 497.17 1006.53 498.75C1000.73 500.19 995.55 497.55 993.16 493.29C990.67 488.88 991.66 482.25 995.87 477.61C1001.94 471.24 1008.34 465.19 1014.43 458.84C1019.36 454.61 1023.31 449.18 1027.97 443.81C1036.82 455.77 1043.68 468.9 1048.42 483.53z"/><path fill="#B65D30" opacity="1.000000" stroke="none" d="M925.78 350.76C921.68 358.57 917.92 366.4 913.24 373.45C908.93 379.34 904.36 384.91 898.52 389.51C893.93 393.37 887.72 393.49 882.72 389.65C878.5 386.62 878.28 380.5 879.51 375.39C882.23 364.11 885.35 352.92 888.26 341.69C888.67 340.98 888.75 338.43 888.98 336.37C901.19 340.78 913.4 345.61 925.78 350.76z"/><path fill="#B65C2F" opacity="1.000000" stroke="none" d="M841.65 325.76C842.8 332.45 844.5 338.88 844.32 345.26C844.66 354.28 842.8 363.34 841.22 372.25C840.37 377.74 836.42 379.62 831.4 380.24C825.32 380.51 821.43 377.95 820.7 371.97C817.91 362.44 816.4 352.74 813.95 343.29C812.29 336.9 809.48 330.82 807.37 324.26C818.38 324.45 829.87 324.97 841.65 325.76z"/><path fill="#B65D30" opacity="1.000000" stroke="none" d="M541.97 209.66C534.65 213.65 531.62 221.61 527.4 228.68C523.35 236.47 520.52 244.89 517.15 253.39C515.82 256.26 514.6 259.54 513.12 262.7C511.42 266.34 508.39 267.68 504.47 266.97C500.39 266.22 498.96 263.52 499.1 259.61C499.41 252.33 499.54 244.9 501.15 237.85C503.31 228.34 506.73 219.11 509.76 209.81C510.25 208.32 511.53 207.94 512.66 205.52C522.49 206.65 532.11 208.15 541.97 209.66z"/><path fill="#B15A2C" opacity="1.000000" stroke="none" d="M284.64 425.42C300.6 431.89 316.57 438.79 332.48 445.83C333.4 446.23 333.84 447.72 334.5 448.71C333.25 449.13 331.42 450.16 330.93 449.88C322.48 448.27 314.93 446.34 307.35 444.55C300.9 443.2 294.44 441.52 287.6 439.99C286.36 435.27 285.5 430.57 284.64 425.42z"/><path fill="#B15A2C" opacity="1.000000" stroke="none" d="M297.56 470.36C309.36 468.97 321.23 467.95 333.11 466.96C336.57 466.67 340.59 466.13 343.5 466.31C345.33 466.4 347.81 467.81 348.87 468.62C347.27 469.75 345.8 471.56 344.55 471.87C331.52 474.13 318.93 476.6 306.36 478.13C305.4 478.29 304.48 478.76 303.15 479.25C301.51 476.52 299.34 473.63 297.56 470.36z"/><path fill="#B16035" opacity="1.000000" stroke="none" d="M421.51 221.33C417.58 225.32 414.31 225.15 409.25 221.35C393.99 209.88 377.96 199.42 362.11 188.25C368.66 191.18 375.52 194.86 381.93 197.78C393.69 204.56 405.18 211.82 416.8 218.85C418.21 219.71 419.73 220.39 421.51 221.33z"/><path fill="#B15A2C" opacity="1.000000" stroke="none" d="M317.13 499.37C326.97 494.73 336.83 489.11 346.68 484.14C347.18 484.76 347.68 485.38 348.18 486.48C347.1 487.33 346.11 488.73 344.94 489.97C339 496.23 333.94 502.46 326.95 509.56C323.63 506.18 320.39 502.94 317.13 499.37z"/><path fill="#B16035" opacity="1.000000" stroke="none" d="M723.1 326.42C716.78 315.9 710.55 305.69 704.7 295.64C702.11 292.44 699.47 289.5 696.8 286.78C695.6 285.56 693.55 285.17 691.44 284.19C691.44 281.54 691.44 278.99 691.37 274.38C693.28 276.89 695.62 279.85 697.27 282.45C708.81 296.46 719.2 310.37 726.22 327.35C726.18 327.82 725.94 328.58 725.61 328.31C724.83 328 724.39 327.99 723.94 327.98C723.94 327.98 723.85 327.72 723.84 327.3C723.58 326.6 723.34 326.32 723.1 326.42z"/><path fill="#B16035" opacity="1.000000" stroke="none" d="M774.46 326.86C775.24 326.91 775.6 327.65 775.63 328.62C774.18 328.36 772.62 327.27 771.41 327.44C765.72 328.22 760.5 329.24 754.42 330.38C748.95 331.49 743.53 332.85 738.83 334.12C737.93 333.91 737.76 333.73 737.76 333.73C749.85 331.15 761.94 328.57 774.46 326.86z"/><path fill="#B16035" opacity="1.000000" stroke="none" d="M425.29 222.12C425.24 221.85 425.19 221.69 425.71 221.29C433.43 218.54 441.86 215.57 450.7 212.83C450.82 214.16 450.53 216.21 449.85 218.39C449.3 217.12 449.14 215.73 448.87 213.4C440.84 216.33 433.62 219.17 425.29 222.12z"/><path fill="#B16035" opacity="1.000000" stroke="none" d="M738.41 337.95C735.82 337.46 733.63 336.97 730.94 336.6C729.95 336.16 729.46 335.59 729.12 334.91C729.26 334.79 729.54 334.55 729.54 334.55C732.16 334.3 734.5 334.57 737.37 333.77C737.76 333.73 737.93 333.91 737.98 334.38C738.2 335.89 738.12 336.92 738.41 337.95z"/><path fill="#B16035" opacity="1.000000" stroke="none" d="M725.98 331.98C725.98 331.98 725.87 331.71 725.91 331.14C725.95 329.73 725.95 328.9 725.94 328.58C725.94 328.58 726.18 327.82 726.31 327.71C727.39 329.69 728.35 331.79 729.42 334.22C729.54 334.55 729.26 334.79 728.86 334.77C727.93 334.48 727.4 334.2 726.88 333.93C726.88 333.93 726.81 333.7 726.8 333.3C726.53 332.59 726.25 332.28 725.98 331.98z"/><path fill="#B16035" opacity="1.000000" stroke="none" d="M355.92 184.74C355.51 184.81 354.94 184.63 354.18 184.21C354.58 184.14 355.16 184.31 355.92 184.74z"/><path fill="#B16035" opacity="1.000000" stroke="none" d="M361.94 187.69C361.48 187.81 360.89 187.64 360.14 187.2C360.59 187.84 361.2 187.24 361.94 187.69z"/><path fill="#B16035" opacity="1.000000" stroke="none" d="M359.95 186.69C359.49 186.81 358.89 186.64 358.14 186.2C358.59 186.83 359.21 186.24 359.95 186.69z"/><path fill="#B16035" opacity="1.000000" stroke="none" d="M357.93 185.7C357.49 185.8 356.92 185.61 356.15 185.17C356.58 185.83 357.19 185.25 357.93 185.7z"/><path fill="#F6F5EF" opacity="1.000000" stroke="none" d="M628.45 417.97C618.51 440.34 597.59 452.96 573.78 449.76C553.52 447.45 533.88 432.78 529.33 407.22C524.67 381.1 545.84 353.42 572.21 349.79C597.32 346.35 625.9 364.32 630.46 391.55C631.93 400.36 631.57 409.15 628.45 417.97M560.59 429.75C571.5 436.36 584.78 428.99 589.48 420.95C596.59 409.71 595.16 393.58 587.99 383.27C577.91 371.53 561.67 371.7 552.95 383.63C542.97 397.26 546.31 418.74 560.59 429.75z"/><path fill="#B25B2D" opacity="1.000000" stroke="none" d="M833.2 659.99C830.88 661.21 828.73 662.48 826.22 663.86C825.86 663.97 825.92 663.76 825.94 662.73C825.6 661.59 825.23 660.81 824.62 659.68C820.93 628.42 837.89 610.64 863.96 598.83C859.71 594.72 854.68 593.91 849.41 596.21C843.32 598.87 837.24 601.56 830.94 603.95C828.81 602.77 826.89 601.88 824.84 600.7C824.41 599.63 824.12 598.85 824.22 597.97C828.5 592.93 823.63 588.68 823.68 584.17C822.4 578.76 822.69 577.61 827.8 576.99C828.71 577.57 830 578.89 830.48 578.64C847.19 569.98 861.23 575.98 873.77 587.12C879.17 591.92 885.41 591.93 891.58 593.51C909.77 598.14 926.44 603.23 943.87 607.8C950.27 609.56 956.63 611.55 963.12 612.89C976.23 615.58 988.14 611.74 999.22 605.58C1003.25 602.62 1006.81 602.53 1010.95 604.4C1022.84 609.75 1034.29 631.66 1029.64 644.23C1028.33 647.49 1028.53 651.53 1028.93 655.74C1028.14 656.17 1028.69 656.12 1027.8 656.27C1027.38 657.72 1027.21 657.73 1027.5 658.38C1021.57 665.99 1014.83 672.22 1006.29 676.56C1007.34 670.85 1008.75 665.45 1010.32 659.68C1012.4 642.95 1006.99 629.24 995.19 618.62C993.83 616.78 991.23 616.46 988.94 616.63C981.88 617.22 974.86 618.27 967.82 619.58C966.13 619.25 964.4 619.86 961.54 619.86C974.26 633.69 978.85 648.48 976.49 666.23C974.31 676.82 970.53 684.75 963.74 691.93C954.35 693.36 944.97 694.79 935.35 695.91C937.47 693.75 940.17 692.22 942.11 690.17C964.58 664.53 955.19 618.33 926.51 609.18C907.41 603.33 889.35 597.86 869.7 603.92C855.12 608.42 843.97 616.6 837.15 630.43C832.5 639.86 831.72 649.77 833.2 659.99z"/><path fill="#F6F5EF" opacity="1.000000" stroke="none" d="M393.86 459.28C365.68 464.82 337.77 441.83 336.75 413.43C335.94 390.76 352.15 369.73 373.14 365.46C396.16 360.78 420.22 375.44 426 398.21C430.68 416.66 428.15 433.59 414.52 447.78C408.98 453.53 402.16 457.29 393.86 459.28M419.26 405.72C417.83 402.81 416.91 399.74 415.38 397.19C411.28 389.74 405.24 384.94 396.57 385.2C387.75 385.48 381.68 390.5 378.37 398.29C372.77 409.55 373.86 420.55 380.16 431.12C384.56 438.49 391.13 442.28 399.69 441.62C408.43 440.96 414.42 436.35 417.89 428.65C420.94 421.69 420.89 413.85 419.26 405.72z"/><path fill="#B15A2C" opacity="1.000000" stroke="none" d="M742.9 395.99C743.55 411.26 739.26 425.53 734.98 439.63C733.41 441.5 732.75 443.38 731.75 445.84C723.58 459.22 716.48 472.19 707.62 484.42C700.98 492.93 692.71 500.12 683.8 508.48C682.65 508.72 681.87 509.4 681.45 510.59C681 510.29 681.85 510.1 680.67 510.8C677.54 510.36 674.82 510.67 672.1 510.97C670.48 509.92 668.66 509.79 667.26 507.78C656.43 497.69 645.67 487.53 634.93 477.33C633.38 475.86 632.11 474.1 631.25 471.82C651.91 477.37 669.25 488.91 687.36 500.98C694.19 492.89 701.39 484.75 709.19 475.92C706.67 474.76 705.16 473.82 703.51 473.36C684.18 467.9 664.82 462.54 645.49 457.95C642.78 456.33 640.28 455.52 637.54 454.26C636.38 453.66 635.81 451.92 634.97 450.7C636.22 450.15 637.52 449.65 638.72 449.15C646.51 449.73 654.29 450.41 662.35 451.34C679.67 453.46 697.28 455.72 714.89 458.6C718.26 458.44 720.23 457.56 721.94 454.29C728.14 442.46 733.27 430.3 736.19 416.14C723.81 418.29 712 420.41 700.16 422.38C684.78 424.95 669.39 427.5 653.96 429.75C652.15 430.15 650.61 428.33 648.1 427.55C649.5 426.64 650.61 423.61 652.33 423.32C678.47 414.23 704.68 405.65 730.87 397.5C733.24 396.27 735.65 395.66 738.78 395.24C740.64 395.35 741.77 395.67 742.9 395.99z"/><path fill="#E27542" opacity="1.000000" stroke="none" d="M595.22 219.23C611.64 199.86 627.19 180.19 646.56 162.11C652.45 196.21 656.36 228.91 655.59 262C633.31 249.84 611.84 238.12 589.92 226.16C591.44 224.15 593.21 221.82 595.22 219.23z"/><path fill="#E27542" opacity="1.000000" stroke="none" d="M346.22 274.22C339.11 281.91 332.26 289.35 324.78 297.47C316.84 268.33 315.18 238.61 312.68 207.69C335.38 220.4 354.19 236.28 373.22 251.7C364.68 258.91 355.27 266.44 346.22 274.22z"/><path fill="#B65C2F" opacity="1.000000" stroke="none" d="M738.21 338.21C738.12 336.92 738.2 335.89 738.59 334.47C743.53 332.85 748.95 331.49 754.42 330.38C760.5 329.24 765.72 328.22 771.41 327.44C772.62 327.27 774.18 328.36 775.66 328.93C786.29 345.88 791.8 362.84 791.76 381.77C791.87 384.89 791.43 388.82 790.87 391.17C790.2 394.85 788.15 398.24 784.24 398.18C781.16 398.14 777.25 396.95 775.26 394.82C772.68 392.56 771.37 387.95 769.98 384.26C763.24 366.36 753.32 350.71 738.21 338.21z"/><path fill="#EA9452" opacity="1.000000" stroke="none" d="M823.83 598.67C824.12 598.85 824.41 599.63 824.59 600.93C822.28 604.61 820.74 607.78 817.58 611.14C807.29 627.98 808.14 644.86 816.31 662.45C814.9 662.7 813.45 663.37 812.51 664.39C806.46 664.95 800.94 666.15 795.36 666.71C783.22 667.93 771.5 668.83 758.89 669.86C758.4 668.95 757.91 668.36 757.42 667.13C758.69 666.49 760.27 666.14 761.17 665.17C772.47 653.18 784.52 641.4 794.64 628.31C803.38 617 809.31 603.76 809.33 588.29C810.38 586.64 811.33 585.44 812.5 583.94C812.78 584.62 813.8 585.34 813.43 586.19C815.41 584.1 817.34 582.58 819.74 580.4C821.41 586.55 822.62 592.31 823.83 598.67z"/><path fill="#E8858A" opacity="1.000000" stroke="none" d="M473.45 464.14C463.24 461.34 455.16 455.81 449.85 446.4C446.56 440.57 446.68 432.84 455.72 430.51C467.36 427.5 478.99 427.87 490.71 429.17C497.95 430.46 500.53 437.64 497.9 445.8C494.2 452.66 489.62 457.86 482.85 461.11C481.54 461.73 480.42 462.76 478.76 463.74C476.69 463.96 475.7 464.49 473.45 464.14z"/><path fill="#AC5828" opacity="1.000000" stroke="none" d="M824.22 597.97C822.62 592.31 821.41 586.55 820.1 580.39C817.41 553.91 817.76 528.81 829.37 503.86C843.43 474.5 867.39 455.37 903.59 458.17C913.8 458.9 922.15 461.98 930.43 466.2C928.62 465.65 926.83 465.13 924.99 464.58C901.23 458.97 878.66 461.91 858.41 475.82C843.41 486.99 834.57 502.9 829.67 520.78C824.66 539.35 824.86 557.58 827.83 576.57C822.69 577.61 822.4 578.76 823.68 584.17C823.63 588.68 828.5 592.93 824.22 597.97z"/><path fill="#B45C30" opacity="1.000000" stroke="none" d="M425.23 222.34C433.62 219.17 440.84 216.33 448.87 213.4C449.14 215.73 449.3 217.12 449.7 218.75C448.33 233.3 446.81 247.64 445.31 261.94C444.69 264.66 443.96 267.83 442.24 269.75C440.48 271.72 437.93 273.67 434.78 273.3C432.58 272.96 429.54 269.83 429.15 267.54C427.6 258.42 426.94 249.14 426.25 239.17C426.7 235.63 427.11 232.83 426.91 230.74C426.77 228.22 425.84 226.26 425.26 224.49C425.23 223.56 425.2 223.12 425.23 222.34z"/><path fill="#593B22" opacity="1.000000" stroke="none" d="M473.33 464.49C475.7 464.49 476.69 463.96 478.6 464.56C484.97 476.98 501.39 483.75 514.41 478.7C519.13 476.87 522.45 473.61 523.5 468.28C523.77 466.9 525.4 465.78 526.41 464.55C527.26 466.12 528.88 467.71 528.83 469.26C528.65 475.35 525.36 479.18 520.6 482.14C508.67 489.54 492.14 486.92 480.23 475.83C479.19 474.7 477.98 473.39 476.98 472.29C473.63 476.3 470.86 479.77 467.42 482.78C456.79 492.68 440.95 490.46 433.64 479.63C433.27 479.8 432.85 478.53 432.62 477.92C431.7 475.42 429 472.36 432.59 470.51C436.32 468.58 436.44 473.1 437.65 474.78C440.47 480.69 447.87 484.19 454.54 482.53C464.6 480.15 470.16 474.87 473.33 464.49z"/><path fill="#EA9453" opacity="1.000000" stroke="none" d="M684.17 508.61C692.71 500.12 700.98 492.93 707.62 484.42C716.48 472.19 723.58 459.22 731.7 446.21C730.8 451.33 730.4 456.98 728.33 461.94C720.22 481.46 708.85 498.82 691.67 511.64C685.79 516.23 679.11 519.27 671.37 518.84C674.57 515.54 677.83 512.82 681.85 510.1C681.85 510.1 681 510.29 681.37 510.54C682.55 509.41 683.36 508.73 684.17 508.61z"/><path fill="#EA9453" opacity="1.000000" stroke="none" d="M664.99 579.47C672.91 584.49 680.19 590.64 686.22 598.48C679.87 603.54 673.85 608.34 667.83 613.14C667.18 613.66 666.4 614.64 665.91 614.7C660.56 621.66 653.48 625.3 644.36 625.89C645.14 624.51 646.54 622.71 647.52 621.79C659.59 614.25 667.16 604.24 665.98 589.24C665.74 586.12 665.33 583.2 664.99 579.47z"/><path fill="#623E24" opacity="1.000000" stroke="none" d="M552.62 344.94C542.33 345.53 532.76 344.45 524.4 338.84C521.17 336.68 518.4 333.59 516.12 330.42C515.32 329.31 516.61 326.22 517.16 324.96C517.82 324.2 521.29 324.52 522.19 325.53C532.52 337.54 545.64 337.26 559.47 335.42C561.19 335.19 563.12 336.5 564.95 337.95C564.76 338.84 563.5 341.38 562.38 342.17C559.34 343.62 556.93 344.54 552.62 344.94z"/><path fill="#623E24" opacity="1.000000" stroke="none" d="M417.12 342.15C419.59 339.54 421.7 336.94 424.2 334.79C425.47 333.71 428.45 332.49 428.9 332.97C430.29 334.46 431.89 337.13 431.46 338.64C430.74 341.37 428.97 344.19 426.86 346.11C417.21 354.85 406.94 358.32 393.26 354.29C391.37 353.69 388.7 351.26 388.74 349.74C388.82 346.2 391.83 346.63 394.74 346.86C402.43 347.48 410.59 347.13 417.12 342.15z"/><path fill="#EA9453" opacity="1.000000" stroke="none" d="M618.69 639.64C616.82 641.86 614.23 644.48 612.44 647.57C609.72 652.27 607.56 657.3 604.99 662.54C591.16 661.1 577.43 657.59 564.98 651.43C567.72 651.23 571.64 650.88 575.44 651.39C586.78 652.93 597.64 651.89 607.69 646.94C611.36 643.98 614.79 641.44 618.69 639.64z"/><path fill="#AC5828" opacity="1.000000" stroke="none" d="M742.95 395.53C741.77 395.67 740.64 395.35 739.16 394.98C739.74 375.44 735.24 356.94 728.57 338.84C728.59 337.45 727.5 336.8 726.92 334.31C727.4 334.2 727.93 334.48 728.72 334.89C729.46 335.59 729.95 336.16 730.68 336.86C738.81 355.55 743.42 374.78 742.95 395.53z"/><path fill="#AC5828" opacity="1.000000" stroke="none" d="M451.89 563.73C450.95 563.16 450.5 562.34 450.29 561.4C468.26 561.78 486.52 562.47 504.78 563.33C507.91 563.13 511.53 562.65 514.31 563.33C506.44 564.16 498.56 565.71 490.69 565.66C477.92 565.57 465.16 564.45 451.89 563.73z"/><path fill="#AC5828" opacity="1.000000" stroke="none" d="M680.67 510.8C677.83 512.82 674.57 515.54 671.15 518.54C660.83 524.11 650.7 529.44 640.5 534.65C638.39 535.72 636.25 536.31 633.49 536.36C642.56 531.6 650.68 527.86 658.98 521.96C663.68 519.61 667.76 515.15 672.11 511.34C674.82 510.67 677.54 510.36 680.67 510.8z"/><path fill="#B16035" opacity="1.000000" stroke="none" d="M425.2 224.47C425.84 226.26 426.77 228.22 426.91 230.74C427.11 232.83 426.7 235.63 426.26 238.71C425.69 234.32 425.42 229.62 425.2 224.47z"/><path fill="#AC5828" opacity="1.000000" stroke="none" d="M446.75 560.81C446.73 561.53 446.45 562.62 445.79 562.8C444.92 562.69 444.46 562.36 443.99 562.33C443.99 561.63 444 561.23 444.4 560.53C444.83 560.36 445.66 560.49 446.75 560.81z"/><path fill="#AC5828" opacity="1.000000" stroke="none" d="M725.61 328.31C725.95 328.9 725.95 329.73 725.93 331C725.28 330.5 724.66 329.57 723.99 328.31C724.39 327.99 724.83 328 725.61 328.31z"/><path fill="#AC5828" opacity="1.000000" stroke="none" d="M723.17 326.31C723.34 326.32 723.58 326.6 723.88 327.17C723.7 327.16 723.47 326.87 723.17 326.31z"/><path fill="#AC5828" opacity="1.000000" stroke="none" d="M631.58 537.53C631.54 537.55 631.63 537.51 631.58 537.53z"/><path fill="#AC5828" opacity="1.000000" stroke="none" d="M938.6 469.63C938.36 469.65 938.27 469.56 938.19 469.47C938.37 469.49 938.56 469.51 938.6 469.63z"/><path fill="#AC5828" opacity="1.000000" stroke="none" d="M936.65 468.64C936.41 468.66 936.32 468.57 936.23 468.48C936.42 468.49 936.62 468.51 936.65 468.64z"/><path fill="#AC5828" opacity="1.000000" stroke="none" d="M934.33 467.63C934.29 467.4 934.41 467.25 934.52 467.26C934.62 467.26 934.72 467.43 934.82 467.53C934.71 467.61 934.59 467.69 934.33 467.63z"/><path fill="#AC5828" opacity="1.000000" stroke="none" d="M932.33 466.35C932.62 466.32 932.73 466.43 932.84 466.53C932.61 466.52 932.37 466.51 932.33 466.35z"/><path fill="#AC5828" opacity="1.000000" stroke="none" d="M726.63 332.28C726.25 332.28 726.53 332.59 726.87 333.2C726.68 333.2 726.41 332.89 726.63 332.28z"/><path fill="#F6AD67" opacity="1.000000" stroke="none" d="M833.26 660.27C831.72 649.77 832.5 639.86 837.15 630.43C843.97 616.6 855.12 608.42 869.7 603.92C889.35 597.86 907.41 603.33 926.51 609.18C955.19 618.33 964.58 664.53 942.11 690.17C940.17 692.22 937.47 693.75 934.87 695.86C910.84 697.83 887.19 696.85 863.14 692.69C862.4 692.24 862.17 692.1 861.93 691.99C861.93 691.99 862.57 692.14 862.71 692.54C857.22 688.57 852.4 685.98 847.65 681.52C840.53 676.16 835.47 669.38 833.26 660.27z"/><path fill="#EC9A57" opacity="1.000000" stroke="none" d="M1010.16 660.62C1008.75 665.45 1007.34 670.85 1005.95 676.62C1005.98 677.43 1006 676.98 1005.71 677C1004.97 677.35 1004.5 677.68 1004.35 678.17C992.17 686.28 978.51 689.48 964.18 691.98C970.53 684.75 974.31 676.82 976.97 666.25C988.5 664.11 999.33 662.32 1010.16 660.62z"/><path fill="#B25B2D" opacity="1.000000" stroke="none" d="M1004.33 678.37C1004.5 677.68 1004.97 677.35 1005.73 677C1005.56 677.32 1005.97 677.65 1004.33 678.37z"/><path fill="#F6AD66" opacity="1.000000" stroke="none" d="M1027.32 658.16C1027.21 657.73 1027.38 657.72 1027.82 656.22C1027.93 656.67 1027.77 657.3 1027.32 658.16z"/><path fill="#B25B2D" opacity="1.000000" stroke="none" d="M828.49 675.26C828.29 675.12 828.56 675.31 828.87 675.82C828.7 675.86 828.42 675.68 828.49 675.26z"/><path fill="#AE5A2C" opacity="1.000000" stroke="none" d="M862 692.2C862.17 692.1 862.4 692.24 862.73 692.55C862.54 692.75 862.28 692.65 862 692.2z"/><path fill="#F6AD66" opacity="1.000000" stroke="none" d="M352.9 662.95C344.46 651.53 350.88 632.41 363.96 623.85C370.71 618.51 379.25 616.32 388.37 616.75C394.67 615.91 400.98 616.78 407.29 616.47C408.8 616.4 410.31 615.83 413.21 615.61C410.83 613.88 409.72 613.62 408.18 611.94C410.92 605.78 413.68 599.6 417.17 593.26C423.65 593.65 429.59 593.49 435.12 594.92C445.19 597.54 455.13 601.97 465.15 604.54C466.81 605.53 468.31 606.95 469.71 606.85C477.89 606.31 482.66 609.74 488.29 613.64C489.95 614.79 492.18 615.1 494.15 615.8C494.15 615.8 494.18 615.83 494.85 616.22C492.79 619.85 492.84 623.39 490.32 626.28C485.64 634.87 479.78 643.49 473.79 651.57C466.66 661.19 457.8 669.11 447.17 674.92C446.19 675.46 445.8 677.84 445.13 678.2C431.11 680.86 417.7 683.69 402.73 680.95C388.93 678.32 380.72 668.42 380.96 655.27C381.83 648.79 384.12 643.88 388.86 639.81C390.88 638.76 391.43 637.83 393.68 636.12C387.97 634.67 384.94 637.23 382.28 640.79C371.73 649.84 374.43 667.53 381.58 676.81C381.88 676.44 382.28 676.93 382.27 677.41C361.67 676.78 353.24 666.44 354.23 641.77C350.32 646.11 350.63 651.14 351.82 656.3C352.19 657.91 352.74 659.47 353.13 661.51C353.36 661.97 352.9 662.95 352.9 662.95z"/><path fill="#EA9453" opacity="1.000000" stroke="none" d="M445.53 678.17C445.8 677.84 446.19 675.46 447.17 674.92C457.8 669.11 466.66 661.19 473.79 651.57C479.78 643.49 485.64 634.87 490.32 626.28C492.84 623.39 492.79 619.85 494.11 616.23C499.16 619.72 504.64 623.73 509.55 627.46C514.66 631.59 520.45 635.48 527.33 640.88C521.94 643.46 517.3 647.14 512.15 649.83C497.69 657.38 483.21 664.93 468.36 671.63C461.33 674.8 453.44 676.27 445.53 678.17z"/><path fill="#EA9453" opacity="1.000000" stroke="none" d="M494.66 615.48C492.18 615.1 489.95 614.79 488.29 613.64C482.66 609.74 477.89 606.31 469.71 606.85C468.31 606.95 466.81 605.53 465.4 604.31C465.34 602.4 465.8 600.51 465.66 599.65C453.75 586.43 440.15 577.82 421.91 579.5C423.81 573.94 425.68 568.82 427.64 563.74C428.74 560.89 430.5 559.63 433.85 560.61C436.83 561.48 440.35 561.58 443.57 562.22C444.46 562.36 444.92 562.69 445.68 563.81C460.17 582.15 475.8 599.84 494.66 615.48M468.53 603.51C468.53 603.51 468.46 603.54 468.53 603.51z"/><path fill="#F5AC67" opacity="1.000000" stroke="none" d="M831.16 604.24C837.24 601.56 843.32 598.87 849.41 596.21C854.68 593.91 859.71 594.72 863.96 598.83C837.89 610.64 820.93 628.42 824.63 660.26C825.23 661.5 825.58 662.29 825.92 663.76C825.92 663.76 825.86 663.97 825.84 663.13C825.93 664.49 826.43 665.81 826.82 667.57C826.1 667.99 825.95 668.5 825.95 668.5C824.51 666.97 823.8 664.14 821.29 661.65C813.23 643.61 813.99 626.62 824.28 610.56C824.7 609.63 824.89 609.33 825.5 609.53C825.16 609.67 825.86 609.91 825.38 608.95C827.5 607.28 829.33 605.76 831.16 604.24z"/><path fill="#B75D30" opacity="1.000000" stroke="none" d="M421.64 579.27C440.15 577.82 453.75 586.43 465.66 599.65C465.8 600.51 465.34 602.4 465.19 604.36C455.13 601.97 445.19 597.54 435.12 594.92C429.59 593.49 423.65 593.65 417.45 593.54C418.46 588.51 419.92 584 421.64 579.27z"/><path fill="#B25B2D" opacity="1.000000" stroke="none" d="M824.42 610.19C813.99 626.62 813.23 643.61 821.14 661.47C819.45 665.41 817.26 668.32 812.43 668.56C812.29 667.29 812.14 666.53 812.31 664.43C813.45 663.37 814.9 662.7 816.31 662.45C808.14 644.86 807.29 627.98 817.96 611.14C820.44 609.44 822.26 607.9 824.39 606.95C824.68 607.32 824.88 608.2 825.86 609.91C825.86 609.91 825.16 609.67 824.81 609.17C824.41 609.58 824.23 609.89 824.42 610.19z"/><path fill="#F6AD66" opacity="1.000000" stroke="none" d="M353.11 661.91C353.27 662.34 353.36 662.82 353.45 663.31C353.29 663.57 353.13 662.81 352.93 662.33C352.9 662.95 353.36 661.97 353.11 661.91z"/><path fill="#F5AC67" opacity="1.000000" stroke="none" d="M826.43 667.97C826.2 668.4 826.32 668.86 826.44 669.32C826.29 669.55 826.14 668.79 825.97 668.29C825.95 668.5 826.1 667.99 826.43 667.97z"/><path fill="#B25B2D" opacity="1.000000" stroke="none" d="M843.54 680.47C843.57 680.52 843.51 680.43 843.54 680.47z"/><path fill="#523825" opacity="1.000000" stroke="none" d="M560.28 428.88C546.31 418.74 542.97 397.26 552.95 383.63C561.67 371.7 577.91 371.53 587.99 383.27C595.16 393.58 596.59 409.71 589.48 420.95C584.78 428.99 571.5 436.36 560.28 428.88z"/><path fill="#F5AC67" opacity="1.000000" stroke="none" d="M1010.32 659.68C999.33 662.32 988.5 664.11 977.19 665.95C978.85 648.48 974.26 633.69 961.54 619.86C964.4 619.86 966.13 619.25 967.82 619.58C974.86 618.27 981.88 617.22 988.94 616.63C991.23 616.46 993.83 616.78 995.19 618.62C1006.99 629.24 1012.4 642.95 1010.32 659.68z"/><path fill="#AC5828" opacity="1.000000" stroke="none" d="M825.38 608.95C824.88 608.2 824.68 607.32 824.39 606.95C822.26 607.9 820.44 609.44 818.25 610.96C820.74 607.78 822.28 604.61 824.73 601.21C826.89 601.88 828.81 602.77 830.94 603.95C829.33 605.76 827.5 607.28 825.38 608.95z"/><path fill="#AE5A2C" opacity="1.000000" stroke="none" d="M825.94 662.73C825.58 662.29 825.23 661.5 824.87 660.36C825.23 660.81 825.6 661.59 825.94 662.73z"/><path fill="#523825" opacity="1.000000" stroke="none" d="M419.12 406.13C420.89 413.85 420.94 421.69 417.89 428.65C414.42 436.35 408.43 440.96 399.69 441.62C391.13 442.28 384.56 438.49 380.16 431.12C373.86 420.55 372.77 409.55 378.37 398.29C381.68 390.5 387.75 385.48 396.57 385.2C405.24 384.94 411.28 389.74 415.38 397.19C416.91 399.74 417.83 402.81 419.12 406.13z"/><path fill="#AC5828" opacity="1.000000" stroke="none" d="M683.8 508.48C683.36 508.73 682.55 509.41 681.42 510.84C681.87 509.4 682.65 508.72 683.8 508.48z"/><path fill="#B75D30" opacity="1.000000" stroke="none" d="M468.5 603.53C468.46 603.54 468.53 603.51 468.5 603.53z"/><path fill="#AC5828" opacity="1.000000" stroke="none" d="M824.28 610.56C824.23 609.89 824.41 609.58 824.84 609.16C824.89 609.33 824.7 609.63 824.28 610.56z"/></svg>