<svg xmlns="http://www.w3.org/2000/svg" xmlns:xlink="http://www.w3.org/1999/xlink" version="1.1" id="Layer_1" x="0px" y="0px" width="100%" viewBox="0 0 1328 800" enable-background="new 0 0 1328 800" xml:space="preserve" style="background: transparent;"><path fill="#F8B067" opacity="1.000000" stroke="none" d="M1007.21 373C1020.6 385.36 1030.11 399.83 1038.67 415.69C1032.15 420.12 1025.85 423.71 1019.73 427.7C1010.56 433.67 1001.27 439.51 992.54 446.81C987.97 449.52 985.85 454.85 988.37 460.76C990.8 466.47 995.72 469.12 1001.53 468.91C1009.27 468.62 1017.6 467.85 1024.67 466.42C1035.88 464.32 1046.95 461.46 1058.86 458.92C1060.73 468.39 1063.64 477.8 1065.92 487.36C1067.64 494.56 1068.55 501.95 1069.55 509.96C1068.2 521.11 1067.12 531.56 1065.67 542.53C1064.35 543.14 1063.18 544.33 1062.48 545.27C1054.17 564.3 1042.19 580.6 1025.92 593.5C1010.51 605.72 993.66 614.48 972.92 612.74C972.15 612.31 971.56 611.55 970.82 610.77C966.85 606.58 963.98 602.7 959.65 598.6C958.75 598.92 958.48 597.92 957.99 597.66C957.43 597.4 957.23 597.36 956.62 597.32C956.91 597.71 957.21 598.95 957.63 598.68C957.96 599.13 958.2 599.33 958.63 599.79C962.83 605.91 966.88 611.73 970.92 617.9C974.24 627.55 977.81 636.8 974.47 646.97C971.5 648.92 969.9 651.27 966.22 652.69C952.83 659.7 936.97 662.91 921.28 664.78C912.9 664.7 904.23 664.98 896.3 667.41C886.51 670.42 877.36 675.5 867.51 679.78C862.8 680.25 858.46 681.26 854.23 680.89C844.76 680.8 836.18 677.31 832.55 667.65C829.16 657.53 831.59 647.93 839.14 640.94C839.53 640.58 839.6 639.86 839.98 638.88C835.88 637.98 832.62 640.35 830.87 643.64C822.55 656.57 825.3 668.92 833.24 680.97C829.18 680.97 825.51 681.16 821.87 680.94C811.68 680.33 803.19 676.73 799.74 666.24C796.5 656.43 796.83 646.6 801.44 637.13C801.96 636.55 802.37 634.93 802.84 633.83C802.42 633.48 802.79 633.13 801.58 632.78C799.71 634.62 797.27 636.15 796.64 638.36C789.31 651.2 791.52 663.93 797.45 676.56C781.62 674.56 773.88 663.47 773.11 651.57C772.26 638.45 776.81 627.17 786.67 618.63C799.65 607.38 815.66 603.57 832.22 604.38C846.23 605.46 859.71 608.13 873.43 610.25C876.73 610.76 879.97 611.68 883.23 612.41C883.46 611.85 883.69 611.28 883.91 610.72C881.59 609.44 879.32 608.26 876.92 606.92C868.52 603.5 859.1 600.49 856.1 589.97C855.99 589.58 855.38 589.33 854.87 588.71C850.46 584.18 846.52 579.23 841.83 575.34C829.25 564.9 814.84 560.11 798.42 563.63C794.88 563.7 791.46 565.68 787.98 565.58C785.37 548.3 784.36 531.37 787.65 514.49C791.49 486.9 805.25 465.14 829.28 450.48C835.89 446.44 843.22 443.58 850.62 440.15C860.96 438.69 869.87 437.27 878.47 435.9C892.36 435.57 905.28 438.96 917.79 443.28C911.52 437.67 897.24 434.37 877.74 432.45C867.88 433.45 858.4 434.61 848.53 435.8C825.79 441.91 808.73 455.21 795.97 474.25C780.39 497.49 777.23 523.6 779.3 550.63C780.58 560.46 782.48 570.17 784.86 580.2C784.23 580.65 784.71 580.83 783.83 581.37C785.18 590.85 786.7 599.97 788.29 609.38C784.92 612.13 782.1 614.59 778.67 617.46C769.22 618.21 760.2 619.54 751.14 619.85C741.71 620.17 732.24 619.43 722.8 618.95C714.81 618.55 708.44 615.58 705.15 607.56C704.16 604.8 701.81 602.49 700.92 599.6C700.68 597.13 701.27 595.35 701.98 592.61C704.87 582.56 707.66 572.83 710.44 563.1C709.98 562.97 709.52 562.83 709.63 562.7C705.96 571.7 702.85 580.7 699.51 589.97C698.5 592.77 697.79 593.95 696.94 595.75C688.82 612.85 681.78 630.16 672.41 646.98C665.51 660.37 654.72 669.43 639.15 670.91C629.26 671.83 619.46 672.84 609.68 672.88C590.37 672.95 571.6 672.43 551.75 672.58C535.44 671.74 519.13 671.37 502.83 670.86C494.22 670.58 485.23 669.82 476.43 669.49C460.57 668.88 444.8 666.66 429.46 672.26C420.96 675.14 411.77 675.85 403.88 675.83C391.4 675.79 383.13 667.59 382 657.42C380.8 645.91 387.93 634.49 398.12 632.67C399.2 632.47 400.15 631.55 401.16 630.97C401.56 630.52 400.96 630.67 400.86 629.62C399.19 629.54 397.46 629.11 395.87 629.42C382.96 631.98 373.59 646.39 376.55 659.36C377.43 663.21 379.11 666.87 380.24 670.78C380.59 670.95 379.71 671.31 379.34 671.26C377.25 670.62 375.47 670.14 373.81 669.41C357.98 662.41 348.18 638.28 365.94 623.47C369.29 620.73 373.33 618.81 376.98 616.56C370.91 615.23 365.99 617.69 361.22 621.18C361.93 621.8 360.84 620.87 360.9 620.52C364.99 611.75 371.98 606.61 380.28 603.42C392.97 597.58 405.96 599.24 419.38 601.34C429.28 602.98 439.33 605.66 450.55 603.54C473.19 598.97 496.43 594.91 519.71 591.18C535.11 588.72 550.66 587.21 566.54 585.42C579.5 586.58 592.49 587.6 603.85 588.56C596.36 583.31 585.85 582.92 575.7 581.15C574.86 580.39 573.81 579.57 573.95 579.99C574.55 577.77 575.43 575.13 576.33 573.21C581.98 563.55 585.9 552.92 591.63 542.82C597.68 538.11 604.38 533.63 610.96 528.22C625.9 513.28 641.6 497.67 653.65 479.82C669.49 457.36 683.95 434.71 685.5 405.62C686.51 386.67 683.14 369.15 677.85 351.69C676.43 349.8 674.73 348.81 678.22 347.2C684.34 354.18 690.49 360.77 695.91 367.9C701.33 375.44 705.89 382.83 711.97 390.14C714.64 395.11 721.35 397.12 726.11 395.4C731.64 393.53 734.19 389.72 734.15 382.44C734.63 368.8 729.26 355.51 722.75 342.49C719.19 335.38 714.88 328.63 710.91 321.72C725.7 317.15 740.49 312.57 755.3 308.42C756.87 307.56 758.52 307.36 760.58 307.43C763.5 317.59 764.9 327.39 767.16 337.92C768.74 343.87 770.26 350.78 772.91 357.17C777.28 367.94 789.72 369.56 796.72 361.57C800.5 357.27 803.83 351.44 804.64 345.9C806.85 330.81 807.61 315.51 808.95 300.29C826.81 299.31 844.58 299.97 862.63 303.54C859.49 317.47 855.66 330.87 852.5 344.42C849.68 356.53 853.91 364.21 864.38 365.25C868.72 365.68 874.55 364.28 877.62 361.45C883.62 355.91 888.56 349.59 893.21 342.26C899.29 333.35 904.67 323.97 910.36 314.8C925.61 321.1 940.96 327.19 956.67 333.83C961.18 336 965.31 339.57 970 343.18C968.76 345.32 967.52 346.87 966.83 348.21C958.55 355.25 950.43 361.74 943.59 369.39C938.38 375.2 934 382.82 930.7 389.17C927.74 395.55 930.83 401.97 936.52 403.46C940.43 404.49 945.61 405.44 948.71 404.31C956.55 401.87 964.3 398.67 971.47 394.67C983.64 387.9 995.32 380.27 1007.21 373M920.56 443.57C920.15 443.48 919.75 443.38 919.35 443.29C919.6 443.51 919.86 443.73 920.56 443.57z"/><path fill="#F7B066" opacity="1.000000" stroke="none" d="M256.74 547.97C251.46 538.75 246.19 530.41 241.31 521.62C243.32 520.79 244.91 520.28 246.55 520.18C263.25 517.33 279.98 514.74 296.66 511.94C298.69 511.7 299.25 510.1 300.53 509.13C299.28 508.37 298.45 506.95 296.78 506.93C277.65 506.54 258.51 506.3 239.38 506.16C238.18 506.15 236.97 507.28 235.76 507.87C230.48 490.89 228.21 473.46 229.87 455.79C231.14 442.27 233.74 428.89 235.6 415.42C235.78 414.12 235.2 412.51 234.5 411.32C208.61 367.77 192.41 320.68 183.31 271.16C180.79 257.27 184.42 253.68 198.28 255.15C239.33 259.48 279.97 269.24 318.33 282.73C320.14 283.46 322.84 282.48 325.78 282.44C335.65 291.55 345.11 300.41 354.32 309.52C357.94 313.11 361.36 314.14 365.39 311.81C369.47 309.45 371.36 304.54 369.37 299.1C367.44 293.83 365.56 288.63 362.17 283.82C358.43 277.59 353.99 271.78 349.86 265.79C353.97 262.98 358.78 260.16 362.55 257.61C365.17 261.96 367.43 264.33 369.72 267.55C376.53 277.15 383.28 286.79 390.19 296.32C394.15 301.78 399.5 303.27 404.46 301.41C409.45 298.99 411.18 294.43 409.54 286.5C406.42 271.42 403.12 256.38 399.9 241.32C404.32 239.94 408.73 238.55 413.54 237.55C414.31 240.89 414.25 243.99 415.14 246.78C418.23 256.55 421.41 266.3 425.48 275.86C426.42 279.49 429.86 281.37 434.73 280.77C438.37 280.13 440.66 277.3 441.41 273.12C441.7 271.5 441.93 269.84 441.93 268.2C441.94 255.92 441.88 243.64 441.85 231.36C443.17 231.22 444.49 230.89 445.8 230.96C449.18 231.15 450.79 229.6 451.81 226.39C462.47 193.29 476.27 160.96 493.4 130.38C497.94 122.26 502.75 114.26 507.97 106.56C513.12 98.98 518.24 99.54 523.73 106.16C544.33 132.81 560.32 162.15 572.76 193.31C580.79 211.65 585.63 230.68 592.17 249.33C592.93 251.5 594.5 253.88 596.38 255.71C617.24 268.32 635.81 284.12 649.44 304.89C655.23 313.69 659.26 323.65 663.84 333.69C656.77 339.86 649.82 345.29 643.13 351.2C635.19 357.84 627.43 364.87 619.72 371.95C618.87 372.74 618.86 374.44 618.46 375.72C619.94 376.14 621.57 376.85 622.87 376.49C625.41 375.79 627.76 374.43 630.18 373.32C643.45 367.22 656.73 361.12 670.16 355.37C670.87 365.87 671.42 376.13 671.52 386.14C660.41 387.61 649.64 388.53 639.14 390.74C630.57 392.54 622.3 395.84 613.95 398.63C612.91 398.98 612.2 400.31 611.33 401.19C612.51 401.85 613.67 403.27 614.86 403.65C618.52 403.18 622.18 402.79 625.84 402.72C640.57 402.43 655.3 402.18 670.22 402.35C669.77 404.74 669.78 406.78 669.2 408.63C666.88 416.2 664.38 423.72 661.57 431.19C649.3 425.93 637.32 420.95 624.23 419.67C622.58 419.51 620.84 420.32 619.15 420.68C620.2 422.17 620.95 424.83 622.35 425.64C627.67 428.77 633.24 432.1 638.62 435.72C643.55 439.41 648.34 442.55 653.22 446.36C652.5 448.39 651.9 450.12 651.7 451.68C639.78 471.28 625.27 488.26 608.93 504.19C603.22 509.14 597.51 513.61 592.12 518.45C573.49 535.19 552.52 548.5 530.49 560.17C508.99 571.55 486.43 580.42 462.59 585.52C449.84 588.25 436.86 589.86 423.98 592.18C420.3 592.64 416.64 593.4 412.53 594.9C403.12 593.98 394.33 590.85 385.12 594.74C380.76 596.58 375 595.57 369.92 595.16C355.55 593.99 341.17 592.68 326.85 590.99C320.15 590.19 313.57 588.37 306.93 587.21C306.93 587.21 307 587 306.87 586.71C306.84 586.28 305.41 586.13 304.74 585.98C303.96 585.4 303.18 584.82 302.26 583.71C308.76 570.29 315.42 557.4 322.66 544.51C319.95 544.28 318.69 544.68 317.77 545.48C307.58 554.43 297.4 563.41 287.32 572.48C286.15 573.53 285.59 575.26 284.75 576.66C278.23 570.73 271.71 564.79 265.33 558.36C272.65 552.77 279.54 547.22 287.63 542.71C295.61 537.59 304.81 533.58 313.51 528.69C315.38 527.63 316.32 524.9 317.68 522.94C315.45 522.69 312.95 521.66 311.41 522.33C303.52 524.97 296.46 527.83 288.83 531.19C278.97 536.24 267.42 541.77 256.74 547.97M471.64 465.59C472.21 475.89 467.94 484.43 460.59 490.26C451.4 497.86 441.13 496.31 433.15 488.82C432.11 487.99 430.51 487.93 429.25 487.51C429.21 489.33 428.19 491.4 428.64 491.95C432.33 494.92 435.45 498.62 439.54 499.91C453.97 504.44 469.27 495.39 475.3 479.54C476.28 476.96 477.97 474.31 478.17 471.61C480.52 472.72 482.6 473.78 484.77 474.58C499.55 480.43 516.17 475.43 523.41 463.64C525.45 458.72 525.72 453.73 526.34 447.95C526.47 446.83 523.93 445.4 522.61 444.11C521.86 445.72 520.8 447.26 520.4 448.95C519.66 452.14 520.17 455.78 518.64 458.6C511.7 472.84 486.43 474.91 477.3 461.93C486.83 455.15 490.29 446.13 489.95 435.12C489.67 426.24 484.62 421.5 476.65 423.2C462.97 426.11 450.54 431.96 440.13 441.46C433.8 447.25 434.92 453.26 442.45 457.79C451.4 463.17 460.96 465.75 471.64 465.59M228.26 295.2C223.42 293.78 218.58 292.37 212.34 290.55C221.62 322.39 233.83 351.32 249.84 380.24C261.97 358.16 274.16 337.76 291.92 319.5C270.17 311.2 249.58 303.34 228.26 295.2M526.17 153.41C525.18 152.22 524.18 151.41 522.56 149.11C508.71 174.71 502.81 202 493.87 228.9C517.55 228.96 539.53 234.28 562.56 240.64C552.95 209.71 541.11 181.31 526.17 153.41M543.36 362.51C522.98 371.15 510.32 388.4 513.96 404.88C516.25 400.42 517.87 397.56 519.75 394.88C531.77 377.77 548.98 370.47 569.19 368.93C581.24 368.67 590.95 360.41 593.86 349.47C594.36 348 593.62 343.66 592.21 342.65C589.5 340.71 587.89 343.33 586.72 345.73C582.66 354.4 575.82 357.54 566.73 358.32C559.16 358.98 551.4 360.86 543.36 362.51M321.28 478.97C317.54 478.31 313.82 477.48 310.53 477.88C308.26 476.9 306.37 477.56 304.53 477.84C305.27 479.81 305.42 482.52 306.84 483.64C316.87 491.57 332.2 490.47 341.32 481.75C353.55 470.55 367.68 462 384.85 460.5C390.48 460.65 396.18 460.42 401.86 460.42C402.31 459.99 402.14 459.56 402.29 459.14C400.39 457.69 398.66 455.43 396.55 454.96C389.82 453.46 382.89 451.45 376.14 451.76C360.27 452.5 347.25 460.95 336.23 471.91C332.81 475.76 327.82 478.67 321.28 478.97M361.91 383.43C361.14 377.7 358.18 373.67 351.84 374.31C344.56 375.48 337.28 376.98 330.39 379.46C327.6 380.46 325.22 384.11 323.86 386.96C323.71 388.64 324.81 391.94 325.42 393.57C326.33 394.67 329.32 394.58 331.22 394.22C339.65 392.62 348.88 390.96 356.39 388.8C358.47 388.26 360.64 385.8 361.91 383.43M492.88 317.38C496.84 313.87 500.97 310.52 504.71 306.79C507.85 304.42 508.42 300.69 505.69 298.36C503.77 296.72 499.53 295.93 497.27 296.92C491.74 299.35 486.37 302.56 481.66 306.36C477.57 309.66 475.33 314.47 477.74 320.16C478.51 325.26 482.34 326.5 486.39 323.13C488.43 321.44 490.37 319.62 492.88 317.38z"/><path fill="#8DB9D7" opacity="1.000000" stroke="none" d="M1182.68 645.93C1187.8 648.19 1193.24 649.93 1197.96 652.84C1202.52 655.65 1202.53 661.54 1197.8 663.61C1187.23 668.26 1176.5 673.27 1165.31 675.65C1141.81 680.65 1118.32 684.48 1094.25 687.96C1072.26 691.16 1050.13 693.5 1028.21 695.79C1013.65 697.27 999.21 698.33 984.79 699.52C957.13 701.64 929.46 702.96 901.79 704.81C893.84 705.35 885.85 705.58 877.88 705.9C867.74 706.3 857.61 706.87 847.47 706.96C767.88 707.67 688.29 708.49 608.69 708.8C583.25 708.9 557.8 707.66 532.36 706.87C516.24 706.37 500.13 705.71 484.25 704.87C460.63 703.65 437.23 702.46 413.86 700.79C390.85 699.14 367.85 697.17 344.89 694.9C298.81 690.35 252.68 686.33 207.59 674.85C198.77 672.67 190.32 669.28 181.75 665.88C180.23 665.33 178.84 664.25 177.61 663.16C173.58 659.6 173.44 655.32 178.2 653.68C186.4 649.19 195.18 646.61 203.63 643.21C208.63 641.56 214.15 641.75 219.91 640.28C225.26 653.76 233.79 661.18 246.51 664.71C264.25 669.58 281.85 670.97 299.91 668.34C317.19 665.82 334.49 663.42 351.76 660.78C354.44 660.37 355.78 661.19 357.65 663.24C361.99 667.28 366.27 672.48 371.64 674.66C390.5 682.13 409.19 684.36 428.82 679.24C435.86 677.4 443.63 674.84 450.18 674.89C470.31 675.39 490.43 676.84 510.57 677.14C550.85 677.74 591.14 678.17 631.42 677.85C647.92 677.72 662.9 672.38 673.38 657.83C679.68 658 685.5 658.83 691.31 658.27C717.21 659.13 743.1 660.13 769.18 661.19C773.41 671.36 780.7 677.8 790.67 681.16C805.2 686.6 820.25 687.12 835.48 687.14C855.81 686.88 876.55 686.87 896.5 682.29C914.62 683.18 931.83 680.24 949.35 676.24C961.61 674.64 971.54 668.93 978.35 658.2C997.45 651.98 1013.6 641.66 1028.11 628.14C1040.69 629.19 1052.85 630.9 1065.34 631.11C1069.15 632.85 1072.36 634.48 1075.83 636.44C1085.39 643.3 1095.74 646.92 1107.24 648.99C1115.91 650.44 1124.2 652.55 1132.57 652.79C1137.39 653.21 1142.34 652.22 1147.67 651.94C1160.63 652.42 1171.52 650 1182.68 645.93z"/><path fill="#A85326" opacity="1.000000" stroke="none" d="M672.91 657.79C662.9 672.38 647.92 677.72 631.42 677.85C591.14 678.17 550.85 677.74 510.57 677.14C490.43 676.84 470.31 675.39 450.18 674.89C443.63 674.84 435.86 677.4 428.82 679.24C409.19 684.36 390.5 682.13 371.64 674.66C366.27 672.48 361.99 667.28 357.65 663.24C355.78 661.19 354.44 660.37 351.76 660.78C334.49 663.42 317.19 665.82 299.91 668.34C281.85 670.97 264.25 669.58 246.51 664.71C233.79 661.18 225.26 653.76 220.33 640.29C218.67 630.4 218.61 620.9 223.27 611.87C231.66 595.66 245.48 587.88 263.17 587.28C276.61 586.81 290.91 587.68 303.56 587.93C304.54 587.95 305.53 587.83 306.72 587.4C313.57 588.37 320.15 590.19 326.85 590.99C341.17 592.68 355.55 593.99 369.92 595.16C375 595.57 380.76 596.58 385.12 594.74C394.33 590.85 403.12 593.98 412.82 594.35C415.67 595.12 417.76 595.52 419.89 595.81C427.58 596.85 435.52 599.49 442.95 598.47C464.26 595.56 485.32 590.85 506.57 587.44C524.87 584.5 543.31 582.44 561.65 579.77C563.34 579.53 565.52 578.35 566.24 576.53C573.3 561.77 582.23 548.27 592.97 535.96C593.11 536.85 593.11 536.99 593.11 536.46C592.31 538.81 591.5 540.79 590.69 542.78C585.9 552.92 581.98 563.55 576.33 573.21C575.43 575.13 574.55 577.77 573.95 579.99C573.81 579.57 574.86 580.39 575.62 581.51C574.22 582.65 572.6 583.4 570.92 583.98C569.36 584.51 567.73 584.85 566.14 585.28C550.66 587.21 535.11 588.72 519.71 591.18C496.43 594.91 473.19 598.97 450.55 603.54C439.33 605.66 429.28 602.98 419.38 601.34C405.96 599.24 392.97 597.58 380.28 603.42C371.98 606.61 364.99 611.75 360.7 620.68C360.41 621.57 360.39 621.95 360.37 622.33C360.7 621.99 361.25 621.64 361.35 621.29C365.99 617.69 370.91 615.23 376.98 616.56C373.33 618.81 369.29 620.73 365.94 623.47C348.18 638.28 357.98 662.41 373.81 669.41C375.47 670.14 377.25 670.62 379.52 671.42C380.18 671.28 380.3 670.95 380.42 670.61C379.11 666.87 377.43 663.21 376.55 659.36C373.59 646.39 382.96 631.98 395.87 629.42C397.46 629.11 399.19 629.54 400.86 629.62C400.96 630.67 401.56 630.52 401.16 630.97C400.15 631.55 399.2 632.47 398.12 632.67C387.93 634.49 380.8 645.91 382 657.42C383.13 667.59 391.4 675.79 403.88 675.83C411.77 675.85 420.96 675.14 429.46 672.26C444.8 666.66 460.57 668.88 476.43 669.49C485.23 669.82 494.22 670.58 502.83 670.86C519.13 671.37 535.44 671.74 551.75 672.58C571.6 672.43 590.37 672.95 609.68 672.88C619.46 672.84 629.26 671.83 639.15 670.91C654.72 669.43 665.51 660.37 672.41 646.98C681.78 630.16 688.82 612.85 696.94 595.75C697.79 593.95 698.5 592.77 699.67 590.27C700.67 591.17 701.27 592.56 701.87 592.94C701.27 595.35 700.68 597.13 699.9 599.92C697.13 607.58 695.81 614.79 691.86 621.45C685.9 633.74 679.26 645.7 672.91 657.79M293.26 594.68C288.13 594.19 283.15 593.57 277.88 593.25C266.36 592.51 254.96 592.47 244.29 598.14C225.44 608.18 219.12 631.46 230.95 647.9C235.54 654.29 245.88 659.6 251.5 658.39C245.26 645.66 244.21 633.21 253.73 621.46C256.85 617.6 260.84 615.62 266.63 616.4C265.33 617.77 264.31 618.66 263.17 619.33C248.89 627.69 248.32 651.24 262.28 659.92C268.28 663.74 275.15 664.63 281.99 663.85C297.33 662.1 312.62 659.9 328.76 657.95C336.67 656.61 344.59 655.28 352.51 653.94C347.49 630.81 353.88 612.59 374.52 598.74C366.34 598.74 359.79 599.37 353.4 598.63C333.68 596.33 314.8 592.58 293.26 594.68z"/><path fill="#EA9652" opacity="1.000000" stroke="none" d="M591.63 542.82C591.5 540.79 592.31 538.81 593.35 536.38C593.73 535.63 593.89 535.34 594.29 534.88C594.7 534.14 594.84 533.56 595.16 532.96C595.23 532.95 595.12 532.98 594.74 533.14C594.29 533.84 594.12 534.39 593.69 535.29C593.27 535.34 593.96 535.63 592.92 535.91C582.23 548.27 573.3 561.77 566.24 576.53C565.52 578.35 563.34 579.53 561.65 579.77C543.31 582.44 524.87 584.5 506.57 587.44C485.32 590.85 464.26 595.56 442.95 598.47C435.52 599.49 427.58 596.85 419.89 595.81C417.76 595.52 415.67 595.12 413.26 594.35C416.64 593.4 420.3 592.64 423.98 592.18C436.86 589.86 449.84 588.25 462.59 585.52C486.43 580.42 508.99 571.55 530.49 560.17C552.52 548.5 573.49 535.19 592.12 518.45C597.51 513.61 603.22 509.14 609.29 504.23C612.45 502.61 614.56 501.6 616.35 499.82C621.89 494.32 627.88 489.41 632.34 482.72C640.46 471.23 647.6 459.57 655.4 446.92C657.74 441.54 659.84 436.4 661.94 431.26C664.38 423.72 666.88 416.2 669.2 408.63C669.78 406.78 669.77 404.74 670.29 402.83C671.32 396.3 671.5 391.23 671.97 386.15C671.42 376.13 670.87 365.87 670.17 354.95C669.22 349.44 668.3 344.71 667.38 339.97C667.35 339.88 667.67 339.78 668.59 339.87C672.99 342.39 675.13 344.71 677.93 347.36C674.73 348.81 676.43 349.8 677.85 351.69C683.14 369.15 686.51 386.67 685.5 405.62C683.95 434.71 669.49 457.36 653.65 479.82C641.6 497.67 625.9 513.28 610.96 528.22C604.38 533.63 597.68 538.11 591.63 542.82z"/><path fill="#B4582A" opacity="1.000000" stroke="none" d="M1182.86 645.63C1171.52 650 1160.63 652.42 1147.57 651.59C1145.26 643.41 1143.49 635.66 1141.78 627.46C1141.75 610.49 1144.26 594.52 1152.65 580.76C1155.68 574.76 1159.54 569.98 1163.27 564.99C1194.98 567.84 1214.65 595.23 1207.2 619.48C1204.13 629.51 1197.44 636.69 1188.67 642.93C1186.83 643.22 1184.92 644.25 1182.86 645.63z"/><path fill="#B4582A" opacity="1.000000" stroke="none" d="M1007.58 372.69C995.32 380.27 983.64 387.9 971.47 394.67C964.3 398.67 956.55 401.87 948.71 404.31C945.61 405.44 940.43 404.49 936.52 403.46C930.83 401.97 927.74 395.55 930.7 389.17C934 382.82 938.38 375.2 943.59 369.39C950.43 361.74 958.55 355.25 966.83 348.21C967.52 346.87 968.76 345.32 970.12 343.52C975.25 346.49 980.68 349.38 985.36 353.19C992.81 359.26 999.75 365.95 1007.58 372.69z"/><path fill="#EB9754" opacity="1.000000" stroke="none" d="M1075.7 636.1C1072.36 634.48 1069.15 632.85 1065.19 630.81C1063.19 629.14 1061.56 627.98 1060.15 626.6C1055.27 621.55 1049.97 616.43 1044.92 610.96C1047 607.63 1049.17 604.76 1051.99 601.73C1061.1 586.18 1067.18 569.25 1070.2 551.6C1070.66 548.28 1072.6 545.24 1074.77 543.37C1078.49 540.17 1082.93 537.8 1087.69 535.85C1093.3 539.89 1099.53 544.69 1105.87 550.16C1105.66 551.38 1105.44 552.46 1104.99 552.49C1092.41 565.18 1085.34 580.76 1081.88 597.97C1079.35 610.58 1077.73 623.38 1075.7 636.1z"/><path fill="#B35628" opacity="1.000000" stroke="none" d="M1075.83 636.44C1077.73 623.38 1079.35 610.58 1081.88 597.97C1085.34 580.76 1092.41 565.18 1104.99 552.49C1105.44 552.46 1105.66 551.38 1106.71 550.47C1112.8 552.67 1119.58 555.21 1126.52 558.23C1114.63 576.28 1107.62 595.57 1106.66 617.32C1106.57 628.22 1106.73 638.4 1106.89 648.77C1095.74 646.92 1085.39 643.3 1075.83 636.44z"/><path fill="#B45729" opacity="1.000000" stroke="none" d="M678.22 347.2C675.13 344.71 672.99 342.39 668.8 340C673.94 337 679.3 333.67 685.26 331.21C693.25 327.68 701.74 324.79 710.51 321.67C714.88 328.63 719.19 335.38 722.75 342.49C729.26 355.51 734.63 368.8 734.15 382.44C734.19 389.72 731.64 393.53 726.11 395.4C721.35 397.12 714.64 395.11 711.97 390.14C705.89 382.83 701.33 375.44 695.91 367.9C690.49 360.77 684.34 354.18 678.22 347.2z"/><path fill="#B35829" opacity="1.000000" stroke="none" d="M808.51 300.2C807.61 315.51 806.85 330.81 804.64 345.9C803.83 351.44 800.5 357.27 796.72 361.57C789.72 369.56 777.28 367.94 772.91 357.17C770.26 350.78 768.74 343.87 767.16 337.92C764.9 327.39 763.5 317.59 760.98 307.44C772.5 305.34 784.54 302.91 795.65 301.56C799.73 300.4 803.92 300.41 808.51 300.2z"/><path fill="#B35829" opacity="1.000000" stroke="none" d="M910.16 314.48C904.67 323.97 899.29 333.35 893.21 342.26C888.56 349.59 883.62 355.91 877.62 361.45C874.55 364.28 868.72 365.68 864.38 365.25C853.91 364.21 849.68 356.53 852.5 344.42C855.66 330.87 859.49 317.47 863.42 303.64C878.7 306.9 894.33 310.53 910.16 314.48z"/><path fill="#B35829" opacity="1.000000" stroke="none" d="M1058.11 458.53C1046.95 461.46 1035.88 464.32 1024.67 466.42C1017.6 467.85 1009.27 468.62 1001.53 468.91C995.72 469.12 990.8 466.47 988.37 460.76C985.85 454.85 987.97 449.52 992.54 446.81C1001.27 439.51 1010.56 433.67 1019.73 427.7C1025.85 423.71 1032.15 420.12 1038.69 416.4C1044.62 427.46 1050.29 438.98 1055.79 450.59C1056.91 452.95 1057.37 455.61 1058.11 458.53z"/><path fill="#F7AF67" opacity="1.000000" stroke="none" d="M1106.92 617.67C1107.62 595.57 1114.63 576.28 1126.84 558.41C1138.83 560.22 1150.66 562.33 1162.76 564.71C1159.54 569.98 1155.68 574.76 1152.65 580.76C1144.26 594.52 1141.75 610.49 1141.4 627.48C1131.41 625.11 1121.84 622.85 1112.3 619.96C1110.46 618.52 1108.71 617.71 1106.92 617.67z"/><path fill="#B35729" opacity="1.000000" stroke="none" d="M399.55 241.35C403.12 256.38 406.42 271.42 409.54 286.5C411.18 294.43 409.45 298.99 404.46 301.41C399.5 303.27 394.15 301.78 390.19 296.32C383.28 286.79 376.53 277.15 369.72 267.55C367.43 264.33 365.17 261.96 362.86 257.52C374.94 251.91 387.67 246.64 399.55 241.35z"/><path fill="#B35729" opacity="1.000000" stroke="none" d="M441.45 231.31C441.88 243.64 441.94 255.92 441.93 268.2C441.93 269.84 441.7 271.5 441.41 273.12C440.66 277.3 438.37 280.13 434.73 280.77C429.86 281.37 426.42 279.49 425.48 275.86C421.41 266.3 418.23 256.55 415.14 246.78C414.25 243.99 414.31 240.89 413.91 237.5C422.94 235.13 431.99 233.2 441.45 231.31z"/><path fill="#B35729" opacity="1.000000" stroke="none" d="M349.49 265.75C353.99 271.78 358.43 277.59 362.17 283.82C365.56 288.63 367.44 293.83 369.37 299.1C371.36 304.54 369.47 309.45 365.39 311.81C361.36 314.14 357.94 313.11 354.32 309.52C345.11 300.41 335.65 291.55 326.11 282.31C333.66 276.59 341.39 271.15 349.49 265.75z"/><path fill="#AF5526" opacity="1.000000" stroke="none" d="M666.74 339.79C668.3 344.71 669.22 349.44 670.79 354.6C656.73 361.12 643.45 367.22 630.18 373.32C627.76 374.43 625.41 375.79 622.87 376.49C621.57 376.85 619.94 376.14 618.46 375.72C618.86 374.44 618.87 372.74 619.72 371.95C627.43 364.87 635.19 357.84 643.13 351.2C649.82 345.29 656.77 339.86 663.85 334.68C664.89 335.76 665.66 337.68 666.74 339.79z"/><path fill="#AF5526" opacity="1.000000" stroke="none" d="M1086.94 534.76C1082.93 537.8 1078.49 540.17 1074.77 543.37C1072.6 545.24 1070.66 548.28 1070.2 551.6C1067.18 569.25 1061.1 586.18 1051.99 601.73C1049.17 604.76 1047 607.63 1044.66 610.8C1043.92 610.62 1043.47 610.23 1042.97 609.46C1043.24 607.99 1043.38 606.82 1043.88 605.82C1047.45 598.72 1051.5 591.83 1054.65 584.54C1060.52 570.96 1064.77 556.87 1066.31 542.15C1067.12 531.56 1068.2 521.11 1069.56 510.35C1075.49 518.18 1081.15 526.31 1086.94 534.76z"/><path fill="#AB5325" opacity="1.000000" stroke="none" d="M235.9 508.25C236.97 507.28 238.18 506.15 239.38 506.16C258.51 506.3 277.65 506.54 296.78 506.93C298.45 506.95 299.28 508.37 300.53 509.13C299.25 510.1 298.69 511.7 296.66 511.94C279.98 514.74 263.25 517.33 246.55 520.18C244.91 520.28 243.32 520.79 241.31 521.27C239.28 517.12 237.65 512.88 235.9 508.25z"/><path fill="#AB5325" opacity="1.000000" stroke="none" d="M256.78 547.45C267.42 541.77 278.97 536.24 288.83 531.19C296.46 527.83 303.52 524.97 311.41 522.33C312.95 521.66 315.45 522.69 317.68 522.94C316.32 524.9 315.38 527.63 313.51 528.69C304.81 533.58 295.61 537.59 287.63 542.71C279.54 547.22 272.65 552.77 265.19 558.61C262.2 554.77 259.51 551.29 256.78 547.45z"/><path fill="#AF5526" opacity="1.000000" stroke="none" d="M285.6 576.88C285.59 575.26 286.15 573.53 287.32 572.48C297.4 563.41 307.58 554.43 317.77 545.48C318.69 544.68 319.95 544.28 322.66 544.51C315.42 557.4 308.76 570.29 302.15 583.5C296.4 581.59 290.89 579.35 285.6 576.88z"/><path fill="#A85326" opacity="1.000000" stroke="none" d="M304.88 586.3C305.41 586.13 306.84 586.28 306.88 586.75C306.35 586.92 305.69 586.77 304.88 586.3z"/><path fill="#EB9854" opacity="1.000000" stroke="none" d="M673.38 657.83C679.26 645.7 685.9 633.74 691.86 621.45C695.81 614.79 697.13 607.58 699.91 600.3C701.81 602.49 704.16 604.8 705.15 607.56C708.44 615.58 714.81 618.55 722.8 618.95C732.24 619.43 741.71 620.17 751.14 619.85C760.2 619.54 769.22 618.21 778.53 617.36C768.71 630.53 764.99 644.63 769 660.89C743.1 660.13 717.21 659.13 691.31 658.27C685.5 658.83 679.68 658 673.38 657.83z"/><path fill="#EC9955" opacity="1.000000" stroke="none" d="M1065.67 542.53C1064.77 556.87 1060.52 570.96 1054.65 584.54C1051.5 591.83 1047.45 598.72 1043.88 605.82C1043.38 606.82 1043.24 607.99 1042.65 609.58C1037.48 616.56 1032.59 622.28 1027.69 628.37C1013.6 641.66 997.45 651.98 978.38 657.8C979.28 654.87 980.35 652.33 980.97 649.62C984.7 636.21 980.72 624.11 973.1 612.97C993.66 614.48 1010.51 605.72 1025.92 593.5C1042.19 580.6 1054.17 564.3 1062.48 545.27C1063.18 544.33 1064.35 543.14 1065.67 542.53z"/><path fill="#AB5325" opacity="1.000000" stroke="none" d="M769.18 661.19C764.99 644.63 768.71 630.53 778.96 617.37C782.1 614.59 784.92 612.13 788.37 609.32C790.91 607.93 792.93 606.87 794.9 605.84C792.75 601.33 790.77 597.19 789.17 593.35C791.69 592.69 793.85 592.34 795.97 592.39C796.45 594.32 797.15 595.81 797.46 597.38C798.69 603.54 802.33 603.11 807.41 602.72C815.45 600.43 823.73 599.94 832.29 598.98C834.33 599.68 836.12 600.14 837.61 601.88C840.45 602.89 842.57 603.16 845.36 600.47C847.26 598.63 850.59 598.33 853.14 597.6C853.73 596.77 853.78 595.3 853.98 594.35C854.36 592.58 854.66 590.8 855 589.19C855.38 589.33 855.99 589.58 856.1 589.97C859.1 600.49 868.52 603.5 876.92 606.92C879.32 608.26 881.59 609.44 883.91 610.72C883.69 611.28 883.46 611.85 883.23 612.41C879.97 611.68 876.73 610.76 873.43 610.25C859.71 608.13 846.23 605.46 832.22 604.38C815.66 603.57 799.65 607.38 786.67 618.63C776.81 627.17 772.26 638.45 773.11 651.57C773.88 663.47 781.62 674.56 797.45 676.56C791.52 663.93 789.31 651.2 796.64 638.36C797.27 636.15 799.71 634.62 801.58 632.78C802.79 633.13 802.42 633.48 802.84 633.83C802.37 634.93 801.96 636.55 801.44 637.13C796.83 646.6 796.5 656.43 799.74 666.24C803.19 676.73 811.68 680.33 821.87 680.94C825.51 681.16 829.18 680.97 833.24 680.97C825.3 668.92 822.55 656.57 830.87 643.64C832.62 640.35 835.88 637.98 839.98 638.88C839.6 639.86 839.53 640.58 839.14 640.94C831.59 647.93 829.16 657.53 832.55 667.65C836.18 677.31 844.76 680.8 854.23 680.89C858.46 681.26 862.8 680.25 867.95 679.89C876.33 679.25 883.84 678.59 891.36 677.91C894.35 677.64 896.2 678.63 896.38 681.97C876.55 686.87 855.81 686.88 835.48 687.14C820.25 687.12 805.2 686.6 790.67 681.16C780.7 677.8 773.41 671.36 769.18 661.19z"/><path fill="#B25627" opacity="1.000000" stroke="none" d="M796.79 592.31C793.85 592.34 791.69 592.69 788.92 592.8C786.86 588.71 785.43 584.86 783.99 581.95C784.71 580.83 784.23 580.65 784.34 579.89C784.77 576.26 784.59 573.14 785.13 570.16C785.4 568.65 786.99 567.38 787.98 566.52C791.46 565.68 794.88 563.7 798.42 563.63C814.84 560.11 829.25 564.9 841.83 575.34C846.52 579.23 850.46 584.18 854.87 588.71C854.66 590.8 854.36 592.58 853.98 594.35C853.78 595.3 853.73 596.77 853.14 597.6C850.59 598.33 847.26 598.63 845.36 600.47C842.57 603.16 840.45 602.89 837.61 601.88C836.12 600.14 834.33 599.68 832.33 598.63C825.53 588.97 816.28 585.53 805.87 588.66C802.54 589.65 799.29 590.88 796.79 592.31z"/><path fill="#EC9955" opacity="1.000000" stroke="none" d="M896.5 682.29C896.2 678.63 894.35 677.64 891.36 677.91C883.84 678.59 876.33 679.25 868.37 679.8C877.36 675.5 886.51 670.42 896.3 667.41C904.23 664.98 912.9 664.7 921.28 664.78C936.97 662.91 952.83 659.7 966.22 652.69C969.9 651.27 971.5 648.92 974.55 647.38C974.98 655.2 970.82 660.67 965.64 665.27C960.53 669.32 954.54 672.57 948.93 676.28C931.83 680.24 914.62 683.18 896.5 682.29z"/><path fill="#A95222" opacity="1.000000" stroke="none" d="M787.98 565.58C786.99 567.38 785.4 568.65 785.13 570.16C784.59 573.14 784.77 576.26 784.39 579.62C782.48 570.17 780.58 560.46 779.3 550.63C777.23 523.6 780.39 497.49 795.97 474.25C808.73 455.21 825.79 441.91 848.55 436.21C849.39 437.79 849.81 438.99 850.22 440.18C843.22 443.58 835.89 446.44 829.28 450.48C805.25 465.14 791.49 486.9 787.65 514.49C784.36 531.37 785.37 548.3 787.98 565.58z"/><path fill="#AB5325" opacity="1.000000" stroke="none" d="M949.35 676.24C954.54 672.57 960.53 669.32 965.64 665.27C970.82 660.67 974.98 655.2 974.9 647.36C977.81 636.8 974.24 627.55 970.93 617.43C970.96 614.76 970.96 612.91 970.97 611.72C971.56 611.55 972.15 612.31 972.92 612.74C980.72 624.11 984.7 636.21 980.97 649.62C980.35 652.33 979.28 654.87 978 657.89C971.54 668.93 961.61 674.64 949.35 676.24z"/><path fill="#934922" opacity="1.000000" stroke="none" d="M850.62 440.15C849.81 438.99 849.39 437.79 848.95 436.18C858.4 434.61 867.88 433.45 877.7 432.85C878.38 434.22 878.23 435.33 878.79 435.84C869.87 437.27 860.96 438.69 850.62 440.15z"/><path fill="#EA9652" opacity="1.000000" stroke="none" d="M783.83 581.37C785.43 584.86 786.86 588.71 788.55 592.8C790.77 597.19 792.75 601.33 794.9 605.84C792.93 606.87 790.91 607.93 788.56 609.39C786.7 599.97 785.18 590.85 783.83 581.37z"/><path fill="#934922" opacity="1.000000" stroke="none" d="M566.54 585.42C567.73 584.85 569.36 584.51 570.92 583.98C572.6 583.4 574.22 582.65 575.96 581.61C585.85 582.92 596.36 583.31 603.85 588.56C592.49 587.6 579.5 586.58 566.54 585.42z"/><path fill="#8D4620" opacity="1.000000" stroke="none" d="M878.47 435.9C878.23 435.33 878.38 434.22 878.89 433.72C897.24 434.37 911.52 437.67 917.79 443.28C905.28 438.96 892.36 435.57 878.47 435.9z"/><path fill="#8D4620" opacity="1.000000" stroke="none" d="M701.98 592.61C701.27 592.56 700.67 591.17 699.91 590.24C702.85 580.7 705.96 571.7 709.63 562.7C709.52 562.83 709.98 562.97 710.44 563.1C707.66 572.83 704.87 582.56 701.98 592.61z"/><path fill="#8D4620" opacity="1.000000" stroke="none" d="M970.82 610.77C970.96 612.91 970.96 614.76 970.95 617.72C966.88 611.73 962.83 605.91 958.81 599.63C958.84 599.16 959.17 598.82 959.17 598.82C963.98 602.7 966.85 606.58 970.82 610.77z"/><path fill="#8D4620" opacity="1.000000" stroke="none" d="M920.34 443.77C919.86 443.73 919.6 443.51 919.35 443.29C919.75 443.38 920.15 443.48 920.34 443.77z"/><path fill="#8D4620" opacity="1.000000" stroke="none" d="M957.51 598.48C957.21 598.95 956.91 597.71 956.62 597.32C957.23 597.36 957.43 597.4 957.82 597.8C957.81 598.17 957.51 598.48 957.51 598.48z"/><path fill="#8D4620" opacity="1.000000" stroke="none" d="M957.97 598.21C958.48 597.92 958.75 598.92 959.65 598.6C959.17 598.82 958.84 599.16 958.66 599.32C958.2 599.33 957.96 599.13 957.63 598.68C957.51 598.48 957.81 598.17 957.97 598.21z"/><path fill="#E2723D" opacity="1.000000" stroke="none" d="M228.63 295.34C249.58 303.34 270.17 311.2 291.92 319.5C274.16 337.76 261.97 358.16 249.84 380.24C233.83 351.32 221.62 322.39 212.34 290.55C218.58 292.37 223.42 293.78 228.63 295.34z"/><path fill="#E2723D" opacity="1.000000" stroke="none" d="M526.34 153.73C541.11 181.31 552.95 209.71 562.56 240.64C539.53 234.28 517.55 228.96 493.87 228.9C502.81 202 508.71 174.71 522.56 149.11C524.18 151.41 525.18 152.22 526.34 153.73z"/><path fill="#E78389" opacity="1.000000" stroke="none" d="M471.4 464.86C460.96 465.75 451.4 463.17 442.45 457.79C434.92 453.26 433.8 447.25 440.13 441.46C450.54 431.96 462.97 426.11 476.65 423.2C484.62 421.5 489.67 426.24 489.95 435.12C490.29 446.13 486.83 455.15 476.64 462.1C474.46 463.13 472.93 464 471.4 464.86z"/><path fill="#493018" opacity="1.000000" stroke="none" d="M543.39 362.36C551.4 360.86 559.16 358.98 566.73 358.32C575.82 357.54 582.66 354.4 586.72 345.73C587.89 343.33 589.5 340.71 592.21 342.65C593.62 343.66 594.36 348 593.86 349.47C590.95 360.41 581.24 368.67 569.19 368.93C548.98 370.47 531.77 377.77 519.75 394.88C517.87 397.56 516.25 400.42 513.96 404.88C510.32 388.4 522.98 371.15 543.39 362.36z"/><path fill="#493018" opacity="1.000000" stroke="none" d="M321.71 478.96C327.82 478.67 332.81 475.76 336.23 471.91C347.25 460.95 360.27 452.5 376.14 451.76C382.89 451.45 389.82 453.46 396.55 454.96C398.66 455.43 400.39 457.69 402.29 459.14C402.14 459.56 402.31 459.99 401.86 460.42C396.18 460.42 390.48 460.65 384.85 460.5C367.68 462 353.55 470.55 341.32 481.75C332.2 490.47 316.87 491.57 306.84 483.64C305.42 482.52 305.27 479.81 304.53 477.84C306.37 477.56 308.26 476.9 310.53 477.88C313.82 477.48 317.54 478.31 321.71 478.96z"/><path fill="#4C321A" opacity="1.000000" stroke="none" d="M471.52 465.22C472.93 464 474.46 463.13 476.32 462.26C486.43 474.91 511.7 472.84 518.64 458.6C520.17 455.78 519.66 452.14 520.4 448.95C520.8 447.26 521.86 445.72 522.61 444.11C523.93 445.4 526.47 446.83 526.34 447.95C525.72 453.73 525.45 458.72 523.41 463.64C516.17 475.43 499.55 480.43 484.77 474.58C482.6 473.78 480.52 472.72 478.17 471.61C477.97 474.31 476.28 476.96 475.3 479.54C469.27 495.39 453.97 504.44 439.54 499.91C435.45 498.62 432.33 494.92 428.64 491.95C428.19 491.4 429.21 489.33 429.25 487.51C430.51 487.93 432.11 487.99 433.15 488.82C441.13 496.31 451.4 497.86 460.59 490.26C467.94 484.43 472.21 475.89 471.52 465.22z"/><path fill="#AF5526" opacity="1.000000" stroke="none" d="M671.52 386.14C671.5 391.23 671.32 396.3 670.29 401.65C655.3 402.18 640.57 402.43 625.84 402.72C622.18 402.79 618.52 403.18 614.86 403.65C613.67 403.27 612.51 401.85 611.33 401.19C612.2 400.31 612.91 398.98 613.95 398.63C622.3 395.84 630.57 392.54 639.14 390.74C649.64 388.53 660.41 387.61 671.52 386.14z"/><path fill="#934922" opacity="1.000000" stroke="none" d="M361.9 383.83C360.64 385.8 358.47 388.26 356.39 388.8C348.88 390.96 339.65 392.62 331.22 394.22C329.32 394.58 326.33 394.67 325.42 393.57C324.81 391.94 323.71 388.64 323.86 386.96C325.22 384.11 327.6 380.46 330.39 379.46C337.28 376.98 344.56 375.48 351.84 374.31C358.18 373.67 361.14 377.7 361.9 383.83z"/><path fill="#AF5526" opacity="1.000000" stroke="none" d="M661.57 431.19C659.84 436.4 657.74 441.54 655.22 446.67C654.27 446.44 653.73 446.21 653.2 445.98C648.34 442.55 643.55 439.41 638.62 435.72C633.24 432.1 627.67 428.77 622.35 425.64C620.95 424.83 620.2 422.17 619.15 420.68C620.84 420.32 622.58 419.51 624.23 419.67C637.32 420.95 649.3 425.93 661.57 431.19z"/><path fill="#8D4620" opacity="1.000000" stroke="none" d="M492.62 317.62C490.37 319.62 488.43 321.44 486.39 323.13C482.34 326.5 478.51 325.26 477.74 320.16C475.33 314.47 477.57 309.66 481.66 306.36C486.37 302.56 491.74 299.35 497.27 296.92C499.53 295.93 503.77 296.72 505.69 298.36C508.42 300.69 507.85 304.42 504.71 306.79C500.97 310.52 496.84 313.87 492.62 317.62z"/><path fill="#934922" opacity="1.000000" stroke="none" d="M653.22 446.36C653.73 446.21 654.27 446.44 654.98 446.92C647.6 459.57 640.46 471.23 632.34 482.72C627.88 489.41 621.89 494.32 616.35 499.82C614.56 501.6 612.45 502.61 609.44 503.92C625.27 488.26 639.78 471.28 651.7 451.68C651.9 450.12 652.5 448.39 653.22 446.36z"/><path fill="#EC9955" opacity="1.000000" stroke="none" d="M1106.66 617.32C1108.71 617.71 1110.46 618.52 1112.3 619.96C1121.84 622.85 1131.41 625.11 1141.35 627.94C1143.49 635.66 1145.26 643.41 1147.13 651.51C1142.34 652.22 1137.39 653.21 1132.57 652.79C1124.2 652.55 1115.91 650.44 1107.23 648.99C1106.73 638.4 1106.57 628.22 1106.66 617.32z"/><path fill="#E2F4FC" opacity="1.000000" stroke="none" d="M1028.11 628.14C1032.59 622.28 1037.48 616.56 1042.69 609.96C1043.47 610.23 1043.92 610.62 1044.64 611.17C1049.97 616.43 1055.27 621.55 1060.15 626.6C1061.56 627.98 1063.19 629.14 1064.87 630.69C1052.85 630.9 1040.69 629.19 1028.11 628.14z"/><path fill="#F7AF66" opacity="1.000000" stroke="none" d="M327.92 657.88C312.62 659.9 297.33 662.1 281.99 663.85C275.15 664.63 268.28 663.74 262.28 659.92C248.32 651.24 248.89 627.69 263.17 619.33C264.31 618.66 265.33 617.77 266.63 616.4C260.84 615.62 256.85 617.6 253.73 621.46C244.21 633.21 245.26 645.66 251.5 658.39C245.88 659.6 235.54 654.29 230.95 647.9C219.12 631.46 225.44 608.18 244.29 598.14C254.96 592.47 266.36 592.51 277.88 593.25C283.15 593.57 288.13 594.19 293.71 595.14C297.1 596.86 300.29 597.74 302.93 599.45C309.46 603.66 315.69 608.32 322.12 612.68C336.46 622.41 339.23 633.88 337.8 648.83C337.46 652.32 335.72 655.11 331.54 655.42C330.27 655.55 329.13 657.22 327.92 657.88z"/><path fill="#EA9652" opacity="1.000000" stroke="none" d="M328.34 657.91C329.13 657.22 330.27 655.55 331.54 655.42C335.72 655.11 337.46 652.32 337.8 648.83C339.23 633.88 336.46 622.41 322.12 612.68C315.69 608.32 309.46 603.66 302.93 599.45C300.29 597.74 297.1 596.86 294.12 595.22C314.8 592.58 333.68 596.33 353.4 598.63C359.79 599.37 366.34 598.74 374.52 598.74C353.88 612.59 347.49 630.81 352.51 653.94C344.59 655.28 336.67 656.61 328.34 657.91z"/><path fill="#F8B067" opacity="1.000000" stroke="none" d="M361.22 621.18C361.25 621.64 360.7 621.99 360.37 622.33C360.39 621.95 360.41 621.57 360.64 621.27C360.84 620.87 361.93 621.8 361.22 621.18z"/><path fill="#F8B067" opacity="1.000000" stroke="none" d="M380.24 670.78C380.3 670.95 380.18 671.28 379.88 671.46C379.71 671.31 380.59 670.95 380.24 670.78z"/><path fill="#A85326" opacity="1.000000" stroke="none" d="M594.99 532.99C594.84 533.56 594.7 534.14 594.27 534.85C593.99 534.99 593.94 534.95 593.94 534.95C594.12 534.39 594.29 533.84 594.73 533.14C595 533 594.99 532.99 594.99 532.99z"/><path fill="#A85326" opacity="1.000000" stroke="none" d="M592.97 535.96C593.96 535.63 593.27 535.34 593.69 535.29C593.94 534.95 593.99 534.99 594.17 535.19C593.89 535.34 593.73 535.63 593.34 536.12C593.11 536.99 593.11 536.85 592.97 535.96z"/><path fill="#A85326" opacity="1.000000" stroke="none" d="M595.31 533.38C595.12 532.98 595.23 532.95 595.16 532.96C594.99 532.99 595 533 595.31 533.38z"/><path fill="#F7AF66" opacity="1.000000" stroke="none" d="M795.97 592.39C799.29 590.88 802.54 589.65 805.87 588.66C816.28 585.53 825.53 588.97 831.95 598.62C823.73 599.94 815.45 600.43 807.41 602.72C802.33 603.11 798.69 603.54 797.46 597.38C797.15 595.81 796.45 594.32 795.97 592.39z"/></svg>