<svg xmlns="http://www.w3.org/2000/svg" xml:space="preserve" style="background:0 0" viewBox="0 0 1328 800"><path fill="#f7b168" d="M267.25 492.1c-3.48-5.3-6.96-10.59-9.26-16.61 8.67-3.03 18.13-5.31 27.56-7.72 2.28-.58 4.44-1.61 7.81-2.86-6.87-2.98-32.62-1.01-42.12 1.35-2.47-6.83-4.94-13.43-7-20.47 8.92.79 17.42 1.99 25.92 3.75 2.94-.05 5.96.84 8.8.95 1.26.04 2.58-1.39 3.87-2.15-.94-1.11-1.66-2.64-2.86-2.39-2.48-2.11-5.23-2.84-7.85-3.84-10.66-3.58-21.31-8.13-31.97-12.2-3.9-20.95-2.46-41.73 2.2-62.35 1.76-7.77 3.86-15.01 6.5-23.01 1.82-5.16 1.74-9.7.05-14.88-9.51-29.16-16.05-59.01-18.9-89.56-1.81-19.34-2.67-38.77-3.33-58.16-.69-1.32.08-2.66-.54-3.99.42-10.31 3.41-12.54 13.04-9.83 9.63 3.09 19.09 6.83 28.32 11.73 30.13 12.7 59.14 28.37 85.46 48.32 1.96 1.5 4.74 1.92 7.66 3.22.81 2.27 1.18 2.94 1.94 4.25 1.09 10.13 2.67 20.28 4.33 30.99.59 3.06 1.75 6.3 6.28 6.49 4.72.2 7.76-2.25 8.65-6.63 1.08-5.33 1.8-10.79 2.13-16.22.55-9.04.68-18.58.99-27.87 4.71-1.14 9.43-2.28 14.49-3.01.06 5.54-.75 10.71-.43 15.8.76 11.9 1.78 23.92 3.28 35.65.72 5.74 4.99 9.05 9.7 9.04 4.65-.01 7.93-2.97 9.98-8.66.76-7.63 1.76-16.27 3.59-23.68 3.35-10.81 5.62-22.33 9.33-33.25 3.85-.06 8.56-.13 13.71.25-4.83 14.18-8.47 28.22-7.61 43.11.23 3.97 1.65 7.34 5.83 8.26 4.38.97 8.38-.04 10.48-4.56 1.46-3.14 2.49-6.5 3.95-9.65 5.5-11.87 11.09-23.5 16.65-35.53 8.5 1.01 7.27 3.12 12.73-6.07 18.11-30.52 40.06-57.2 66.12-82.13 5.71-5.29 11.9-10.14 18.65-14.55 6.61-4.8 11.83-2.45 15.03 4.84 5.26 13.46 10.23 27.09 14.3 40.94 8.46 28.75 13.78 58.19 17.06 87.97.97 8.74.82 17.61 1.51 26.39.2 3.1.86 6.11 2.44 7.25 16.63 18.15 29.05 38.44 37.66 61.3.1.27.46.44 1.11 1.01 7.74-2.57 15.75-5.23 24.28-7.62 8.41 10.86 16.05 21.38 23.62 32.06 3.98 5.14 6.8 10.76 10.33 15.86 3.4 4.53 8.75 5.37 13.49 4.28 5.35-1.12 9.94-3.95 10.7-9.77.77-5.16 1.41-12.02.44-17.77-1.92-11.42-4.99-22.65-7.58-33.96 1.62-.35 3.34-1.02 4.85-.99 16.59.35 33.18 1.04 50.09 1.96-.42 16.97-1.14 33.22-1.89 49.47-.25 5.26 1.32 9.5 7.12 12 4.47 2.68 10.05 3.11 14.55-.9 3.74-3.34 7.27-7.47 9.39-11.96 6.42-13.04 11.55-26.43 17.24-39.68 19.34 4.71 36.54 12.59 53.49 22.55-7.75 12.18-14.75 23.79-23.14 35.51-2.25 3.46-4.61 7.03-5.91 11.4-2.93 8.17 1.08 15.19 10.11 16.38 4.31.57 9.71.21 13.27-2.13 12.31-7.57 24-16.14 35.98-24.24 3.52-2.38 7.23-3.62 10.85-6.72.87.43 1.91.68 2.58 1.31 11.54 10.81 22.22 22.38 31.11 36.52-1.58 1.87-2.6 3.19-3.9 4.14-6.69 4.92-13.29 9.64-20.18 14.63-6.63 4.97-12.72 9.92-19.55 15.37-4.07 3.55-5.01 8.69-3.32 13.79 1.59 4.82 6.03 7.65 10.44 8.18 4.2.45 8.48.56 12.35-.55 15.61-4.45 31.07-9.43 46.59-13.96 4.35 13.18 8.73 26.62 13.03 40.08.5 1.55.61 3.23.53 5.33-2.03 2.07-3.55 3.85-4.73 5.22-9.28 6.5-19.44 8.61-29.83 10.2-1.75.27-3.28 1.99-5.34 3-1.26.06-2.09.28-2.91-.23-35.66-5.13-62.86 15.82-65.87 51.49-.52 6.07 2.15 12.41 3.94 18.96-.33.77-.15 1.21-.15 1.98-.21 1.1.1 1.89.96 3.03 1.26 4.12 2.92 7.87 4.25 11.79-.46 2.1-1.3 4.35-.6 6.41 4.62 9.85 8.53 20.23 5.21 31.84-.12.38.29.92.13 1.52-7.64 2.81-14.76 6.58-22.31 7.93-16.83 3.01-33.84 5.51-50.84 6.98-12.22 1.31-24.56 1.94-36.85 2.06-10.38.1-16.28-5.04-17.35-14.23-.34-2.92.74-5.99.38-8.93 1.06-6.97 4.44-12.73 10.93-17.28-14.83-.18-19.96 18.8-11.9 40.03-10.39-.17-20.68.69-27.47-7.34-9.14-10.83-6.15-22.56 1.41-33.52-4.68-.9-6.92 1.52-8.23 4.26-5.06 10.64-5.06 21.31.86 31.77-8-1.39-13.29-6.29-16.64-13.25-6.01-16.66 3.27-35.9 20.33-41.54 21.82-7.22 44.08-4.64 67-2.32 8.07.92 16.81 2.65 25.59 4.01-4.51-2.79-9.25-5.56-14.3-6.29-16.9-2.46-33.91-4.14-50.87-5.3-1.88-1.17-4.6-1.67-5.34-2.95-15.79-27.71-24.58-56.83-19.95-89.33 4.95-34.54 33.98-62.19 68.66-64.72 6.86-.5 13.79-.08 20.8-.08-.27-.42.02.02-.61-.91-.43-.25-.92-.42-1.41-.51-13.08-2.26-26.26-3.15-39.03 1.06-28.82 9.62-46.09 29.76-53.4 58.91-3.71 15.8-3.4 32.28-1.09 47.72-.51 2.32-1.43 4.46-1.77 6.62-2.31 10.78-4.31 21.61-6.8 33.03-.67 2.16-2.1 5.48-5.76 4.81 4.74-18.86.9-35.97-7.92-52.34.63 4.87 2.07 9.6 2.85 14.44 2.86 15.77 2 31.25-6.04 45.58-6.76 12.04-17.83 19.64-29.26 26.53-22.52 13.56-45.24 26.78-67.96 40.01-10.31 6.01-20.65 10.57-33.45 10.66-16.81-1.01-24.09-11.65-18.34-27.26 1.09-2.62 2.96-5.95 4.52-8.91-4.33 0-5.77.68-8.25 5.82-5.2 10.78-4.37 21.15 4.06 31.58-11.89-.82-23.35-.6-30.85-10.5-8.27-10.94-5.54-22.45 1.43-34.63-9.11 3.87-11.07 10.83-11.06 17.92 0 6.81 1.84 13.62 2.82 20.1-16.39-4.89-23.18-18.03-17.61-34.87 5.33-16.1 17.63-22.59 33.11-25.87 6.6-1.31 13.21-2.96 18.68-6.32 13.28-8.18 25.9-16.75 39.06-26.43.56-.43.85-.72 1.27-.99.14.03.39.2.74-.15 12.62-6.21 24.88-12.35 36.08-17.38-13.04 1.53-27.07 4.91-39.6 13.7-3.9 2.1-7.59 3.56-11.21 6.55-8.73 4.96-17.05 11.3-25.89 16.82-4.81 3-10.22 5.21-15.59 7.12-7.91 2.82-16.03 5.05-24.29 7.2-7.62-2.63-15.35-4.2-22.33-7.39-20.99-9.82-41.52-22.02-57.99-39.4-2.06-2.02-5.09-3.42-7.94-5.3-3.44-4.42-6.63-8.63-9.46-12.97 6.83-2.73 11.62-5.24 17.15-8 .85-.42 1.12-2 2.04-3.11 2.47-.44 4.55-.82 6.62-1.19-.03-.17-.07-.33-.11-.49-9.27-.62-18.54-1.23-28.24-1.94-14.71-2.22-29.1-3.81-43.23-6.63-13.14-2.61-12.97-3.18-10.77-15.88 1.9-12.11-1.77-25.03-13.75-30.75-1.27-.65-2.36-1.11-3.22-3.02-11.44-15.38-27.9-19.04-44.39-10.02-1.57.86-4.1 1.03-5.8.43-8.24-2.9-15.77-1.76-22.61 3.46-6.95 6.13-13.72 10.87-20.57 16.32m359.56-4.11c5.97-5.72 12.31-11.09 17.83-17.21 18.2-20.19 28.05-44 29.19-71.2.54-4.16-1.16-8.38-1.72-12.72-.87-8.09-1.73-15.4-2.7-23.59-11.84 4.94-22.54 9.04-32.92 14.68-11.91 4.63-23.58 10.65-35.25 16.64-1.91.98-3.26 3.06-4.86 4.63l1.12 1.42c1.73-.37 3.47-.66 5.18-1.11 14.11-3.69 28.15-7.69 42.67-11.01 8.18-1.99 16.85-4.15 25.98-.64-1.98 11.05-3.65 22.1-6.14 33.05-.96-.27-1.9-.63-2.88-.78-20.64-3.01-41.35-2.75-62.06-.96-3.52.3-6.95 1.63-10.43 2.49.01.72.01 1.45.01 2.17 1.65.78 3.8 1.95 4.97 2.26 4.55.82 9.17 1.3 13.77 1.86 16.99 2.59 33.62 5.66 50.31 12.68-4.4 5.98-7.94 12-11.69 17.88-.57.9-1.73 1.15-3.94 1.65-14.71-5.9-29.36-11.76-43.28-17.22-3.61-1.01-6.7-.4-10-.54 2.69 2.37 3.88 5.15 6.34 7.04 12.13 9.31 24.43 18.38 36.11 27.88-2.15 2.1-4.3 4.2-7.09 6.62-.7.45-1.45.84-2.1 1.35-15.3 12.15-31.41 22.96-49.57 30.44-2.7 1.12-5.37 2.83-9.39 4.04 2.17.12 3.73 1.14 3.41.16 22.62-5.35 41.6-16.39 59.13-31.96m-198.65-39.01c9.68-3.24 15.62-11.25 18.26-21.06 2.04-7.61.15-14.47-10.25-16.08-10.27-1.72-21.48.38-31.78 3.63-10.27 3.24-13.51 10.42-8.24 18.92 6.2 9.22 15.6 14.12 27.65 16.51-.36 9.54-6.5 19.02-15.5 22.81-9.52 3.99-17.34 2.08-22.61-7.43-.16-1.07-2-1.71-3.04-2.55.1 1.42-1.52 2.82-1.33 4.27-.37 1.19.42 2.52 1.06 3.66 5.19 9.16 17.97 12.17 29.24 7.05 7.2-3.71 12.1-9.95 15.84-17.79 1.4 1.45 2.51 2.67 3.7 3.82 8.51 8.18 18.67 11.94 30.44 11.25 10.92-.64 20.09-8.34 21-17.89.15-1.54-1.34-3.24-2.07-4.87-1.04 1.16-2.7 2.17-3.02 3.5-1.54 6.55-5.54 10.07-10.72 12.13-14.65 4.85-33.51-4.11-38.63-19.88m128.78-111.46c-32.29-21.22-75.25-1.03-78.81 37.02-2.33 24.89 12.62 46.88 36.04 53.02 25.45 6.67 51.46-4.69 62.31-28.05 8.36-19.05 2.48-48.11-19.54-61.99m-267 102.05c3.86 3.36 7.38 7.27 11.66 9.99 16.89 10.74 41.75 8.07 55.38-4.68 16.29-18.99 18.29-42.2 5.81-63.56-10.37-15.64-31.01-25.21-47.69-21.75-18.12 3.71-29.78 14.92-34.91 32.09-4.25 17.04-2.34 33.25 9.75 47.91m272.03-266.11c-13.39 16.68-25.38 34.28-36.69 53.5 24.29 6.59 45.23 18.68 65.84 32.82.04-35.63-4.96-69.14-12.83-102.29l-1.56-.75c-4.76 5.39-9.53 10.79-14.76 16.72m-260.26 94.71c4.03-2.55 8.07-6.21 12.42-9.56-20.55-18.44-41.8-34.89-65.61-48.33-2.15 14.03 10.93 85.27 18.15 98.72 9.04-15.85 20.69-29.06 35.04-40.83m175.84 39.74c7.91-5.64 13.95-1.75 20.4 2.23.57.35 1.15.67 1.71 1.02 3.16 2.02 6.28 2.67 8.67-.96 2.13-3.23 1.56-6.41-1.36-8.91-6.35-5.42-13.76-8.74-21.99-9.8-4.71-.6-7.84 3.2-9.74 6.48-1.66 3.4-2.05 7.2 2.31 9.94M333.91 328.4c4.61 1.15 9.35 1.92 13.77 3.56 3.2 1.19 5.85 1.81 7.71-1.46 1.8-3.15.51-6.13-2.2-7.63-4.44-2.59-10.27-4.68-15.55-6.66-2.32-.78-5.31-.58-7.73.12-4.48 1.27-6.78 5.46-5.59 9.14 1.56 4.84 5.09 4.38 9.59 2.93m390.6 214.89c-.09.08-.24.16-.26.25-.01.09.12.2.19.31.09-.08.19-.17.07-.56m1.29 2.26-.58-.03c.09.12.18.23.58.03"/><path fill="#8ab9d7" d="M1067.92 650.19c5.65 6.03 5.42 10.02-2.7 13.75-12.64 4.82-26.57 9.17-40.33 11.71-27.38 5.04-55.01 8.91-82.66 12.29-22.72 2.77-45.6 4.44-68.45 6.05-24.19 1.71-48.42 3.57-72.66 3.97-61.74 1.83-123.5 1.48-185.26 1.77-17.28.09-34.58-.89-51.72-1.85-26.49-1.46-52.87-2.96-79.18-5.14-25.63-2.13-51.24-4.03-76.75-7.87-29.64-3.73-59.26-7.89-87.88-16.99-4.55-1.44-9.07-3.39-13.14-5.76-7.24-4.51-6.31-10.7.67-14.35 8.92-3.86 16.88-6.89 25.55-9.66 6.3-2.01 12.92-2.99 19.93-4.52 7.79 8.32 14 18.04 22.52 24.87 25.09 20.12 61.11 17.76 87.64-3.77 8.78-7.13 15.63-16.25 23.28-25.14 1.76-1.96 3.08-4.72 6.34-3 7.29 3.85 14.51 7.86 21.79 11.82-.42 1.54-.66 3.04-1.04 3.75-3.89 13.46-1.6 31.37 14.47 38.71 6.41 2.93 13.54 4.87 20.27 6.49 18.09 5.85 35.25 3.95 52.96 2.1 12.94-.79 23.67-8.16 34.58-14.82 10.17-6 20.44-11.81 31-17.42 2.12.48 4.48 1.19 5.71 1.21 17.67.25 35.34-.12 53.14-.05 4.56 9.3 11.22 15.94 21.21 17.91 11.4 2.25 22.91 4.73 34.46 5.27 33.54 1.58 66.85-1.01 99.84-7.6 20.16-3.75 38.82-10.65 52.28-27.8 3.64 1.33 7.32 2.83 11.03 4.24 13.61 5.17 27.61 8.37 42.7 8.53 10.72-.1 20.99-.25 31.73-.34 1.4-.13 2.33-.33 3.27-.44 0 .1.22-.15.59-.11 1.69-.3 3.03-.63 4.86-.89 6.59-.55 12.75-.79 18.75-1.88 7.14-1.3 14.14-3.33 21.2-5.04"/><path fill="#a7562c" d="M666.82 656.89c-10.23 5.9-20.5 11.71-30.67 17.71-10.91 6.66-21.64 14.03-34.58 14.82-17.71 1.85-34.87 3.75-52.96-2.1-6.73-1.62-13.86-3.56-20.27-6.49-16.07-7.34-18.36-25.25-14.47-38.71.38-.71.62-2.21 1.04-3.75-7.28-3.96-14.5-7.97-21.79-11.82-3.26-1.72-4.58 1.04-6.34 3-7.65 8.89-14.5 18.01-23.28 25.14-26.53 21.53-62.55 23.89-87.64 3.77-8.52-6.83-14.73-16.55-22.22-25.13-9.39-17.66-18.49-35.17-27.79-52.58-.42-1.5-2.64-2.59-4.52-3.33-7.74-3.18-15.95-5.9-22.87-10-20.58-11.26-32.9-27.63-30.8-51.96-.39-3.29.1-6.71 1.31-9.73 1.93-4.83 2.21-9.07-1.72-13.29 6.85-5.79 13.62-10.53 20.57-16.66 6.84-5.22 14.37-6.36 22.61-3.46 1.7.6 4.23.43 5.8-.43 16.49-9.02 32.95-5.36 44.39 10.02.86 1.91 1.95 2.37 3.22 3.02 11.98 5.72 15.65 18.64 13.75 30.75-2.2 12.7-2.37 13.27 10.77 15.88 14.13 2.82 28.52 4.41 43.34 6.97 2.74.99 4.94 2.14 7.13 2.08-1.24.39-3.58.17-5.31.96-1.89-.21-3.71.56-5.62 2.27 1.92 2.82 3.9 6.02 5.88 9.67 3.18 3.75 6.37 7.96 9.89 12.71 20.12 27.94 42.63 52.32 71 66.68 6.51-5.45 11.96-10.02 18.2-14.59 7.24-2.48 15.36-4.71 23.27-7.53 5.37-1.91 10.78-4.12 15.59-7.12 8.84-5.52 17.16-11.86 25.89-16.82 3.62-2.99 7.31-4.45 11.56-6.51 1.32 1.08 2.07 2.39 2.82 3.99 0 0-.25-.17-.7-.12-.72.38-.98.71-.7 1.04-13.42 9.55-26.04 18.12-39.32 26.3-5.47 3.36-12.08 5.01-18.68 6.32-15.48 3.28-27.78 9.77-33.11 25.87-5.57 16.84 1.22 29.98 17.61 34.87-.98-6.48-2.82-13.29-2.82-20.1-.01-7.09 1.95-14.05 11.06-17.92-6.97 12.18-9.7 23.69-1.43 34.63 7.5 9.9 18.96 9.68 30.85 10.5-8.43-10.43-9.26-20.8-4.06-31.58 2.48-5.14 3.92-5.82 8.25-5.82-1.56 2.96-3.43 6.29-4.52 8.91-5.75 15.61 1.53 26.25 18.34 27.26 12.8-.09 23.14-4.65 33.45-10.66 22.72-13.23 45.44-26.45 67.96-40.01 11.43-6.89 22.5-14.49 29.26-26.53 8.04-14.33 8.9-29.81 6.04-45.58-.78-4.84-2.22-9.57-2.85-14.44 8.82 16.37 12.66 33.48 7.25 52.65-6.01 16.83-17.69 27.85-31.51 36.5-11.92 7.08-23.8 14.42-35.55 20.48M418 570s.27-.03.85.64c.37.78 1.11 1.56 2.51 3.05 4.17 8.56 7.99 17.01 11.58 25.75 1.27 3.09.81 6.88 1.05 10.38-2.09-4.69-3.4-8.59-6.31-12.56-9.78-15.44-19.35-31.04-29.79-46.02-3.74-5.56-9.37-10.52-15.14-14.12-7.38-4.61-9.24-3.22-11.64 4.99-.75 2.53-1.82 5.81-2.94 7.38-.68 1.47-1.74 2.76-2.63 4.13 1.02-11.64 3.35-21.98 4.88-32.45 1.32-9.04 2.38-18.27-4.86-25.93-4.32-4.56-9.97-4.43-14.39-.77-5.5 5.47-8.58 12.15-9.18 19.94-.6 7.84 1.69 14.89 8.3 20.33-6-.24-9.78-3.89-12.02-10.56-4.6-13.74.83-27.54 15.27-38.82-7.33-13.57-26.82-16.08-38.33-4.96-11.58 10.84-14.93 32.55-7.54 46.82.65 1.25.49 2.93.7 4.41-1.46-.77-3.81-1.21-4.23-2.37-1.99-5.4-4.21-10.9-4.93-16.55-1.57-12.24 2.23-23.3 9.51-33.14-4.36-3.31-9.03-3.96-13.03-1.28-9.94 6.64-16.47 15.51-18.84 27.6-1.86 10.39-.41 20.42 1.65 30.82-1.16-2.6-2.93-5.2-4.38-8.52-.17-1.03-.34-2.06-.5-3.09-.29.07-.19.14-.86.21.38 1.25.76 2.51 1.08 4.57.39 1.77.55 3.63 1.47 5.3 4.34 12.09 13.16 20.34 24.14 26.64 10.95 6.28 22.74 9.98 35.08 13.17 3.8-.19 7.42 1.48 11.11 2.71-.13.57-.27 1.14-.4 1.71h-14.47c4.16 9.95 8.04 19.11 13.06 26.98 7.68 12.76 16.14 25.06 24.5 38.18 3.54 3.26 7.53 6.96 10.65 9.7 22.66 15.9 46.32 17.53 70.64 4 13.68-7.62 24.82-17.98 34.01-30.81 3.37-4.71 2.77-6.22-1.22-9.69-14.6-11.91-27.47-25.52-38.24-41.03-3.84-5.54-7.54-11.18-11.35-17.49-.67-1.26-1.52-2.46-1.99-3.79-3.67-9.95-11.25-14.72-21.96-14.47-1.95.36-3.91-.58-5.76-.3-2.21-.99-4.31-1.37-6.68-1.8 7.15 10.32 13.91 20.07 20.81 30.35.27.25.53.49.76.76m7.5-26.43s-.06-.1 0 0"/><path fill="#f7b16a" d="M1068.22 649.96c-7.36 1.94-14.36 3.97-21.5 5.27-6 1.09-12.16 1.33-18.55 1.6.47-1.1 1.24-1.86 1.99-2.65-.01-.04.57-.05.15-.05.23-.01.66-.2.97-.32 8.69-7.42 14.68-16.47 17.55-27.06 7.47-27.48 3.59-52-16.04-74.05 2.82.09 5.14.14 7.45.17 7.73.09 15.46-.55 22.75 3.36 8.43 4.53 14.41 11.43 20.75 19.2 10.44 22.39 10.82 44.8.23 66.88-5.15 2.47-10.3 4.95-15.75 7.65"/><path fill="#b55d30" d="M935.69 388.56c-3.54 3.4-7.25 4.64-10.77 7.02-11.98 8.1-23.67 16.67-35.98 24.24-3.56 2.34-8.96 2.7-13.27 2.13-9.03-1.19-13.04-8.21-10.11-16.38 1.3-4.37 3.66-7.94 5.91-11.4 8.39-11.72 15.39-23.33 23.34-35.25 15.17 7.66 28.96 17.86 40.88 29.64"/><path fill="#b45d30" d="M991.78 467.67c-15.41 5.15-30.87 10.13-46.48 14.58-3.87 1.11-8.15 1-12.35.55-4.41-.53-8.85-3.36-10.44-8.18-1.69-5.1-.75-10.24 3.32-13.79 6.83-5.45 12.92-10.4 19.55-15.37 6.89-4.99 13.49-9.71 20.18-14.63 1.3-.95 2.32-2.27 4.13-3.48 2.85 4.1 6.84 8.58 9.58 14.43 4.55 7.82 8.31 16.77 12.51 25.89"/><path fill="#b25b2f" d="M739.35 326.1c3.01 11.42 6.08 22.65 8 34.07.97 5.75.33 12.61-.44 17.77-.76 5.82-5.35 8.65-10.7 9.77-4.74 1.09-10.09.25-13.49-4.28-3.53-5.1-6.35-10.72-10.33-15.86a1944 1944 0 0 0-23.25-32.07c16.1-4.95 32.75-8.51 50.21-9.4"/><path fill="#b45d30" d="M840.82 335.89c-5.39 13.47-10.52 26.86-16.94 39.9-2.12 4.49-5.65 8.62-9.39 11.96-4.5 4.01-10.08 3.58-14.55.9-5.8-2.5-7.37-6.74-7.12-12 .75-16.25 1.47-32.5 2.45-49.22 14.92 2.43 30.08 5.33 45.55 8.46"/><path fill="#a9572b" d="M1082.96 575.99c-5.56-8.33-11.54-15.23-19.97-19.76-7.29-3.91-15.02-3.27-22.75-3.36-2.31-.03-4.63-.08-7.68-.27-6.66 1.11-8.24 3.55-7.69 9.11.87 2.06-.38 4.18-.76 5.95-1.93-3.32-3.55-6.44-5.56-9.27-2.29-3.57-5.65-6.16-10.25-7.27-9.35-2.25-18.65-4.81-27.77-7.85-11.64-3.88-23.41-6.81-35.69-4.82-15.67 2.25-28.55 8.24-35.48 23.86-8.7 13.95-8.43 28.17-2.41 43.01-.05.78-.05 1.24-.48 2.14-2.11-.34-3.8-.46-5.49-.46-.32-.79-.63-1.58-.64-2.73.6-.67.9-.98 1.21-1.29.17-.32-.95-.65-1.43-.05-1.2-7.14-3.87-13.48-3.35-19.55 3.01-35.67 30.21-56.62 65.87-51.49.82.51 1.65.29 3.18.47 9.81 3.38 18.89 6.56 28.04 9.54 4.39 1.44 8.9 2.48 14.44 4-.47-6.44-.81-11.2-1.15-15.97 5.36-2.68 10.72-5.36 16.47-7.66-4.51 7.95-8.35 15.93-9.41 25.56 6.19 0 12.15.29 18.05-.14 2.54-.18 4.97-1.86 8.54-1.96 3.18.03 6.72.61 10.69 1.21 4.49.63 8.9 1.23 13.2 2.21-.47 1.4-.29 2.42-.13 3.34.59 0 .81.07.89-.01.94-.86 1.85-1.75 3.15-2.61 8.32 2.06 15.27 5.8 20.36 12.03-5.62.4-6.47 3.62-5.02 8.03-.61 1.68-.75 3.44-.98 6.06"/><path fill="#b25b2f" d="M433.57 214.24c-2.41 10.98-4.68 22.5-8.03 33.31-1.83 7.41-2.83 16.05-3.59 23.68-2.05 5.69-5.33 8.65-9.98 8.66-4.71.01-8.98-3.3-9.7-9.04-1.5-11.73-2.52-23.75-3.28-35.65-.32-5.09.49-10.26.83-15.8 11.13-2.01 22.56-3.62 33.75-5.16"/><path fill="#f7b069" d="M1089.38 561.85c-5.51-6.18-12.46-9.92-21.07-12.21-1.84-.46-3.03-.66-3.36-.87-4.56-.6-8.97-1.2-13.28-2.11 4.12-2.22 9.27-4.31 12.88-6.01 15.32-5.85 29.44-3.68 42.29 6.6.57.46 1.47.49 2.77.73 0 0-.06.51-.64.24.35.43.74.64 2.01 1.49 13.01 19.74 12.02 52.96-3.39 70.06 3.28-12.3 2.35-24.02-2.23-35.45-3.46-8.83-8.09-16.84-15.98-22.47"/><path fill="#af5a2e" d="M1088.96 561.9c8.31 5.58 12.94 13.59 16.4 22.42 4.58 11.43 5.51 23.15 1.9 35.54-4.93 10.34-13.3 16.77-22.94 22.34 10.24-21.97 9.86-44.38-.58-66.77-.55-2.06-.41-3.82.2-5.5-1.45-4.41-.6-7.63 5.02-8.03"/><path fill="#b25b2f" d="M477.49 216.69c-5.17 11.52-10.76 23.15-16.26 35.02-1.46 3.15-2.49 6.51-3.95 9.65-2.1 4.52-6.1 5.53-10.48 4.56-4.18-.92-5.6-4.29-5.83-8.26-.86-14.89 2.78-28.93 8.45-43.03 8.99.2 18.33.76 28.07 2.06"/><path fill="#f7b069" d="M1039.71 544.83c-2.48 1-4.91 2.68-7.45 2.86-5.9.43-11.86.14-18.05.14 1.06-9.63 4.9-17.61 9.79-25.54-.01-.36.17-.3.25-.33.73-.29 1.21-.55 1.69-.82 11.43-4.8 23.27-4.9 35.2-2.72 4.56.83 8.98 2.36 13.43 4.08-1.29.87-2.11 1.28-3.79 2.18-13 2.59-23.93 9.17-31.07 20.15"/><path fill="#b25b2f" d="M384.56 222.4c.06 9.3-.07 18.84-.62 27.88-.33 5.43-1.05 10.89-2.13 16.22-.89 4.38-3.93 6.83-8.65 6.63-4.53-.19-5.69-3.43-6.28-6.49-1.66-10.71-3.24-20.86-4.33-30.99-.76-1.31-1.13-1.98-.76-4.25 6.86-3.26 14.63-6.13 22.77-9"/><path fill="#af5a2e" d="M1040.8 545.73c6.05-11.88 16.98-18.46 29.98-21.05 1.68-.9 2.5-1.31 4.05-1.95 14.7 3.75 25.85 12.21 34.39 24.9-.91.11-1.81.08-2.38-.38-12.85-10.28-26.97-12.45-42.29-6.6-3.61 1.7-8.76 3.79-13.31 5.99-3.72-.3-7.26-.88-10.44-.91"/><path fill="#e69352" d="M1007.18 529.57c.31 5.13.65 9.89 1.12 16.33-5.54-1.52-10.05-2.56-14.44-4-9.15-2.98-18.23-6.16-27.61-9.5 1.36-1.29 2.89-3.01 4.64-3.28 10.39-1.59 20.55-3.7 29.83-10.2 1.18-1.37 2.7-3.15 4.67-3.94.81 4.8 1.32 9.16 1.79 14.59"/><path fill="#b15a2d" d="M240.11 430.34c10.7 3.64 21.35 8.19 32.01 11.77 2.62 1 5.37 1.73 7.85 3.84 1.2-.25 1.92 1.28 2.86 2.39-1.29.76-2.61 2.19-3.87 2.15-2.84-.11-5.86-1-8.8-.95-8.5-1.76-17-2.96-25.91-4.13-1.67-4.84-2.92-9.74-4.14-15.07"/><path fill="#af5a2e" d="M251.29 466.37c9.45-2.47 35.2-4.44 42.07-1.46-3.37 1.25-5.53 2.28-7.81 2.86-9.43 2.41-18.89 4.69-27.63 7.38-2.93-2.57-4.75-5.5-6.63-8.78m858.69 82.45c-.27.04-.66-.17-1-.63.33-.04.61.17 1 .63"/><path fill="#a9572b" d="M1025.65 521.14c-.19.27-.67.53-1.43.82.19-.25.66-.54 1.43-.82"/><path fill="#fafbf3" d="M557.22 337.74c21.74 13.66 27.62 42.72 19.26 61.77-10.85 23.36-36.86 34.72-62.31 28.05-23.42-6.14-38.37-28.13-36.04-53.02 3.56-38.05 46.52-58.24 79.09-36.8m-42.34 76.01c9.11 1.18 16.1-3.53 20.95-11.07 9.09-14.13 4.91-35.35-8.73-45.13-9.13-6.56-19.42-6.26-27.3 1.36-9.26 8.94-11.07 20.2-8.19 32.21 2.85 12.21 9.71 20.23 23.27 22.63M289.7 439.3c-11.85-14.39-13.76-30.6-9.51-47.64 5.13-17.17 16.79-28.38 34.91-32.09 16.68-3.46 37.32 6.11 47.69 21.75 12.48 21.36 10.48 44.57-5.81 63.56-13.63 12.75-38.49 15.42-55.38 4.68-4.28-2.72-7.8-6.63-11.9-10.26m34.58-56.67c-15.89 10.07-14.28 39.22 1.08 51.19 7.93 5.84 18.95 5.1 26.12-1.7 10.93-10.34 11.48-30.18 1.21-43.4-7.33-9.45-17.01-11.62-28.41-6.09"/><path fill="#a6552a" d="M901.52 607.35c1.15-.35 2.84-.23 5.14-.05 8.23 18.36 21.25 31.7 39.45 37.98 14.13 5.57 28.75 8.87 44 10.3 4.17 1.63 8.24 3.12 12.21-.74 3.39-1.41 6.47-2.66 9.88-3.73 4.96 7.47 8.96 8.08 13.22 2.1 1.58.33 3.17.67 4.76 1-.77.76-1.54 1.52-2.51 2.55-1.53.61-2.87.94-3.96 1.45-1.04.61-1.2-.03-1.2-.03-.93.04-1.86.24-3.61.21-6.6-.29-12.39-.46-18.17-.01-4.56-.26-9.11.17-13.14.45-15.16-.1-29.16-3.3-42.77-8.47-3.71-1.41-7.39-2.91-11.03-4.24-13.46 17.15-32.12 24.05-52.28 27.8-32.99 6.59-66.3 9.18-99.84 7.6-11.55-.54-23.06-3.02-34.46-5.27-9.99-1.97-16.65-8.61-21.22-18.3-.66-4.47-2.07-8.34-1.57-10.97 3.16-23.68 15.42-35.98 38.18-40 1.73-.31 3.56-.86 5.26-1.33-3.41-8.42-6.98-15.78-10.92-25.01-3.06-8.38-5.16-17.1-7.68-25.68-2.69-15.26-3-31.74.71-47.54 7.31-29.15 24.58-49.29 53.4-58.91 12.77-4.21 25.95-3.32 39.03-1.06.49.09.98.26 1.41.51.63.93.34.49.61.91-7.01 0-13.94-.42-20.8.08-34.68 2.53-63.71 30.18-68.66 64.72-4.63 32.5 4.16 61.62 19.95 89.33.74 1.28 3.46 1.78 5.34 2.95 16.96 1.16 33.97 2.84 50.87 5.3 5.05.73 9.79 3.5 14.3 6.29-8.78-1.36-17.52-3.09-25.59-4.01-22.92-2.32-45.18-4.9-67 2.32-17.06 5.64-26.34 24.88-20.33 41.54 3.35 6.96 8.64 11.86 16.64 13.25-5.92-10.46-5.92-21.13-.86-31.77 1.31-2.74 3.55-5.16 8.23-4.26-7.56 10.96-10.55 22.69-1.41 33.52 6.79 8.03 17.08 7.17 27.47 7.34-8.06-21.23-2.93-40.21 11.9-40.03-6.49 4.55-9.87 10.31-10.93 17.28.36 2.94-.72 6.01-.38 8.93 1.07 9.19 6.97 14.33 17.35 14.23 12.29-.12 24.63-.75 36.85-2.06 17-1.47 34.01-3.97 50.84-6.98 7.55-1.35 14.67-5.12 22.65-7.99 5-3.71 9.62-6.92 13.55-10.58 2.77-2.99 2.58-5.99-.69-9.3-6.24-6.3-11.78-13.29-16.74-19.99-2.53-3.76-4.19-7.51-5.45-11.63"/><path fill="#e37644" d="m562.2 173.19 14.53-16.45 1.56.75c7.87 33.15 12.87 66.66 12.83 102.29-20.61-14.14-41.55-26.23-65.84-32.82 11.31-19.22 23.3-36.82 36.92-53.77"/><path fill="#e27644" d="M301.41 268.37c-14.05 11.57-25.7 24.78-34.74 40.63-7.22-13.45-20.3-84.69-18.15-98.72 23.81 13.44 45.06 29.89 65.61 48.33-4.35 3.35-8.39 7.01-12.72 9.76"/><path fill="#e89655" d="M748.88 555.14c2.9 8.4 5 17.12 8.06 25.5 3.94 9.23 7.51 16.59 10.92 25.01-1.7.47-3.53 1.02-5.26 1.33-22.76 4.02-35.02 16.32-38.18 40-.5 2.63.91 6.5 1.45 10.64-17.67.65-35.34 1.02-53.01.77-1.23-.02-3.59-.73-5.71-1.21 11.42-6.35 23.3-13.69 35.22-20.77 13.82-8.65 25.5-19.67 31.47-36.11 4.37-.03 5.8-3.35 6.47-5.51 2.49-11.42 4.49-22.25 6.8-33.03.34-2.16 1.26-4.3 1.77-6.62"/><path fill="#e7858a" d="M422.96 450.4c-11.21-1.89-20.61-6.79-26.81-16.01-5.27-8.5-2.03-15.68 8.24-18.92 10.3-3.25 21.51-5.35 31.78-3.63 10.4 1.61 12.29 8.47 10.25 16.08-2.64 9.81-8.58 17.82-18.95 21.2-1.96.26-3.23.59-4.51 1.28"/><path fill="#ea9855" d="M531.85 617.98c-5.22 4.9-10.67 9.47-17.18 14.92-28.37-14.36-50.88-38.74-70.74-66.47 2.51 1.34 5.54 2.74 7.6 4.76 16.47 17.38 37 29.58 57.99 39.4 6.98 3.19 14.71 4.76 22.33 7.39"/><path fill="#b15a2d" d="M671.5 386.96c-9.3-2.59-17.97-.43-26.15 1.56-14.52 3.32-28.56 7.32-42.67 11.01-1.71.45-3.45.74-5.18 1.11l-1.12-1.42c1.6-1.57 2.95-3.65 4.86-4.63 11.67-5.99 23.34-12.01 35.25-16.64 10.38-5.64 21.08-9.74 32.92-14.68.97 8.19 1.83 15.5 2.42 23.26-.28.44-.33.43-.33.43m-13.32 52.92c-15.99-6.25-32.62-9.32-49.61-11.91-4.6-.56-9.22-1.04-13.77-1.86-1.17-.31-3.32-1.48-4.97-2.26 0-.72 0-1.45-.01-2.17 3.48-.86 6.91-2.19 10.43-2.49 20.71-1.79 41.42-2.05 62.06.96.98.15 1.92.51 3.27 1.22-.94 5.23-2.07 9.02-3.68 13.16-.77 1.97-2.45 3.58-3.72 5.35"/><path fill="#553a24" d="M423.21 450.47c1.03-.76 2.3-1.09 3.91-1.31 6.16 15.59 25.02 24.55 39.67 19.7 5.18-2.06 9.18-5.58 10.72-12.13.32-1.33 1.98-2.34 3.02-3.5.73 1.63 2.22 3.33 2.07 4.87-.91 9.55-10.08 17.25-21 17.89-11.77.69-21.93-3.07-30.44-11.25-1.19-1.15-2.3-2.37-3.7-3.82-3.74 7.84-8.64 14.08-15.84 17.79-11.27 5.12-24.05 2.11-29.24-7.05-.64-1.14-1.43-2.47-1.06-3.66-.19-1.45 1.43-2.85 1.33-4.27 1.04.84 2.88 1.48 3.04 2.55 5.27 9.51 13.09 11.42 22.61 7.43 9-3.79 15.14-13.27 14.91-23.24"/><path fill="#b15a2d" d="M632.98 477.3c-12.24-9.46-24.54-18.53-36.67-27.84-2.46-1.89-3.65-4.67-6.34-7.04 3.3.14 6.39-.47 10 .54 13.92 5.46 28.57 11.32 43.75 17.42-3.26 5.79-7 11.21-10.74 16.92"/><path fill="#d27b40" d="M632.7 477.17c4.02-5.58 7.76-11 11.96-16.68.8-.81 1.96-1.06 2.53-1.96 3.75-5.88 7.29-11.9 10.94-18.26 1.32-2.16 3-3.77 3.77-5.74 1.61-4.14 2.74-7.93 4.09-13.11 1.69-11.44 3.36-22.49 5.42-34 .09-.46.14-.45.38-.43.88 4.21 2.58 8.43 2.04 12.59-1.14 27.2-10.99 51.01-29.19 71.2-5.52 6.12-11.86 11.49-18.22 16.84.17-1.15-.43-2.77-.45-3.97 2.15-2.11 4.3-4.21 6.73-6.48"/><path fill="#694228" d="M477.16 307.87c-3.97-2.7-3.58-6.5-1.92-9.9 1.9-3.28 5.03-7.08 9.74-6.48 8.23 1.06 15.64 4.38 21.99 9.8 2.92 2.5 3.49 5.68 1.36 8.91-2.39 3.63-5.51 2.98-8.67.96-.56-.35-1.14-.67-1.71-1.02-6.45-3.98-12.49-7.87-20.79-2.27m-143.62 20.65c-4.13 1.33-7.66 1.79-9.22-3.05-1.19-3.68 1.11-7.87 5.59-9.14 2.42-.7 5.41-.9 7.73-.12 5.28 1.98 11.11 4.07 15.55 6.66 2.71 1.5 4 4.48 2.2 7.63-1.86 3.27-4.51 2.65-7.71 1.46-4.42-1.64-9.16-2.41-14.14-3.44"/><path fill="#e69352" d="M905.77 619.14c6.16 6.54 11.7 13.53 17.94 19.83 3.27 3.31 3.46 6.31.69 9.3-3.93 3.66-8.55 6.87-13.22 10.44-.51-.4-.92-.94-.8-1.32 3.32-11.61-.59-21.99-5.21-31.84-.7-2.06.14-4.31.6-6.41"/><path fill="#a6552a" d="M625.65 483.8c.34 1.05.94 2.67 1.2 3.89-17.57 15.87-36.55 26.91-59.17 32.26.32.98-1.24-.04-3.41-.16 4.02-1.21 6.69-2.92 9.39-4.04 18.16-7.48 34.27-18.29 49.57-30.44.65-.51 1.4-.9 2.42-1.51m-13.3 100.17c-1.1-1.25-1.85-2.56-2.95-3.49 11.96-8.98 25.99-12.36 39.03-13.89-11.2 5.03-23.46 11.17-36.08 17.38"/><path fill="#ea9855" d="M434.13 552.92c-2.33-3.06-4.31-6.26-5.79-9.77 8.53-.64 16.56-.95 24.6-1.27-.54 1.04-.81 2.62-1.66 3.04-5.53 2.76-10.32 5.27-17.15 8"/><path fill="#a6552a" d="M453.32 541.81c-8.42.39-16.45.7-24.92.96 1.41-.64 3.23-1.41 5.12-1.2 1.73-.79 4.07-.57 5.31-.96-2.19.06-4.39-1.09-6.7-1.98 9.16.27 18.43.88 27.7 1.5.04.16.08.32.11.49-2.07.37-4.15.75-6.62 1.19m447.39 60.53c-.11-.01 1.01.32.84.64-.31.31-.61.62-1.19.97.2-.4.02-.84.35-1.61m-290.37-17.23c-.02-.2.24-.53.82-.94.03.22-.26.51-.82.94"/><path fill="#a7562c" d="M724.62 543.44c.01.24-.09.33-.18.41-.07-.11-.2-.22-.19-.31.02-.09.17-.17.37-.1m1.03 2.27c-.25.04-.34-.07-.43-.19.19.01.39.02.43.19m261.87 113.18c4.1-.34 8.65-.77 13.21-.51 5.78-.45 11.57-.28 17.7-.06-9.92.32-20.19.47-30.91.57m35-.78c-.01.07.15.71.19-.13.03-.02-.19.23-.19.13"/><path fill="#f7b069" d="M274.11 528.9c1.46 2.61 3.23 5.21 4.39 7.81-2.06-10.4-3.51-20.43-1.65-30.82 2.37-12.09 8.9-20.96 18.84-27.6 4-2.68 8.67-2.03 13.03 1.28-7.28 9.84-11.08 20.9-9.51 33.14.72 5.65 2.94 11.15 4.93 16.55.42 1.16 2.77 1.6 4.23 2.37-.21-1.48-.05-3.16-.7-4.41-7.39-14.27-4.04-35.98 7.54-46.82 11.51-11.12 31-8.61 38.33 4.96-14.44 11.28-19.87 25.08-15.27 38.82 2.24 6.67 6.02 10.32 12.02 10.56-6.61-5.44-8.9-12.49-8.3-20.33.6-7.79 3.68-14.47 9.18-19.94 4.42-3.66 10.07-3.79 14.39.77 7.24 7.66 6.18 16.89 4.86 25.93-1.53 10.47-3.86 20.81-4.88 32.45.89-1.37 1.95-2.66 2.63-4.13 1.12-1.57 2.19-4.85 2.94-7.38 2.4-8.21 4.26-9.6 11.64-4.99 5.77 3.6 11.4 8.56 15.14 14.12 10.44 14.98 20.01 30.58 29.79 46.02 2.91 3.97 4.22 7.87 6.77 12.64.4 6.98-1.87 12.7-4.52 17.09-10.25 11.84-22.82 18.53-38.17 18.87-7.87.44-15.77-1.22-23.66-1.91-8.13-12.5-16.59-24.8-24.27-37.56-5.02-7.87-8.9-17.03-13.06-26.98h14.47c.13-.57.27-1.14.4-1.71-3.69-1.23-7.31-2.9-11.11-2.71-12.34-3.19-24.13-6.89-35.08-13.17-10.98-6.3-19.8-14.55-24.14-26.64-.92-1.67-1.08-3.53-1.39-5.75.76-.44.19-.53.19-.53"/><path fill="#e99654" d="M368.22 644.26c7.77.38 15.67 2.04 23.54 1.6 15.35-.34 27.92-7.03 38.17-18.87 2.65-4.39 4.92-10.11 4.61-16.74-.79-3.93-.33-7.72-1.6-10.81-3.59-8.74-7.41-17.19-11.63-26.19 1.44-1.34 2.83-2.06 4.32-2.48 2.17-4 4.72-7.45 7.33-10.81-.02.04-.1.01-.1.01 3.77 5.59 7.47 11.23 11.31 16.77 10.77 15.51 23.64 29.12 38.24 41.03 3.99 3.47 4.59 4.98 1.22 9.69-9.19 12.83-20.33 23.19-34.01 30.81-24.32 13.53-47.98 11.9-70.64-4-3.12-2.74-7.11-6.44-10.76-10.01"/><path fill="#e5f2f6" d="M417.95 568.71c-7.61-9.75-14.37-19.5-21.52-29.82 2.37.43 4.47.81 6.68 1.8 1.85-.28 3.81.66 5.76.3 10.71-.25 18.29 4.52 21.96 14.47.47 1.33 1.32 2.53 2.01 4.15.02.36.1.39-.23.36-4.08 3.72-7.83 7.46-11.73 11.33-.14.14-.15.54-.54.39-1.03-.56-1.67-1.2-2.07-1.72 0 0-.27.03-.31-.26-.31-.52-.59-.76-.01-1"/><path fill="#a6552a" d="M418.56 570.31c.11.18.75.82 1.81 1.29.53-.08.61-.25.95-.43 3.46-3.74 7.21-7.48 11.31-11.23-2.28 3.38-4.83 6.83-7 10.83-1.49.42-2.88 1.14-4.39 2.12-1.28-.69-2.02-1.47-2.68-2.58"/><path fill="#f7b069" d="M273.96 529.31c-.44-1.49-.82-2.75-1.2-4 .67-.07.57-.14.86-.21.16 1.03.33 2.06.49 3.45 0 .35.57.44-.15.76"/><path fill="#ea9855" d="M425.47 543.52c-.03-.05.03.05 0 0"/><path fill="#a6552a" d="M417.17 568.97c.2-.02.48.22.81.73-.21.03-.47-.21-.81-.73"/><path fill="#af5a2e" d="M1030.16 654.18c-1.57-.3-3.16-.64-4.74-.97-4.26 5.98-8.26 5.37-13.04-2.38 3.35-3.67 6.46-6.45 8.2-10.18 10.98-23.27 12.94-47.91 3.68-72.66.23-2.1 1.48-4.22.61-6.28-.55-5.56 1.03-8 7.66-9.16 19.89 22.2 23.77 46.72 16.3 74.2-2.87 10.59-8.86 19.64-17.66 26.91-.64.14-.87.31-.44.47 0 0-.58.01-.57.05"/><path fill="#a6552a" d="M1030.31 654.13c-.01-.16.22-.33.55-.35.11.15-.32.34-.55.35"/><path fill="#f7b169" d="M1024.11 567.66c9.41 25.08 7.45 49.72-3.53 72.99-1.74 3.73-4.85 6.51-8.01 10.01-3.78 1.52-6.86 2.77-10.71 4.14-4.48.48-8.17.32-11.87.41-15.13-1.06-29.75-4.36-43.88-9.93-18.2-6.28-31.22-19.62-38.3-37.97-.91-.75-.91-1.21-.48-2.01 17.5-6.88 34.59-13.34 51.62-19.95 3.7-1.44 7.83-3.04 7.91-7.94.1-5.66-.87-11.43-6.56-14.12-15.47-6.64-31.35-7.49-47.67-1.53-.7.23-1.1.38-1.88.48-.62-.05-.87-.08-1.13-.1 6.67-15.45 19.55-21.44 35.22-23.69 12.28-1.99 24.05.94 35.69 4.82 9.12 3.04 18.42 5.6 27.77 7.85 4.6 1.11 7.96 3.7 10.25 7.27 2.01 2.83 3.63 5.95 5.56 9.27"/><path fill="#b45d30" d="M909.36 562.31c.52-.15.77-.12 1.58.11 1.04-.11 1.52-.43 2-.75 16.01-5.87 31.89-5.02 47.36 1.62 5.69 2.69 6.66 8.46 6.56 14.12-.08 4.9-4.21 6.5-7.91 7.94-17.03 6.61-34.12 13.07-51.57 19.61-6.45-14.48-6.72-28.7 1.98-42.65"/><path fill="#af5a2e" d="M1064.69 549.15c.59-.17 1.78.03 3.25.46-.64 1.12-1.55 2.01-2.49 2.87-.08.08-.3.01-.89.01-.16-.92-.34-1.94.13-3.34"/><path fill="#4d3727" d="M514.46 413.68c-13.14-2.33-20-10.35-22.85-22.56-2.88-12.01-1.07-23.27 8.19-32.21 7.88-7.62 18.17-7.92 27.3-1.36 13.64 9.78 17.82 31 8.73 45.13-4.85 7.54-11.84 12.25-21.37 11"/><path fill="#4c3728" d="M324.59 382.42c11.09-5.32 20.77-3.15 28.1 6.3 10.27 13.22 9.72 33.06-1.21 43.4-7.17 6.8-18.19 7.54-26.12 1.7-15.36-11.97-16.97-41.12-.77-51.4"/><path fill="#b15a2d" d="M990.11 655.58c3.58-.46 7.27-.3 11.43-.61-3.19 3.73-7.26 2.24-11.43.61"/><path fill="#a7562c" d="M420.88 571.3c.1.05.02.22-.12.45-.03.09-.02-.31.12-.45"/><path fill="#a9572b" d="M912.63 561.76c-.17.23-.65.55-1.32.69.22-.31.62-.46 1.32-.69"/></svg>