<svg xmlns="http://www.w3.org/2000/svg" xmlns:xlink="http://www.w3.org/1999/xlink" version="1.1" id="Layer_1" x="0px" y="0px" width="100%" viewBox="0 0 1328 800" enable-background="new 0 0 1328 800" xml:space="preserve" style="background: transparent;"><path fill="#FAA654" opacity="1.000000" stroke="none" d="M445.42 382.82C443.54 379 441.67 375.91 439.96 372.1C441.73 370.59 443.27 369.43 444.97 369.74C461.34 365.64 477.74 362.39 494.1 358.94C496.23 358.49 498.2 357.25 500.24 356.38C500.37 355.58 499.77 354.79 499.53 354C477.8 354.23 456.43 356.81 435.9 364.99C430.54 354.59 428.4 343.33 427.5 331.45C435.81 332.21 443.69 333.22 451.51 334.62C460.3 336.19 469.19 338.19 477.81 339.78C479.79 340.48 480.58 338.94 481.97 338.47C481.41 337.52 480.28 336.99 479.15 335.67C461.63 329.84 444.53 322.62 426.49 316.13C426.48 302.4 428.7 289.2 432.5 275.83C437.48 258.58 445.17 242.57 455.12 227.68C456.91 225.32 457.84 221.22 457.78 217.97C457.13 178.29 460.38 138.49 470.14 99.65C471.79 93.45 473.84 86.51 476.22 80.13C478.48 74.65 482.56 72.33 487.55 75.67C499.89 83.15 512.46 90.54 523.65 99.56C537.35 110.62 549.73 123.3 562.67 135.29C565.89 138.27 569.65 141.3 572.73 144.67C576.8 154.14 580.42 163.22 583.97 172.34C585.27 175.71 586.65 179.32 590.98 178.83C594.98 178.37 597.17 175.34 596.94 171.36C596.26 160.86 595.16 150.4 593.99 139.93C597.67 139.26 601.35 138.6 605.47 138.39C606.62 143.25 607.22 147.68 608.26 152.67C609.94 162.47 611.83 172.88 613.97 183.23C614.87 187.6 617.78 189.99 622.47 190.14C627.38 190.31 630.54 187.95 631.63 183.43C632.78 178.63 633.33 173.67 633.97 168.76C635.36 157.94 636.64 147.1 637.97 136.27C642.17 136.22 646.7 136.17 650.53 136.58C646.98 148.38 646.38 159.47 647.3 170.93C647.49 173.33 650.85 176.74 652.29 177.44C654.52 178.15 657.98 176.58 660.24 175.33C661.95 173.87 662.89 171.27 663.66 169.13C665.22 164.77 666.45 160.28 667.79 155.84C669.55 150 671.28 144.15 673.17 138.3C678.92 140.18 681.13 137.85 684.22 133.86C702.33 110.45 723.2 89.74 746.7 71.74C751.18 68.31 755.81 65 760.71 62.22C766.41 59.2 769.68 60.19 772.14 65.78C775.76 73.97 779.18 82.34 781.61 90.94C791.8 126.93 798.28 163.49 797.33 201.12C797.26 203.94 798.61 207.37 800.42 209.58C818.69 231.87 829.99 257.2 834.31 285.65C834.83 289.9 834.88 292.6 834.87 296.8C832.95 298.32 831.34 299.17 829.68 299.93C814.6 306.84 799.49 313.72 784.43 320.7C783.51 321.34 781.95 322.58 780.72 323.54C780.98 324.2 781.24 324.86 781.51 325.52C787.22 324.41 792.97 323.41 798.66 322.15C810.95 319.44 823.21 316.59 835.49 313.8C833.18 324.73 830.87 335.65 827.88 346.78C818.38 345.41 809.63 343.39 800.75 342.39C792.33 341.41 783.2 341.38 774.41 341.17C773.49 341.13 771.66 342.4 770.28 343.61C771.48 344.16 772.64 345.32 773.92 346.31C774.4 346.69 775.17 346.69 775.82 346.85C791.59 350.62 807.37 354.38 823.15 358.15C819.41 364.68 815.66 371.21 811.29 377.77C800.6 369.56 789.55 363.39 776.67 360.66C774.65 366.87 778.54 367.58 780.89 369.86C787.42 376.19 794.42 382.11 800.36 388.95C803.43 392.48 803.51 397.43 801.94 402.26C797.77 408.92 794.95 415.86 792.36 422.85C791.75 424.51 792.45 427.19 793.53 428.71C794.87 429.49 797.13 429.38 798.45 428.62C802.88 426.6 807.78 422.98 811.31 420.2C816.14 417.82 821.28 414.68 825.89 411.95C830.52 417.1 835.16 423.2 839.58 429.77C828.98 437.58 819.54 445.97 813.16 457.79C811.5 459.98 810.66 464.98 812.51 467.65C814.19 471.75 819.4 471.78 823.72 470.47C834.9 467.31 844.37 463.86 855.33 460.33C854.34 457.89 853.18 455.37 852.23 452.19C853.35 450.87 855.38 449.78 855.88 448.2C858.81 438.93 861.38 429.55 864.49 420.19C864.41 418.93 864.59 417.62 865.48 416.49C879.39 420.88 892.61 426.2 906 431.38C913.45 433.73 921.18 435.61 928.79 437.86C920.64 474.26 902.38 504.55 872.22 526.58C863.55 532.91 857.77 538.74 855.91 549.7C853.49 563.88 846.41 576.54 838.12 588.79C836.87 589.93 834.64 589.16 833.2 589.22C833.9 590.56 834.37 592.1 835.35 593.2C838.75 597.33 843.22 600.21 845.68 604.54C856.48 623.53 860.94 644.3 859.75 665.96C859.11 677.47 854.92 688.14 844.59 695.16C834.27 701.88 822.48 696.36 820.87 684.85C820.57 681.78 819.84 679.54 819.31 677.26C818.72 677.4 818.13 677.54 817.54 677.68C815.89 686.86 817.52 693.67 824.55 701.44C817.9 700.95 812.65 700.74 807.45 700.14C800.89 699.39 796.53 695.79 792.68 690.2C789.76 685.35 788.93 680.25 789.37 674.46C790.24 665.79 789.54 657.42 789.54 649C816.45 640.93 828.56 633.55 828.1 623.66C826.32 624.63 824.54 625.18 823.31 626.33C811.35 637.55 796.85 642.16 780.85 641.84C773.29 641.69 765.76 639.88 758.16 638.83C758.11 638.85 758.83 638.94 758.9 638.68C757.64 638.23 757.34 638.33 757.22 637.53C763.54 634.17 769.94 631.51 775.74 627.89C778.27 626.31 779.59 622.78 782.27 618.99C779.43 619.13 778.45 619.23 777.58 619.25C769.36 621.75 760.49 624.27 751.98 626.86C746.69 628.48 741.64 628.72 737.82 624.88C737.49 624.89 737.92 624.95 737.12 624.69C736.64 624.27 736.35 624.89 736.3 623.95C736.54 623.98 736.84 623.95 736 623.69C735.63 623.21 735.35 622.98 734.93 622.53C734.25 621.83 733.71 621.36 733.47 620.57C730.99 617.16 729.49 614.62 727.88 610.62C726.68 609.18 726.3 608.87 725.92 606.62C725.94 605.5 725.97 604.75 726.45 604.23C738.73 602.68 749.33 601.87 760.34 599.78C768.4 598.25 775.5 593.82 781.55 587.61C783.65 584.71 785.71 580.56 782.8 577.27C781.32 575.59 777.17 575.2 774.43 575.89C762.43 579.62 750.6 582.87 738.67 586.33C735.85 587.15 732.88 587.47 730.18 587.75C738.77 583.81 745.71 578.54 748.63 569.51C750.46 563.85 752.37 558.23 752.83 552.16C754 537.43 754.61 522.64 754.9 507.86C754.99 503.39 756.31 500.64 760.24 498.93C762.38 498.76 764.46 496.97 766.63 496.13C776.26 492.42 786.4 492.21 796.23 495.33C796.52 495.53 796.92 495.5 797.32 495.48C796.9 495.3 796.48 495.12 795.91 494.62C782.23 485.54 768.8 489.31 755.11 495.46C752.61 482.97 752.78 470.56 747.58 460.55C748.11 481.89 748.98 503.98 748.7 526.49C748.54 538.27 747.31 550.61 744.76 562.63C742.13 576.54 732.22 584.15 717.69 585.89C716.93 584.98 716.49 584.95 715.82 584.67C702.89 576.67 703.23 565.4 707.26 552.72C705.14 553.99 703.51 555.31 702.6 557.7C697.34 566.75 700.62 575.83 705.78 585.27C695.95 585.97 687.81 583.87 678.94 579.74C672.97 576.71 667.92 572.27 668.22 564.8C668.59 555.83 670.7 547.16 674.26 538.84C677.75 532.15 680.49 524.48 681.82 516.94C684.23 503.23 685.18 489.27 687.8 475.46C688.14 467.81 689.89 460.24 691.33 452.64C690.92 452.47 690.5 452.29 690.8 452.12C688.46 456.11 686.22 459.98 685.32 464.13C682.6 476.78 680.35 489.48 678.98 502.27C675.9 516.75 673.65 530.95 666.37 544.16C663.45 549.46 663.71 556.62 662.97 562.99C661.81 573.47 667.52 579.38 675.66 583.62C687.63 589.86 700.69 590.93 714.23 590.73C715.41 594.65 716.32 598.33 717.16 602.34C716.73 603.44 716.37 604.22 715.64 605C714.18 605.31 713.81 605.64 711.61 605.95C709.82 606.31 708.4 606.67 706.68 607.33C705.89 607.32 705.41 607.61 704.9 607.87C704.87 607.83 704.79 607.81 704.4 607.81C702.7 608.21 700.23 608.61 697.75 609.98C697.51 609.32 697.22 609.88 696.59 609.64C690.36 609.36 684.52 610.23 678.76 609.88C669.83 609.33 660.95 607.94 651.77 606.68C649.41 605.86 647.3 605.37 645.26 604.66C615.26 594.21 594.76 572.66 578.29 546.68C565.1 525.89 556.45 502.95 548.53 479.79C545.92 472.15 544.37 464.48 543.38 456.31C543.57 452.11 542.24 450.75 538.95 449.37C527.92 444.36 515.21 439.13 503.32 433.88C502 433.31 500.44 433.26 499 432.98C499 432.98 499.76 432.99 498.87 432.83C498.52 432.46 498.32 432.25 498.14 432.18C480.47 421.91 464.36 410.85 452.95 392.12C454.23 390.49 455.29 389.39 456.56 388.66C465.18 383.64 473.86 378.74 482.47 373.71C483.92 372.86 485.94 371.53 486.4 370.42C486.7 369.87 485.74 369.32 485.42 368.78C471.38 370.94 457.92 374.98 445.42 382.82M636.25 353.4C635.68 353.22 635.37 353.49 635.15 352.92C635.15 352.92 635.22 352.83 635.15 352.23C634.33 351.17 633.65 350.11 633.41 348.51C641.81 345.55 647.99 340 651.91 332.89C655.2 325.46 652.88 319.67 645.67 319.18C635.37 318.47 624.84 318.57 614.63 319.95C606.3 321.74 604.45 327.4 609.14 334.5C613.53 341.51 619.68 346.24 627.85 348.68C625.91 354.77 621.3 358.56 616.12 361.55C605.77 367.53 597.14 367.89 590.49 360.32C588.43 358.23 587.13 355.41 585.34 353.37C584.55 351.98 583.41 351.19 582.43 350.29C581.82 351.83 580.26 353.89 580.77 354.83C582.77 358.53 584.86 362.57 588 365.19C591.71 368.28 596.53 370.19 601 372.99C603.6 376.63 606.2 379.14 609.16 382.77C609.98 383.58 610.81 384.4 611.64 385.2C620.26 393.55 630.52 396.23 641.83 392.64C653.24 389.28 660.34 380.87 663.14 369.74C663.14 369.74 663.11 369.17 663.62 369C663.8 368.7 663.99 368.41 664.73 368.1C664.73 368.1 664.92 368.2 664.73 368.14C665.45 367.75 666.17 367.36 667.61 366.88C674.78 364.11 678.68 358.63 679.8 351.28C680.24 349.82 678.28 348.62 677.45 346.44C676.55 347.72 675.23 348.87 674.83 350.28C673.11 356.73 669.33 360.93 662.51 362.38C653.11 364.37 645.36 361.3 638.49 355.26C637.85 355.46 637.65 354.93 637.57 354.42C636.71 354.25 636.37 354.73 636.45 353.98C636.45 353.98 636.13 353.95 636.25 353.4M719.69 249.55C697.69 253.36 681.67 271.4 681.38 292.59C680.1 323.98 708.18 346.83 738.73 339.54C761.34 334.14 777.25 312.76 774.77 291.6C771.29 261.95 743.71 245.94 719.69 249.55M553.56 346.14C570.59 337.11 581.84 318.36 578.4 302.76C574.43 275.4 554.4 260.14 527.16 261.86C498.31 263.81 478.31 295.91 489.3 322.62C499.72 347.91 526.73 358.58 553.56 346.14M751.5 108.3C739.8 122.29 728.1 136.54 716.82 150.29C735.96 160.68 752.31 170.48 770.59 180.88C771.93 153.34 769.5 126.53 762.17 98.12C758.48 101.93 755.26 104.73 751.5 108.3M499.7 181.16C511.26 174.19 522.82 167.22 534.7 160.53C520.33 143.94 505.42 127.16 487.49 112.39C482.47 140.75 479.55 167.94 481.44 196.52C487.83 191.11 493.46 186.34 499.7 181.16M547.49 233.74C549.14 235.81 550.6 236.7 552.45 237.43C556.29 238.95 560.29 240.13 564.31 241.8C566.42 241.58 570.34 241.96 570.64 241.23C571.63 238.85 571.99 235.75 571.32 233.27C570.79 231.36 568.62 229.37 566.69 228.5C563.27 226.94 559.54 225.86 555.82 225.21C549.33 224.66 547.4 226 547.49 233.74M702.12 222.64C702.69 216.34 700.33 213.87 694.64 215.43C690.7 216.51 686.83 218.11 683.17 219.96C679.29 222.56 677.25 225.9 678.35 230.36C678.72 231.84 681.79 234.16 682.5 233.81C689.97 230.6 695.44 226.88 702.12 222.64M767.29 419.83C765.46 420.96 763.61 422.73 761.79 423.23C760.13 424.28 758.5 425.38 756.86 426.46C769.49 422.93 780.96 417.79 787.28 405.3C780.82 410.14 774.35 414.72 767.29 419.83z"/><path fill="#6BB4D8" opacity="1.000000" stroke="none" d="M575.78 748.13C540.52 747.16 505.89 744.52 471.54 738.87C464.7 737.74 458.16 735.52 451.37 733.45C449.96 733.9 448.11 731.12 448.14 729.77C448.16 728.5 450.58 726.5 451.46 726.15C463.47 723.29 474.59 719.48 486.37 718.34C518.63 715.24 550.96 712.16 583.33 711.18C629.11 709.81 674.95 709.48 720.74 710.32C755.96 710.97 791.18 713.58 826.33 716.36C842.15 717.6 857.81 721.16 873.44 724.2C876.57 724.81 879.23 727.84 882.11 729.75C879.18 731.6 876.46 734.49 873.28 735.13C858.48 738.95 843.64 741.16 828.66 742.87C789.78 747.3 750.72 749.51 711.59 749.2C680.11 749.31 648.63 749.76 617.15 749.68C603.52 749.65 589.89 748.68 575.78 748.13z"/><path fill="#FAA653" opacity="1.000000" stroke="none" d="M625.11 607.11C620.69 608.9 616.28 610.7 611.85 612.48C596.7 618.58 583.67 627.87 571.51 638.72C571.58 635.35 572.23 632.28 572.46 629.22C571.95 629.71 571.45 628.93 570.94 628.78C569.45 631.28 568.13 633.89 566.44 636.24C556.44 650.15 543.73 656.34 530.79 644.65C521.12 636.98 511.95 629.55 502.77 622.14C495.72 616.45 489.13 610.49 485.84 601.66C482.4 592.43 483.46 582.75 492.27 578.58C492.87 577.74 493.22 576.95 494.65 575.19C491.81 575.61 490.18 575.5 488.89 576.1C484.26 578.26 481.47 582 479.96 586.88C477.59 594.54 479.84 601.63 482.15 608.86C482.43 608.97 481.83 609.19 481.48 609.13C476.1 605.59 470.46 602.75 466.18 598.52C458.12 590.41 459.72 575.94 469.18 569.6C477.13 564.27 485.97 562.6 495.4 564.62C509.79 567.71 519.85 577.59 530.19 586.97C532.93 589.46 535.32 592.35 538.72 595.27C541.68 591.39 539.28 588.47 536.96 586.54C528.44 579.45 519.63 572.71 510.93 565.84C512.36 561.72 513.79 557.59 515.81 553.48C522.67 554.61 527.72 555.8 533.4 556.85C537.46 557.61 541.54 558.49 545.64 558.68C547.28 558.75 549.27 557.37 550.54 556.92C550.91 555.71 549.69 553.69 548.63 552.92C546.45 550.94 544.52 548.2 541.44 546.84C536.68 544.44 530.5 541.62 525.49 539.47C532.94 528.84 544.4 521.72 557.1 517.37C569.65 545.35 585.5 570.48 608.89 590.43C614.76 595.45 619.73 601.52 625.11 607.11z"/><path fill="#FAA653" opacity="1.000000" stroke="none" d="M432.93 468.73C439.26 464.49 444.66 459.23 451.31 456.21C467.16 448.99 483.49 442.83 500.3 436.32C512.47 442.73 523.15 449.34 534.17 455.48C535.64 456.34 537.42 457.72 537.81 459.2C541.14 471.62 544.17 484.12 547.34 496.75C544.84 496.93 542.28 496.76 539.91 497.36C523.19 501.59 506.5 505.94 489.83 510.37C488.5 510.73 486.88 511.66 486.28 512.79C480.43 523.67 470.77 525.89 459.57 525.93C451.97 524.55 446.25 520.81 444.38 512.88C442.64 506.17 445.92 500.92 451.83 496.52C453.14 495.66 454.15 494.34 455.86 492.69C443.12 491.68 437.65 503.26 441.57 520.88C440.66 520.57 439.9 520.4 439.22 520.71C423.65 512.58 418.19 493.23 427.31 477.99C428.91 475.33 430.41 472.61 431.96 469.92C431.96 469.92 431.99 469.98 432.23 469.89C432.62 469.44 432.78 469.85 432.93 468.73z"/><path fill="#FAA755" opacity="1.000000" stroke="none" d="M861 310.87C861.53 296.35 865.86 282.79 871.63 269.62C877.41 256.44 885.56 244.97 897.21 236.37C908.49 228.42 921.25 223.61 935.23 226.44C959.17 231.28 968.86 256.81 952.37 276.52C942.92 289.4 935.72 303.58 931.76 319.76C927.49 320.9 923.15 321.82 918.92 322.55C898.8 326.3 878.63 323.7 861 310.87z"/><path fill="#FAA755" opacity="1.000000" stroke="none" d="M865.26 399.93C863.51 377.88 861.77 355.83 860.49 333.38C862.72 334.22 864.36 335.67 866.24 336.66C886.42 347.28 907.5 348.83 929.32 342.78C929.47 347.72 929.57 352.66 929.81 357.59C930.54 372.76 931.33 387.94 931.63 403.62C913.23 409.42 895.37 409.7 877.56 403.48C873.54 402.7 869.36 401.97 865.26 399.93z"/><path fill="#B9501C" opacity="1.000000" stroke="none" d="M510.58 565.84C519.63 572.71 528.44 579.45 536.96 586.54C539.28 588.47 541.68 591.39 538.72 595.27C535.32 592.35 532.93 589.46 530.19 586.97C519.85 577.59 509.79 567.71 495.4 564.62C485.97 562.6 477.13 564.27 469.18 569.6C459.72 575.94 458.12 590.41 466.18 598.52C470.46 602.75 476.1 605.59 481.6 609.28C482.28 609.46 482.5 609.41 482.72 609.36C482.57 609.16 482.42 608.95 482.27 608.75C479.84 601.63 477.59 594.54 479.96 586.88C481.47 582 484.26 578.26 488.89 576.1C490.18 575.5 491.81 575.61 494.65 575.19C493.22 576.95 492.87 577.74 492.27 578.58C483.46 582.75 482.4 592.43 485.84 601.66C489.13 610.49 495.72 616.45 502.77 622.14C511.95 629.55 521.12 636.98 530.79 644.65C543.73 656.34 556.44 650.15 566.44 636.24C568.13 633.89 569.45 631.28 570.94 628.78C571.45 628.93 571.95 629.71 572.46 629.22C572.23 632.28 571.58 635.35 571.19 638.82C560.96 659.98 545.86 666.76 522.93 659.51C498.27 651.72 478.98 637.15 462.94 616.37C452.65 601.56 452.61 585.45 460.51 573.36C468.38 562.28 481.37 556.97 495.3 560.39C500.41 561.65 505.26 563.99 510.58 565.84z"/><path fill="#B5501B" opacity="1.000000" stroke="none" d="M431.61 469.87C430.41 472.61 428.91 475.33 427.31 477.99C418.19 493.23 423.65 512.58 439.22 520.71C439.9 520.4 440.66 520.57 441.57 520.88C437.65 503.26 443.12 491.68 455.86 492.69C454.15 494.34 453.14 495.66 451.83 496.52C445.92 500.92 442.64 506.17 444.38 512.88C446.25 520.81 451.97 524.55 459.57 525.93C470.77 525.89 480.43 523.67 486.28 512.79C486.88 511.66 488.5 510.73 489.83 510.37C506.5 505.94 523.19 501.59 539.91 497.36C542.28 496.76 544.84 496.93 547.34 496.75C544.17 484.12 541.14 471.62 537.81 459.2C537.42 457.72 535.64 456.34 534.17 455.48C523.15 449.34 512.47 442.73 500.69 436.26C500.22 435.3 499.64 434.47 499.13 433.3C500.44 433.26 502 433.31 503.32 433.88C515.21 439.13 527.92 444.36 538.95 449.37C542.24 450.75 543.57 452.11 543.38 456.31C544.37 464.48 545.92 472.15 548.53 479.79C556.45 502.95 565.1 525.89 578.29 546.68C594.76 572.66 615.26 594.21 645.26 604.66C647.3 605.37 649.41 605.86 651.54 606.96C649.7 607.5 647.36 606.84 645.98 607.71C641.99 610.21 638.39 608.19 635.83 606.26C631.9 603.57 629.19 604.64 626.43 606.8C626.43 606.8 625.6 607.36 625.35 607.73C619.73 601.52 614.76 595.45 608.89 590.43C585.5 570.48 569.65 545.35 557.43 517.21C556.64 515.43 556.22 513.81 555.58 512.29C550.96 499.34 554.43 501.25 539.92 503.36C526.5 505.58 513.31 509.13 500.4 512.17C495.13 513.33 491.2 515.8 488.44 520.63C484.33 527.83 476.59 529.65 469.14 530.45C457.13 531.73 445.26 528.66 434.9 523.54C417.8 515.91 413.6 492.79 424.71 477.13C426.59 474.48 429.54 472.24 431.61 469.87z"/><path fill="#B4501D" opacity="1.000000" stroke="none" d="M758.21 638.82C765.76 639.88 773.29 641.69 780.85 641.84C796.85 642.16 811.35 637.55 823.31 626.33C824.54 625.18 826.32 624.63 828.1 623.66C828.56 633.55 816.45 640.93 789.54 649C789.54 657.42 790.24 665.79 789.37 674.46C788.93 680.25 789.76 685.35 792.68 690.2C796.53 695.79 800.89 699.39 807.45 700.14C812.65 700.74 817.9 700.95 824.55 701.44C817.52 693.67 815.89 686.86 817.54 677.68C818.13 677.54 818.72 677.4 819.31 677.26C819.84 679.54 820.57 681.78 820.87 684.85C822.48 696.36 834.27 701.88 844.59 695.16C854.92 688.14 859.11 677.47 859.75 665.96C860.94 644.3 856.48 623.53 845.68 604.54C843.22 600.21 838.75 597.33 835.35 593.2C834.37 592.1 833.9 590.56 833.2 589.22C834.64 589.16 836.87 589.93 837.84 589.14C851.27 597.98 858.28 610.48 861.25 625.72C864.12 640.43 867.86 655.45 865.63 670.19C862.99 680.89 859.6 691.42 849.75 697.18C834.71 705.95 818.26 709.13 801.41 703.87C788.91 698.61 783.8 688.53 784.49 675.95C784.87 667.52 783.98 659.88 783.6 652.27C783.42 648.46 781.56 647.12 777.55 647.51C757.32 646.71 740.35 639.43 728.35 622.4C730.12 621.69 731.65 621.29 733.17 620.89C733.71 621.36 734.25 621.83 735.11 622.79C735.52 623.51 735.8 623.73 736.84 623.95C736.84 623.95 736.54 623.98 736.13 624.18C736.54 624.57 736.81 624.76 737.92 624.95C737.92 624.95 737.49 624.89 737.45 625.28C737.72 630.35 739.7 633.12 743.71 634.98C745.36 635.75 747.12 636.53 748.4 637.76C751.97 641.16 755.68 641.69 758.21 638.82z"/><path fill="#BB501A" opacity="1.000000" stroke="none" d="M929.51 342.38C907.5 348.83 886.42 347.28 866.24 336.66C864.36 335.67 862.72 334.22 860.63 332.93C860.44 325.8 860.57 318.74 860.85 311.27C878.63 323.7 898.8 326.3 918.92 322.55C923.15 321.82 927.49 320.9 931.51 320.4C931.17 327.34 930.44 334.66 929.51 342.38z"/><path fill="#BB501A" opacity="1.000000" stroke="none" d="M865.2 400.4C869.36 401.97 873.54 402.7 877.56 403.48C895.37 409.7 913.23 409.42 931.54 404.87C932.26 415.2 932.48 426.35 928.99 437.53C921.18 435.61 913.45 433.73 906 431.38C892.61 426.2 879.39 420.88 865.75 415.71C865.31 410.73 865.22 405.8 865.2 400.4z"/><path fill="#BB501A" opacity="1.000000" stroke="none" d="M637.52 136.94C636.64 147.1 635.36 157.94 633.97 168.76C633.33 173.67 632.78 178.63 631.63 183.43C630.54 187.95 627.38 190.31 622.47 190.14C617.78 189.99 614.87 187.6 613.97 183.23C611.83 172.88 609.94 162.47 608.26 152.67C607.22 147.68 606.62 143.25 605.89 138.42C616.27 137.3 626.68 136.61 637.52 136.94z"/><path fill="#BB501A" opacity="1.000000" stroke="none" d="M851.89 451.84C853.18 455.37 854.34 457.89 855.33 460.33C844.37 463.86 834.9 467.31 823.72 470.47C819.4 471.78 814.19 471.75 812.51 467.65C810.66 464.98 811.5 459.98 813.16 457.79C819.54 445.97 828.98 437.58 839.68 430.94C843.9 437.12 847.83 444.3 851.89 451.84z"/><path fill="#BB501A" opacity="1.000000" stroke="none" d="M825.76 410.71C821.28 414.68 816.14 417.82 811.31 420.2C807.78 422.98 802.88 426.6 798.45 428.62C797.13 429.38 794.87 429.49 793.53 428.71C792.45 427.19 791.75 424.51 792.36 422.85C794.95 415.86 797.77 408.92 801.94 402.26C803.51 397.43 803.43 392.48 800.36 388.95C794.42 382.11 787.42 376.19 780.89 369.86C778.54 367.58 774.65 366.87 776.67 360.66C789.55 363.39 800.6 369.56 811.37 377.93C808.84 381.74 806.34 385.43 803.79 389.19C810.96 396.16 818.3 403.28 825.76 410.71z"/><path fill="#B9501B" opacity="1.000000" stroke="none" d="M672.59 138.21C671.28 144.15 669.55 150 667.79 155.84C666.45 160.28 665.22 164.77 663.66 169.13C662.89 171.27 661.95 173.87 660.24 175.33C657.98 176.58 654.52 178.15 652.29 177.44C650.85 176.74 647.49 173.33 647.3 170.93C646.38 159.47 646.98 148.38 650.99 136.68C658.76 136.92 665.12 137.51 672.59 138.21z"/><path fill="#B9501B" opacity="1.000000" stroke="none" d="M593.57 139.89C595.16 150.4 596.26 160.86 596.94 171.36C597.17 175.34 594.98 178.37 590.98 178.83C586.65 179.32 585.27 175.71 583.97 172.34C580.42 163.22 576.8 154.14 573.11 144.72C579.72 142.89 586.43 141.37 593.57 139.89z"/><path fill="#B5501B" opacity="1.000000" stroke="none" d="M835.68 313.38C823.21 316.59 810.95 319.44 798.66 322.15C792.97 323.41 787.22 324.41 781.51 325.52C781.24 324.86 780.98 324.2 780.72 323.54C781.95 322.58 783.51 321.34 784.43 320.7C799.49 313.72 814.6 306.84 829.68 299.93C831.34 299.17 832.95 298.32 834.81 297.26C835.32 302.32 835.6 307.64 835.68 313.38z"/><path fill="#B4501D" opacity="1.000000" stroke="none" d="M626.4 606.9C629.19 604.64 631.9 603.57 635.83 606.26C638.39 608.19 641.99 610.21 645.98 607.71C647.36 606.84 649.7 607.5 651.83 607.18C660.95 607.94 669.83 609.33 678.76 609.88C684.52 610.23 690.36 609.36 696.69 609.21C697.48 609.26 697.74 609.14 698 609.16C700.23 608.61 702.7 608.21 704.5 608.2C707.37 613 708.37 613.14 714.58 609.66C713.37 608.43 712.68 607.2 711.98 605.96C713.81 605.64 714.18 605.31 715.82 605.22C717.23 604.97 718.12 604.49 719.39 604.2C721.18 604.33 722.59 604.67 724.44 605.31C724.7 606.81 725.31 606.54 725.91 607C726.3 608.87 726.68 609.18 726.71 610.64C723.38 611.25 724.11 612.9 724.86 614.72C725.62 616.58 726.17 618.52 726.82 620.42C724.89 617.4 722.96 614.39 720.72 610.87C715.79 611.88 710.35 613.16 704.85 614.75C680.46 618.11 656.62 616.92 633.38 607.42C631.4 606.68 628.97 607.11 626.4 606.9z"/><path fill="#B9501B" opacity="1.000000" stroke="none" d="M426.37 316.57C444.53 322.62 461.63 329.84 479.15 335.67C480.28 336.99 481.41 337.52 481.97 338.47C480.58 338.94 479.79 340.48 477.81 339.78C469.19 338.19 460.3 336.19 451.51 334.62C443.69 333.22 435.81 332.21 427.55 331.29C426.84 326.36 426.54 321.69 426.37 316.57z"/><path fill="#B5501B" opacity="1.000000" stroke="none" d="M823.44 357.95C807.37 354.38 791.59 350.62 775.82 346.85C775.17 346.69 774.4 346.69 773.92 346.31C772.64 345.32 771.48 344.16 770.28 343.61C771.66 342.4 773.49 341.13 774.41 341.17C783.2 341.38 792.33 341.41 800.75 342.39C809.63 343.39 818.38 345.41 827.6 347.36C826.57 350.6 825.15 354.18 823.44 357.95z"/><path fill="#B9501B" opacity="1.000000" stroke="none" d="M435.91 365.35C456.43 356.81 477.8 354.23 499.53 354C499.77 354.79 500.37 355.58 500.24 356.38C498.2 357.25 496.23 358.49 494.1 358.94C477.74 362.39 461.34 365.64 444.97 369.74C443.27 369.43 441.73 370.59 439.98 371.73C438.53 369.96 437.23 367.83 435.91 365.35z"/><path fill="#B54F17" opacity="1.000000" stroke="none" d="M524.69 539.16C530.5 541.62 536.68 544.44 541.44 546.84C544.52 548.2 546.45 550.94 548.63 552.92C549.69 553.69 550.91 555.71 550.54 556.92C549.27 557.37 547.28 558.75 545.64 558.68C541.54 558.49 537.46 557.61 533.4 556.85C527.72 555.8 522.67 554.61 516.73 553.25C518.62 548.44 521.5 543.86 524.69 539.16z"/><path fill="#B9501B" opacity="1.000000" stroke="none" d="M445.47 382.45C457.92 374.98 471.38 370.94 485.42 368.78C485.74 369.32 486.7 369.87 486.4 370.42C485.94 371.53 483.92 372.86 482.47 373.71C473.86 378.74 465.18 383.64 456.56 388.66C455.29 389.39 454.23 390.49 452.97 391.76C450.42 389.79 447.97 385.92 445.47 382.45z"/><path fill="#B9501B" opacity="1.000000" stroke="none" d="M726.84 620.6C726.17 618.52 725.62 616.58 724.86 614.72C724.11 612.9 723.38 611.25 726.73 610.98C729.49 614.62 730.99 617.16 733.47 620.57C731.65 621.29 730.12 621.69 728.26 622.78C727.92 622.68 727.97 622.45 727.89 621.85C727.66 621.37 727.44 621.15 727.14 621.19C727.14 621.19 726.85 620.79 726.84 620.6z"/><path fill="#B4501D" opacity="1.000000" stroke="none" d="M727.16 621.27C727.44 621.15 727.66 621.37 727.88 621.88C727.6 622.32 727.34 621.84 727.16 621.27z"/><path fill="#B5501B" opacity="1.000000" stroke="none" d="M498.21 432.24C498.32 432.25 498.52 432.46 498.87 432.84C498.73 432.87 498.49 432.69 498.21 432.24z"/><path fill="#B5501B" opacity="1.000000" stroke="none" d="M432.65 468.85C432.78 469.85 432.62 469.44 432.19 469.89C432.72 469.65 432.22 469.31 432.65 468.85z"/><path fill="#FAF4E6" opacity="1.000000" stroke="none" d="M720.13 249.3C743.71 245.94 771.29 261.95 774.77 291.6C777.25 312.76 761.34 334.14 738.73 339.54C708.18 346.83 680.1 323.98 681.38 292.59C681.67 271.4 697.69 253.36 720.13 249.3M704.9 272.15C689.93 282.34 687.47 303.25 699.63 317.67C707.48 326.98 720.37 327.67 729.24 319.27C739.3 309.74 740.2 291.27 731.19 279.34C724.76 270.82 715.61 268.14 704.9 272.15z"/><path fill="#FAF4E6" opacity="1.000000" stroke="none" d="M553.23 346.32C526.73 358.58 499.72 347.91 489.3 322.62C478.31 295.91 498.31 263.81 527.16 261.86C554.4 260.14 574.43 275.4 578.4 302.76C581.84 318.36 570.59 337.11 553.23 346.32M529.69 326.74C540.77 338.87 555.87 337.61 564.62 323.47C570.21 313.18 569.95 302.34 563.76 292.18C555.39 278.44 538.46 278.8 528.93 291.86C521.78 300.85 521.9 314.92 529.69 326.74z"/><path fill="#E76A30" opacity="1.000000" stroke="none" d="M751.75 107.78C755.26 104.73 758.48 101.93 762.17 98.12C769.5 126.53 771.93 153.34 770.59 180.88C752.31 170.48 735.96 160.68 716.82 150.29C728.1 136.54 739.8 122.29 751.75 107.78z"/><path fill="#E76A30" opacity="1.000000" stroke="none" d="M499.4 181.36C493.46 186.34 487.83 191.11 481.44 196.52C479.55 167.94 482.47 140.75 487.49 112.39C505.42 127.16 520.33 143.94 534.7 160.53C522.82 167.22 511.26 174.19 499.4 181.36z"/><path fill="#B9501B" opacity="1.000000" stroke="none" d="M724.24 605C722.59 604.67 721.18 604.33 719.35 603.7C718.35 602.94 717.79 602.48 717.22 602.14C716.32 598.33 715.41 594.65 714.12 590.43C712.28 589.35 710.84 588.82 707.8 587.69C710.19 586.68 711.31 586.11 712.5 585.73C713.65 585.36 714.86 585.18 716.44 584.92C716.49 584.95 716.93 584.98 717.75 585.41C720.88 587.46 722.41 589.12 723.68 590.51C724.94 590.64 726.38 589.55 728.16 589.47C729.45 588.64 729.52 588.31 730.16 587.99C730.57 588.73 729.97 588.21 729.97 588.21C732.88 587.47 735.85 587.15 738.67 586.33C750.6 582.87 762.43 579.62 774.43 575.89C777.17 575.2 781.32 575.59 782.8 577.27C785.71 580.56 783.65 584.71 781.55 587.61C775.5 593.82 768.4 598.25 760.34 599.78C749.33 601.87 738.73 602.68 726.2 604.14C724.99 604.48 724.49 604.74 724.24 605z"/><path fill="#B54F17" opacity="1.000000" stroke="none" d="M715.82 584.67C714.86 585.18 713.65 585.36 712.5 585.73C711.31 586.11 710.19 586.68 707.8 587.69C710.84 588.82 712.28 589.35 713.83 590.19C700.69 590.93 687.63 589.86 675.66 583.62C667.52 579.38 661.81 573.47 662.97 562.99C663.71 556.62 663.45 549.46 666.37 544.16C673.65 530.95 675.9 516.75 678.98 502.27C680.35 489.48 682.6 476.78 685.32 464.13C686.22 459.98 688.46 456.11 690.8 452.12C690.5 452.29 690.92 452.47 691.33 452.64C689.89 460.24 688.14 467.81 687.8 475.46C685.18 489.27 684.23 503.23 681.82 516.94C680.49 524.48 677.75 532.15 674.26 538.84C670.7 547.16 668.59 555.83 668.22 564.8C667.92 572.27 672.97 576.71 678.94 579.74C687.81 583.87 695.95 585.97 705.78 585.27C700.62 575.83 697.34 566.75 702.6 557.7C703.51 555.31 705.14 553.99 707.26 552.72C703.23 565.4 702.89 576.67 715.82 584.67z"/><path fill="#ED7378" opacity="1.000000" stroke="none" d="M627.95 347.98C619.68 346.24 613.53 341.51 609.14 334.5C604.45 327.4 606.3 321.74 614.63 319.95C624.84 318.57 635.37 318.47 645.67 319.18C652.88 319.67 655.2 325.46 651.91 332.89C647.99 340 641.81 345.55 632.91 348.65C630.92 348.52 629.43 348.25 627.95 347.98z"/><path fill="#B54F17" opacity="1.000000" stroke="none" d="M727.82 589.33C726.38 589.55 724.94 590.64 723.68 590.51C722.41 589.12 720.88 587.46 718.74 585.48C732.22 584.15 742.13 576.54 744.76 562.63C747.31 550.61 748.54 538.27 748.7 526.49C748.98 503.98 748.11 481.89 747.58 460.55C752.78 470.56 752.61 482.97 755.11 495.46C768.8 489.31 782.23 485.54 795.87 494.66C795.99 495.15 795.92 495.1 795.92 495.1C786.4 492.21 776.26 492.42 766.63 496.13C764.46 496.97 762.38 498.76 760.24 498.93C756.31 500.64 754.99 503.39 754.9 507.86C754.61 522.64 754 537.43 752.83 552.16C752.37 558.23 750.46 563.85 748.63 569.51C745.71 578.54 738.77 583.81 730.18 587.75C729.97 588.21 730.57 588.73 729.69 588.4C728.86 588.34 728.34 588.69 727.82 589.33z"/><path fill="#B9501B" opacity="1.000000" stroke="none" d="M758.16 638.83C755.68 641.69 751.97 641.16 748.4 637.76C747.12 636.53 745.36 635.75 743.71 634.98C739.7 633.12 737.72 630.35 737.78 625.27C741.64 628.72 746.69 628.48 751.98 626.86C760.49 624.27 769.36 621.75 777.58 619.25C778.45 619.23 779.43 619.13 782.27 618.99C779.59 622.78 778.27 626.31 775.74 627.89C769.94 631.51 763.54 634.17 757.31 637.78C757.52 638.54 757.8 638.74 758.83 638.94C758.83 638.94 758.11 638.85 758.16 638.83z"/><path fill="#663511" opacity="1.000000" stroke="none" d="M627.9 348.33C629.43 348.25 630.92 348.52 632.69 348.92C633.65 350.11 634.33 351.17 634.69 352.58C632.35 353.36 629.59 353.12 628.48 354.36C624.98 358.27 622.98 362.73 618.57 366.98C612.6 368.52 607.37 370.37 601.48 371.59C601.23 371.67 601.77 372.86 600.88 372.34C596.53 370.19 591.71 368.28 588 365.19C584.86 362.57 582.77 358.53 580.77 354.83C580.26 353.89 581.82 351.83 582.43 350.29C583.41 351.19 584.55 351.98 585.34 353.37C587.13 355.41 588.43 358.23 590.49 360.32C597.14 367.89 605.77 367.53 616.12 361.55C621.3 358.56 625.91 354.77 627.9 348.33z"/><path fill="#9F4715" opacity="1.000000" stroke="none" d="M547.36 233.37C547.4 226 549.33 224.66 555.82 225.21C559.54 225.86 563.27 226.94 566.69 228.5C568.62 229.37 570.79 231.36 571.32 233.27C571.99 235.75 571.63 238.85 570.64 241.23C570.34 241.96 566.42 241.58 564.31 241.8C560.29 240.13 556.29 238.95 552.45 237.43C550.6 236.7 549.14 235.81 547.36 233.37z"/><path fill="#663511" opacity="1.000000" stroke="none" d="M638.11 355.6C645.36 361.3 653.11 364.37 662.51 362.38C669.33 360.93 673.11 356.73 674.83 350.28C675.23 348.87 676.55 347.72 677.45 346.44C678.28 348.62 680.24 349.82 679.8 351.28C678.68 358.63 674.78 364.11 666.92 366.93C665.52 367.38 664.8 367.79 664.92 368.2C664.92 368.2 664.73 368.1 663.87 368.19C663.48 368.57 663.29 368.87 663.11 369.17C663.11 369.17 663.14 369.74 662.75 369.66C660.89 369.41 659.42 369.77 657.65 370.15C656.57 369.6 655.78 369.29 654.92 368.82C654.56 368.73 654.28 368.8 653.65 368.88C652.2 368.55 651.98 368.21 649.82 367.65C649.28 367.35 648.93 367.26 648.31 367.17C647.69 367.69 647.34 366.97 646.83 366.66C646.33 366.35 646.43 366.24 645.32 366.11C642.98 365.36 641 364.64 638.84 363.55C638.48 360.66 638.3 358.13 638.11 355.6z"/><path fill="#9F4715" opacity="1.000000" stroke="none" d="M701.99 222.97C695.44 226.88 689.97 230.6 682.5 233.81C681.79 234.16 678.72 231.84 678.35 230.36C677.25 225.9 679.29 222.56 683.17 219.96C686.83 218.11 690.7 216.51 694.64 215.43C700.33 213.87 702.69 216.34 701.99 222.97z"/><path fill="#7D3B16" opacity="1.000000" stroke="none" d="M657.94 370.13C659.42 369.77 660.89 369.41 662.78 369.11C660.34 380.87 653.24 389.28 641.83 392.64C630.52 396.23 620.26 393.55 611.64 385.2C610.81 384.4 609.98 383.58 609.22 382.21C611.28 381.66 613.27 381.67 615.25 381.73C615.24 381.78 615.18 381.86 615.23 382.96C615.43 382.64 615.67 382.85 616.17 383.26C622.39 387.63 628.26 392.1 636.34 390.24C647.56 387.77 654.94 381.34 657.94 370.13z"/><path fill="#9F4715" opacity="1.000000" stroke="none" d="M615.26 381.68C613.27 381.67 611.28 381.66 609.47 381.93C606.2 379.14 603.6 376.63 600.94 372.67C601.77 372.86 601.23 371.67 601.48 371.59C607.37 370.37 612.6 368.52 618.94 366.96C622.9 366.37 626.92 365.81 629.28 365.49C625.69 368.38 621.36 371.38 617.65 373.71C614.83 375.75 613.53 378.26 615.26 381.68z"/><path fill="#7D3B16" opacity="1.000000" stroke="none" d="M629.28 365.26C626.92 365.81 622.9 366.37 619.35 366.95C622.98 362.73 624.98 358.27 628.48 354.36C629.59 353.12 632.35 353.36 634.79 352.88C635.22 352.83 635.15 352.92 635.21 353.14C635.55 353.56 635.84 353.76 636.13 353.95C636.13 353.95 636.45 353.98 636.19 354.2C636.68 354.58 637.33 354.76 637.39 354.93C637.65 354.93 637.85 355.46 638.55 355.43C638.3 358.13 638.48 360.66 638.42 363.58C635.2 364.4 632.24 364.83 629.28 365.26z"/><path fill="#B54F17" opacity="1.000000" stroke="none" d="M767.59 419.63C774.35 414.72 780.82 410.14 787.28 405.3C780.96 417.79 769.49 422.93 756.86 426.46C758.5 425.38 760.13 424.28 761.79 423.23C763.61 422.73 765.46 420.96 767.59 419.63z"/><path fill="#B9501B" opacity="1.000000" stroke="none" d="M711.61 605.95C712.68 607.2 713.37 608.43 714.58 609.66C708.37 613.14 707.37 613 704.89 608.2C704.79 607.81 704.87 607.83 705.2 607.88C706.93 607.63 706.5 607.33 706.98 607.39C708.4 606.67 709.82 606.31 711.61 605.95z"/><path fill="#B5501B" opacity="1.000000" stroke="none" d="M717.16 602.34C717.79 602.48 718.35 602.94 718.96 603.7C718.12 604.49 717.23 604.97 716.17 605.23C716.37 604.22 716.73 603.44 717.16 602.34z"/><path fill="#B5501B" opacity="1.000000" stroke="none" d="M724.44 605.31C724.49 604.74 724.99 604.48 725.73 604.11C725.97 604.75 725.94 605.5 725.92 606.62C725.31 606.54 724.7 606.81 724.44 605.31z"/><path fill="#7D3B16" opacity="1.000000" stroke="none" d="M664.41 368.17C664.8 367.79 665.52 367.38 666.56 366.97C666.17 367.36 665.45 367.75 664.41 368.17z"/><path fill="#B54F17" opacity="1.000000" stroke="none" d="M796.28 494.97C796.48 495.12 796.9 495.3 797.32 495.48C796.92 495.5 796.52 495.53 796.23 495.33C795.92 495.1 795.99 495.15 796.28 494.97z"/><path fill="#B5501B" opacity="1.000000" stroke="none" d="M706.68 607.33C706.5 607.33 706.93 607.63 705.22 607.91C705.41 607.61 705.89 607.32 706.68 607.33z"/><path fill="#7D3B16" opacity="1.000000" stroke="none" d="M663.36 369.83C663.29 368.87 663.48 368.57 663.92 368.2C663.99 368.41 663.8 368.7 663.36 369.83z"/><path fill="#B4501D" opacity="1.000000" stroke="none" d="M758.9 638.68C757.8 638.74 757.52 638.54 757.14 638.86C757.34 638.33 757.64 638.23 758.9 638.68z"/><path fill="#B5501B" opacity="1.000000" stroke="none" d="M737.12 624.69C736.81 624.76 736.54 624.57 736.16 624.15C736.35 624.89 736.64 624.27 737.12 624.69z"/><path fill="#B5501B" opacity="1.000000" stroke="none" d="M736 623.69C735.8 623.73 735.52 623.51 735.15 623.23C735.35 622.98 735.63 623.21 736 623.69z"/><path fill="#B5501B" opacity="1.000000" stroke="none" d="M697.75 609.98C697.74 609.14 697.48 609.26 697.12 609.23C697.22 609.88 697.51 609.32 697.75 609.98z"/><path fill="#663511" opacity="1.000000" stroke="none" d="M637.22 354.68C637.33 354.76 636.68 354.58 636.18 354.15C636.37 354.73 636.71 354.25 637.22 354.68z"/><path fill="#663511" opacity="1.000000" stroke="none" d="M636.66 353.68C635.84 353.76 635.55 353.56 635.15 353.12C635.37 353.49 635.68 353.22 636.66 353.68z"/><path fill="#FAA653" opacity="1.000000" stroke="none" d="M482.15 608.86C482.42 608.95 482.57 609.16 482.72 609.36C482.5 609.41 482.28 609.46 481.95 609.35C481.83 609.19 482.43 608.97 482.15 608.86z"/><path fill="#5C3315" opacity="1.000000" stroke="none" d="M705.25 272C715.61 268.14 724.76 270.82 731.19 279.34C740.2 291.27 739.3 309.74 729.24 319.27C720.37 327.67 707.48 326.98 699.63 317.67C687.47 303.25 689.93 282.34 705.25 272z"/><path fill="#5C3315" opacity="1.000000" stroke="none" d="M529.46 326.46C521.9 314.92 521.78 300.85 528.93 291.86C538.46 278.8 555.39 278.44 563.76 292.18C569.95 302.34 570.21 313.18 564.62 323.47C555.87 337.61 540.77 338.87 529.46 326.46z"/><path fill="#FAA654" opacity="1.000000" stroke="none" d="M728.16 589.47C728.34 588.69 728.86 588.34 729.7 587.99C729.52 588.31 729.45 588.64 728.16 589.47z"/><path fill="#EB7373" opacity="1.000000" stroke="none" d="M629.28 365.49C632.24 364.83 635.2 364.4 638.59 363.94C641 364.64 642.98 365.36 645.48 366.32C646.33 366.67 646.66 366.77 646.99 366.87C647.34 366.97 647.69 367.69 648.49 367.38C649.29 367.69 649.64 367.78 649.99 367.87C651.98 368.21 652.2 368.55 653.9 368.96C654.66 369.16 654.83 369 655.12 368.98C655.78 369.29 656.57 369.6 657.65 370.15C654.94 381.34 647.56 387.77 636.34 390.24C628.26 392.1 622.39 387.63 616.14 383.99C615.68 382.27 615.43 382.62 615.18 381.86C615.18 381.86 615.24 381.78 615.25 381.73C613.53 378.26 614.83 375.75 617.65 373.71C621.36 371.38 625.69 368.38 629.28 365.49z"/><path fill="#7D3B16" opacity="1.000000" stroke="none" d="M646.83 366.66C646.66 366.77 646.33 366.67 645.83 366.35C646.43 366.24 646.33 366.35 646.83 366.66z"/><path fill="#7D3B16" opacity="1.000000" stroke="none" d="M649.82 367.65C649.64 367.78 649.29 367.69 648.76 367.38C648.93 367.26 649.28 367.35 649.82 367.65z"/><path fill="#7D3B16" opacity="1.000000" stroke="none" d="M654.92 368.82C654.83 369 654.66 369.16 654.25 368.95C654.28 368.8 654.56 368.73 654.92 368.82z"/><path fill="#9F4715" opacity="1.000000" stroke="none" d="M615.23 382.96C615.43 382.62 615.68 382.27 615.96 382.73C615.67 382.85 615.43 382.64 615.23 382.96z"/></svg>