<svg xmlns="http://www.w3.org/2000/svg" xml:space="preserve" style="background:0 0" viewBox="0 0 1328 800"><path fill="#f7b36f" d="M248.46 389.3c-1.55-9.11-3.1-17.49-4.18-27.81 1.46-.35 2.45-.28 3.43-.09 16.43 3.15 32.59 6.39 48.92 9.37 2 .37 4.24-.65 6.37-1.02-1.51-1.5-2.76-3.58-4.57-4.41-18.14-8.12-35.79-16.43-54.57-24.6.81-23.06 8.46-45.3 19.92-65.52 3.34-5.35 7.37-11.67 10.88-17.52.87-1.45 1.34-3.38 1.34-5.09-.05-44.41 4.26-88.35 14.17-131.67 2.14-9.37 4.98-18.62 7.98-27.76 2.26-6.88 6.36-8.38 12.69-4.53 8.37 5.09 16.97 10.09 24.42 16.59 17.27 14.34 34.09 29.45 50.73 44.72 6.35 5.83 12.17 12.49 17.39 19.26 2.83 3.32 5.03 4.36 9.19 3.22 4.41 14.25 8.42 28.09 12.39 41.95 1.24 4.36 3.39 8.23 8.51 7.43 4.64-.23 8.7-3.99 9.42-8.88.58-3.83 1.22-7.31 1.04-11.2-.54-12.25-1.48-23.82-2.26-35.39 4.48-.75 8.96-1.51 13.86-1.76 1.18 14.58 1.72 28.66 2.8 42.71.43 5.56 2.13 11.13 3.27 16.5 1.2 4.11 4.87 5.75 9.02 5.68 4.1-.06 6.83-2.28 8.15-6.14.75-2.2 1.57-4.4 2.02-6.67 3.46-17.54 6.84-35.09 10.5-52.36 4.11.02 8.48.31 13.21 1.05-1.53 9.21-4.03 16.86-5.1 25.2-.94 7.31-1.16 14.96-.06 22.2 1 6.58 9.59 8.43 13.61 3.72 2.17-2.09 3.72-5.08 4.85-7.94 2.13-5.39 3.86-10.96 5.55-16.33 2.32-7.79 4.45-15.45 7.36-23.08 5.99 3.38 9.23-1.36 13.05-5.51 13.64-14.78 26.69-30.24 41.44-43.84 15.22-14.03 31.94-26.48 48.46-39.01 6.81-5.16 10.91-3.35 13.31 4.84 7.62 21.88 11.77 43.6 14.82 66 3.89 28.51 6.39 57.17 5.89 85.96-.14 7.69 2.09 13.38 7.2 19.41 13.22 19.57 22.54 41.36 27.44 64.93.88 4.21 1.81 6.85 6.84 5.22 1.68-.54 3.64-.26 6.28-.24 17.87 6.06 29.75 17.39 35.36 34.61 1.57 4.89 3.54 9.67 5.61 14.37 2.43 5.5 6.17 9.98 12.83 9.29 6.95.08 11.98-2.64 14.65-9 7.3-17.36 10.52-35.28 6.71-53.95 18.34 1.27 36.87 4.74 55.25 11-1.58 8.74-4 16.74-5.91 24.89-2.13 8.9-4.8 17.86-5.78 27.89-.82 6.7 4.41 10.95 12.08 11.13 5.95.13 10.7-2.58 14.55-6.63 4.68-4.92 8.95-10.24 13.36-15.54 5.99-7.6 11.96-15.33 18-23.01 12.36 7.96 24.74 15.87 37.05 23.9 2.35 1.53 4.39 3.53 6.44 5.81-3.41 4.03-6.78 7.48-9.93 11.12-7.95 9.16-16.34 18.02-23.54 27.74-7.5 10.13-1.18 23.4 11.22 22.85 4.04.08 7.74-.98 10.94-2.75 7.83-4.36 15.27-9.42 22.85-14.22 6.54-4.15 13.06-7.89 19.59-12.51 5.4 7.43 11.09 14.68 16.12 22.35 3.24 4.94 5.52 10.5 8.45 16.45-.68 1.23-.98 1.79-1.58 2.47-12.4 10.01-24.47 20.35-36.58 29.75-4.45 3.61-6.03 8.29-5.02 13.76 1 5.51 4.73 8.83 9.83 9.28 6.68.59 13.69.96 20.14-.46 9.51-2.11 18.64-5.89 28.04-8.67.37.58.63.88 1.13 1.43-.09.41.15.58.08 1.21-.16 4.27.31 8.09.22 11.9-.33 14.09-.44 28.21-1.41 42.26-.8 11.54-5.66 21.96-9.62 32.58-6.95 15.27-14.61 29.66-24.9 43.71-.43-.47.13-.21-1.02.39-3.3 1.85-6.24 3.96-9.21 6.02-17 12.59-35.48 20.46-55.12 26.85-2.65 1.04-4.86 3.06-7.59 4.83-.46 1.12-.61 2.48-.81 3.39-.08 1.19-.11 1.99-.28 2.88-.14.09-.13.43-.35.69-3.32 4.29-6.13 8.61-9.62 12.3-6.54 6.92-15.41 9.72-24.24 12.13-19.25 5.26-38.54 10.51-58.67 10.82-10.83.17-17.03-4.49-19.89-13.92-2.51-8.3.84-16.64 8.94-22.11.93-.63 2.04-1.01 3.06-1.5-.39-.77-.01-1.53-1.18-2.3-2.19.32-4.08.11-6.52 1.03-7.69 3.75-11.27 10.59-10.9 19.53.29 5.52 2.45 11.79 4.28 18.67-9.17-.43-19.94 1.12-26.72-6.98-10.29-12.31-6.94-25.97-.12-38.63-2.5-.21-4.04.61-5.96 2.2-8.3 11.04-6.38 23.28-2.79 36.34-8.55-4.2-16.41-7.81-18.02-17.25-3.27-20.09 9.55-38.17 29.48-42.33 14.25-2.97 28.47-2.08 42.87.54 11.94 2.27 24.05 5 36.19 7.64-.84-1.84-2.01-2.95-2.64-3.66-19.08-9.23-38.92-11.51-59.17-12.95-3.4-.1-4.24-.92-5.7-3.78-13.42-34.92-16.52-71.84-4.75-108.48 6.56-20.43 18.61-37.79 35.98-49.66 10.01-7.39 21.33-10.39 33.28-12.95 16.22-2 32.22-.53 46.4 5.97-7.63-6.26-16.33-9.48-26.2-10.82-6.9-.46-13.52-1.17-20.07-.58-23.98 1.27-43.33 13.41-57.86 32.53-16.63 21.89-23.28 47.38-26.09 75.14-.81.27-1.39 1.22-1.45 2.25-2.52 9.63-4.32 19.43-7.26 29.41-1.5 5.56-5.32 11.21-8.36 16.91-.63 1.16-2.35 1.71-4 2.27-.22.09-1.49-1.34-1.48-2.07.07-10.96.17-21.92.51-32.87.14-4.61.85-9.2 1.35-14.19 1.19-4.38 2.34-8.37 3.46-12.36 1.06-3.77 2.1-7.54 3.15-11.31-.63-.19-1.25-.38-1.88-.56-10.24 26.82-20.91 53.49-30.57 80.52-6.75 18.92-11.88 38.42-18.17 57.52-3.16 9.56-7.81 18.49-16.84 24.05-9.29 5.72-19.69 7.96-30.41 9.25-8.32-.13-13.92-4.75-14.45-13.14-.41-6.44.01-13.15 7.05-16.83.81-.42 1.2-1.64 1.98-2.77-4.53-1.43-7.45.22-9.56 2.88-7.33 9.87-7.56 20.82-1.08 30.67-8.44 2.89-23.52 1.73-28.16-2.72-12.33-12.12-7.19-25.38-1.88-38.22-6.64 2.11-9.14 7.54-10.45 13.78-2.02 8.07-.8 15.82 1.96 23.53.06.1-.3.31-.67.28-6.98-2.25-12.84-5.61-15.63-11.89-6.19-9.69-4.62-19.05.6-28.41 8.05-14.14 21.44-19.7 37.35-21.75 2.39-.41 3.56-1.59 5.16-4.3 2.74-12.37 6.59-25.47 10.07-38.27 2.21-8.14 3.92-16.41 5.96-25 2.52-12.4 4.95-24.69 7.38-36.85-2.05 2.82-3.04 5.91-3.94 9.02-2.46 8.42-4.88 16.84-6.58 25.46-.88.2-.87.62-1.1 1.12-.62 1.19-1 2.41-1.52 4-2.84 9.15-5.53 17.92-8.62 26.7-11.93 1.99-23.4 5.92-35.01 5.73-23.9 1.7-47.64.09-70.98-6.78-20.45-6.03-40.2-13.64-59.75-21.97-3.58-1.52-7.36-2.58-11.32-4.03-1.82-1.4-3.34-2.66-4.92-3.84-2.81-2.12-5.66-4.2-7.94-6.64-8.15-7.58-15.48-14.82-23.3-22.26-.09-.43-.58-.61-1.02-.91-.34-.42-.58-.62-1.04-.93-.47-.07-.75.01-1.03.09.2.23.4.46.69.91.27.51.53 1.39.95 1.03.28.52.53.72.99 1.14 5.33 6.02 10.96 11.74 15.05 17.83-.16 1.48-.46 2.61-.37 4.32.74 8.1 6.65 13.99 11.59 20.76-5.78 23.09-11.64 44.78-17.01 67.05-4.2 16.35-13.76 27.93-29.82 32.75-9.39 3.07-21.07 4.86-31.76 5.64-13.1.95-21.98-10.47-18.85-23.38 1.73-5.02 4.11-10.56 6.95-16.09-5.01.96-8.09 4.16-10.09 7.7-5.16 10.5-4.85 20.75 1.58 31.27-6.53-.76-13.95-1.85-20.67-3.44-9.22-2.17-13.37-8.96-14.31-17.74-.78-7.25.44-14.28 5.07-20.45.43-.93.85-2.02 1.7-3.65-11.34 4.2-14.07 14.24-10.26 36.33-7.1-3.77-11.54-9.01-13.16-16.04-4.38-13.02 1.7-27.85 13.71-36.68 12.64-8.77 26.9-10.88 42.61-10.29 1.09.07 2.96 0 4.82 0 .09-.09.17-.8.26-1.2-2.65-1.1-5.3-1.9-7.95-3.3 8.78-32.41 16.53-65.1 17.12-97.96.37-12.64.13-24.43.65-36.41 7.7 2.28 14.91 4.75 22.13 7.23.36-.44.27-.87.41-1.31-2.68-1.14-6.46-2.35-9.72-2.86-4.34-1.98-8.71-3.29-13.07-4.65-2.28-1.3-4.01-2.82-6.85-3.85-22.19-9.53-42.55-21.79-59.5-39.93 6.02-5.55 11.98-10.57 18.14-15.33 4.85-3.75 10.09-7.01 14.87-10.34 1.38-1.63 1.76-3.98 2.61-5.77-.78.07-3.44-.17-5.01.43-2.06.41-3.98 1.48-5.93 2.4-11.54 5.87-23.08 10.95-34.62 16.42-5.12-8.71-10.23-17.42-15.03-26.72 10.65-2.14 20.95-3.8 31.29-4.89 8.22-1.5 16.5-2.27 24.7-3.52 1.4-.22 2.56-2 3.95-3.05-1.41-1.28-2.49-3.05-3.31-3.71-2.65-.82-4.95-.86-7.1-1-18.45-1.16-36.88-1.19-55.26 1.19m413 59.39c-.17-.31-.33.01-.34 1.14 0 0 .05-.87-.84-1.03-.88.43-1.88.72-2.62 1.33-18.7 15.48-39.06 28.17-61.71 37.07-2.24 1.65-4.38 2.01-6.57 3.02 1.03.55 1.81.44 2.57.24 16.75-4.29 32.04-11.87 47.6-20.57 1.14-.14 2.41 0 3.4-.46 7.8-3.63 15.77-6.99 23.29-11.15 20.23-11.17 35.26-26.33 44.01-48.8 4.01-9.92 7.06-20.31 6.45-30.88-.59-10.1-3.22-20.15-5.48-30.05-.98-3.16-4.06-5.75-5.88-9.35-.35-2.64-1.2-3.67-3.99-2.35-2.83 1.35-5.94 2.12-8.78 3.45-17.28 8.05-34.14 16.14-51.71 24.38-1.19.57-1.03 2.83-2.64 3.6 1.59.5 3.32 1.69 4.76 1.4 8.28-1.21 16.49-3.03 24.72-5.48 12.1-2.74 24.2-5.47 36.42-7.3-.47 5.45-.26 11.02-1.34 16.32-1.29 6.35-2.82 12.48-6.42 18.61-7.86-1.12-15.71-2.93-23.6-3.18-13.93-.46-27.88-.07-41.82.29-1.59.04-3.12 2.21-4.68 3.4 1.46 1.25 3.05 3.3 4.41 3.61 6.01 1.15 12.22 1.31 18.19 2.59 13.75 2.96 27.41 6.36 41.13 10.31-5.09 7.46-10.18 14.92-15.41 22.41-9.73-4.8-18.89-9.47-28.17-13.88-5.08-2.42-9.52-4.53-15.59-6.49-1.49-.55-3.36-.07-5.05-.06.77 1.63 1.93 3.44 2.38 4.82.98 1.26 2.53 2.1 4.25 3.05 10.93 7.85 22.24 15.68 33.48 24.15-.96 1.37-1.92 2.75-3.35 4.35-.19.28-.38.56-.27 1.05 0 0 .03-.3-.8.44M465.7 404.86c-1.25 1.36-1.74 2.79-2.5 4.07-5.95 10.22-15.24 14.49-26.52 15.04-9.69.48-15.93-4.57-18.73-13.25-.96-.24-1.39-.35-1.68-.52-3.4.42-4.04 2.74-3.14 5.4.78 2.3 2.12 4.68 3.47 7.33 7.29 7.52 16.78 8.57 26.94 6.54 9.97-1.99 18-7.19 23.96-15.74 9.67 12.25 21.77 17.89 36.93 16.26 8.56-.22 16.29-7.07 17.84-14.44.31-.9-1.03-3.31-1.61-4.98-1.26.92-3.17 1.57-3.11 2.8-3.05 6.29-7.98 9.29-14.19 10.34-13.68 2.48-30.78-6.87-33.11-21.04 11-3.9 21.26-8.68 26.2-20.7 2.23-6.99-.2-12.07-7.58-13.81-10.66-1.33-21.46-1.75-32.22-1.91-4.19-.05-8.48 1.42-12.01 2.67-5.15 1.53-6.87 4.34-5.76 9.39 2.73 12.43 11.83 18.63 22.53 23.36 1.36.6 2.53 1.64 4.29 3.19m-65.9-22.52c26.53-18.89 23.39-56.39 2.63-72.44-14.96-11.56-33.95-13.14-50.79-3.1-15.84 9.87-25.65 29.3-22.03 47.12 6.51 32.18 41.77 46.69 70.19 28.42m207.55-37.74c-2.14-6.49-2.98-13.49-5.99-19.39-8.6-16.89-26.63-26.3-43-24.7-28.62 2.8-46.91 31.4-38.08 58.87 6.11 20.36 27.57 34.37 47.63 31.25 23.49-3.65 39.07-21.28 39.44-46.03m-8.71-147.78c13.82 9.06 27.64 18.12 41.79 27.4-.3-32.84-.32-65.66-7.28-99.46-2.74 2.52-4.3 3.71-5.59 5.16-15.77 17.75-30.98 35.55-47.27 53.31-2.05 2.31-1.36 3.93 1.15 5 5.54 2.71 11.04 5.49 17.2 8.59m-280.32-59.33c-4.76-3.36-6.14-3.02-6.99 2.22-1.96 12.08-3.81 24.18-4.64 36.69-1.91 10.48-2.82 21.38-3.49 32.27-.42 6.84-.08 13.73-.08 19.9 20.23-12.98 40.32-25.88 60.49-38.82-7.07-8.59-14.17-17.52-21.61-26.17-7.58-8.8-15.48-17.32-23.68-26.09m53.63 146.28c13.4-2.11 26.53-6.9 37.43-16.63 4.19-3.75 4.8-8.93 2.01-11.99-2.59-2.82-7.26-2.22-11.54 1.59-7.87 7.01-16.93 11.74-27.33 13.47-6.53 1.09-13.18 1.5-19.77 2.29-3.43.41-6.41 1.89-6.4 5.71.02 4.17 3.26 5.58 6.87 5.67 5.65.45 11.3-.01 18.73-.11m152.54-27.65c-2.54 5.3-2.09 8.01 2.72 12.19 16.68 14.49 36.61 17.97 58.02 16.32 1.6-.14 4.61-3.36 4.51-4.98-.15-2.13-2.47-4.69-4.54-5.92-1.79-1.06-4.52-.59-6.85-.04-15.7-1.14-31.11-5.52-42.59-16.95-3.6-2.87-7.01-3.42-11.27-.62m110.3 285.03-.12-1.34c-.16.02-.33.05-.49.07.09.54.18 1.08.61 1.27m-48.97-49.68c.51.13 1.03.26 1.54.4.04-.17.07-.33.11-.5-.05-.06-.85-.12-1.65.1m296.95-22.92c-.23-.02-.45-.04.18-.06-.75.11-.65.22-.18.06"/><path fill="#8abbdb" d="M971.9 642.74c25.92 4.6 51.53 10.69 75.04 22.75 3.04 2.51 5.86 3.85 8.34 6.25 5.54 5.37 5.47 12.16-.31 15.96-9.16 5.15-19.36 9.94-29.2 13.13-28.86 9.37-58.85 13.56-88.86 17.37-22.08 2.49-44.21 5.78-66.36 7.36-24 2.16-48.04 3.29-72.1 4.42-31.07 1.45-62.18 2.39-93.28 3.49-28.8.2-57.62.39-86.43.39-21.64-.01-43.28-.49-64.92-1.03-17.3-.43-34.59-1.05-51.86-1.99-27.55-1.48-55.11-2.9-82.61-5.08-26.81-2.12-53.58-4.79-79.83-7.87-30.16-3.42-59.87-7.07-88.35-16.34-4.36-1.99-8.68-4.01-12.48-6.58-4.74-3.2-4.73-7.72.01-10.35 8.52-6.3 17.49-10.1 28.21-11.45 3.33 9.14 7.53 17.12 16.26 21.28 7.02 3.34 14.28 7.09 21.79 8.45 21.81 5.36 43.87 4.54 65.93 1.09 22.71-3.55 37.53-16.47 43.23-39.38 2.3-7.25 4.08-15.08 6.55-22.65 13.72-1.3 27.02-2.71 40.47-3.8 10.24-.82 20.83-1.21 30.33-1.81 11.67 5.5 22.99 11.03 34.66 17.52 12.64 3.34 25.6 7.28 37.13 11.58-.99 2.51-1.93 5.5-2.74 6.82-6.71 17.92 1.02 32.48 12.76 39.52 11.3 6.5 23.97 9.85 36.9 8.96 12.94-.32 26.42-1.76 38.77-3.19 10.22-1.13 19.71-3.57 27.71-11.39 8.63-7.48 13.06-17.43 16.96-27.77.52-1.09 1.75-3.48 2.7-3.51 9.34-.27 17.51-.16 26.21-.16.17.44.37.74.39 1.05.06.66.19 1.33.03 1.99-1.43 16.12 6.27 25.12 19.54 30.85 15.11 6.53 30.98 10.15 48.14 9.6 29.22.39 58.19-3.53 85.97-14.39 10.73-4.19 20.24-10.36 23.92-22.67 2.38-.35 4.68-.3 6.28-1.05 12.42-5.18 25.32-9.55 36.95-16.14 10.14-5.74 18.82-14.05 28.15-21.23"/><path fill="#f6b370" d="M1150.17 567.1c11.57 8.43 19.22 18.88 23.69 32.53 6.85 19.47-1.51 40.84-20.11 50.54-15.22 8.3-31.53 10.74-48 9.14-16.95-1.51-32.93-4.13-48.46-10.74 3.94-10.06 9.87-19.21 12.03-29.18 5.85-26.98 10.11-53.63 15-81.51 10.42 3.64 20.83 6.34 31.39 10.47-.44 2.05-1.04 3.77-.89 5.5-4.66 11.5-7.4 23.44-7.03 35.44.15 4.85 1.6 8.89 6.55 10.39 5.41 1.51 8.44-.97 11.13-4.99 1.47-2.19 2.51-4.07 3.69-7.06 3.18-6.41 7.83-11.45 13.83-15.34 2.47-1.6 4.79-3.45 7.18-5.19"/><path fill="#a75932" d="M525.79 652.9c-11.33-5.52-22.65-11.05-34.5-16.46-21.76-13.05-39.89-29.2-57.35-47.13-.08 2.95-1.55 5.13-2.11 7.34-3.88 15.11-7.72 30.22-11.57 45.34-2.06 7.54-3.84 15.37-6.14 22.62-5.7 22.91-20.52 35.83-43.23 39.38-22.06 3.45-44.12 4.27-65.93-1.09-7.51-1.36-14.77-5.11-21.79-8.45-8.73-4.16-12.93-12.14-15.84-21.27-1.09-20.04 7.42-34.95 24.56-44.34 11.34-5.87 22.85-7.61 35.68-5.89 3.07 1.38 5.72 2.18 8.37 3.28-.09.4-.17 1.11-.26 1.2-1.86 0-3.73.07-4.82 0-15.71-.59-29.97 1.52-42.61 10.29-12.01 8.83-18.09 23.66-13.71 36.68 1.62 7.03 6.06 12.27 13.16 16.04-3.81-22.09-1.08-32.13 10.26-36.33-.85 1.63-1.27 2.72-1.7 3.65-4.63 6.17-5.85 13.2-5.07 20.45.94 8.78 5.09 15.57 14.31 17.74 6.72 1.59 14.14 2.68 20.67 3.44-6.43-10.52-6.74-20.77-1.58-31.27 2-3.54 5.08-6.74 10.09-7.7-2.84 5.53-5.22 11.07-6.95 16.09-3.13 12.91 5.75 24.33 18.85 23.38 10.69-.78 22.37-2.57 31.76-5.64 16.06-4.82 25.62-16.4 29.82-32.75 5.37-22.27 11.23-43.96 17.25-67.29 4.09-8.32 4.07-8.31-1.29-14.56-.85-.98-1.48-2.14-2.18-3.68.16-1.36.63-2.26.16-3.16 2.84 2.1 5.69 4.18 8.5 6.3 1.58 1.18 3.1 2.44 5 4.17 5.27 5.63 10.12 11.7 15.11 15.85 20.55 20.72 44.06 37.28 70.54 49.98 1.56.87 2.96 2.51 4.54 3.79"/><path fill="#ea9a5d" d="M1010.15 501.79c5.44 3.97 11.13 7.95 16.58 12.58.06 4.8-1.54 8.95-2.47 13.09-.33 1.42-1.1 2.84-1.07 4.24.17 8.44.11 16.91.92 25.3.76 7.84 2.49 15.58 3.85 23.36.89.75.74 2.08.9 2.05 3.67-.78 3.89 2.57 4.82 4.4 4.3 8.51 8.27 17.18 12.43 25.76.29.62 1.19.94 1.88 1.82-2.71 9.2-5.49 17.98-8.27 26.75-10.82-3.82-21.57-10.63-31.11-18.31-4.86-3.98-9.27-8.5-14.14-13.15.28-1.4.99-2.38 1.31-3.47 4.44-14.24 9.47-29.44 13.12-45.39 3.96-15.59 4.06-31.55 2.22-47.52-.44-3.82-.66-7.67-.97-11.51"/><path fill="#b35e35" d="M789.58 322.97c4.83 17.91 1.61 35.83-5.69 53.19-2.67 6.36-7.7 9.08-14.65 9-6.66.69-10.4-3.79-12.83-9.29-2.07-4.7-4.04-9.48-5.61-14.37-5.61-17.22-17.49-28.55-34.95-34.51 8.7-1.66 17.76-4.26 26.92-4.73 15.43-.8 30.93-.02 46.81.71"/><path fill="#b25e35" d="M1039.9 641.45c2.6-9.08 5.38-17.86 8.26-27.15 1.32-12.07 2.28-23.12 4.08-34.08 2.2-16.7 5.05-33.34 7.72-50.01 7.96 2.36 15.91 4.72 24.8 7.38-5.33 28.17-9.59 54.82-15.44 81.8-2.16 9.97-8.09 19.12-12.35 28.97-5.68-1.98-11.29-3.65-17.07-6.91"/><path fill="#b35e35" d="M966.73 413.56c-6.49 4.94-13.01 8.68-19.55 12.83-7.58 4.8-15.02 9.86-22.85 14.22-3.2 1.77-6.9 2.83-10.94 2.75-12.4.55-18.72-12.72-11.22-22.85 7.2-9.72 15.59-18.58 23.54-27.74 3.15-3.64 6.52-7.09 10.08-10.83 12.07 8.76 22.51 19.3 30.94 31.62m-73.77-61.94c-6.85 8-12.82 15.73-18.81 23.33-4.41 5.3-8.68 10.62-13.36 15.54-3.85 4.05-8.6 6.76-14.55 6.63-7.67-.18-12.9-4.43-12.08-11.13.98-10.03 3.65-18.99 5.78-27.89 1.91-8.15 4.33-16.15 6.65-24.58 12.99 4.69 26.55 9.75 40.08 14.92 1.83.7 3.47 1.89 6.29 3.18"/><path fill="#f6b16e" d="M1059.65 530.88c-2.36 16-5.21 32.64-7.41 49.34-1.8 10.96-2.76 22.01-3.37 33.38-1.57-.09-2.47-.41-2.76-1.03-4.16-8.58-8.13-17.25-12.43-25.76-.93-1.83-1.15-5.18-4.82-4.4-.16.03-.01-1.3-.9-2.05-1.36-7.78-3.09-15.52-3.85-23.36-.81-8.39-.75-16.86-.92-25.3-.03-1.4.74-2.82 1.07-4.24.93-4.14 2.53-8.29 2.72-12.86 10.79 4.78 21.58 10 32.67 16.28"/><path fill="#b35e35" d="M1006.67 498.52c-9.9 3.07-19.03 6.85-28.54 8.96-6.45 1.42-13.46 1.05-20.14.46-5.1-.45-8.83-3.77-9.83-9.28-1.01-5.47.57-10.15 5.02-13.76 12.11-9.4 24.18-19.74 36.98-29.78 1.24-.32 1.76-.47 2.28-.62 0 0 .03.12-.16 1.01-.81 2.24-1.44 4.71-1.87 6.08 2.99 1.3 4.7 2.32 6.78 3.34 0 0 .72.01.73.28-.5.77-.18 1.27.7 1.77 0 0-.62.01.09.37-1.06 3.38-2.21 7.37 2.4 7.61 0 0 .17.02.16.38.71 2.78 1.66 5.21 2.61 7.64.53.31.25.61.3 1.54.24 1.24.56 1.87 1.34 2.62 0 0-.27.06-.35.54.2 1.08.48 1.69.75 2.3 0 0 .23.33 1.05.98-.46 2.96-.38 5.26-.3 7.56"/><path fill="#b25e35" d="M490.68 163.81c-3.05 17.77-6.43 35.32-9.89 52.86-.45 2.27-1.27 4.47-2.02 6.67-1.32 3.86-4.05 6.08-8.15 6.14-4.15.07-7.82-1.57-9.02-5.68-1.14-5.37-2.84-10.94-3.27-16.5-1.08-14.05-1.62-28.13-2.38-42.66 11.46-.65 22.92-.85 34.73-.83"/><path fill="#ac5e34" d="M1006.17 498.81c.42-2.59.34-4.89.52-7.65.68 3.01 1.95 6.48 3.6 10.29.17 4.18.39 8.03.83 11.85 1.84 15.97 1.74 31.93-2.22 47.52-3.65 15.95-8.68 31.15-13.12 45.39-.32 1.09-1.03 2.07-1.65 3.44-7.43 11.06-14.77 21.76-22.17 32.78-9.39 7.49-18.07 15.8-28.21 21.54-11.63 6.59-24.53 10.96-36.95 16.14-1.6.75-3.9.7-6.43.7-1.06-1.58-2.1-2.85-2.86-4.12 0 0-.01-.34.4-.12.3-1.74.95-2.66.06-3.59.15-.51.3-1.87.86-2.61.99 3.35 2.74 3.91 5.8 3.31 16.72-3.29 32.16-9.86 45.56-20.1 8.18-6 13.93-14.31 21.04-21.67.52-.3.65-.59.63-.95 10.1-13.11 17.76-27.5 24.71-42.77 3.96-10.62 8.82-21.04 9.62-32.58.97-14.05 1.08-28.17 1.41-42.26.09-3.81-.38-7.63-.42-12 .08-.82-.02-1.09.45-1.36-.83-.3-1.09-.6-1.46-1.18"/><path fill="#b15e34" d="M1149.91 566.86c-2.13 1.98-4.45 3.83-6.92 5.43-6 3.89-10.65 8.93-13.83 15.34-1.18 2.99-2.22 4.87-3.69 7.06-2.69 4.02-5.72 6.5-11.13 4.99-4.95-1.5-6.4-5.54-6.55-10.39-.37-12 2.37-23.94 7.03-35.44-.15-1.73.45-3.45 1.11-5.54 12.71 4.32 23.65 10.01 33.98 18.55"/><path fill="#af5c34" d="M441.28 166.22c1.17 11.7 2.11 23.27 2.65 35.52.18 3.89-.46 7.37-1.04 11.2-.72 4.89-4.78 8.65-9.42 8.88-5.12.8-7.27-3.07-8.51-7.43-3.97-13.86-7.98-27.7-12.01-41.93 9.29-1.6 18.61-3.53 28.33-6.24m88.33 3.14c-1.81 7.4-3.94 15.06-6.26 22.85-1.69 5.37-3.42 10.94-5.55 16.33-1.13 2.86-2.68 5.85-4.85 7.94-4.02 4.71-12.61 2.86-13.61-3.72-1.1-7.24-.88-14.89.06-22.2 1.07-8.34 3.57-15.99 5.51-25.12 8.56.92 16.22 2.21 24.7 3.92"/><path fill="#ae5c32" d="M243.58 341.77c19.06 7.14 36.71 15.45 54.85 23.57 1.81.83 3.06 2.91 4.57 4.41-2.13.37-4.37 1.39-6.37 1.02-16.33-2.98-32.49-6.22-48.92-9.37-.98-.19-1.97-.26-3.39-.08-.62-6.81-.81-13.36-.74-19.55m4.79 47.88c18.47-2.73 36.9-2.7 55.35-1.54 2.15.14 4.45.18 7.1 1 .82.66 1.9 2.43 3.31 3.71-1.39 1.05-2.55 2.83-3.95 3.05-8.2 1.25-16.48 2.02-24.7 3.52-10.34 1.09-20.64 2.75-31.31 4.52-2.19-4.5-4.03-9.21-5.8-14.26"/><path fill="#ac5a2f" d="M269.25 431.33c11.51-5.8 23.05-10.88 34.59-16.75 1.95-.92 3.87-1.99 5.93-2.4 1.57-.6 4.23-.36 5.01-.43-.85 1.79-1.23 4.14-2.61 5.77-4.78 3.33-10.02 6.59-14.87 10.34-6.16 4.76-12.12 9.78-17.92 15.03-3.66-3.51-6.87-7.37-10.13-11.56"/><path fill="#9b4e21" d="M345.48 487.24c4.39 1.09 8.76 2.4 13.1 4.38 3.26.51 7.04 1.72 9.72 2.86-.14.44-.05.87-.41 1.31-7.22-2.48-14.43-4.95-21.98-7.59-.38-.34-.41-.52-.43-.96"/><path fill="#ac5e34" d="M997.14 464.57c-2.03-.66-3.74-1.68-6.73-2.98.43-1.37 1.06-3.84 1.86-6.48 1.73 2.78 3.28 6.31 4.87 9.46m4.79 10.02c-5.43.13-4.28-3.86-3.66-7.26 1.25 2.03 2.38 4.46 3.66 7.26m1.98 8.02c-.98-2.06-1.93-4.49-2.45-7.31.75 2.05 1.52 4.49 2.45 7.31m-11.56-28.38c-.43.42-.95.57-1.88.76-.11-.52.19-1.08 1.42-1.53-.42-.32-.02.08.46.77m13.6 35.4q-.45-.39-.84-1.83c.3.78.58.87.84 1.83m-.32-2.98c-.89-.26-1.21-.89-1.51-1.89.33.45.64.89 1.51 1.89m-7.05-19.98c-.84-.19-1.16-.69-1.48-1.51.33.19.64.7 1.48 1.51"/><path fill="#a8582f" d="M897.29 676.95c.98 1.01 2.02 2.28 2.66 3.89-3.11 12.63-12.62 18.8-23.35 22.99-27.78 10.86-56.75 14.78-85.97 14.39-17.16.55-33.03-3.07-48.14-9.6-13.27-5.73-20.97-14.73-19.54-30.85.16-.66.03-1.33-.03-1.99-.02-.31-.22-.61-.39-1.05-8.7 0-16.87-.11-26.21.16-.95.03-2.18 2.42-2.7 3.51-3.9 10.34-8.33 20.29-16.96 27.77-8 7.82-17.49 10.26-27.71 11.39-12.35 1.43-25.83 2.87-38.77 3.19-12.93.89-25.6-2.46-36.9-8.96-11.74-7.04-19.47-21.6-12.76-39.52.81-1.32 1.75-4.31 2.99-7 9.76-12.53 21.78-20.1 36.9-22.71 1.3-.23 2.93-1.87 3.37-3.19 3.21-9.75 6.17-19.58 9.2-29.38 2.69-8.77 5.38-17.54 8.54-26.78.79-1.78 1.11-3.1 1.43-4.41 0 0-.01-.42.4-.61 1.44.79 2.48 1.76 3.51 2.74-1.94 8.21-3.65 16.48-5.86 24.62-3.48 12.8-7.33 25.9-10.07 38.27-1.6 2.71-2.77 3.89-5.16 4.3-15.91 2.05-29.3 7.61-37.35 21.75-5.22 9.36-6.79 18.72-.6 28.41 2.79 6.28 8.65 9.64 15.74 12.04.62.19.76.21.9.22-.08-.25-.16-.1-.24-.75-2.86-7.61-4.08-15.36-2.06-23.43 1.31-6.24 3.81-11.67 10.45-13.78-5.31 12.84-10.45 26.1 1.88 38.22 4.64 4.45 19.72 5.61 28.16 2.72-6.48-9.85-6.25-20.8 1.08-30.67 2.11-2.66 5.03-4.31 9.56-2.88-.78 1.13-1.17 2.35-1.98 2.77-7.04 3.68-7.46 10.39-7.05 16.83.53 8.39 6.13 13.01 14.45 13.14 10.72-1.29 21.12-3.53 30.41-9.25 9.03-5.56 13.68-14.49 16.84-24.05 6.29-19.1 11.42-38.6 18.17-57.52 9.66-27.03 20.33-53.7 30.57-80.52.63.18 1.25.37 1.88.56-1.05 3.77-2.09 7.54-3.15 11.31-1.12 3.99-2.27 7.98-3.72 12.6-11.42 35.45-23.06 70.27-34.52 105.38 9.28 0 17.21.15 25.12.45 1.34-.52 3.27-2.4 3.82-3.8 4.39-9.97 10.13-18.05 19.62-23.06 6.05-3.2 12.62-5.42 19.71-8.22-8.28-23.74-12.22-48.33-12.11-72.74 2.12-27.72 8.77-53.21 25.4-75.1 14.53-19.12 33.88-31.26 57.86-32.53 6.55-.59 13.17.12 19.86.91-3.74 1.01-7.62 1.23-11.01 2.46-3.36.03-5.85 1.16-8.72 2.03-12.21 2.59-23.53 5.59-33.54 12.98-17.37 11.87-29.42 29.23-35.98 49.66-11.77 36.64-8.67 73.56 4.75 108.48 1.46 2.86 2.3 3.68 5.7 3.78 20.25 1.44 40.09 3.72 59.17 12.95.63.71 1.8 1.82 2.64 3.66-12.14-2.64-24.25-5.37-36.19-7.64-14.4-2.62-28.62-3.51-42.87-.54-19.93 4.16-32.75 22.24-29.48 42.33 1.61 9.44 9.47 13.05 18.02 17.25-3.59-13.06-5.51-25.3 2.79-36.34 1.92-1.59 3.46-2.41 5.96-2.2-6.82 12.66-10.17 26.32.12 38.63 6.78 8.1 17.55 6.55 26.72 6.98-1.83-6.88-3.99-13.15-4.28-18.67-.37-8.94 3.21-15.78 10.9-19.53 2.44-.92 4.33-.71 6.52-1.03 1.17.77.79 1.53 1.18 2.3-1.02.49-2.13.87-3.06 1.5-8.1 5.47-11.45 13.81-8.94 22.11 2.86 9.43 9.06 14.09 19.89 13.92 20.13-.31 39.42-5.56 58.67-10.82 8.83-2.41 17.7-5.21 24.24-12.13 3.49-3.69 6.3-8.01 9.62-12.3"/><path fill="#ea995b" d="M612.58 610c-2.63 9.79-5.59 19.62-8.8 29.37-.44 1.32-2.07 2.96-3.37 3.19-15.12 2.61-27.14 10.18-36.78 22.35-11.9-3.76-24.86-7.7-37.5-11.04-1.92-2.25-3.32-3.89-4.88-4.76-26.48-12.7-49.99-29.26-70.54-49.98-4.99-4.15-9.84-10.22-14.83-15.67 3.6.94 7.38 2 10.96 3.52 19.55 8.33 39.3 15.94 59.75 21.97 23.34 6.87 47.08 8.48 70.98 6.78 11.61.19 23.08-3.74 35.01-5.73"/><path fill="#f7fcf9" d="M399.5 382.54c-28.12 18.07-63.38 3.56-69.89-28.62-3.62-17.82 6.19-37.25 22.03-47.12 16.84-10.04 35.83-8.46 50.79 3.1 20.76 16.05 23.9 53.55-2.93 72.64m-5.19-11.16c11.93-6.89 16.97-27.03 7.69-41.69-4.27-6.74-10.26-11.41-18.84-11.03-8.57.63-14.41 5.81-18 13.27-4.6 9.55-4.42 19.41.12 28.92 5.49 11.51 16.46 15.43 29.03 10.53"/><path fill="#f8fcfa" d="M607.42 345.77c-.44 23.58-16.02 41.21-39.51 44.86-20.06 3.12-41.52-10.89-47.63-31.25-8.83-27.47 9.46-56.07 38.08-58.87 16.37-1.6 34.4 7.81 43 24.7 3.01 5.9 3.85 12.9 6.06 20.56m-64.89-23.9c-14.13 9.5-17.08 31.99-5.2 45.35 9.2 9.46 23.56 8.94 30.8-1.35 8.34-10.66 8.8-28.62-.81-38.95-6.5-7.65-14.97-9.56-24.79-5.05"/><path fill="#e9985a" d="M750.66 563.89c.58 24.37 4.52 48.96 12.8 72.7-7.09 2.8-13.66 5.02-19.71 8.22-9.49 5.01-15.23 13.09-19.62 23.06-.55 1.4-2.48 3.28-3.82 3.8-7.91-.3-15.84-.45-25.12-.45 11.46-35.11 23.1-69.93 34.47-104.99-.19 4.36-.9 8.95-1.04 13.56-.34 10.95-.44 21.91-.51 32.87-.01.73 1.26 2.16 1.48 2.07 1.65-.56 3.37-1.11 4-2.27 3.04-5.7 6.86-11.35 8.36-16.91 2.94-9.98 4.74-19.78 7.26-29.41.06-1.03.64-1.98 1.45-2.25"/><path fill="#df7a49" d="M598.32 196.64c-5.84-2.92-11.34-5.7-16.88-8.41-2.51-1.07-3.2-2.69-1.15-5 16.29-17.76 31.5-35.56 47.27-53.31 1.29-1.45 2.85-2.64 5.59-5.16 6.96 33.8 6.98 66.62 7.28 99.46-14.15-9.28-27.97-18.34-42.11-27.58"/><path fill="#df7a4a" d="M318.55 137.34c7.97 8.92 15.87 17.44 23.45 26.24 7.44 8.65 14.54 17.58 21.61 26.17-20.17 12.94-40.26 25.84-60.49 38.82 0-6.17-.34-13.06.08-19.9.67-10.89 1.58-21.79 3.49-32.27.83-12.51 2.68-24.61 4.64-36.69.85-5.24 2.23-5.58 7.22-2.37"/><path fill="#ea995b" d="M663.23 446.97c.73-1.37 1.69-2.75 3.03-4.49 3.08-3.99 6.04-7.62 8.46-11.25 5.09-7.46 10.18-14.92 15.6-22.83 2.51-5.8 5.33-11.14 6.86-16.47 2.78-6.23 4.31-12.36 5.6-18.71 1.08-5.3.87-10.87 1.42-16.48.43-6.59.68-11.22.92-16.79 2.04 2.85 5.12 5.44 6.1 8.6 2.26 9.9 4.89 19.95 5.48 30.05.61 10.57-2.44 20.96-6.45 30.88-8.75 22.47-23.78 37.63-44.01 48.8-7.52 4.16-15.49 7.52-23.29 11.15-.99.46-2.26.32-3.59.14.83-1.15 1.89-1.93 2.84-2.82 6.28-5.92 12.54-11.86 18.97-17.79 0 0-.05.87.06-.05.41-.38.61-.67 1.06-.96 0 0-.03.3-.08-.05.38-.4.59-.66 1.02-.93"/><path fill="#e78c92" d="M465.2 404.15c-1.26-.84-2.43-1.88-3.79-2.48-10.7-4.73-19.8-10.93-22.53-23.36-1.11-5.05.61-7.86 5.76-9.39 3.53-1.25 7.82-2.72 12.01-2.67 10.76.16 21.56.58 32.22 1.91 7.38 1.74 9.81 6.82 7.58 13.81-4.94 12.02-15.2 16.8-26.7 20.77-2.84-2.44-3.5.09-4.55 1.41"/><path fill="#503828" d="M370.63 283.8c-6.11.07-11.76.53-17.41.08-3.61-.09-6.85-1.5-6.87-5.67-.01-3.82 2.97-5.3 6.4-5.71 6.59-.79 13.24-1.2 19.77-2.29 10.4-1.73 19.46-6.46 27.33-13.47 4.28-3.81 8.95-4.41 11.54-1.59 2.79 3.06 2.18 8.24-2.01 11.99-10.9 9.73-24.03 14.52-38.75 16.66"/><path fill="#513929" d="M524.82 255.9c3.93-2.58 7.34-2.03 10.94.84 11.48 11.43 26.89 15.81 42.59 16.95 2.33-.55 5.06-1.02 6.85.04 2.07 1.23 4.39 3.79 4.54 5.92.1 1.62-2.91 4.84-4.51 4.98-21.41 1.65-41.34-1.83-58.02-16.32-4.81-4.18-5.26-6.89-2.39-12.41"/><path fill="#ae5c32" d="M705.79 339.58c-.91 5.94-1.16 10.57-1.6 16.04-12.29 3.11-24.39 5.84-36.49 8.58-8.23 2.45-16.44 4.27-24.72 5.48-1.44.29-3.17-.9-4.76-1.4 1.61-.77 1.45-3.03 2.64-3.6 17.57-8.24 34.43-16.33 51.71-24.38 2.84-1.33 5.95-2.1 8.78-3.45 2.79-1.32 3.64-.29 4.44 2.73"/><path fill="#523825" d="M465.13 404.51c1.12-1.68 1.78-4.21 4.38-1.17 3.07 13.5 20.17 22.85 33.85 20.37 6.21-1.05 11.14-4.05 14.19-10.34-.06-1.23 1.85-1.88 3.11-2.8.58 1.67 1.92 4.08 1.61 4.98-1.55 7.37-9.28 14.22-17.84 14.44-15.16 1.63-27.26-4.01-36.93-16.26-5.96 8.55-13.99 13.75-23.96 15.74-10.16 2.03-19.65.98-26.94-6.54-1.35-2.65-2.69-5.03-3.47-7.33-.9-2.66-.26-4.98 3.15-5.4.28.17.71.28 1.67.52 2.8 8.68 9.04 13.73 18.73 13.25 11.28-.55 20.57-4.82 26.52-15.04.76-1.28 1.25-2.71 1.93-4.42"/><path fill="#ae5c32" d="M696.77 391.88c-1.12 5.38-3.94 10.72-6.46 16.4-14.04-3.38-27.7-6.78-41.45-9.74-5.97-1.28-12.18-1.44-18.19-2.59-1.36-.31-2.95-2.36-4.41-3.61 1.56-1.19 3.09-3.36 4.68-3.4 13.94-.36 27.89-.75 41.82-.29 7.89.25 15.74 2.06 24.01 3.23"/><path fill="#ea995b" d="M970.65 632.29c-6.53 6.98-12.28 15.29-20.46 21.29-13.4 10.24-28.84 16.81-45.56 20.1-3.06.6-4.81.04-5.49-3.49 2.32-1.97 4.53-3.99 7.18-5.03 19.64-6.39 38.12-14.26 55.12-26.85 2.97-2.06 5.91-4.17 9.21-6.02"/><path fill="#ac5a2f" d="M674.39 431.13c-2.09 3.73-5.05 7.36-8.09 11.04a1219 1219 0 0 1-33.9-23.47c-1.72-.95-3.27-1.79-4.25-3.05-.45-1.38-1.61-3.19-2.38-4.82 1.69-.01 3.56-.49 5.05.06 6.07 1.96 10.51 4.07 15.59 6.49 9.28 4.41 18.44 9.08 27.98 13.75"/><path fill="#a25629" d="M660.64 448.88c-5.9 6.01-12.16 11.95-18.44 17.87-.95.89-2.01 1.67-3.24 2.76-14.97 9.08-30.26 16.66-47.01 20.95-.76.2-1.54.31-2.57-.24 2.19-1.01 4.33-1.37 6.57-3.02 22.65-8.9 43.01-21.59 61.71-37.07.74-.61 1.74-.9 2.98-1.25"/><path fill="#ea9a5d" d="M421.92 576.43c.72 1.08 1.35 2.24 2.2 3.22 5.36 6.25 5.38 6.24 1.35 14.17-5.24-6.14-11.15-12.03-11.89-20.13-.09-1.71.21-2.84.68-4.17 3.17 2.16 5.22 5.04 7.66 6.91"/><path fill="#9b4e21" d="M834.48 461.65c3.13-.9 5.62-2.03 8.98-2.06 3.39-1.23 7.27-1.45 11.32-2.21 9.77.76 18.47 3.98 26.1 10.24-14.18-6.5-30.18-7.97-46.4-5.97m-207.52 118.9c-1.13-.6-2.17-1.57-3.54-2.55 2.1-8.44 4.52-16.86 6.98-25.28.9-3.11 1.89-6.2 3.94-9.02-2.43 12.16-4.86 24.45-7.38 36.85m-205.02-4.58c-2.46-1.41-4.51-4.29-7.64-6.81-4.44-5.88-10.07-11.6-14.38-17.82-.66-.65-.55-.79-.43-.94 7.69 7.25 15.02 14.49 23.17 22.07-.09 1.24-.56 2.14-.72 3.5m200.78 3.33c-.09.81-.41 2.13-1.05 3.54.05-1.13.43-2.35 1.05-3.54m11.9-37.97c-.26-.37-.35-.91-.44-1.45.16-.02.33-.05.49-.07.04.45.08.89-.05 1.52"/><path fill="#a8582f" d="M897.92 673.38c.94.53.29 1.45.62 2.59-.73-.6-.7-1.4-.62-2.59"/><path fill="#a25629" d="M586.4 491.33c.22-.08 1.02-.02 1.07.04-.04.17-.07.33-.11.5-.51-.14-1.03-.27-.96-.54"/><path fill="#9b4e21" d="M396.87 549.14c-.2-.22-.4-.45-.6-.68.28-.08.56-.16.87.06.03.31-.27.62-.27.62"/><path fill="#a25629" d="M662.77 447.88c.03-.64-.18-.38-.6.02-.02-.14.17-.42.6-.02m-1.03.24c.1.12-.1.41-.53.79-.08-.21.08-.53.53-.79"/><path fill="#ea995b" d="M971.67 631.9c.21-.58.08-.29-.44.01.57-.22.01-.48.44-.01"/><path fill="#9b4e21" d="M882.59 468.69c-.29.02-.39-.09.36-.2-.63.02-.41.04-.36.2"/><path fill="#b35e35" d="M1007.3 500.24c-.14.02-.04.29-.08.65.23-.07-.01-.24.08-.65"/><path fill="#9b4e21" d="M398.95 551.38c-.51-.26-.76-.46-.12-1.14-.67-.4-.35-.75-.35-.75.3.11.79.29.88.72.01.34-.1.48-.41 1.17m-1.63-2.7c.44 0 .68.2 1.02.62.14.19-.18.54-.36.82-.49.64-.75-.24-1.02-.75-.09-.23.21-.54.36-.69"/><path fill="#e1f3f9" d="M420.67 641.96c3.44-15.09 7.28-30.2 11.16-45.31.56-2.21 2.03-4.39 2.11-7.34 17.46 17.93 35.59 34.08 57.01 46.9-8.98.74-19.57 1.13-29.81 1.95-13.45 1.09-26.75 2.5-40.47 3.8"/><path fill="#f7b36f" d="M584.12 709.89c.18.55.26.4.34.65-.14-.01-.28-.03-.53-.19-.11-.15.25-.36.19-.46"/><path fill="#4c382a" d="M393.99 371.24c-12.25 5.04-23.22 1.12-28.71-10.39-4.54-9.51-4.72-19.37-.12-28.92 3.59-7.46 9.43-12.64 18-13.27 8.58-.38 14.57 4.29 18.84 11.03 9.28 14.66 4.24 34.8-8.01 41.55m148.86-49.57c9.5-4.31 17.97-2.4 24.47 5.25 9.61 10.33 9.15 28.29.81 38.95-7.24 10.29-21.6 10.81-30.8 1.35-11.88-13.36-8.93-35.85 5.52-45.55"/></svg>