<svg xmlns="http://www.w3.org/2000/svg" xmlns:xlink="http://www.w3.org/1999/xlink" version="1.1" id="Layer_1" x="0px" y="0px" width="100%" viewBox="0 0 1328 800" enable-background="new 0 0 1328 800" xml:space="preserve" style="background: transparent;"><path fill="#F7A943" opacity="1.000000" stroke="none" d="M691.75 674.16C671.52 674.13 651.3 674.99 630.54 673.63C627.99 662.74 626.26 652.23 623.86 641.88C619.99 625.12 615.68 608.46 611.56 591.76C610.76 596.1 610.85 600.32 611.56 604.44C615.18 625.4 618.96 646.34 622.7 667.29C624.45 677.94 622.32 685.3 615.28 687.58C607.49 690.2 599.25 691.53 591.13 693.12C589.92 693.23 587.23 691.36 587.34 690.17C585.96 683.53 585.43 676.81 584.75 670.11C584.59 668.51 584.58 666.9 584.5 665.3C583.9 665.28 583.31 665.26 582.72 665.24C577.61 674.2 580.33 684.14 580.34 693.7C562.2 694.45 548.17 687.3 560.22 662.89C558.35 663.58 556.24 664.34 555.26 665.85C550.15 673.75 549.9 682.2 553.67 690.92C538.3 689.5 530.28 674.56 538.51 662.51C541.63 656.18 546.69 651.53 553.46 649.18C554.9 648.68 556.27 647.99 557.67 647.39C557.48 646.71 557.28 646.38 557.87 645.36C553.64 646.4 549.41 647.43 544.87 648.5C544.64 647.75 544.32 646.98 544.16 646.19C538.72 617.4 532.81 588.59 525.88 559.83C523.86 550.49 521.3 541.26 518.99 531.98C516.64 515.93 514.29 499.88 512.36 483.21C514.36 483.91 515.95 483.53 517.49 484.12C529.14 488.5 540.77 492.93 552.42 497.3C553.12 497.56 553.95 497.43 554.73 497.48C553.71 495.9 552.46 495.31 551.17 494.8C530.17 486.42 508.95 477.82 490.1 464.71C488.83 463.83 487.14 463.55 485.64 462.99C474.61 455.59 466.23 444.8 458.12 433.34C463.87 429.57 469.79 426.85 475.78 423.22C478.83 420.64 483.35 417.35 484.64 413.43C486.75 407.19 479.49 401.66 470.93 402.47C461.52 402.48 452.99 402.73 442.68 403.64C440.76 395.22 438.84 386.98 437.38 378.53C448.87 377.82 459.9 377.65 470.92 377.12C474.43 376.95 478.42 375.8 478.92 371.64C479.94 366.99 476.75 364.59 473.35 362.64C461.67 355.93 449.63 350.73 436.13 347.96C436.52 326.41 441.15 305.67 449.27 285.83C452.58 277.74 454.3 270.91 452.98 261.32C448.93 234.55 448.88 207.56 450.95 180.59C451.89 158.46 453.91 136.51 459.36 114.92C459.19 114.27 459.37 113.63 459.56 112.99C462.77 102.23 467.44 99.78 477.22 105.3C491.42 113.31 505.56 121.55 518.96 130.81C542.77 147.27 565.99 164.58 589.51 181.46C590.53 182.19 592.15 182.5 593.43 182.38C595.72 182.16 597.97 181.45 600.81 181.38C603.6 190.63 605.58 199.52 608.12 208.24C610.29 215.69 612.81 223.76 615.78 230.25C617.48 234.37 621.85 235.93 625.81 234.78C628.34 234.13 629.76 230.96 631.15 228.6C631.99 227.15 632.15 225.7 631.97 223.29C631.69 212.68 631.42 202.64 630.87 191.47C630.6 186.38 629.72 181.32 629.12 176.25C637.12 175.52 645.11 174.79 653.32 174.5C653.34 176.57 652.94 178.2 652.99 179.81C653.27 188.1 653.48 196.41 654.73 204.68C654.84 215.41 655.96 226.11 656.91 236.83C657.26 240.82 659.4 243.78 663.31 243.76C667.52 243.73 669.58 240.5 669.99 236.38C670.72 228.97 671.58 221.56 672.15 214.14C673.17 200.93 674.7 187.71 674.92 174.49C684.93 175.11 693.27 175.74 702.41 176.7C701.67 178.62 700.55 180.13 700.34 181.76C698.79 193.56 697.27 205.37 696.82 217.22C695.65 221.57 695.8 226.55 696.35 230.4C696.74 233.5 699.53 235.22 702.36 233.84C705.59 232.49 709.32 230.83 711.21 228.16C713.91 224.35 715.47 219.6 716.9 215.6C720.42 203.85 723.59 192.52 726.9 181.24C732.97 183.71 736.36 179.4 740.67 176.34C760.85 161.95 781.57 147.56 801.74 133.9C816.71 124.6 832.43 115.24 847.84 106.16C849.4 105.83 851.12 104.37 852.83 103.73C858.84 101.76 861.38 102.72 863.31 107.94C865.65 114.3 867.5 120.92 868.79 127.58C875.55 162.44 876.44 197.64 874.14 232.96C873.38 244.57 871.81 256.13 871.94 267.74C870.89 270.98 871.76 274.63 873.2 277.58C883.78 299.24 890.85 321.96 890.7 346.71C882.94 349.87 875.44 352.12 868.32 355.37C861.48 357.94 854.82 361.41 848.53 365.35C846.44 366.66 844.26 370.62 844.81 372.62C845.48 375.16 848.8 377.87 851.36 378.31C857.29 379.35 863.47 379.48 869.52 379.2C876.6 378.88 883.65 377.74 890.71 376.96C888.75 386.18 886.79 395.41 884.25 404.56C871.88 404.34 858.49 403.82 845.94 404.33C843.33 404.44 839.74 407.91 838.73 410.63C838.1 412.55 840.17 416.87 842.27 418.29C849.38 423.72 857.5 427.7 864.45 431.36C865.8 432.15 866.91 433.37 868.12 434.39C864.28 439.34 860.43 444.3 856.58 449.28C863.93 455.52 871.34 461.83 878.74 468.74C870.66 476.53 862.56 483.66 854.59 490.93C851.68 493.59 851.12 496.96 853.2 500.41C855.37 503.82 858.62 504.95 862.25 503.36C869.26 499.33 876.2 495.47 883.34 491.44C886.84 489.19 890.38 486.49 894.36 484C901.37 493.18 908.71 502.4 915.82 511.58C908.47 517.49 901.27 522.79 894.26 528.31C890.93 530.93 889.81 534.69 891.5 538.6C893.2 542.54 897.2 542.38 900.56 541.99C902.33 541.79 904.22 541.41 905.76 540.57C912.74 536.81 919.62 532.85 926.54 528.97C937.9 548.49 944.97 569.5 947.89 591.85C951.29 617.84 948.38 643.26 941.32 668.35C932.67 696.89 908.9 700 889.44 695.62C888.63 695.43 887.66 695.28 887.12 694.76C881.51 689.24 875.69 692.37 869.61 693.81C862.52 695.48 855.22 696.95 847.97 697.12C830.2 697.53 812.38 697.62 794.63 696.81C788.95 696.56 783.42 693.77 777.45 690.63C776.11 688.48 775.27 686.69 774.17 685.81C764.66 670.31 766.54 657.48 781.96 646.71C792.5 638.62 805.28 637.95 818.39 639.57C825.18 640.42 831.83 642.31 838.55 643.73C838.76 643.35 838.97 642.97 839.18 642.58C837.3 641.19 835.62 639.19 833.51 638.5C812.36 631.57 791.75 630.54 773.19 645.58C765.57 631.31 763.5 614.6 766.98 596.24C773.39 564.26 789.9 541.4 822.4 531.56C838.75 528.34 854.61 529.43 870.54 532.58C867.89 530.83 863.55 529.62 859.94 528.77C847.29 525.75 834.63 524.64 820.63 528.51C811.98 531.79 803.1 534.6 795.6 539.5C779.99 549.71 770.34 564.91 764.62 582.41C757.98 605.41 757.39 628.14 768.79 650.21C766.32 654.92 763.78 659.75 760.89 665.26C762.87 668.86 763.85 673.7 765.31 678.64C766.82 683.78 763.9 690.6 758.98 691.71C752.3 693.23 745.38 693.66 738.28 694.59C740.73 676 739.41 665.24 734.79 662.83C734.49 672.84 733.3 682.93 732.44 694.56C723.79 692.6 716.49 691.7 709.76 689.23C699.93 685.63 696.87 679.13 698.41 668.69C701.21 649.78 703.97 630.87 706.68 611.95C707.12 608.86 707.18 605.72 707.42 602.6C707.63 602.57 706.59 602.55 706.17 602.52C704.55 609.62 702.74 616.69 701.34 623.83C698.39 640.58 694.93 657.38 691.75 674.16M507.82 406.39C522.84 427.25 543.43 435.48 568.95 430.13C599.11 423.53 622.99 391.62 612.62 356.45C603.36 325.2 570.92 307.85 539.98 316.2C500.68 326.81 484.32 371.51 507.82 406.39M753.38 315.81C717.5 324.78 698.78 362.46 713.69 396.98C722.73 417.92 746.44 434.13 774.71 431.23C806.75 427.95 831.96 396.37 826.46 364.3C820.62 330.62 788.6 309.41 753.38 315.81M816.53 164C804.32 175.36 792.1 186.72 779.44 198.86C808.27 208.61 827.59 229.41 847.62 250.26C857.74 211.3 856.25 173.34 848.18 135.4C837.6 144.71 827.32 154.11 816.53 164M539.53 193.92C535.42 189.83 531.38 185.68 527.2 181.67C511.5 166.57 495.75 151.52 480.42 136.47C479.1 135.61 478.51 134.9 476.52 133.69C469.52 172.45 466.63 210.47 475.86 249.77C496.6 228.9 516.21 208.57 543.91 198.52C542.29 196.81 541.16 195.61 539.53 193.92M647.14 436.89C634.87 442.62 627.43 441.11 620.33 433.84C618.85 432.67 616.59 432.59 614.83 432.63C615.28 434.11 615.94 436.58 616.29 437.93C623.4 445.93 635.91 448.53 645.95 444.54C650.31 441.72 655.13 438.25 658.88 435.94C665.4 439.28 671.41 443.18 677.98 445.51C686.41 448.51 697.79 444.25 701.87 437.34C702.62 436.77 701.82 433.9 701.73 432.14C700.2 432.59 698.5 432.79 697.17 433.58C695.79 434.41 694.87 435.99 693.54 436.95C687.28 441.65 677.36 441.36 670.11 436.35C663.73 431.94 661.54 424.58 663.15 416.59C663.41 415.6 664.7 414.59 665.74 414.14C673.71 410.7 678.87 404.7 681.97 396.77C684.77 391.38 682.52 387.11 676.99 385.87C665.68 383.35 654.17 383.45 642.86 386.39C638.17 387.11 636.78 390.72 638.4 395.41C641.56 403.11 645.72 409.32 653.21 412.75C656.4 414.21 656.85 416.14 657.11 419.24C657.79 427.2 654.45 432.68 647.14 436.89M841.28 463.79C842.54 462.48 843.79 461.18 845.48 459.87C844.74 459.5 844.42 459.13 844.11 458.77C821.56 475.35 796.56 487.12 770.63 497.99C796.35 491.18 820.19 481.25 841.28 463.79M744.8 286.79C749.89 283.34 751.48 278.55 747.82 275.52C746.16 274.14 742.51 273.31 740.89 274.22C738.97 275.31 737.25 278.54 737.25 280.85C737.24 284.65 740.13 286.54 744.8 286.79M579.98 286.19C586.34 285.86 589.93 281.64 587.15 277.26C585.95 275.38 582.94 273.41 580.95 273.6C578.98 273.78 576.41 276.3 575.61 278.37C574.38 281.55 575.91 284.5 579.98 286.19z"/><path fill="#8E370B" opacity="1.000000" stroke="none" d="M822.11 531.55C789.9 541.4 773.39 564.26 766.98 596.24C763.5 614.6 765.57 631.31 773.19 645.58C791.75 630.54 812.36 631.57 833.51 638.5C835.62 639.19 837.3 641.19 839.18 642.58C838.97 642.97 838.76 643.35 838.55 643.73C831.83 642.31 825.18 640.42 818.39 639.57C805.28 637.95 792.5 638.62 781.96 646.71C766.54 657.48 764.66 670.31 774.17 685.81C775.27 686.69 776.11 688.48 778 690.55C772.99 692.79 769.22 695.56 764.68 696.41C746.81 699.9 728.84 701.19 711.26 695.84C700.45 692.76 693.23 686.53 691.82 674.55C694.93 657.38 698.39 640.58 701.34 623.83C702.74 616.69 704.55 609.62 706.17 602.52C706.59 602.55 707.63 602.57 707.42 602.6C707.18 605.72 707.12 608.86 706.68 611.95C703.97 630.87 701.21 649.78 698.41 668.69C696.87 679.13 699.93 685.63 709.76 689.23C716.49 691.7 723.79 692.6 732.44 694.56C733.3 682.93 734.49 672.84 734.79 662.83C739.41 665.24 740.73 676 738.28 694.59C745.38 693.66 752.3 693.23 758.98 691.71C763.9 690.6 766.82 683.78 765.31 678.64C763.85 673.7 762.87 668.86 760.89 665.26C763.78 659.75 766.32 654.92 768.79 650.21C757.39 628.14 757.98 605.41 764.62 582.41C770.34 564.91 779.99 549.71 795.6 539.5C803.1 534.6 811.98 531.79 820.75 528.34C821.52 529.61 821.77 530.58 822.11 531.55z"/><path fill="#8B350E" opacity="1.000000" stroke="none" d="M518.92 532.43C521.3 541.26 523.86 550.49 525.88 559.83C532.81 588.59 538.72 617.4 544.16 646.19C544.32 646.98 544.64 647.75 544.87 648.5C549.41 647.43 553.64 646.4 557.87 645.36C557.28 646.38 557.48 646.71 557.67 647.39C556.27 647.99 554.9 648.68 553.46 649.18C546.69 651.53 541.63 656.18 538.51 662.51C530.28 674.56 538.3 689.5 553.67 690.92C549.9 682.2 550.15 673.75 555.26 665.85C556.24 664.34 558.35 663.58 560.22 662.89C548.17 687.3 562.2 694.45 580.34 693.7C580.33 684.14 577.61 674.2 582.72 665.24C583.31 665.26 583.9 665.28 584.5 665.3C584.58 666.9 584.59 668.51 584.75 670.11C585.43 676.81 585.96 683.53 587.34 690.17C587.23 691.36 589.92 693.23 591.13 693.12C599.25 691.53 607.49 690.2 615.28 687.58C622.32 685.3 624.45 677.94 622.7 667.29C618.96 646.34 615.18 625.4 611.56 604.44C610.85 600.32 610.76 596.1 611.56 591.76C615.68 608.46 619.99 625.12 623.86 641.88C626.26 652.23 627.99 662.74 630.85 673.61C628.67 687.24 620.57 693.58 608.16 696.26C593.48 699.42 578.93 700.27 564.15 697.97C559.41 695.99 553.48 696.45 548.45 695.51C530.75 690.14 524.8 670.64 536.69 656.67C539.26 653.66 539.86 651.27 539.14 647.26C533.5 617.71 527.96 588.13 522.57 558.53C521.29 550.32 520.77 541.43 518.92 532.43z"/><path fill="#DE641E" opacity="1.000000" stroke="none" d="M628.7 176.19C629.72 181.32 630.6 186.38 630.87 191.47C631.42 202.64 631.69 212.68 631.97 223.29C632.15 225.7 631.99 227.15 631.15 228.6C629.76 230.96 628.34 234.13 625.81 234.78C621.85 235.93 617.48 234.37 615.78 230.25C612.81 223.76 610.29 215.69 608.12 208.24C605.58 199.52 603.6 190.63 601.21 181.49C608.68 179.74 616.32 178.33 623.96 176.91C625.4 176.65 626.83 176.38 628.7 176.19z"/><path fill="#DE641C" opacity="1.000000" stroke="none" d="M674.48 174.34C674.7 187.71 673.17 200.93 672.15 214.14C671.58 221.56 670.72 228.97 669.99 236.38C669.58 240.5 667.52 243.73 663.31 243.76C659.4 243.78 657.26 240.82 656.91 236.83C655.96 226.11 654.84 215.41 654.73 204.68C653.48 196.41 653.27 188.1 652.99 179.81C652.94 178.2 653.34 176.57 653.73 174.59C660.63 174.23 667.33 174.21 674.48 174.34z"/><path fill="#DE641E" opacity="1.000000" stroke="none" d="M726.58 181.27C723.59 192.52 720.42 203.85 716.9 215.6C715.47 219.6 713.91 224.35 711.21 228.16C709.32 230.83 705.59 232.49 702.36 233.84C699.53 235.22 696.74 233.5 696.35 230.4C695.8 226.55 695.65 221.57 696.82 217.22C697.27 205.37 698.79 193.56 700.34 181.76C700.55 180.13 701.67 178.62 702.75 176.92C710.84 178.13 718.55 179.47 726.58 181.27z"/><path fill="#DE641E" opacity="1.000000" stroke="none" d="M890.85 376.56C883.65 377.74 876.6 378.88 869.52 379.2C863.47 379.48 857.29 379.35 851.36 378.31C848.8 377.87 845.48 375.16 844.81 372.62C844.26 370.62 846.44 366.66 848.53 365.35C854.82 361.41 861.48 357.94 868.32 355.37C875.44 352.12 882.94 349.87 890.63 347.17C890.98 356.72 890.99 366.44 890.85 376.56z"/><path fill="#DC631D" opacity="1.000000" stroke="none" d="M436.11 348.42C449.63 350.73 461.67 355.93 473.35 362.64C476.75 364.59 479.94 366.99 478.92 371.64C478.42 375.8 474.43 376.95 470.92 377.12C459.9 377.65 448.87 377.82 437.42 378.1C436.64 368.34 436.27 358.62 436.11 348.42z"/><path fill="#DB621C" opacity="1.000000" stroke="none" d="M868.42 434.21C866.91 433.37 865.8 432.15 864.45 431.36C857.5 427.7 849.38 423.72 842.27 418.29C840.17 416.87 838.1 412.55 838.73 410.63C839.74 407.91 843.33 404.44 845.94 404.33C858.49 403.82 871.88 404.34 883.98 404.8C881.16 415.78 875.57 425.28 868.42 434.21z"/><path fill="#DC631D" opacity="1.000000" stroke="none" d="M442.73 403.45C452.99 402.73 461.52 402.48 470.93 402.47C479.49 401.66 486.75 407.19 484.64 413.43C483.35 417.35 478.83 420.64 475.78 423.22C469.79 426.85 463.87 429.57 458.68 433.92C450.31 424.82 446.57 414.32 442.73 403.45z"/><path fill="#DB621C" opacity="1.000000" stroke="none" d="M893.95 483.67C890.38 486.49 886.84 489.19 883.34 491.44C876.2 495.47 869.26 499.33 862.25 503.36C858.62 504.95 855.37 503.82 853.2 500.41C851.12 496.96 851.68 493.59 854.59 490.93C862.56 483.66 870.66 476.53 878.87 469.34C883.97 473.6 888.92 478.46 893.95 483.67z"/><path fill="#D9601C" opacity="1.000000" stroke="none" d="M926.44 528.6C919.62 532.85 912.74 536.81 905.76 540.57C904.22 541.41 902.33 541.79 900.56 541.99C897.2 542.38 893.2 542.54 891.5 538.6C889.81 534.69 890.93 530.93 894.26 528.31C901.27 522.79 908.47 517.49 915.91 511.91C919.6 517.23 922.97 522.73 926.44 528.6z"/><path fill="#83330C" opacity="1.000000" stroke="none" d="M485.77 463.32C487.14 463.55 488.83 463.83 490.1 464.71C508.95 477.82 530.17 486.42 551.17 494.8C552.46 495.31 553.71 495.9 554.73 497.48C553.95 497.43 553.12 497.56 552.42 497.3C540.77 492.93 529.14 488.5 517.49 484.12C515.95 483.53 514.36 483.91 512.49 482.72C509.64 481.84 507.47 479.38 504.55 477.55C498.31 472.95 492.11 468.28 485.77 463.32z"/><path fill="#FCFDFC" opacity="1.000000" stroke="none" d="M506.88 406.91C484.32 371.51 500.68 326.81 539.98 316.2C570.92 307.85 603.36 325.2 612.62 356.45C622.99 391.62 599.11 423.53 568.95 430.13C543.43 435.48 522.84 427.25 506.88 406.91M547 374.39C549.62 382.85 555.7 387.22 563.75 386.6C570.52 385.89 576.73 378.86 576.27 372.23C576.51 363.63 569.88 356.41 561.72 356.19C553.43 355.98 546.84 363.54 547 374.39z"/><path fill="#FDFDFC" opacity="1.000000" stroke="none" d="M753.79 315.7C788.6 309.41 820.62 330.62 826.46 364.3C831.96 396.37 806.75 427.95 774.71 431.23C746.44 434.13 722.73 417.92 713.69 396.98C698.78 362.46 717.5 324.78 753.79 315.7M755.9 385.71C766.26 387.38 774.3 381.7 774.96 372.66C775.52 364.97 770.45 358.18 763.13 356.63C755.99 355.16 748.68 359.6 746.33 366.78C743.81 374.45 747.25 381.66 755.9 385.71z"/><path fill="#E0661E" opacity="1.000000" stroke="none" d="M816.79 163.75C827.32 154.11 837.6 144.71 848.18 135.4C856.25 173.34 857.74 211.3 847.62 250.26C827.59 229.41 808.27 208.61 779.44 198.86C792.1 186.72 804.32 175.36 816.79 163.75z"/><path fill="#E0661E" opacity="1.000000" stroke="none" d="M539.78 194.17C541.16 195.61 542.29 196.81 543.91 198.52C516.21 208.57 496.6 228.9 475.86 249.77C466.63 210.47 469.52 172.45 476.52 133.69C478.51 134.9 479.1 135.61 480.42 136.47C495.75 151.52 511.5 166.57 527.2 181.67C531.38 185.68 535.42 189.83 539.78 194.17z"/><path fill="#26190F" opacity="1.000000" stroke="none" d="M647.47 436.71C654.45 432.68 657.79 427.2 657.11 419.24C656.85 416.14 656.4 414.21 653.21 412.75C645.72 409.32 641.56 403.11 638.4 395.41C636.78 390.72 638.17 387.11 642.86 386.39C654.17 383.45 665.68 383.35 676.99 385.87C682.52 387.11 684.77 391.38 681.97 396.77C678.87 404.7 673.71 410.7 665.74 414.14C664.7 414.59 663.41 415.6 663.15 416.59C661.54 424.58 663.73 431.94 670.11 436.35C677.36 441.36 687.28 441.65 693.54 436.95C694.87 435.99 695.79 434.41 697.17 433.58C698.5 432.79 700.2 432.59 701.73 432.14C701.82 433.9 702.62 436.77 701.87 437.34C697.79 444.25 686.41 448.51 677.98 445.51C671.41 443.18 665.4 439.28 658.88 435.94C655.13 438.25 650.31 441.72 645.95 444.54C635.91 448.53 623.4 445.93 616.29 437.93C615.94 436.58 615.28 434.11 614.83 432.63C616.59 432.59 618.85 432.67 620.33 433.84C627.43 441.11 634.87 442.62 647.47 436.71z"/><path fill="#8E370B" opacity="1.000000" stroke="none" d="M841.81 464.18C820.19 481.25 796.35 491.18 770.63 497.99C796.56 487.12 821.56 475.35 844.11 458.77C844.42 459.13 844.74 459.5 845.48 459.87C843.79 461.18 842.54 462.48 841.81 464.18z"/><path fill="#83330C" opacity="1.000000" stroke="none" d="M822.4 531.56C821.77 530.58 821.52 529.61 821.15 528.35C834.63 524.64 847.29 525.75 859.94 528.77C863.55 529.62 867.89 530.83 870.54 532.58C854.61 529.43 838.75 528.34 822.4 531.56z"/><path fill="#341D0E" opacity="1.000000" stroke="none" d="M744.44 286.15C740.13 286.54 737.24 284.65 737.25 280.85C737.25 278.54 738.97 275.31 740.89 274.22C742.51 273.31 746.16 274.14 747.82 275.52C751.48 278.55 749.89 283.34 744.44 286.15z"/><path fill="#341D0E" opacity="1.000000" stroke="none" d="M579.63 286.11C575.91 284.5 574.38 281.55 575.61 278.37C576.41 276.3 578.98 273.78 580.95 273.6C582.94 273.41 585.95 275.38 587.15 277.26C589.93 281.64 586.34 285.86 579.63 286.11z"/><path fill="#1C1918" opacity="1.000000" stroke="none" d="M546.96 373.62C546.84 363.54 553.43 355.98 561.72 356.19C569.88 356.41 576.51 363.63 576.27 372.23C576.73 378.86 570.52 385.89 563.75 386.6C555.7 387.22 549.62 382.85 546.96 373.62z"/><path fill="#1D1B19" opacity="1.000000" stroke="none" d="M755.56 385.56C747.25 381.66 743.81 374.45 746.33 366.78C748.68 359.6 755.99 355.16 763.13 356.63C770.45 358.18 775.52 364.97 774.96 372.66C774.3 381.7 766.26 387.38 755.56 385.56z"/></svg>